<svg viewBox="0 0 480 480" fill="none" xmlns="http://www.w3.org/2000/svg">
<path d="M143.76 134V211.46H163V225.01H143.76V253.12H128.2V225.01H74V210.46L131.88 134.01H143.76V134ZM89.89 211.46H128.2V161.44H127.86L89.88 211.46H89.89ZM386.92 134V211.46H406.16V225.01H386.92V253.12H371.36V225.01H317.16V210.46L375.04 134.01H386.92V134ZM333.05 211.46H371.36V161.44H371.02L333.04 211.46H333.05Z" fill="#7D8395"/>
<path d="M245.237 141.957H209.117C203.417 141.957 198.797 146.577 198.797 152.277V234.837C198.797 240.537 203.417 245.157 209.117 245.157H271.037C276.737 245.157 281.357 240.537 281.357 234.837V178.077L245.237 141.957Z" stroke="#7D8395" stroke-width="5.21" stroke-linecap="round" stroke-linejoin="round"/>
<path d="M245.238 141.957V178.077H281.358" stroke="#7D8395" stroke-width="5.21" stroke-linecap="round" stroke-linejoin="round"/>
<path d="M229.509 192.738L216.969 205.278" stroke="#7D8395" stroke-width="5.21" stroke-linecap="round" stroke-linejoin="round"/>
<path d="M216.969 192.738L229.509 205.278" stroke="#7D8395" stroke-width="5.21" stroke-linecap="round" stroke-linejoin="round"/>
<path d="M263.188 192.738L250.648 205.278" stroke="#7D8395" stroke-width="5.21" stroke-linecap="round" stroke-linejoin="round"/>
<path d="M250.648 192.738L263.188 205.278" stroke="#7D8395" stroke-width="5.21" stroke-linecap="round" stroke-linejoin="round"/>
<path d="M222.238 223.217C233.798 218.167 245.358 218.167 256.918 223.217" stroke="#7D8395" stroke-width="5.21" stroke-linecap="round" stroke-linejoin="round"/>
<path d="M349.64 337.27L339.9 344.93L300 294.15C303.73 292.17 307.01 289.57 309.73 286.5L349.64 337.28V337.27Z" fill="#7D8395"/>
<path d="M328.358 303.467L348.178 328.687C351.708 333.187 350.928 339.687 346.428 343.227C341.938 346.757 335.428 345.987 331.898 341.487L312.078 316.267C311.728 315.827 311.808 315.187 312.248 314.837L326.928 303.297C327.368 302.947 328.008 303.027 328.358 303.467Z" fill="#7D8395"/>
<path d="M328.358 303.467L333.808 310.407L317.528 323.207L312.078 316.267C311.728 315.827 311.808 315.187 312.248 314.837L326.928 303.297C327.368 302.947 328.008 303.027 328.358 303.467Z" fill="#5B5B5B"/>
<path d="M317.929 236.399C303.079 217.499 275.619 214.209 256.719 229.069C237.819 243.919 234.529 271.379 249.389 290.279C264.249 309.179 291.699 312.479 310.609 297.619C329.509 282.759 332.799 255.299 317.939 236.399H317.929ZM292.189 297.139C273.529 301.849 254.579 290.539 249.869 271.879C245.159 253.219 256.469 234.269 275.129 229.559C293.789 224.849 312.739 236.159 317.449 254.819C322.159 273.479 310.849 292.429 292.189 297.139Z" fill="#7D8395"/>
</svg>
