<svg viewBox="0 0 263 294" fill="none" xmlns="http://www.w3.org/2000/svg">
<g clip-path="url(#clip0_11358_64147)">
<path d="M59.9952 160.168H32.2935V187.865H59.9952V160.168Z" fill="currentColor"/>
<path d="M198.564 160.168H170.862V187.865H198.564V160.168Z" fill="currentColor"/>
<path d="M226.266 160.168H198.564V187.865H226.266V160.168Z" fill="currentColor"/>
<path d="M226.296 96.8622H161.83V32.3779L226.296 96.8622Z" fill="#F5F5F5"/>
<path d="M161.83 32.3779H32.2935V160.169H226.296V96.8622L161.83 32.3779Z" fill="#F5F5F5"/>
<path fill-rule="evenodd" clip-rule="evenodd" d="M130.425 32.378C130.425 31.9851 130.744 31.6665 131.138 31.6665H161.83C162.223 31.6665 162.542 31.9851 162.542 32.378C162.542 32.771 162.223 33.0895 161.83 33.0895H131.138C130.744 33.0895 130.425 32.771 130.425 32.378Z" fill="#171717"/>
<path fill-rule="evenodd" clip-rule="evenodd" d="M96.8025 32.378C96.8025 31.9851 97.1214 31.6665 97.5148 31.6665H121.712C122.106 31.6665 122.425 31.9851 122.425 32.378C122.425 32.771 122.106 33.0895 121.712 33.0895H97.5148C97.1214 33.0895 96.8025 32.771 96.8025 32.378Z" fill="#171717"/>
<path fill-rule="evenodd" clip-rule="evenodd" d="M31.5811 32.378C31.5811 31.9851 31.9 31.6665 32.2935 31.6665H77.4862C77.8796 31.6665 78.1986 31.9851 78.1986 32.378C78.1986 32.771 77.8796 33.0895 77.4862 33.0895H33.0058V109.729C33.0058 110.122 32.6869 110.44 32.2935 110.44C31.9 110.44 31.5811 110.122 31.5811 109.729V32.378Z" fill="#171717"/>
<path fill-rule="evenodd" clip-rule="evenodd" d="M32.2935 123.847C32.6869 123.847 33.0058 124.166 33.0058 124.559V134.133C33.0058 134.526 32.6869 134.845 32.2935 134.845C31.9 134.845 31.5811 134.526 31.5811 134.133V124.559C31.5811 124.166 31.9 123.847 32.2935 123.847Z" fill="#171717"/>
<path fill-rule="evenodd" clip-rule="evenodd" d="M32.2935 140.218C32.6869 140.218 33.0058 140.536 33.0058 140.929V160.169C33.0058 160.562 32.6869 160.88 32.2935 160.88C31.9 160.88 31.5811 160.562 31.5811 160.169V140.929C31.5811 140.536 31.9 140.218 32.2935 140.218Z" fill="#171717"/>
<path fill-rule="evenodd" clip-rule="evenodd" d="M226.296 127.804C226.689 127.804 227.008 128.123 227.008 128.516V160.169C227.008 160.562 226.689 160.88 226.296 160.88C225.903 160.88 225.584 160.562 225.584 160.169V128.516C225.584 128.123 225.903 127.804 226.296 127.804Z" fill="#171717"/>
<path d="M226.296 96.8622H161.83V32.3779L226.296 96.8622Z" fill="#171717"/>
<path fill-rule="evenodd" clip-rule="evenodd" d="M161.612 31.8519C161.825 31.7638 162.07 31.8127 162.233 31.9756L226.699 96.4599C226.862 96.6228 226.911 96.8675 226.822 97.0801C226.734 97.2927 226.526 97.4313 226.296 97.4313H161.83C161.515 97.4313 161.26 97.1765 161.26 96.8621V32.3778C161.26 32.1475 161.399 31.9399 161.612 31.8519ZM162.4 33.7534V96.2929H224.922L162.4 33.7534Z" fill="#171717"/>
<path fill-rule="evenodd" clip-rule="evenodd" d="M161.327 31.8745C161.605 31.5969 162.056 31.5972 162.334 31.8753L226.8 96.3596C227.078 96.6376 227.078 97.0881 226.799 97.3658C226.521 97.6435 226.07 97.6431 225.792 97.3651L161.326 32.8808C161.048 32.6027 161.048 32.1522 161.327 31.8745Z" fill="#171717"/>
<path fill-rule="evenodd" clip-rule="evenodd" d="M225.584 160.169C225.584 159.776 225.903 159.457 226.296 159.457H257.834C258.228 159.457 258.547 159.776 258.547 160.169C258.547 160.562 258.228 160.88 257.834 160.88H226.296C225.903 160.88 225.584 160.562 225.584 160.169Z" fill="#171717"/>
<path fill-rule="evenodd" clip-rule="evenodd" d="M197.852 160.169C197.852 159.776 198.171 159.457 198.564 159.457H216.206C216.6 159.457 216.919 159.776 216.919 160.169C216.919 160.562 216.6 160.88 216.206 160.88H198.564C198.171 160.88 197.852 160.562 197.852 160.169Z" fill="#171717"/>
<path fill-rule="evenodd" clip-rule="evenodd" d="M41.7314 160.169C41.7314 159.776 42.0503 159.457 42.4437 159.457H190.831C191.224 159.457 191.543 159.776 191.543 160.169C191.543 160.562 191.224 160.88 190.831 160.88H42.4437C42.0503 160.88 41.7314 160.562 41.7314 160.169Z" fill="#171717"/>
<path fill-rule="evenodd" clip-rule="evenodd" d="M0.0428467 160.169C0.0428467 159.776 0.361777 159.457 0.755198 159.457H32.2934C32.6869 159.457 33.0058 159.776 33.0058 160.169C33.0058 160.562 32.6869 160.88 32.2934 160.88H0.755198C0.361777 160.88 0.0428467 160.562 0.0428467 160.169Z" fill="#171717"/>
<path d="M87.6969 160.168H59.9952V187.865H87.6969V160.168Z" fill="white"/>
<path d="M115.429 187.896H87.7271V215.592H115.429V187.896Z" fill="currentColor"/>
<path d="M198.564 187.896H170.862V215.592H198.564V187.896Z" fill="currentColor"/>
<path d="M87.6969 215.592H59.9952V243.288H87.6969V215.592Z" fill="currentColor"/>
<path d="M143.13 215.592H115.429V243.288H143.13V215.592Z" fill="currentColor"/>
<path d="M170.862 215.592H156.996V229.455H170.862V215.592Z" fill="currentColor"/>
<path d="M226.266 215.592H198.564V243.288H226.266V215.592Z" fill="currentColor"/>
<path d="M55.4034 247.91H36.8853V266.424H55.4034V247.91Z" fill="currentColor"/>
<path d="M143.161 252.561H124.643V271.076H143.161V252.561Z" fill="currentColor"/>
<path d="M198.564 252.561H170.862V280.258H198.564V252.561Z" fill="currentColor"/>
<path fill-rule="evenodd" clip-rule="evenodd" d="M32.2935 159.457C32.6869 159.457 33.0058 159.776 33.0058 160.169V187.895C33.0058 188.288 32.6869 188.607 32.2935 188.607C31.9 188.607 31.5811 188.288 31.5811 187.895V160.169C31.5811 159.776 31.9 159.457 32.2935 159.457Z" fill="#171717"/>
<path fill-rule="evenodd" clip-rule="evenodd" d="M59.9952 167.189C60.3886 167.189 60.7075 167.508 60.7075 167.901V187.896C60.7075 188.289 60.3886 188.607 59.9952 188.607H42.4437C42.0503 188.607 41.7314 188.289 41.7314 187.896C41.7314 187.503 42.0503 187.184 42.4437 187.184H59.2828V167.901C59.2828 167.508 59.6018 167.189 59.9952 167.189Z" fill="#171717"/>
<path fill-rule="evenodd" clip-rule="evenodd" d="M72.2727 187.896C72.2727 187.503 72.5916 187.184 72.9851 187.184H87.7271C88.1205 187.184 88.4394 187.503 88.4394 187.896C88.4394 188.289 88.1205 188.607 87.7271 188.607H72.9851C72.5916 188.607 72.2727 188.289 72.2727 187.896Z" fill="#171717"/>
<path fill-rule="evenodd" clip-rule="evenodd" d="M59.2828 160.169C59.2828 159.776 59.6018 159.457 59.9952 159.457H87.7271C88.1205 159.457 88.4394 159.776 88.4394 160.169C88.4394 160.562 88.1205 160.88 87.7271 160.88H59.9952C59.6018 160.88 59.2828 160.562 59.2828 160.169Z" fill="#171717"/>
<path fill-rule="evenodd" clip-rule="evenodd" d="M87.0147 160.169C87.0147 159.776 87.3336 159.457 87.7271 159.457H115.429C115.822 159.457 116.141 159.776 116.141 160.169V187.895C116.141 188.288 115.822 188.607 115.429 188.607H87.7271C87.3336 188.607 87.0147 188.288 87.0147 187.895C87.0147 187.502 87.3336 187.184 87.7271 187.184H114.716V160.88H87.7271C87.3336 160.88 87.0147 160.562 87.0147 160.169Z" fill="#171717"/>
<path fill-rule="evenodd" clip-rule="evenodd" d="M114.716 160.169C114.716 159.776 115.035 159.457 115.429 159.457H143.13C143.524 159.457 143.843 159.776 143.843 160.169V187.865C143.843 188.258 143.524 188.577 143.13 188.577H115.429C115.035 188.577 114.716 188.258 114.716 187.865V160.169ZM116.141 160.88V187.154H142.418V160.88H116.141Z" fill="#171717"/>
<path fill-rule="evenodd" clip-rule="evenodd" d="M142.448 160.169C142.448 159.776 142.767 159.457 143.161 159.457H170.862C171.256 159.457 171.575 159.776 171.575 160.169V187.865C171.575 188.258 171.256 188.577 170.862 188.577H143.161C142.767 188.577 142.448 188.258 142.448 187.865V160.169ZM143.873 160.88V187.154H170.15V160.88H143.873Z" fill="#171717"/>
<path fill-rule="evenodd" clip-rule="evenodd" d="M198.564 159.457C198.958 159.457 199.276 159.776 199.276 160.169V180.918C199.276 181.311 198.958 181.63 198.564 181.63C198.171 181.63 197.852 181.311 197.852 180.918V160.169C197.852 159.776 198.171 159.457 198.564 159.457Z" fill="#171717"/>
<path fill-rule="evenodd" clip-rule="evenodd" d="M226.296 159.457C226.689 159.457 227.008 159.776 227.008 160.169V187.895C227.008 188.288 226.689 188.607 226.296 188.607H198.564C198.171 188.607 197.852 188.288 197.852 187.895C197.852 187.502 198.171 187.184 198.564 187.184H225.584V160.169C225.584 159.776 225.903 159.457 226.296 159.457Z" fill="#171717"/>
<path fill-rule="evenodd" clip-rule="evenodd" d="M41.7314 198.044C41.7314 197.651 42.0503 197.332 42.4437 197.332H59.9952C60.3886 197.332 60.7075 197.651 60.7075 198.044V215.592C60.7075 215.985 60.3886 216.303 59.9952 216.303H42.4437C42.0503 216.303 41.7314 215.985 41.7314 215.592V206.833C41.7314 206.44 42.0503 206.121 42.4437 206.121C42.8372 206.121 43.1561 206.44 43.1561 206.833V214.88H59.2828V198.755H42.4437C42.0503 198.755 41.7314 198.437 41.7314 198.044Z" fill="#171717"/>
<path fill-rule="evenodd" clip-rule="evenodd" d="M87.0147 187.896C87.0147 187.503 87.3336 187.184 87.7271 187.184H115.429C115.822 187.184 116.141 187.503 116.141 187.896V215.592C116.141 215.985 115.822 216.304 115.429 216.304H97.5148C97.1214 216.304 96.8024 215.985 96.8024 215.592C96.8024 215.199 97.1214 214.881 97.5148 214.881H114.716V188.607H88.4394V215.592C88.4394 215.985 88.1205 216.304 87.7271 216.304C87.3336 216.304 87.0147 215.985 87.0147 215.592V187.896Z" fill="#171717"/>
<path fill-rule="evenodd" clip-rule="evenodd" d="M114.716 187.896C114.716 187.503 115.035 187.184 115.429 187.184H143.13C143.524 187.184 143.843 187.503 143.843 187.896V215.592C143.843 215.985 143.524 216.304 143.13 216.304H115.429C115.035 216.304 114.716 215.985 114.716 215.592V187.896ZM116.141 188.607V214.881H142.418V188.607H116.141Z" fill="#171717"/>
<path fill-rule="evenodd" clip-rule="evenodd" d="M170.15 187.896C170.15 187.503 170.469 187.184 170.862 187.184H198.564C198.957 187.184 199.276 187.503 199.276 187.896V215.592C199.276 215.985 198.957 216.304 198.564 216.304C198.171 216.304 197.852 215.985 197.852 215.592V188.607H171.575V214.881H189.32C189.714 214.881 190.032 215.199 190.032 215.592C190.032 215.985 189.714 216.304 189.32 216.304H170.862C170.469 216.304 170.15 215.985 170.15 215.592V187.896Z" fill="#171717"/>
<path fill-rule="evenodd" clip-rule="evenodd" d="M197.852 187.896C197.852 187.503 198.171 187.184 198.564 187.184H226.296C226.689 187.184 227.008 187.503 227.008 187.896C227.008 188.289 226.689 188.607 226.296 188.607H199.276V214.881H225.584V198.044C225.584 197.651 225.903 197.332 226.296 197.332C226.689 197.332 227.008 197.651 227.008 198.044V215.592C227.008 215.985 226.689 216.304 226.296 216.304H198.564C198.171 216.304 197.852 215.985 197.852 215.592V187.896Z" fill="#171717"/>
<path fill-rule="evenodd" clip-rule="evenodd" d="M72.2727 215.592C72.2727 215.199 72.5917 214.88 72.9851 214.88H87.7271C88.1205 214.88 88.4395 215.199 88.4395 215.592V243.319C88.4395 243.712 88.1205 244.03 87.7271 244.03H70.5079C70.1145 244.03 69.7956 243.712 69.7956 243.319C69.7956 242.926 70.1145 242.607 70.5079 242.607H87.0148V216.303H72.9851C72.5917 216.303 72.2727 215.985 72.2727 215.592Z" fill="#171717"/>
<path fill-rule="evenodd" clip-rule="evenodd" d="M59.9952 214.88C60.3886 214.88 60.7075 215.199 60.7075 215.592V243.319C60.7075 243.712 60.3886 244.03 59.9952 244.03C59.6018 244.03 59.2828 243.712 59.2828 243.319V215.592C59.2828 215.199 59.6018 214.88 59.9952 214.88Z" fill="#171717"/>
<path fill-rule="evenodd" clip-rule="evenodd" d="M114.716 215.592C114.716 215.199 115.035 214.88 115.429 214.88H143.161C143.554 214.88 143.873 215.199 143.873 215.592V233.17C143.873 233.563 143.554 233.882 143.161 233.882C142.767 233.882 142.448 233.563 142.448 233.17V216.303H115.429C115.035 216.303 114.716 215.985 114.716 215.592Z" fill="#171717"/>
<path fill-rule="evenodd" clip-rule="evenodd" d="M115.429 228.744C115.822 228.744 116.141 229.062 116.141 229.455V242.607H143.161C143.554 242.607 143.873 242.926 143.873 243.319C143.873 243.711 143.554 244.03 143.161 244.03H115.429C115.035 244.03 114.716 243.711 114.716 243.319V229.455C114.716 229.062 115.035 228.744 115.429 228.744Z" fill="#171717"/>
<path fill-rule="evenodd" clip-rule="evenodd" d="M156.284 215.592C156.284 215.199 156.603 214.88 156.996 214.88H170.862C171.256 214.88 171.575 215.199 171.575 215.592V229.455C171.575 229.848 171.256 230.167 170.862 230.167C170.469 230.167 170.15 229.848 170.15 229.455V216.303H157.709V222.539C157.709 222.932 157.39 223.25 156.996 223.25C156.603 223.25 156.284 222.932 156.284 222.539V215.592Z" fill="#171717"/>
<path fill-rule="evenodd" clip-rule="evenodd" d="M197.852 215.592C197.852 215.199 198.171 214.88 198.564 214.88H226.296C226.689 214.88 227.008 215.199 227.008 215.592V230.754C227.008 231.147 226.689 231.466 226.296 231.466C225.903 231.466 225.584 231.147 225.584 230.754V216.303H199.276V243.319C199.276 243.712 198.958 244.03 198.564 244.03C198.171 244.03 197.852 243.712 197.852 243.319V215.592Z" fill="#171717"/>
<path fill-rule="evenodd" clip-rule="evenodd" d="M208.546 243.318C208.546 242.925 208.865 242.607 209.258 242.607H226.296C226.689 242.607 227.008 242.925 227.008 243.318C227.008 243.711 226.689 244.03 226.296 244.03H209.258C208.865 244.03 208.546 243.711 208.546 243.318Z" fill="#171717"/>
<path fill-rule="evenodd" clip-rule="evenodd" d="M36.1729 247.91C36.1729 247.517 36.4918 247.198 36.8853 247.198H55.4034C55.7968 247.198 56.1158 247.517 56.1158 247.91V257.182C56.1158 257.575 55.7968 257.894 55.4034 257.894C55.01 257.894 54.6911 257.575 54.6911 257.182V248.621H36.8853C36.4918 248.621 36.1729 248.303 36.1729 247.91Z" fill="#171717"/>
<path fill-rule="evenodd" clip-rule="evenodd" d="M36.8853 254.205C37.2787 254.205 37.5976 254.524 37.5976 254.917V265.713H55.4034C55.7968 265.713 56.1158 266.031 56.1158 266.424C56.1158 266.817 55.7968 267.136 55.4034 267.136H36.8853C36.4918 267.136 36.1729 266.817 36.1729 266.424V254.917C36.1729 254.524 36.4918 254.205 36.8853 254.205Z" fill="#171717"/>
<path fill-rule="evenodd" clip-rule="evenodd" d="M87.0147 243.318C87.0147 242.925 87.3336 242.607 87.7271 242.607H101.563C101.956 242.607 102.275 242.925 102.275 243.318V257.182C102.275 257.575 101.956 257.893 101.563 257.893C101.169 257.893 100.85 257.575 100.85 257.182V244.03H88.4394V256.47H94.6449C95.0384 256.47 95.3573 256.789 95.3573 257.182C95.3573 257.575 95.0384 257.893 94.6449 257.893H87.7271C87.3336 257.893 87.0147 257.575 87.0147 257.182V243.318Z" fill="#171717"/>
<path fill-rule="evenodd" clip-rule="evenodd" d="M143.161 251.85C143.554 251.85 143.873 252.168 143.873 252.561V261.834C143.873 262.227 143.554 262.545 143.161 262.545C142.767 262.545 142.448 262.227 142.448 261.834V252.561C142.448 252.168 142.767 251.85 143.161 251.85Z" fill="#171717"/>
<path fill-rule="evenodd" clip-rule="evenodd" d="M131.211 252.561C131.211 252.168 131.53 251.85 131.923 251.85H143.161C143.554 251.85 143.873 252.168 143.873 252.561C143.873 252.954 143.554 253.273 143.161 253.273H131.923C131.53 253.273 131.211 252.954 131.211 252.561Z" fill="#171717"/>
<path fill-rule="evenodd" clip-rule="evenodd" d="M124.643 251.85C125.036 251.85 125.355 252.168 125.355 252.561V271.076C125.355 271.469 125.036 271.787 124.643 271.787C124.249 271.787 123.93 271.469 123.93 271.076V252.561C123.93 252.168 124.249 251.85 124.643 251.85Z" fill="#171717"/>
<path fill-rule="evenodd" clip-rule="evenodd" d="M170.15 252.561C170.15 252.168 170.469 251.85 170.862 251.85H182.07C182.463 251.85 182.782 252.168 182.782 252.561C182.782 252.954 182.463 253.273 182.07 253.273H171.575V279.576H189.32C189.714 279.576 190.032 279.895 190.032 280.288C190.032 280.681 189.714 280.999 189.32 280.999H170.862C170.469 280.999 170.15 280.681 170.15 280.288V252.561Z" fill="#171717"/>
<path fill-rule="evenodd" clip-rule="evenodd" d="M198.564 251.85C198.958 251.85 199.276 252.168 199.276 252.561V272.646C199.276 273.039 198.958 273.358 198.564 273.358C198.171 273.358 197.852 273.039 197.852 272.646V252.561C197.852 252.168 198.171 251.85 198.564 251.85Z" fill="#171717"/>
<path fill-rule="evenodd" clip-rule="evenodd" d="M157.19 280.288C157.19 279.895 157.509 279.576 157.903 279.576H170.862C171.256 279.576 171.575 279.895 171.575 280.288V293.245C171.575 293.638 171.256 293.956 170.862 293.956H157.903C157.509 293.956 157.19 293.638 157.19 293.245V286.751C157.19 286.358 157.509 286.04 157.903 286.04C158.296 286.04 158.615 286.358 158.615 286.751V292.533H170.15V280.999H157.903C157.509 280.999 157.19 280.681 157.19 280.288Z" fill="#171717"/>
<path d="M129.295 208.947C156.239 208.947 178.082 187.108 178.082 160.169C178.082 133.229 156.239 111.39 129.295 111.39C102.35 111.39 80.5071 133.229 80.5071 160.169C80.5071 187.108 102.35 208.947 129.295 208.947Z" fill="white"/>
<path fill-rule="evenodd" clip-rule="evenodd" d="M83.5232 143.128C83.8942 143.258 84.089 143.665 83.9581 144.035C82.1716 149.096 81.1892 154.513 81.1892 160.169C81.1892 162.998 81.4275 165.766 81.9033 168.441C81.9721 168.828 81.7138 169.197 81.3265 169.266C80.9391 169.335 80.5693 169.077 80.5005 168.69C80.0096 165.929 79.7645 163.078 79.7645 160.169C79.7645 154.347 80.776 148.77 82.6145 143.562C82.7453 143.191 83.1522 142.997 83.5232 143.128Z" fill="#171717"/>
<path fill-rule="evenodd" clip-rule="evenodd" d="M177.312 168.894C177.699 168.969 177.951 169.342 177.875 169.728C173.431 192.497 153.357 209.689 129.295 209.689C115.563 209.689 103.118 204.08 94.1393 195.041C93.8622 194.762 93.864 194.312 94.1432 194.035C94.4225 193.758 94.8735 193.76 95.1506 194.039C103.874 202.82 115.959 208.266 129.295 208.266C152.661 208.266 172.16 191.57 176.477 169.456C176.552 169.07 176.926 168.818 177.312 168.894Z" fill="#171717"/>
<path fill-rule="evenodd" clip-rule="evenodd" d="M128.582 111.39C128.582 110.997 128.901 110.679 129.295 110.679C139.348 110.679 148.697 113.682 156.513 118.83C156.841 119.047 156.932 119.488 156.715 119.816C156.498 120.144 156.057 120.235 155.728 120.018C148.137 115.018 139.059 112.102 129.295 112.102C128.901 112.102 128.582 111.783 128.582 111.39Z" fill="#171717"/>
<path fill-rule="evenodd" clip-rule="evenodd" d="M115.626 113.325C115.742 113.701 115.531 114.099 115.155 114.215C108.754 116.179 102.92 119.423 97.98 123.678C97.682 123.935 97.2322 123.901 96.9753 123.604C96.7184 123.306 96.7517 122.857 97.0496 122.6C102.139 118.217 108.147 114.877 114.736 112.854C115.112 112.739 115.511 112.95 115.626 113.325Z" fill="#171717"/>
<path d="M44.2864 91.5161C83.4072 65.4808 84.8874 25.4009 84.8874 25.4009C69.7829 20.1153 56.2492 11.8999 44.2864 0.754883C32.3237 11.8999 18.7598 20.0851 3.65527 25.4009C3.65527 25.4009 5.13551 65.4808 44.2864 91.5161Z" fill="currentColor"/>
<path fill-rule="evenodd" clip-rule="evenodd" d="M43.7694 0.235576C44.0429 -0.0201325 44.4679 -0.0206425 44.7419 0.234409C50.3893 5.49029 56.3942 10.1128 62.7564 14.0434C63.091 14.2501 63.1945 14.6886 62.9875 15.0228C62.7806 15.357 62.3416 15.4604 62.007 15.2537C55.7434 11.3839 49.8269 6.8557 44.2574 1.72614C37.3421 8.12136 29.8762 13.5037 21.9175 17.9574C21.5742 18.1495 21.1401 18.0272 20.9478 17.6844C20.7555 17.3416 20.8779 16.908 21.2211 16.7159C29.2677 12.2131 36.8035 6.74992 43.7694 0.235576Z" fill="#171717"/>
<path fill-rule="evenodd" clip-rule="evenodd" d="M76.1387 21.9447C76.2963 21.5847 76.7163 21.4204 77.0768 21.5778C79.6887 22.7184 82.361 23.7692 85.0938 24.73C85.3877 24.8333 85.5803 25.1155 85.5691 25.4266L84.8572 25.4011C85.5691 25.4266 85.5691 25.4269 85.5691 25.4271L85.569 25.4306L85.5686 25.4395L85.5673 25.472C85.566 25.5001 85.5641 25.541 85.5612 25.5945C85.5554 25.7015 85.546 25.8586 85.5312 26.0633C85.5016 26.4727 85.4504 27.0726 85.3636 27.8423C85.19 29.3816 84.8742 31.6008 84.3048 34.3352C83.166 39.8033 81.0117 47.3371 76.9477 55.6157C76.7745 55.9686 76.3477 56.1144 75.9945 55.9414C75.6412 55.7684 75.4953 55.3421 75.6685 54.9893C79.6703 46.8372 81.7906 39.4204 82.9099 34.0454C83.4695 31.3583 83.7787 29.183 83.9478 27.683C84.0324 26.9331 84.0819 26.3522 84.1102 25.9608C84.1119 25.9376 84.1135 25.9151 84.115 25.8932C81.5255 24.9699 78.9891 23.9661 76.5061 22.8817C76.1456 22.7243 75.9811 22.3048 76.1387 21.9447Z" fill="#171717"/>
<path fill-rule="evenodd" clip-rule="evenodd" d="M71.0828 64.6161C71.4107 64.8332 71.5003 65.2748 71.2829 65.6023C69.1222 68.8581 66.6567 72.1448 63.8259 75.4012C63.5679 75.6979 63.118 75.7296 62.8209 75.4719C62.5239 75.2143 62.4922 74.7649 62.7501 74.4682C65.5381 71.261 67.9666 68.0238 70.0955 64.816C70.3128 64.4885 70.7549 64.399 71.0828 64.6161Z" fill="#171717"/>
<path fill-rule="evenodd" clip-rule="evenodd" d="M21.5556 70.3857C21.8665 70.1448 22.3139 70.2013 22.5551 70.5118C28.0687 77.6123 35.2934 84.687 44.6823 90.9551C45.0094 91.1734 45.0973 91.6153 44.8787 91.942C44.6601 92.2687 44.2177 92.3565 43.8906 92.1382C34.3686 85.7812 27.0326 78.5999 21.4293 71.384C21.1882 71.0734 21.2447 70.6265 21.5556 70.3857Z" fill="#171717"/>
<path fill-rule="evenodd" clip-rule="evenodd" d="M4.36713 25.374C4.36713 25.374 4.36714 25.3741 4.36713 25.374L4.36729 25.378L4.36801 25.3946C4.3687 25.4099 4.36982 25.4335 4.37147 25.4654C4.37478 25.5291 4.38026 25.6256 4.38879 25.7535C4.40584 26.0094 4.4351 26.3911 4.48369 26.8877C4.58086 27.8811 4.75529 29.3342 5.06385 31.1609C5.68105 34.8148 6.83438 39.9604 8.97776 45.9098C9.11097 46.2796 8.91887 46.6872 8.54868 46.8202C8.1785 46.9533 7.77042 46.7614 7.63721 46.3916C5.4607 40.3503 4.28793 35.121 3.65901 31.3977C3.3445 29.5358 3.16587 28.0497 3.06574 27.0261C3.01567 26.5143 2.98522 26.118 2.96723 25.848C2.95823 25.713 2.95235 25.6097 2.94869 25.5392C2.94686 25.504 2.94558 25.477 2.94474 25.4584L2.94381 25.4368L2.94356 25.4308L2.94347 25.4283C2.94346 25.4281 2.94345 25.4279 3.65529 25.401L2.94345 25.4279C2.92856 25.0352 3.23518 24.7049 3.62832 24.69C4.0214 24.6751 4.35214 24.9814 4.36713 25.374Z" fill="#171717"/>
<path d="M44.2865 77.4719C71.3236 59.4706 72.3205 31.8043 72.3205 31.8043C61.8984 28.1497 52.5336 22.5017 44.2865 14.7998C36.0394 22.5017 26.6746 28.1497 16.2525 31.8043C16.2223 31.8043 17.2494 59.4706 44.2865 77.4719Z" fill="white"/>
<path fill-rule="evenodd" clip-rule="evenodd" d="M35.6591 21.8256C35.8825 22.1491 35.801 22.5922 35.4772 22.8153C29.5949 26.8682 23.2546 30.0987 16.4576 32.4757C16.0863 32.6055 15.6799 32.4101 15.5499 32.0393C15.4199 31.6684 15.6155 31.2624 15.9869 31.1326C22.6631 28.7978 28.8898 25.6252 34.6682 21.644C34.9921 21.4208 35.4357 21.5022 35.6591 21.8256Z" fill="#171717"/>
<path fill-rule="evenodd" clip-rule="evenodd" d="M72.3461 31.0932C72.7392 31.1074 73.0465 31.4371 73.0324 31.8299L72.3205 31.8043C73.0324 31.8299 73.0324 31.83 73.0324 31.8302L73.0322 31.835L73.0317 31.8462C73.0313 31.8558 73.0307 31.8693 73.0299 31.8869C73.0282 31.922 73.0256 31.973 73.0216 32.0393C73.0136 32.172 73.0003 32.3661 72.9788 32.6173C72.9357 33.1196 72.8596 33.8503 72.7273 34.7744C72.4628 36.6222 71.973 39.2449 71.0715 42.3616C70.9622 42.7391 70.5673 42.9567 70.1894 42.8476C69.8114 42.7386 69.5935 42.3441 69.7027 41.9666C70.5835 38.9218 71.0604 36.3646 71.317 34.5729C71.4452 33.6772 71.5183 32.9732 71.5593 32.4958C71.5797 32.2571 71.5922 32.0751 71.5994 31.9542C71.6031 31.8937 71.6054 31.8484 71.6068 31.819C71.6075 31.8043 71.608 31.7936 71.6083 31.7868L71.6085 31.7797L71.6086 31.7787C71.6228 31.3861 71.953 31.0791 72.3461 31.0932Z" fill="#171717"/>
<path fill-rule="evenodd" clip-rule="evenodd" d="M66.0629 53.1606C66.4121 53.3416 66.5484 53.771 66.3672 54.1199C62.2409 62.0653 55.5186 70.8302 44.6823 78.0633C44.3552 78.2816 43.9128 78.1938 43.6942 77.867C43.4756 77.5403 43.5636 77.0985 43.8907 76.8801C54.5027 69.7968 61.0724 61.2249 65.1025 53.4646C65.2837 53.1158 65.7137 52.9797 66.0629 53.1606Z" fill="#171717"/>
<path fill-rule="evenodd" clip-rule="evenodd" d="M157.797 145.963C158.169 145.838 158.573 146.038 158.699 146.411C159.749 149.531 160.337 152.87 160.337 156.363V168.777C160.337 169.17 160.018 169.488 159.625 169.488C159.231 169.488 158.912 169.17 158.912 168.777V156.363C158.912 153.03 158.352 149.845 157.348 146.864C157.223 146.492 157.424 146.088 157.797 145.963Z" fill="#171717"/>
<path fill-rule="evenodd" clip-rule="evenodd" d="M147.833 132.356C148.081 132.051 148.53 132.004 148.835 132.252C150.784 133.829 152.516 135.622 154.031 137.632C154.268 137.946 154.205 138.392 153.891 138.628C153.576 138.864 153.13 138.802 152.893 138.488C151.447 136.571 149.796 134.861 147.938 133.357C147.633 133.11 147.586 132.662 147.833 132.356Z" fill="#171717"/>
<path fill-rule="evenodd" clip-rule="evenodd" d="M129.295 126.75C114.281 126.75 101.86 137.928 99.943 152.439C99.8915 152.829 99.5336 153.103 99.1435 153.051C98.7535 153 98.479 152.642 98.5305 152.253C100.54 137.044 113.556 125.327 129.295 125.327C134.859 125.327 140.055 126.78 144.57 129.347C144.912 129.541 145.032 129.975 144.837 130.317C144.643 130.659 144.208 130.778 143.866 130.584C139.56 128.136 134.606 126.75 129.295 126.75Z" fill="#171717"/>
<path fill-rule="evenodd" clip-rule="evenodd" d="M98.9649 157.645C99.3583 157.645 99.6772 157.964 99.6772 158.357V168.747C99.6772 169.139 99.3583 169.458 98.9649 169.458C98.5714 169.458 98.2525 169.139 98.2525 168.747V158.357C98.2525 157.964 98.5714 157.645 98.9649 157.645Z" fill="#171717"/>
<path fill-rule="evenodd" clip-rule="evenodd" d="M153.311 168.035C153.704 168.035 154.023 168.354 154.023 168.747V177.777C154.023 178.17 153.704 178.489 153.311 178.489C152.918 178.489 152.599 178.17 152.599 177.777V168.747C152.599 168.354 152.918 168.035 153.311 168.035Z" fill="#171717"/>
<path fill-rule="evenodd" clip-rule="evenodd" d="M134.19 132.64C134.281 132.258 134.665 132.021 135.048 132.112C145.937 134.694 154.023 144.49 154.023 156.182V162.494C154.023 162.887 153.704 163.206 153.311 163.206C152.918 163.206 152.599 162.887 152.599 162.494V156.182C152.599 145.161 144.977 135.929 134.719 133.497C134.336 133.406 134.099 133.022 134.19 132.64Z" fill="#171717"/>
<path fill-rule="evenodd" clip-rule="evenodd" d="M128.647 132.133C128.667 132.525 128.365 132.86 127.972 132.881C125.163 133.027 122.467 133.7 119.973 134.786C119.612 134.943 119.192 134.778 119.035 134.417C118.878 134.057 119.043 133.638 119.404 133.481C122.045 132.331 124.908 131.615 127.898 131.459C128.291 131.439 128.626 131.741 128.647 132.133Z" fill="#171717"/>
<path fill-rule="evenodd" clip-rule="evenodd" d="M111.169 140.38C111.473 140.63 111.516 141.079 111.266 141.382C107.954 145.397 105.961 150.554 105.961 156.182V177.777C105.961 178.17 105.642 178.489 105.248 178.489C104.855 178.489 104.536 178.17 104.536 177.777V156.182C104.536 150.212 106.651 144.738 110.166 140.477C110.417 140.174 110.866 140.13 111.169 140.38Z" fill="#171717"/>
<path fill-rule="evenodd" clip-rule="evenodd" d="M129.295 138.741C119.962 138.741 112.425 146.304 112.425 155.608V163.551C112.425 163.944 112.107 164.263 111.713 164.263C111.32 164.263 111.001 163.944 111.001 163.551V155.608C111.001 145.521 119.173 137.318 129.295 137.318C139.385 137.318 147.589 145.489 147.589 155.608V184.271C147.589 184.664 147.27 184.982 146.876 184.982C146.483 184.982 146.164 184.664 146.164 184.271V155.608C146.164 146.275 138.599 138.741 129.295 138.741Z" fill="#171717"/>
<path fill-rule="evenodd" clip-rule="evenodd" d="M111.713 168.095C112.107 168.095 112.425 168.414 112.425 168.807V184.271C112.425 184.664 112.107 184.982 111.713 184.982C111.32 184.982 111.001 184.664 111.001 184.271V168.807C111.001 168.414 111.32 168.095 111.713 168.095Z" fill="#171717"/>
<path fill-rule="evenodd" clip-rule="evenodd" d="M140.804 175.737C141.198 175.737 141.517 176.055 141.517 176.448V190.13C141.517 190.523 141.198 190.842 140.804 190.842C140.411 190.842 140.092 190.523 140.092 190.13V176.448C140.092 176.055 140.411 175.737 140.804 175.737Z" fill="#171717"/>
<path fill-rule="evenodd" clip-rule="evenodd" d="M129.295 144.329C127.368 144.329 125.553 144.838 123.961 145.72C123.617 145.91 123.183 145.786 122.992 145.442C122.802 145.098 122.926 144.665 123.27 144.475C125.061 143.484 127.113 142.906 129.295 142.906C136.063 142.906 141.547 148.39 141.547 155.155V167.931C141.547 168.324 141.228 168.643 140.835 168.643C140.441 168.643 140.122 168.324 140.122 167.931V155.155C140.122 149.174 135.275 144.329 129.295 144.329Z" fill="#171717"/>
<path fill-rule="evenodd" clip-rule="evenodd" d="M119.885 148.421C120.219 148.629 120.32 149.068 120.111 149.401C119.062 151.073 118.467 153.027 118.467 155.125V190.13C118.467 190.523 118.148 190.842 117.755 190.842C117.361 190.842 117.043 190.523 117.043 190.13V155.125C117.043 152.753 117.716 150.538 118.903 148.646C119.112 148.313 119.552 148.212 119.885 148.421Z" fill="#171717"/>
<path fill-rule="evenodd" clip-rule="evenodd" d="M129.295 149.826C126.456 149.826 124.147 152.134 124.147 154.974V160.169C124.147 160.562 123.828 160.88 123.434 160.88C123.041 160.88 122.722 160.562 122.722 160.169V154.974C122.722 151.35 125.668 148.403 129.295 148.403C132.921 148.403 135.868 151.35 135.868 154.974V195.054C135.868 195.447 135.549 195.765 135.155 195.765C134.762 195.765 134.443 195.447 134.443 195.054V154.974C134.443 152.134 132.133 149.826 129.295 149.826Z" fill="#171717"/>
<path fill-rule="evenodd" clip-rule="evenodd" d="M123.434 167.854C123.828 167.854 124.147 168.172 124.147 168.565V195.084C124.147 195.477 123.828 195.795 123.434 195.795C123.041 195.795 122.722 195.477 122.722 195.084V168.565C122.722 168.172 123.041 167.854 123.434 167.854Z" fill="#171717"/>
<path fill-rule="evenodd" clip-rule="evenodd" d="M129.295 186.398C129.688 186.398 130.007 186.717 130.007 187.11V195.084C130.007 195.477 129.688 195.795 129.295 195.795C128.901 195.795 128.582 195.477 128.582 195.084V187.11C128.582 186.717 128.901 186.398 129.295 186.398Z" fill="#171717"/>
<path fill-rule="evenodd" clip-rule="evenodd" d="M129.295 155.5C129.688 155.5 130.007 155.819 130.007 156.212V180.918C130.007 181.311 129.688 181.63 129.295 181.63C128.901 181.63 128.582 181.311 128.582 180.918V156.212C128.582 155.819 128.901 155.5 129.295 155.5Z" fill="#171717"/>
<path fill-rule="evenodd" clip-rule="evenodd" d="M31.8314 40.4444C32.1308 40.1895 32.5804 40.2253 32.8356 40.5244L42.4742 51.8197L51.1155 41.7021C51.3709 41.4031 51.8205 41.3675 52.1198 41.6226C52.4191 41.8776 52.4548 42.3267 52.1994 42.6257L43.0159 53.3781C42.8805 53.5366 42.6824 53.6279 42.4738 53.6278C42.2652 53.6278 42.0671 53.5364 41.9318 53.3778L31.7513 41.4475C31.4961 41.1484 31.532 40.6993 31.8314 40.4444Z" fill="#171717"/>
<path fill-rule="evenodd" clip-rule="evenodd" d="M82.2071 6.28366C82.5068 6.53817 82.5433 6.9872 82.2885 7.28661L56.6108 37.4598C56.356 37.7592 55.9064 37.7956 55.6067 37.5411C55.3069 37.2866 55.2705 36.8376 55.5253 36.5382L81.2029 6.36497C81.4578 6.06556 81.9073 6.02916 82.2071 6.28366Z" fill="#171717"/>
<path d="M232.761 115.045C249.044 115.045 262.245 101.847 262.245 85.5664C262.245 69.2859 249.044 56.0879 232.761 56.0879C216.477 56.0879 203.277 69.2859 203.277 85.5664C203.277 101.847 216.477 115.045 232.761 115.045Z" fill="white"/>
<path fill-rule="evenodd" clip-rule="evenodd" d="M260.8 76.3682C261.176 76.2542 261.574 76.4667 261.688 76.8427C262.525 79.6 262.957 82.5389 262.957 85.5665C262.957 88.1951 262.617 90.7634 261.967 93.2093C261.866 93.5891 261.476 93.8153 261.095 93.7144C260.715 93.6135 260.489 93.2239 260.59 92.8441C261.208 90.5179 261.532 88.0724 261.532 85.5665C261.532 82.6741 261.119 79.8745 260.325 77.2555C260.21 76.8794 260.423 76.4822 260.8 76.3682Z" fill="#171717"/>
<path fill-rule="evenodd" clip-rule="evenodd" d="M232.761 56.799C229.987 56.799 227.305 57.1825 224.773 57.9184C224.395 58.0282 224 57.8113 223.89 57.434C223.78 57.0567 223.997 56.6618 224.375 56.552C227.039 55.7778 229.855 55.376 232.761 55.376C243.59 55.376 253.088 61.0692 258.439 69.6346C258.647 69.968 258.545 70.4069 258.211 70.6149C257.878 70.8229 257.438 70.7213 257.23 70.3879C252.128 62.2206 243.077 56.799 232.761 56.799Z" fill="#171717"/>
<path fill-rule="evenodd" clip-rule="evenodd" d="M215.628 61.5799C215.864 61.894 215.801 62.34 215.486 62.5762C208.498 67.8236 203.989 76.1641 203.989 85.5661C203.989 101.453 216.872 114.333 232.761 114.333C238.452 114.333 243.757 112.683 248.208 109.853C248.54 109.642 248.98 109.74 249.191 110.072C249.403 110.403 249.305 110.843 248.973 111.054C244.3 114.024 238.731 115.756 232.761 115.756C216.084 115.756 202.564 102.238 202.564 85.5661C202.564 75.6983 207.299 66.9437 214.63 61.4387C214.945 61.2026 215.391 61.2658 215.628 61.5799Z" fill="#171717"/>
<path fill-rule="evenodd" clip-rule="evenodd" d="M232.761 68.5788C226.936 68.5788 221.774 71.5337 218.698 76.0309C218.476 76.3554 218.032 76.4387 217.707 76.2171C217.383 75.9954 217.299 75.5526 217.521 75.2282C220.849 70.3624 226.442 67.1558 232.761 67.1558C238.102 67.1558 242.912 69.4188 246.274 73.0634C246.541 73.3523 246.523 73.8025 246.233 74.0688C245.944 74.3351 245.493 74.3167 245.227 74.0277C242.124 70.6651 237.69 68.5788 232.761 68.5788Z" fill="#171717"/>
<path fill-rule="evenodd" clip-rule="evenodd" d="M215.238 82.6524C215.63 82.685 215.922 83.0289 215.889 83.4205C215.828 84.1495 215.771 84.8454 215.771 85.5663C215.771 87.7416 216.176 89.8009 216.903 91.7176C217.042 92.0851 216.856 92.4958 216.488 92.6349C216.121 92.774 215.709 92.5888 215.57 92.2213C214.786 90.1511 214.346 87.9215 214.346 85.5663C214.346 84.7815 214.408 84.0317 214.468 83.3147L214.469 83.3024C214.502 82.9108 214.846 82.6198 215.238 82.6524Z" fill="#171717"/>
<path fill-rule="evenodd" clip-rule="evenodd" d="M248.959 78.3217C249.324 78.1749 249.739 78.3515 249.885 78.716C250.735 80.823 251.206 83.1482 251.206 85.5661C251.206 95.7443 242.943 104.007 232.761 104.007C227.419 104.007 222.609 101.744 219.247 98.0994C218.98 97.8104 218.999 97.3603 219.288 97.094C219.577 96.8277 220.028 96.8461 220.295 97.1351C223.397 100.498 227.831 102.584 232.761 102.584C242.154 102.584 249.781 94.9597 249.781 85.5661C249.781 83.3326 249.346 81.1877 248.564 79.2475C248.417 78.8829 248.594 78.4684 248.959 78.3217Z" fill="#171717"/>
<path fill-rule="evenodd" clip-rule="evenodd" d="M241.654 63.0668C242.021 62.9235 242.434 63.1039 242.577 63.4698L246.414 73.2557C246.5 73.4747 246.472 73.722 246.339 73.9162C246.206 74.1105 245.986 74.2267 245.751 74.2267H234.996C234.603 74.2267 234.284 73.9082 234.284 73.5152C234.284 73.1222 234.603 72.8037 234.996 72.8037H244.707L241.251 63.9887C241.107 63.6228 241.288 63.21 241.654 63.0668Z" fill="#171717"/>
<path fill-rule="evenodd" clip-rule="evenodd" d="M219.182 97.2167C219.315 97.0222 219.535 96.9058 219.771 96.9058H230.555C230.949 96.9058 231.268 97.2243 231.268 97.6173C231.268 98.0102 230.949 98.3288 230.555 98.3288H220.817L224.3 107.173C224.445 107.539 224.265 107.952 223.898 108.096C223.532 108.239 223.119 108.06 222.975 107.694L219.108 97.8778C219.022 97.6588 219.049 97.4113 219.182 97.2167Z" fill="#171717"/>
<path fill-rule="evenodd" clip-rule="evenodd" d="M72.4816 99.5602C72.7599 99.2825 73.211 99.2827 73.489 99.5607L89.0165 115.085C89.2945 115.363 89.2943 115.814 89.016 116.091C88.7376 116.369 88.2866 116.369 88.0086 116.091L72.4811 100.566C72.203 100.288 72.2033 99.8379 72.4816 99.5602Z" fill="#171717"/>
<path fill-rule="evenodd" clip-rule="evenodd" d="M71.6362 122.881C71.7457 122.503 72.1408 122.286 72.5187 122.395L82.8502 125.386C83.2281 125.495 83.4456 125.89 83.3362 126.267C83.2267 126.644 82.8316 126.862 82.4537 126.752L72.1222 123.762C71.7443 123.653 71.5267 123.258 71.6362 122.881Z" fill="#171717"/>
<path fill-rule="evenodd" clip-rule="evenodd" d="M95.8064 98.7157C96.1844 98.6065 96.5794 98.824 96.6887 99.2015L99.6794 109.531C99.7887 109.909 99.5709 110.303 99.1929 110.412C98.815 110.521 98.42 110.304 98.3107 109.926L95.32 99.5969C95.2107 99.2194 95.4285 98.8249 95.8064 98.7157Z" fill="#171717"/>
<path d="M205.663 51.3156C214.372 51.3156 221.432 44.2568 221.432 35.5494C221.432 26.842 214.372 19.7832 205.663 19.7832C196.954 19.7832 189.894 26.842 189.894 35.5494C189.894 44.2568 196.954 51.3156 205.663 51.3156Z" fill="white"/>
<path fill-rule="evenodd" clip-rule="evenodd" d="M189.894 34.8379C190.288 34.8379 190.606 35.1564 190.606 35.5494C190.606 43.8557 197.357 50.6041 205.663 50.6041C211.229 50.6041 216.104 47.5772 218.701 43.0772C218.897 42.7367 219.333 42.6198 219.673 42.816C220.014 43.0123 220.131 43.4473 219.935 43.7878C217.094 48.7113 211.758 52.0271 205.663 52.0271C196.569 52.0271 189.182 44.6403 189.182 35.5494C189.182 35.1564 189.501 34.8379 189.894 34.8379Z" fill="#171717"/>
<path fill-rule="evenodd" clip-rule="evenodd" d="M205.663 20.4948C202.029 20.4948 198.683 21.7922 196.087 23.9269C195.783 24.1766 195.334 24.1331 195.084 23.8297C194.834 23.5262 194.877 23.0778 195.181 22.8281C198.022 20.4927 201.685 19.0718 205.663 19.0718C214.758 19.0718 222.145 26.4586 222.145 35.5495C222.145 35.9424 221.826 36.261 221.432 36.261C221.039 36.261 220.72 35.9424 220.72 35.5495C220.72 27.2432 213.969 20.4948 205.663 20.4948Z" fill="#171717"/>
<path fill-rule="evenodd" clip-rule="evenodd" d="M212.782 28.4313C213.061 28.709 213.061 29.1595 212.783 29.4375L199.551 42.6666C199.273 42.9446 198.822 42.9449 198.544 42.6671C198.266 42.3894 198.265 41.9389 198.543 41.6609L211.775 28.4318C212.053 28.1538 212.504 28.1536 212.782 28.4313Z" fill="#171717"/>
<path fill-rule="evenodd" clip-rule="evenodd" d="M198.544 28.4313C198.822 28.1536 199.273 28.1538 199.551 28.4318L212.783 41.6609C213.061 41.9389 213.061 42.3894 212.782 42.6671C212.504 42.9449 212.053 42.9446 211.775 42.6666L198.543 29.4375C198.265 29.1595 198.266 28.709 198.544 28.4313Z" fill="#171717"/>
<path fill-rule="evenodd" clip-rule="evenodd" d="M114.716 51.3155C114.716 50.9226 115.035 50.604 115.429 50.604H146.876C147.27 50.604 147.589 50.9226 147.589 51.3155C147.589 51.7085 147.27 52.027 146.876 52.027H115.429C115.035 52.027 114.716 51.7085 114.716 51.3155Z" fill="#171717"/>
<path fill-rule="evenodd" clip-rule="evenodd" d="M117.043 59.8932C117.043 59.5002 117.361 59.1816 117.755 59.1816H146.876C147.27 59.1816 147.589 59.5002 147.589 59.8932C147.589 60.2861 147.27 60.6047 146.876 60.6047H117.755C117.361 60.6047 117.043 60.2861 117.043 59.8932Z" fill="#171717"/>
<path fill-rule="evenodd" clip-rule="evenodd" d="M89.6732 59.8932C89.6732 59.5002 89.9921 59.1816 90.3855 59.1816H105.248C105.642 59.1816 105.961 59.5002 105.961 59.8932C105.961 60.2861 105.642 60.6047 105.248 60.6047H90.3855C89.9921 60.6047 89.6732 60.2861 89.6732 59.8932Z" fill="#171717"/>
<path fill-rule="evenodd" clip-rule="evenodd" d="M134.171 68.4713C134.171 68.0783 134.49 67.7598 134.883 67.7598H146.876C147.27 67.7598 147.589 68.0783 147.589 68.4713C147.589 68.8642 147.27 69.1828 146.876 69.1828H134.883C134.49 69.1828 134.171 68.8642 134.171 68.4713Z" fill="#171717"/>
<path fill-rule="evenodd" clip-rule="evenodd" d="M98.2525 68.4713C98.2525 68.0783 98.5714 67.7598 98.9649 67.7598H125.73C126.123 67.7598 126.442 68.0783 126.442 68.4713C126.442 68.8642 126.123 69.1828 125.73 69.1828H98.9649C98.5714 69.1828 98.2525 68.8642 98.2525 68.4713Z" fill="#171717"/>
<path fill-rule="evenodd" clip-rule="evenodd" d="M89.6732 77.0489C89.6732 76.656 89.9921 76.3374 90.3855 76.3374H146.876C147.27 76.3374 147.589 76.656 147.589 77.0489C147.589 77.4419 147.27 77.7604 146.876 77.7604H90.3855C89.9921 77.7604 89.6732 77.4419 89.6732 77.0489Z" fill="#171717"/>
</g>
<defs>
<clipPath id="clip0_11358_64147">
<rect width="263" height="294" fill="white"/>
</clipPath>
</defs>
</svg>
