<svg width="56" height="39" viewBox="0 0 56 39" fill="none" xmlns="http://www.w3.org/2000/svg">
<path id="&#216;&#167;&#217;&#132;&#217;&#132;&#217;&#136;&#216;&#173;&#216;&#169; &#216;&#167;&#217;&#132;&#216;&#177;&#216;&#166;&#217;&#138;&#216;&#179;&#217;&#138;&#216;&#169;" d="M11.4302 38C7.79176 38 5.12357 37.1778 3.42563 35.5333C1.80854 33.8067 1 31.6689 1 29.12V26.53C1 24.1456 1.32342 21.7611 1.97025 19.3767C2.69794 16.91 3.62776 14.5667 4.75972 12.3467C5.97254 10.1267 7.38749 8.07111 9.00458 6.18C10.6217 4.20666 12.36 2.48 14.2197 1H25.4989C22.8307 3.46666 20.5263 5.97444 18.5858 8.52333C16.7262 11.0722 15.3112 13.9089 14.341 17.0333C16.9283 17.5267 18.8284 18.6367 20.0412 20.3633C21.254 22.0078 21.8604 23.8989 21.8604 26.0367V29.12C21.8604 31.6689 21.0114 33.8067 19.3135 35.5333C17.6964 37.1778 15.0686 38 11.4302 38ZM39.9313 38C36.2929 38 33.6247 37.1778 31.9268 35.5333C30.3097 33.8067 29.5011 31.6689 29.5011 29.12V26.53C29.5011 24.1456 29.8246 21.7611 30.4714 19.3767C31.1991 16.91 32.1289 14.5667 33.2609 12.3467C34.4737 10.1267 35.8886 8.07111 37.5057 6.18C39.1228 4.20666 40.8612 2.48 42.7208 1H54C51.3318 3.46666 49.0275 5.97444 47.087 8.52333C45.2273 11.0722 43.8124 13.9089 42.8421 17.0333C45.4294 17.5267 47.3295 18.6367 48.5423 20.3633C49.7551 22.0078 50.3616 23.8989 50.3616 26.0367V29.12C50.3616 31.6689 49.5126 33.8067 47.8146 35.5333C46.1976 37.1778 43.5698 38 39.9313 38Z" stroke="#C8D6F7"/>
</svg>
