<svg viewBox="0 0 340 286" fill="none" xmlns="http://www.w3.org/2000/svg">
<g clip-path="url(#clip0_10475_33681)">
<path d="M229.178 25.4998L265.716 112.848L232.874 126.612L235.327 132.48C238.703 140.518 234.9 149.765 226.868 153.108C222.851 154.779 218.551 154.673 214.819 153.143C211.087 151.614 207.923 148.662 206.253 144.643L203.801 138.775L170.959 152.539L157.204 119.677L163.069 117.223C171.101 113.844 174.869 104.632 171.528 96.5947C169.857 92.5758 166.694 89.6239 162.962 88.0946C159.23 86.5653 154.93 86.4586 150.913 88.1301L145.049 90.5841L131.294 57.7219L218.586 21.1608C222.709 19.4537 227.436 21.3742 229.178 25.4998Z" fill="currentColor"/>
<path fill-rule="evenodd" clip-rule="evenodd" d="M130.967 57.1522C131.4 56.9714 131.897 57.1756 132.078 57.6083L135.526 65.8594C135.706 66.2921 135.502 66.7895 135.069 66.9703C134.637 67.1511 134.139 66.9468 133.959 66.5141L130.511 58.263C130.33 57.8303 130.534 57.333 130.967 57.1522Z" fill="black"/>
<path fill-rule="evenodd" clip-rule="evenodd" d="M137.647 73.1216C138.08 72.9405 138.578 73.1444 138.759 73.577L145.504 89.6874L150.587 87.5604C154.818 85.7993 159.352 85.912 163.284 87.5231C167.214 89.1337 170.55 92.2449 172.312 96.483C175.832 104.952 171.862 114.659 163.398 118.219L158.315 120.346L171.414 151.642L187.052 145.106C187.485 144.925 187.982 145.129 188.163 145.561C188.344 145.994 188.14 146.492 187.707 146.672L171.286 153.536C170.854 153.717 170.357 153.513 170.176 153.081L156.421 120.219C156.334 120.011 156.333 119.777 156.418 119.569C156.504 119.36 156.668 119.194 156.876 119.107L162.739 116.654C162.739 116.654 162.74 116.654 162.74 116.654C170.34 113.457 173.905 104.741 170.743 97.1348C169.164 93.3351 166.173 90.5426 162.64 89.0945C159.108 87.6471 155.04 87.5464 151.24 89.1281C151.239 89.1282 151.239 89.1282 151.239 89.1283L145.376 91.5817C144.944 91.7627 144.446 91.5588 144.265 91.1263L137.192 74.2328C137.011 73.8002 137.215 73.3027 137.647 73.1216Z" fill="black"/>
<path fill-rule="evenodd" clip-rule="evenodd" d="M204.124 138.203C204.333 138.288 204.499 138.453 204.586 138.661L207.039 144.531C208.618 148.331 211.609 151.123 215.142 152.571C218.673 154.018 222.74 154.119 226.54 152.539C228.126 151.863 229.504 150.987 230.712 149.913C231.062 149.601 231.599 149.632 231.911 149.983C232.223 150.333 232.191 150.87 231.841 151.182C230.491 152.382 228.955 153.356 227.202 154.103L227.195 154.105C222.964 155.866 218.43 155.754 214.498 154.143C210.568 152.532 207.232 149.421 205.471 145.184C205.471 145.183 205.47 145.183 205.47 145.183L203.346 140.1L196.31 143.044C195.878 143.225 195.38 143.021 195.199 142.588C195.018 142.156 195.222 141.658 195.655 141.477L203.474 138.205C203.682 138.118 203.916 138.117 204.124 138.203Z" fill="black"/>
<path fill-rule="evenodd" clip-rule="evenodd" d="M266.5 112.733C266.681 113.166 266.478 113.663 266.045 113.845L233.986 127.281L236.11 132.362C236.11 132.363 236.111 132.364 236.111 132.364C237.572 135.815 237.758 139.49 236.898 142.895C236.783 143.35 236.321 143.625 235.867 143.511C235.412 143.396 235.136 142.934 235.251 142.479C236.026 139.413 235.856 136.117 234.546 133.025L234.545 133.021L234.545 133.021L232.092 127.153C231.912 126.72 232.115 126.223 232.548 126.042L265.389 112.278C265.821 112.097 266.319 112.301 266.5 112.733Z" fill="black"/>
<path d="M226.407 167.122V261.796C226.407 266.278 222.781 269.905 218.303 269.905H123.689V234.304H117.362C113.026 234.304 109.081 232.526 106.202 229.681C103.358 226.836 101.581 222.888 101.581 218.513C101.581 209.8 108.654 202.722 117.362 202.722H123.689V167.122H159.267V173.452C159.267 177.791 161.044 181.739 163.887 184.62C166.731 187.465 170.676 189.243 175.048 189.243C183.756 189.243 190.829 182.166 190.829 173.452V167.122H226.407Z" fill="currentColor"/>
<path d="M101.581 218.513C101.581 222.852 103.358 226.8 106.202 229.68C109.045 232.526 112.991 234.304 117.362 234.304H123.689V269.905H29.039C24.5606 269.905 20.9353 266.277 20.9353 261.796V167.121H56.5134V160.79C56.5134 152.077 63.5864 145 72.2943 145C76.6305 145 80.5757 146.778 83.4546 149.623C86.298 152.468 88.0752 156.416 88.0752 160.79V167.121H123.689V202.722H117.362C108.654 202.757 101.581 209.799 101.581 218.513Z" fill="currentColor"/>
<path d="M145.796 115.729C145.796 124.443 138.723 131.52 130.015 131.52H123.688V167.121H88.0745V160.791C88.0745 156.452 86.2974 152.504 83.454 149.623C80.6106 146.778 76.6654 145 72.2936 145C63.5857 145 56.5127 152.077 56.5127 160.791V167.121H20.9702V72.4464C20.9702 67.9652 24.5956 64.3375 29.0739 64.3375H123.688V99.9384H130.015C134.351 99.9384 138.296 101.717 141.175 104.562C144.018 107.443 145.796 111.39 145.796 115.729Z" fill="currentColor"/>
<path fill-rule="evenodd" clip-rule="evenodd" d="M189.979 167.334C189.979 166.865 190.359 166.485 190.828 166.485H226.406C226.875 166.485 227.255 166.865 227.255 167.334C227.255 167.803 226.875 168.183 226.406 168.183H191.677V173.665C191.677 182.846 184.224 190.305 175.047 190.305C170.44 190.305 166.282 188.43 163.286 185.432C160.892 183.037 159.204 179.925 158.641 176.395C158.567 175.931 158.883 175.496 159.346 175.422C159.809 175.348 160.244 175.664 160.318 176.127C160.821 179.283 162.331 182.075 164.487 184.232C167.178 186.925 170.91 188.606 175.047 188.606C183.285 188.606 189.979 181.91 189.979 173.665V167.334Z" fill="black"/>
<path fill-rule="evenodd" clip-rule="evenodd" d="M122.84 167.334C122.84 166.865 123.22 166.485 123.689 166.485H141.496C141.965 166.485 142.345 166.865 142.345 167.334C142.345 167.803 141.965 168.183 141.496 168.183H123.689C123.22 168.183 122.84 167.803 122.84 167.334Z" fill="black"/>
<path fill-rule="evenodd" clip-rule="evenodd" d="M123.689 259.595C124.158 259.595 124.538 259.975 124.538 260.444V270.118C124.538 270.587 124.158 270.967 123.689 270.967C123.22 270.967 122.84 270.587 122.84 270.118V260.444C122.84 259.975 123.22 259.595 123.689 259.595Z" fill="black"/>
<path fill-rule="evenodd" clip-rule="evenodd" d="M123.689 177.546C124.158 177.546 124.538 177.926 124.538 178.395V202.935C124.538 203.404 124.158 203.784 123.689 203.784H117.362C109.124 203.784 102.431 210.481 102.431 218.726C102.431 222.828 104.11 226.564 106.805 229.295C109.496 231.987 113.227 233.668 117.362 233.668H123.689C124.158 233.668 124.538 234.048 124.538 234.517V253.367C124.538 253.836 124.158 254.216 123.689 254.216C123.22 254.216 122.84 253.836 122.84 253.367V235.366H117.362C112.756 235.366 108.597 233.491 105.601 230.494L105.598 230.49C102.607 227.46 100.732 223.301 100.732 218.726C100.732 209.544 108.185 202.086 117.362 202.086H122.84V178.395C122.84 177.926 123.22 177.546 123.689 177.546Z" fill="black"/>
<path fill-rule="evenodd" clip-rule="evenodd" d="M97.1409 167.334C97.1409 166.865 97.521 166.485 97.99 166.485H123.687C124.156 166.485 124.536 166.865 124.536 167.334C124.536 167.803 124.156 168.183 123.687 168.183H97.99C97.521 168.183 97.1409 167.803 97.1409 167.334Z" fill="black"/>
<path fill-rule="evenodd" clip-rule="evenodd" d="M71.479 145.214C71.479 144.745 71.8592 144.364 72.3282 144.364C76.9012 144.364 81.0573 146.24 84.0854 149.233L84.0892 149.237C87.0848 152.234 88.9582 156.395 88.9582 161.004V167.335C88.9582 167.804 88.578 168.184 88.109 168.184C87.6401 168.184 87.2599 167.804 87.2599 167.335V161.004C87.2599 156.866 85.5798 153.132 82.8898 150.439C80.1601 147.742 76.4265 146.063 72.3282 146.063C71.8592 146.063 71.479 145.682 71.479 145.214Z" fill="black"/>
<path fill-rule="evenodd" clip-rule="evenodd" d="M63.2223 148.103C63.5123 148.471 63.4487 149.005 63.0801 149.295C59.6159 152.021 57.3975 156.26 57.3975 161.004V167.335C57.3975 167.804 57.0173 168.184 56.5483 168.184H20.9702C20.5013 168.184 20.1211 167.804 20.1211 167.335C20.1211 166.866 20.5013 166.486 20.9702 166.486H55.6992V161.004C55.6992 155.719 58.1724 150.996 62.0299 147.96C62.3984 147.67 62.9323 147.734 63.2223 148.103Z" fill="black"/>
<path fill-rule="evenodd" clip-rule="evenodd" d="M145.797 115.094C146.266 115.094 146.646 115.474 146.646 115.943C146.646 125.125 139.193 132.583 130.016 132.583H124.538V160.826C124.538 161.295 124.158 161.675 123.689 161.675C123.22 161.675 122.84 161.295 122.84 160.826V131.734C122.84 131.265 123.22 130.885 123.689 130.885H130.016C138.254 130.885 144.948 124.188 144.948 115.943C144.948 115.474 145.328 115.094 145.797 115.094Z" fill="black"/>
<path fill-rule="evenodd" clip-rule="evenodd" d="M123.689 63.7024C124.158 63.7024 124.538 64.0826 124.538 64.5515V99.3032H130.016C132.109 99.3032 134.097 99.6774 135.939 100.392C136.376 100.562 136.593 101.054 136.423 101.491C136.254 101.928 135.762 102.145 135.324 101.975C133.683 101.338 131.904 101.001 130.016 101.001H123.689C123.22 101.001 122.84 100.621 122.84 100.152V64.5515C122.84 64.0826 123.22 63.7024 123.689 63.7024Z" fill="black"/>
<path d="M96.5329 111.675C96.5329 111.675 77.0556 132.018 48.6216 132.018C20.1875 132.018 0.710205 111.675 0.710205 111.675C0.710205 111.675 20.1875 91.3317 48.6216 91.3317C77.0556 91.3317 96.5329 111.675 96.5329 111.675Z" fill="white"/>
<path fill-rule="evenodd" clip-rule="evenodd" d="M82.6563 100.779C82.8987 100.378 83.4207 100.249 83.8221 100.491C88.0784 103.061 91.4373 105.631 93.7347 107.561C94.8837 108.526 95.7681 109.332 96.3672 109.899C96.6668 110.182 96.8952 110.406 97.0497 110.56C97.127 110.637 97.1858 110.696 97.2259 110.737C97.236 110.747 97.245 110.757 97.2527 110.764C97.2603 110.772 97.2666 110.779 97.2719 110.784L97.2843 110.797L97.2889 110.802L97.2892 110.802C97.2894 110.802 97.2895 110.802 96.6762 111.39C97.2895 111.977 97.2892 111.977 97.2889 111.978L97.2843 111.982L97.2719 111.995C97.2613 112.006 97.2459 112.022 97.2259 112.042C97.1858 112.083 97.127 112.143 97.0497 112.22C96.8952 112.374 96.6668 112.597 96.3672 112.881C95.7681 113.447 94.8837 114.253 93.7347 115.218C91.4373 117.148 88.0784 119.719 83.8221 122.288C75.3149 127.425 63.185 132.582 48.7648 132.582C30.2018 132.582 15.4163 124.002 7.27695 117.939C6.90087 117.659 6.82313 117.127 7.10331 116.751C7.38349 116.375 7.91549 116.297 8.29157 116.577C16.2885 122.535 30.719 130.884 48.7648 130.884C62.7787 130.884 74.6044 125.87 82.9443 120.834C87.1117 118.318 90.3992 115.803 92.6423 113.918C93.7636 112.976 94.6231 112.193 95.2002 111.647C95.2982 111.554 95.3881 111.468 95.4698 111.39C95.3881 111.311 95.2982 111.225 95.2002 111.132C94.6231 110.587 93.7636 109.803 92.6423 108.861C90.3992 106.977 87.1117 104.461 82.9443 101.945C82.5429 101.703 82.4139 101.181 82.6563 100.779ZM96.6762 111.39L97.2895 111.977C97.6039 111.649 97.6039 111.131 97.2895 110.802L96.6762 111.39Z" fill="black"/>
<path fill-rule="evenodd" clip-rule="evenodd" d="M1.50304 111.978L1.50309 111.978L1.50492 111.976L1.51388 111.967C1.5222 111.958 1.53523 111.945 1.55291 111.927C1.58828 111.891 1.64229 111.836 1.71461 111.764C1.85925 111.62 2.07711 111.407 2.36564 111.134C2.94274 110.588 3.80221 109.804 4.92349 108.862C7.16665 106.978 10.4541 104.462 14.6215 101.946C22.9614 96.9109 34.7872 91.8967 48.801 91.8967C52.6541 91.8967 56.3685 92.2823 59.8738 92.9487C60.3346 93.0363 60.7791 92.7339 60.8667 92.2732C60.9542 91.8125 60.6518 91.368 60.1911 91.2804C56.5879 90.5953 52.7672 90.1985 48.801 90.1985C34.3808 90.1985 22.251 95.356 13.7437 100.492C9.48746 103.062 6.12849 105.632 3.83109 107.562C2.68209 108.527 1.79775 109.333 1.19862 109.9C0.899027 110.183 0.67067 110.407 0.516115 110.561C0.438835 110.638 0.379999 110.697 0.339928 110.738C0.319892 110.759 0.304546 110.774 0.293931 110.785L0.28156 110.798L0.278045 110.802L0.276957 110.803C0.276599 110.803 0.276315 110.804 0.889679 111.391L0.276315 110.804C-0.048004 111.142 -0.0363044 111.68 0.302447 112.004C0.64113 112.329 1.17851 112.317 1.50285 111.978" fill="black"/>
<path fill-rule="evenodd" clip-rule="evenodd" d="M48.8003 80.6221C44.6592 80.6221 40.7656 81.0083 37.1543 81.6749C36.6931 81.76 36.2503 81.4552 36.1651 80.994C36.08 80.5329 36.3849 80.09 36.846 80.0049C40.5565 79.32 44.5534 78.9238 48.8003 78.9238C59.9802 78.9238 69.3989 81.7787 76.0197 84.6302C79.3312 86.0564 81.9472 87.4837 83.7391 88.5571C84.6352 89.0939 85.3256 89.5426 85.7944 89.8587C86.0289 90.0168 86.2079 90.1418 86.3296 90.2282C86.3904 90.2714 86.4369 90.305 86.4688 90.3282C86.4848 90.3398 86.4971 90.3488 86.5057 90.3551L86.5159 90.3626L86.5189 90.3649L86.5199 90.3656C86.5202 90.3659 86.5205 90.3661 86.0134 91.0471L86.5205 90.3661C86.8967 90.6462 86.9745 91.1781 86.6944 91.5543C86.4144 91.9303 85.8826 92.0082 85.5065 91.7284C85.5064 91.7283 85.5063 91.7283 85.5062 91.7282L85.5053 91.7275L85.4989 91.7228C85.4959 91.7206 85.4919 91.7177 85.4871 91.7141C85.4822 91.7105 85.4764 91.7063 85.4697 91.7014C85.443 91.682 85.4017 91.6522 85.3463 91.6128C85.2354 91.5341 85.0676 91.4169 84.8449 91.2667C84.3994 90.9663 83.7346 90.5341 82.8663 90.014C81.1294 88.9735 78.5806 87.5822 75.3479 86.1899C68.8801 83.4043 59.6924 80.6221 48.8003 80.6221Z" fill="black"/>
<path fill-rule="evenodd" clip-rule="evenodd" d="M28.6011 82.8869C28.7471 83.3326 28.5042 83.8122 28.0586 83.9583C23.072 85.5922 19.0698 87.5334 16.3179 89.0637C14.9422 89.8287 13.8801 90.4904 13.1648 90.9587C12.8072 91.1928 12.5363 91.3786 12.3564 91.5046C12.2665 91.5676 12.1993 91.6157 12.1554 91.6475C12.1334 91.6633 12.1173 91.6751 12.107 91.6827L12.096 91.6907L12.0939 91.6923C11.7178 91.9722 11.1857 91.8945 10.9057 91.5184C10.6256 91.1423 10.7034 90.6103 11.0796 90.3302L11.5868 91.0113C11.0796 90.3302 11.0798 90.3301 11.0799 90.33L11.0819 90.3285L11.0864 90.3252L11.1022 90.3136C11.1157 90.3037 11.1351 90.2895 11.1604 90.2712C11.2109 90.2347 11.2849 90.1817 11.3819 90.1138C11.5757 89.978 11.8613 89.7822 12.2346 89.5379C12.9809 89.0493 14.078 88.3661 15.4925 87.5796C18.3207 86.0068 22.4223 84.018 27.5297 82.3444C27.9754 82.1984 28.455 82.4413 28.6011 82.8869Z" fill="black"/>
<path d="M62.5561 129.528C70.9441 129.528 77.7327 122.735 77.7327 114.341C77.7327 111.923 77.164 109.611 76.1333 107.584C75.2092 110.323 72.6146 112.314 69.5224 112.314C65.6838 112.314 62.5561 109.185 62.5561 105.343C62.5561 102.925 63.8 100.756 65.6838 99.5108C64.6886 99.2974 63.6223 99.1907 62.5561 99.1907C54.168 99.1907 47.3794 105.984 47.3794 114.377C47.4149 122.735 54.2036 129.528 62.5561 129.528Z" fill="black"/>
<path fill-rule="evenodd" clip-rule="evenodd" d="M46.5276 114.377C46.5276 105.516 53.6958 98.3419 62.5534 98.3419C63.6746 98.3419 64.8009 98.454 65.8592 98.6809C66.1935 98.7526 66.4522 99.0178 66.5156 99.3538C66.5789 99.6898 66.4346 100.031 66.1493 100.22C64.4963 101.312 63.4026 103.219 63.4026 105.344C63.4026 108.716 66.1507 111.465 69.5197 111.465C72.2364 111.465 74.5149 109.717 75.3261 107.313C75.4354 106.989 75.7282 106.762 76.0692 106.738C76.4101 106.713 76.7327 106.895 76.8876 107.2C77.9792 109.347 78.5792 111.79 78.5792 114.342C78.5792 123.204 71.411 130.377 62.5534 130.377C53.7307 130.377 46.5651 123.204 46.5276 114.381L46.5276 114.377ZM48.2259 114.376C48.2604 122.268 54.6717 128.679 62.5534 128.679C70.4719 128.679 76.8809 122.267 76.8809 114.342C76.8809 112.691 76.6006 111.095 76.0794 109.618C74.6892 111.747 72.281 113.164 69.5197 113.164C65.2116 113.164 61.7043 109.653 61.7043 105.344C61.7043 103.335 62.4689 101.481 63.7246 100.086C63.3376 100.055 62.9459 100.04 62.5534 100.04C54.6355 100.04 48.2269 106.451 48.2259 114.376Z" fill="black"/>
<path fill-rule="evenodd" clip-rule="evenodd" d="M317.06 108.298C317.432 108.584 317.502 109.117 317.216 109.489L313.057 114.895C312.771 115.267 312.238 115.336 311.866 115.05C311.495 114.765 311.425 114.231 311.711 113.86L315.87 108.454C316.155 108.082 316.689 108.013 317.06 108.298Z" fill="black"/>
<path d="M48.8013 284.45C72.2391 284.45 91.2391 265.438 91.2391 241.985C91.2391 218.533 72.2391 199.521 48.8013 199.521C25.3636 199.521 6.36353 218.533 6.36353 241.985C6.36353 265.438 25.3636 284.45 48.8013 284.45Z" fill="white"/>
<path fill-rule="evenodd" clip-rule="evenodd" d="M48.7987 200.37C25.8096 200.37 7.21002 218.981 7.21002 241.95C7.21002 264.919 25.8456 283.566 48.7987 283.566C64.4706 283.566 78.0906 274.89 85.1983 262.094C85.426 261.684 85.943 261.537 86.353 261.764C86.7629 261.992 86.9107 262.509 86.6829 262.919C79.2893 276.229 65.115 285.264 48.7987 285.264C24.9066 285.264 5.51172 265.856 5.51172 241.95C5.51172 218.044 24.8715 198.672 48.7987 198.672C67.2534 198.672 83.0228 210.245 89.222 226.497C89.3891 226.935 89.1694 227.426 88.7312 227.593C88.2931 227.76 87.8024 227.54 87.6352 227.102C81.6789 211.487 66.5263 200.37 48.7987 200.37Z" fill="black"/>
<path fill-rule="evenodd" clip-rule="evenodd" d="M18.3766 211.195C18.706 210.861 19.2436 210.858 19.5774 211.187C27.1034 218.613 37.4126 223.212 48.8012 223.212C60.1909 223.212 70.5346 218.613 78.0236 211.188C78.3566 210.858 78.8943 210.861 79.2244 211.194C79.5546 211.527 79.5523 212.064 79.2192 212.395C71.4249 220.121 60.6563 224.911 48.8012 224.911C36.945 224.911 26.213 220.121 18.3846 212.396C18.0507 212.067 18.0472 211.529 18.3766 211.195Z" fill="black"/>
<path fill-rule="evenodd" clip-rule="evenodd" d="M18.3832 271.542C26.1775 263.816 36.946 259.026 48.8012 259.026C60.6574 259.026 71.3894 263.816 79.2178 271.541C79.5516 271.87 79.5552 272.408 79.2258 272.742C78.8964 273.076 78.3588 273.079 78.025 272.75C70.499 265.324 60.1898 260.725 48.8012 260.725C37.4115 260.725 27.0678 265.324 19.5788 272.749C19.2458 273.079 18.7081 273.076 18.3779 272.743C18.0478 272.41 18.0501 271.873 18.3832 271.542Z" fill="black"/>
<path fill-rule="evenodd" clip-rule="evenodd" d="M29.0068 218.212C29.4481 218.371 29.677 218.858 29.5182 219.299C27.1727 225.814 25.8008 233.576 25.8008 241.951C25.8008 253.551 28.4502 264.019 32.685 271.556C36.9352 279.121 42.6696 283.567 48.8007 283.567C55.0652 283.567 60.8804 278.946 65.1516 271.134C65.3766 270.722 65.8926 270.571 66.3041 270.796C66.7155 271.021 66.8667 271.537 66.6418 271.948C62.2407 279.998 55.9714 285.265 48.8007 285.265C41.7812 285.265 35.591 280.196 31.2044 272.388C26.8023 264.553 24.1025 253.788 24.1025 241.951C24.1025 233.396 25.503 225.438 27.9202 218.724C28.0791 218.282 28.5656 218.053 29.0068 218.212Z" fill="black"/>
<path fill-rule="evenodd" clip-rule="evenodd" d="M48.8005 200.335C42.6694 200.335 36.9264 204.789 32.6943 212.349C32.4652 212.758 31.9477 212.904 31.5385 212.675C31.1293 212.446 30.9833 211.928 31.2124 211.519C35.5815 203.715 41.7808 198.637 48.8005 198.637C55.8194 198.637 62.0097 203.696 66.3967 211.5C70.799 219.331 73.4987 230.096 73.4987 241.951C73.4987 250.147 72.2058 257.816 69.9697 264.348C69.8179 264.791 69.335 265.028 68.8913 264.876C68.4477 264.724 68.2111 264.241 68.363 263.798C70.5342 257.455 71.8004 249.973 71.8004 241.951C71.8004 230.333 69.1509 219.865 64.9163 212.332C60.6665 204.772 54.9323 200.335 48.8005 200.335Z" fill="black"/>
<path fill-rule="evenodd" clip-rule="evenodd" d="M71.7649 241.986C71.7649 241.517 72.1451 241.137 72.614 241.137H91.2383C91.7073 241.137 92.0875 241.517 92.0875 241.986C92.0875 242.455 91.7073 242.835 91.2383 242.835H72.614C72.1451 242.835 71.7649 242.455 71.7649 241.986Z" fill="black"/>
<path fill-rule="evenodd" clip-rule="evenodd" d="M24.1025 241.986C24.1025 241.517 24.4827 241.137 24.9517 241.137H64.5105C64.9795 241.137 65.3597 241.517 65.3597 241.986C65.3597 242.455 64.9795 242.835 64.5105 242.835H24.9517C24.4827 242.835 24.1025 242.455 24.1025 241.986Z" fill="black"/>
<path fill-rule="evenodd" clip-rule="evenodd" d="M5.51172 241.986C5.51172 241.517 5.8919 241.137 6.36087 241.137H18.9785C19.4474 241.137 19.8276 241.517 19.8276 241.986C19.8276 242.455 19.4474 242.835 18.9785 242.835H6.36087C5.8919 242.835 5.51172 242.455 5.51172 241.986Z" fill="black"/>
<path fill-rule="evenodd" clip-rule="evenodd" d="M48.8003 198.672C49.2693 198.672 49.6495 199.052 49.6495 199.521V284.415C49.6495 284.884 49.2693 285.264 48.8003 285.264C48.3313 285.264 47.9512 284.884 47.9512 284.415V199.521C47.9512 199.052 48.3313 198.672 48.8003 198.672Z" fill="black"/>
<path d="M153.436 38.0905C172.593 38.0905 180.662 27.741 180.662 0.889282C180.662 27.741 188.73 38.0905 207.887 38.0905C188.73 38.0905 180.662 48.44 180.662 75.2918C180.662 48.44 172.629 38.0905 153.436 38.0905Z" fill="white"/>
<path d="M194.276 76.9631C204.868 76.9631 209.31 71.2371 209.31 56.4064C209.31 71.2371 213.753 76.9631 224.345 76.9631C213.753 76.9631 209.31 82.6891 209.31 97.5198C209.31 82.6891 204.868 76.9631 194.276 76.9631Z" fill="white"/>
<path fill-rule="evenodd" clip-rule="evenodd" d="M180.662 0.0404053C181.131 0.0404053 181.511 0.420569 181.511 0.889526C181.511 14.2708 183.53 23.3374 187.773 29.0535C191.966 34.7039 198.463 37.2417 207.887 37.2417C208.356 37.2417 208.737 37.6218 208.737 38.0908C208.737 38.5597 208.356 38.9399 207.887 38.9399C198.463 38.9399 191.966 41.4776 187.773 47.1281C183.53 52.8442 181.511 61.9108 181.511 75.292C181.511 75.761 181.131 76.1412 180.662 76.1412C180.193 76.1412 179.813 75.761 179.813 75.292C179.813 61.9108 177.794 52.8442 173.551 47.1281C169.357 41.4776 162.86 38.9399 153.436 38.9399C152.967 38.9399 152.587 38.5597 152.587 38.0908C152.587 37.6218 152.967 37.2417 153.436 37.2417C163.17 37.2417 170.285 39.8787 174.915 46.1159C177.807 50.0124 179.677 55.2493 180.662 61.971C181.647 55.2493 183.517 50.0124 186.409 46.1159C189.55 41.8833 193.837 39.3086 199.31 38.0908C193.837 36.873 189.55 34.2983 186.409 30.0656C183.515 26.1675 181.646 20.928 180.661 14.2023C179.085 24.9426 175.25 31.9072 168.601 35.6308C168.192 35.8599 167.675 35.714 167.446 35.3048C167.216 34.8957 167.362 34.3782 167.772 34.1491C175.967 29.5595 179.813 19.3472 179.813 0.889526C179.813 0.420569 180.193 0.0404053 180.662 0.0404053Z" fill="black"/>
<path fill-rule="evenodd" clip-rule="evenodd" d="M209.311 55.5575C209.78 55.5575 210.16 55.9377 210.16 56.4066C210.16 63.7777 211.272 68.6833 213.538 71.7409C215.755 74.7325 219.204 76.1142 224.345 76.1142C224.814 76.1142 225.194 76.4944 225.194 76.9633C225.194 77.4323 224.814 77.8124 224.345 77.8124C218.894 77.8124 214.826 76.3312 212.174 72.752C210.85 70.9654 209.912 68.6977 209.311 65.9192C208.709 68.6977 207.772 70.9654 206.448 72.752C204.922 74.8108 202.928 76.1754 200.471 76.9633C202.928 77.7512 204.922 79.1158 206.448 81.1746C207.772 82.9616 208.709 85.2298 209.311 88.0091C210.208 83.8663 211.852 80.8583 214.408 78.8872C214.779 78.6008 215.312 78.6697 215.599 79.041C215.885 79.4124 215.816 79.9456 215.445 80.232C211.909 82.9584 210.16 88.2746 210.16 97.52C210.16 97.989 209.78 98.3692 209.311 98.3692C208.842 98.3692 208.462 97.989 208.462 97.52C208.462 90.1489 207.349 85.2433 205.083 82.1857C202.866 79.1942 199.417 77.8124 194.276 77.8124C193.807 77.8124 193.427 77.4323 193.427 76.9633C193.427 76.4944 193.807 76.1142 194.276 76.1142C199.417 76.1142 202.866 74.7325 205.083 71.7409C207.349 68.6833 208.462 63.7777 208.462 56.4066C208.462 55.9377 208.842 55.5575 209.311 55.5575Z" fill="black"/>
<path d="M284.554 150.334L280.396 155.74L284.554 150.334Z" fill="white"/>
<path d="M327.062 96.5947L239.343 75.9313L281.354 155.74L295.073 137.993L321.73 158.621L339.999 135.005L313.342 114.377L327.062 96.5947Z" fill="white"/>
<path fill-rule="evenodd" clip-rule="evenodd" d="M237.713 75.4117C237.917 75.1486 238.255 75.0287 238.579 75.1051L292 87.6952C292.456 87.8028 292.739 88.26 292.631 88.7164C292.524 89.1729 292.066 89.4557 291.61 89.3481L240.004 77.1857L280.532 154.176L293.443 137.474C293.581 137.295 293.784 137.179 294.007 137.151C294.231 137.122 294.457 137.184 294.635 137.321L320.62 157.43L333.784 140.425C334.071 140.054 334.605 139.986 334.976 140.273C335.346 140.56 335.414 141.094 335.127 141.465L321.443 159.141C321.156 159.511 320.623 159.579 320.252 159.292L294.267 139.184L281.067 156.259C280.891 156.488 280.61 156.611 280.322 156.586C280.034 156.561 279.779 156.391 279.644 156.135L237.633 76.3271C237.478 76.0326 237.509 75.6748 237.713 75.4117Z" fill="black"/>
<path fill-rule="evenodd" clip-rule="evenodd" d="M304.839 91.5999C304.946 91.1434 305.403 90.8603 305.86 90.9675L326.297 95.7688C326.578 95.8349 326.806 96.0391 326.903 96.3111C327 96.5831 326.951 96.8856 326.775 97.1141L313.574 114.225L339.56 134.334C339.931 134.621 339.999 135.155 339.712 135.526C339.425 135.896 338.891 135.964 338.521 135.677L311.864 115.05C311.493 114.763 311.425 114.23 311.711 113.859L324.625 97.1205L305.472 92.6207C305.015 92.5135 304.732 92.0565 304.839 91.5999Z" fill="black"/>
<path fill-rule="evenodd" clip-rule="evenodd" d="M242.582 203.79C242.582 203.321 242.962 202.94 243.431 202.94H273.251C273.72 202.94 274.101 203.321 274.101 203.79C274.101 204.259 273.72 204.639 273.251 204.639H243.431C242.962 204.639 242.582 204.259 242.582 203.79Z" fill="black"/>
<path fill-rule="evenodd" clip-rule="evenodd" d="M178.711 203.79C178.711 203.321 179.091 202.94 179.56 202.94H234.58C235.049 202.94 235.429 203.321 235.429 203.79C235.429 204.259 235.049 204.639 234.58 204.639H179.56C179.091 204.639 178.711 204.259 178.711 203.79Z" fill="black"/>
<path d="M211.479 213.89H202.7C200.958 213.89 199.536 212.467 199.536 210.725V196.89C199.536 195.147 200.958 193.724 202.7 193.724H211.479C213.22 193.724 214.642 195.147 214.642 196.89V210.725C214.642 212.467 213.22 213.89 211.479 213.89Z" fill="white"/>
<path fill-rule="evenodd" clip-rule="evenodd" d="M202.7 194.572C201.428 194.572 200.386 195.614 200.386 196.889V210.723C200.386 211.998 201.428 213.04 202.7 213.04H211.479C212.751 213.04 213.793 211.998 213.793 210.723V196.889C213.793 195.614 212.751 194.572 211.479 194.572H202.7ZM198.688 196.889C198.688 194.677 200.489 192.874 202.7 192.874H211.479C213.69 192.874 215.491 194.677 215.491 196.889V210.723C215.491 212.935 213.69 214.738 211.479 214.738H202.7C200.489 214.738 198.688 212.935 198.688 210.723V196.889Z" fill="black"/>
<path fill-rule="evenodd" clip-rule="evenodd" d="M260.032 249.811C260.032 249.342 260.413 248.961 260.882 248.961H273.25C273.719 248.961 274.1 249.342 274.1 249.811C274.1 250.28 273.719 250.66 273.25 250.66H260.882C260.413 250.66 260.032 250.28 260.032 249.811Z" fill="black"/>
<path fill-rule="evenodd" clip-rule="evenodd" d="M222.429 249.811C222.429 249.342 222.809 248.961 223.278 248.961H251.641C252.11 248.961 252.49 249.342 252.49 249.811C252.49 250.28 252.11 250.66 251.641 250.66H223.278C222.809 250.66 222.429 250.28 222.429 249.811Z" fill="black"/>
<path fill-rule="evenodd" clip-rule="evenodd" d="M178.711 249.811C178.711 249.342 179.091 248.961 179.56 248.961H223.277C223.746 248.961 224.127 249.342 224.127 249.811C224.127 250.28 223.746 250.66 223.277 250.66H179.56C179.091 250.66 178.711 250.28 178.711 249.811Z" fill="black"/>
<path d="M211.479 259.911H202.7C200.958 259.911 199.536 258.488 199.536 256.746V242.911C199.536 241.168 200.958 239.745 202.7 239.745H211.479C213.22 239.745 214.642 241.168 214.642 242.911V256.746C214.642 258.453 213.22 259.911 211.479 259.911Z" fill="white"/>
<path fill-rule="evenodd" clip-rule="evenodd" d="M202.7 240.595C201.428 240.595 200.386 241.637 200.386 242.911V256.746C200.386 258.02 201.428 259.062 202.7 259.062H211.479C212.745 259.062 213.793 257.991 213.793 256.746V242.911C213.793 241.637 212.751 240.595 211.479 240.595H202.7ZM198.688 242.911C198.688 240.7 200.489 238.896 202.7 238.896H211.479C213.69 238.896 215.491 240.7 215.491 242.911V256.746C215.491 258.915 213.696 260.76 211.479 260.76H202.7C200.489 260.76 198.688 258.957 198.688 256.746V242.911Z" fill="black"/>
<path fill-rule="evenodd" clip-rule="evenodd" d="M178.711 226.799C178.711 226.33 179.091 225.95 179.56 225.95H215.387C215.856 225.95 216.236 226.33 216.236 226.799C216.236 227.268 215.856 227.648 215.387 227.648H179.56C179.091 227.648 178.711 227.268 178.711 226.799Z" fill="black"/>
<path fill-rule="evenodd" clip-rule="evenodd" d="M224.312 226.799C224.312 226.33 224.692 225.95 225.161 225.95H273.25C273.719 225.95 274.099 226.33 274.099 226.799C274.099 227.268 273.719 227.648 273.25 227.648H225.161C224.692 227.648 224.312 227.268 224.312 226.799Z" fill="black"/>
<path d="M241.334 216.7H250.113C251.855 216.7 253.277 218.122 253.277 219.865V233.7C253.277 235.442 251.855 236.865 250.113 236.865H241.334C239.593 236.865 238.171 235.442 238.171 233.7V219.865C238.136 218.122 239.593 216.7 241.334 216.7Z" fill="white"/>
<path fill-rule="evenodd" clip-rule="evenodd" d="M241.335 217.547C240.046 217.547 238.995 218.601 239.02 219.846C239.02 219.852 239.02 219.858 239.02 219.864V233.699C239.02 234.973 240.063 236.015 241.335 236.015H250.114C251.386 236.015 252.428 234.973 252.428 233.699V219.864C252.428 218.589 251.386 217.547 250.114 217.547H241.335ZM237.322 219.872C237.282 217.636 239.143 215.849 241.335 215.849H250.114C252.325 215.849 254.126 217.653 254.126 219.864V233.699C254.126 235.91 252.325 237.713 250.114 237.713H241.335C239.124 237.713 237.322 235.91 237.322 233.699V219.872Z" fill="black"/>
<path d="M238.382 75.9313L280.394 155.74L270.833 168.116L228.822 88.308L238.382 75.9313Z" fill="black"/>
<path fill-rule="evenodd" clip-rule="evenodd" d="M238.456 75.0856C238.744 75.1106 239 75.2803 239.134 75.536L281.145 155.344C281.3 155.639 281.269 155.996 281.066 156.259L271.505 168.636C271.328 168.864 271.048 168.988 270.76 168.963C270.472 168.938 270.216 168.768 270.082 168.512L228.07 88.7037C227.916 88.4096 227.947 88.0522 228.15 87.7891L237.711 75.4124C237.887 75.1837 238.168 75.0606 238.456 75.0856ZM229.827 88.3955L270.969 166.552L279.389 155.653L238.247 77.4964L229.827 88.3955Z" fill="black"/>
<path d="M320.772 158.622L311.211 170.963L284.554 150.335L294.115 137.994L320.772 158.622Z" fill="black"/>
<path fill-rule="evenodd" clip-rule="evenodd" d="M293.443 137.472C293.731 137.102 294.264 137.034 294.634 137.321L321.291 157.949C321.469 158.087 321.586 158.29 321.614 158.513C321.642 158.737 321.581 158.962 321.443 159.14L311.882 171.481C311.595 171.852 311.062 171.92 310.691 171.633L284.034 151.005C283.856 150.867 283.74 150.664 283.711 150.441C283.683 150.217 283.744 149.992 283.882 149.814L293.443 137.472ZM294.266 139.183L285.745 150.182L311.059 169.771L319.58 158.772L294.266 139.183Z" fill="black"/>
<path fill-rule="evenodd" clip-rule="evenodd" d="M271.815 16.86C272.19 16.9681 272.444 17.3187 272.428 17.7093L271.331 45.6791L303.727 17.9908C304.044 17.7203 304.51 17.7191 304.827 17.988C305.145 18.2569 305.221 18.7166 305.007 19.0735L282.148 57.1274L301.368 51.3258C301.741 51.2131 302.143 51.3693 302.343 51.7045C302.542 52.0398 302.488 52.4678 302.211 52.7422L286.962 67.8356L296.37 69.2236C296.716 69.2746 296.995 69.5321 297.074 69.8725C297.152 70.2129 297.014 70.5667 296.726 70.7641L290.755 74.8541C290.368 75.1191 289.84 75.0203 289.575 74.6335C289.31 74.2466 289.408 73.7181 289.795 73.4531L293.979 70.5874L285.033 69.2676C284.715 69.2207 284.45 68.9979 284.35 68.6922C284.25 68.3865 284.331 68.0504 284.56 67.8241L298.587 53.9391L280.533 59.3889C280.197 59.4903 279.833 59.3746 279.618 59.0977C279.402 58.8207 279.379 58.4397 279.56 58.1388L300.864 22.6717L270.959 48.2318C270.702 48.4511 270.34 48.4976 270.036 48.3504C269.733 48.2033 269.545 47.8903 269.558 47.5531L270.596 21.0951L255.185 47.938C255.049 48.174 254.809 48.3308 254.538 48.3596C254.268 48.3884 254 48.2858 253.817 48.0836L246.97 40.4834L246.159 48.9124C246.114 49.3792 245.699 49.7213 245.233 49.6764C244.766 49.6315 244.424 49.2167 244.469 48.7499L245.464 38.4004C245.496 38.0653 245.723 37.7808 246.043 37.6753C246.363 37.5698 246.714 37.6632 246.94 37.9133L254.295 46.0766L270.843 17.2532C271.038 16.9142 271.439 16.7519 271.815 16.86Z" fill="black"/>
</g>
<defs>
<clipPath id="clip0_10475_33681">
<rect width="340" height="285.304" fill="white"/>
</clipPath>
</defs>
</svg>
