<svg viewBox="0 0 280 280" fill="none" xmlns="http://www.w3.org/2000/svg">
<g clip-path="url(#clip0_11989_61826)">
<path d="M129.741 54.5771L65.5231 165.69C60.1476 174.994 66.867 186.599 77.594 186.599H206.03C216.781 186.599 223.477 174.994 218.101 165.69L153.883 54.5771C148.532 45.2738 135.093 45.2738 129.741 54.5771Z" fill="#E6E6E6"/>
<path d="M169.554 81.6724L166.41 76.2051" stroke="black" stroke-width="2" stroke-miterlimit="10" stroke-linecap="round" stroke-linejoin="round"/>
<path d="M205.623 144.086L172.602 86.9229" stroke="black" stroke-width="2" stroke-miterlimit="10" stroke-linecap="round" stroke-linejoin="round"/>
<path d="M138.332 186.599H206.03C216.781 186.599 223.476 174.993 218.101 165.69L217.069 163.892" stroke="black" stroke-width="2" stroke-miterlimit="10" stroke-linecap="round" stroke-linejoin="round"/>
<path d="M64.6592 177.895C66.675 182.858 71.4746 186.623 77.594 186.623H122.95" stroke="black" stroke-width="2" stroke-miterlimit="10" stroke-linecap="round" stroke-linejoin="round"/>
<path d="M93.4798 117.279L67.9941 161.398" stroke="black" stroke-width="2" stroke-miterlimit="10" stroke-linecap="round" stroke-linejoin="round"/>
<path d="M158.923 63.2811L153.883 54.5771C148.508 45.2738 135.093 45.2738 129.717 54.5771L100.584 105.026" stroke="black" stroke-width="2" stroke-miterlimit="10" stroke-linecap="round" stroke-linejoin="round"/>
<path d="M138.26 67.1653L80.6891 166.769C79.1052 169.503 81.0731 172.931 84.2408 172.931H199.358C202.526 172.931 204.494 169.503 202.91 166.769L145.363 67.1653C143.779 64.4319 139.844 64.4319 138.26 67.1653Z" fill="white"/>
<path d="M179.152 172.931H199.359C202.526 172.931 204.494 169.503 202.91 166.769L176.513 121.067" stroke="black" stroke-width="2" stroke-miterlimit="10" stroke-linecap="round" stroke-linejoin="round"/>
<path d="M109.438 172.932H148.483" stroke="black" stroke-width="2" stroke-miterlimit="10" stroke-linecap="round" stroke-linejoin="round"/>
<path d="M132.957 76.3008L126.238 87.93L120.742 97.4732" stroke="black" stroke-width="2" stroke-miterlimit="10" stroke-linecap="round" stroke-linejoin="round"/>
<path d="M170.225 110.158L145.364 67.1653C143.78 64.4319 139.82 64.4319 138.236 67.1653" stroke="black" stroke-width="2" stroke-miterlimit="10" stroke-linecap="round" stroke-linejoin="round"/>
<path d="M149.899 100.711L145.723 138.236C145.507 140.226 143.803 141.737 141.811 141.737C139.796 141.737 138.116 140.226 137.9 138.236L133.724 100.711C133.196 95.891 136.964 91.6709 141.811 91.6709C146.659 91.6709 150.451 95.891 149.899 100.711Z" fill="#8A8A8A" stroke="#8A8A8A" stroke-width="2" stroke-miterlimit="10" stroke-linecap="round" stroke-linejoin="round"/>
<path d="M141.812 161.591C145.497 161.591 148.483 158.607 148.483 154.925C148.483 151.243 145.497 148.259 141.812 148.259C138.128 148.259 135.141 151.243 135.141 154.925C135.141 158.607 138.128 161.591 141.812 161.591Z" fill="#8A8A8A" stroke="#8A8A8A" stroke-width="2" stroke-miterlimit="10" stroke-linecap="round" stroke-linejoin="round"/>
<path d="M103.271 165.426L103.031 165.33C101.375 164.707 100.535 162.86 101.135 161.206L117.381 117.518C118.005 115.864 119.853 115.025 121.509 115.624L121.749 115.72C123.405 116.343 124.245 118.19 123.645 119.844L107.398 163.532C106.774 165.21 104.927 166.049 103.271 165.426Z" fill="white"/>
<path d="M101.783 159.504L75.2657 149.649C72.122 148.474 70.5381 144.997 71.69 141.856L82.441 112.987C83.6169 109.846 87.0966 108.263 90.2403 109.414L116.758 119.269L101.783 159.504Z" fill="#8A8A8A"/>
<path d="M71.1377 143.367L59.3788 139.003C56.0191 137.756 54.3153 134.016 55.5631 130.683L62.9065 110.925C64.1544 107.568 67.898 105.866 71.2337 107.113L82.9927 111.477L71.1377 143.367Z" fill="#8A8A8A"/>
<path d="M57.4594 125.599L41.4289 119.653C38.7651 118.67 37.4212 115.72 38.4052 113.059C39.3891 110.397 42.3408 109.055 45.0046 110.038L61.0351 115.984L57.4594 125.599Z" fill="white"/>
<path d="M98.6152 112.531L116.758 119.269" stroke="black" stroke-width="2" stroke-miterlimit="10" stroke-linecap="round" stroke-linejoin="round"/>
<path d="M93.48 156.412L75.2657 149.65C72.122 148.475 70.5381 144.998 71.69 141.856" stroke="black" stroke-width="2" stroke-miterlimit="10" stroke-linecap="round" stroke-linejoin="round"/>
<path d="M82.9927 111.452L77.1133 127.254" stroke="black" stroke-width="2" stroke-miterlimit="10" stroke-linecap="round" stroke-linejoin="round"/>
<path d="M59.1631 121.021L62.9067 110.925C64.1546 107.568 67.8983 105.866 71.234 107.113" stroke="black" stroke-width="2" stroke-miterlimit="10" stroke-linecap="round" stroke-linejoin="round"/>
<path d="M73.4415 137.181L71.1377 143.368L59.3788 139.003C56.0191 137.757 54.3153 134.016 55.5631 130.683" stroke="black" stroke-width="2" stroke-miterlimit="10" stroke-linecap="round" stroke-linejoin="round"/>
<path d="M57.4594 125.599L41.4289 119.653C38.7651 118.67 37.4212 115.72 38.4052 113.059C39.3891 110.397 42.3408 109.055 45.0046 110.038L61.0351 115.984" stroke="black" stroke-width="2" stroke-miterlimit="10" stroke-linecap="round" stroke-linejoin="round"/>
<path d="M106.439 147.011L117.406 117.543C118.03 115.888 119.878 115.049 121.534 115.648L121.774 115.744C123.43 116.368 124.27 118.214 123.67 119.869L120.766 127.685" stroke="black" stroke-width="2" stroke-miterlimit="10" stroke-linecap="round" stroke-linejoin="round"/>
<path d="M117.022 137.66L107.398 163.556C106.774 165.211 104.927 166.05 103.271 165.45L103.031 165.354C101.375 164.731 100.535 162.885 101.135 161.23L104.495 152.167" stroke="black" stroke-width="2" stroke-miterlimit="10" stroke-linecap="round" stroke-linejoin="round"/>
<path d="M68.3309 115.816L62.8594 130.492" stroke="black" stroke-width="2" stroke-miterlimit="10" stroke-linecap="round" stroke-linejoin="round"/>
<path d="M73.4422 117.711L67.9707 132.41" stroke="black" stroke-width="2" stroke-miterlimit="10" stroke-linecap="round" stroke-linejoin="round"/>
<path d="M166.877 183.655L192.837 193.293L207.799 153.06L181.839 143.422L166.877 183.655Z" fill="#8A8A8A"/>
<path d="M190.17 165.519L175.66 160.132L173.119 166.965L187.629 172.352L190.17 165.519Z" fill="white"/>
<path d="M212.581 149.457L212.821 149.553C214.477 150.176 215.317 152.022 214.717 153.677L198.471 197.364C197.847 199.019 195.999 199.858 194.343 199.259L194.103 199.163C192.447 198.539 191.607 196.693 192.207 195.039L208.454 151.351C209.078 149.673 210.926 148.833 212.581 149.457Z" fill="white"/>
<path d="M212.486 159.552L224.245 163.916C227.604 165.163 229.308 168.903 228.06 172.236L220.717 191.994C219.469 195.351 215.725 197.053 212.39 195.806L200.631 191.442L212.486 159.552Z" fill="#8A8A8A"/>
<path d="M176.921 156.723L181.864 143.438L198.495 149.601" stroke="black" stroke-width="2" stroke-miterlimit="10" stroke-linecap="round" stroke-linejoin="round"/>
<path d="M192.855 193.313L166.89 183.674L174.233 163.916" stroke="black" stroke-width="2" stroke-miterlimit="10" stroke-linecap="round" stroke-linejoin="round"/>
<path d="M226.164 177.319L242.194 183.266C244.858 184.249 246.202 187.198 245.218 189.86C244.234 192.521 241.282 193.864 238.618 192.881L222.588 186.934L226.164 177.319Z" fill="white"/>
<path d="M222.612 186.91L226.188 177.295L242.219 183.241C244.882 184.224 246.226 187.174 245.242 189.835C244.258 192.497 241.307 193.84 238.643 192.856L230.412 189.811" stroke="black" stroke-width="2" stroke-miterlimit="10" stroke-linecap="round" stroke-linejoin="round"/>
<path d="M212.366 195.83L200.607 191.466L198.447 197.365C197.823 199.019 195.975 199.858 194.32 199.259L194.08 199.163C192.424 198.54 191.584 196.693 192.184 195.039L200.871 171.685" stroke="black" stroke-width="2" stroke-miterlimit="10" stroke-linecap="round" stroke-linejoin="round"/>
<path d="M204.639 161.59L208.454 151.351C209.078 149.697 210.926 148.858 212.582 149.457L212.822 149.553C214.478 150.176 215.318 152.023 214.718 153.677L205.887 177.343" stroke="black" stroke-width="2" stroke-miterlimit="10" stroke-linecap="round" stroke-linejoin="round"/>
<path d="M176.921 156.723L163.386 151.687C161.658 151.04 160.77 149.122 161.418 147.395C162.066 145.668 163.986 144.781 165.714 145.429L179.248 150.464L176.921 156.723Z" fill="white"/>
<path d="M169.506 176.624L155.971 171.589C154.243 170.941 153.355 169.023 154.003 167.296C154.651 165.57 156.571 164.683 158.299 165.33L171.833 170.366L169.506 176.624Z" fill="white"/>
<path d="M161.418 147.395C162.066 145.668 163.986 144.781 165.714 145.429L179.248 150.464L176.921 156.699L165.81 152.575" stroke="black" stroke-width="2" stroke-miterlimit="10" stroke-linecap="round" stroke-linejoin="round"/>
<path d="M169.506 176.624L155.971 171.589C154.243 170.941 153.355 169.023 154.003 167.296C154.651 165.57 156.571 164.683 158.299 165.33L171.833 170.366L169.506 176.624Z" stroke="black" stroke-width="2" stroke-miterlimit="10" stroke-linecap="round" stroke-linejoin="round"/>
<path d="M205.046 179.573L212.509 159.527L224.268 163.891C227.628 165.138 229.332 168.879 228.084 172.212L220.74 191.969" stroke="black" stroke-width="2" stroke-miterlimit="10" stroke-linecap="round" stroke-linejoin="round"/>
<path d="M215.293 187.103L220.764 172.428" stroke="black" stroke-width="2" stroke-miterlimit="10" stroke-linecap="round" stroke-linejoin="round"/>
<path d="M210.182 185.209L215.653 170.51" stroke="black" stroke-width="2" stroke-miterlimit="10" stroke-linecap="round" stroke-linejoin="round"/>
<path d="M84.5771 72.5605C91.8485 75.9177 98.7119 79.9222 105.263 84.4783" stroke="black" stroke-width="2" stroke-miterlimit="10" stroke-linecap="round" stroke-linejoin="round"/>
<path d="M21.8949 81.2882C25.2786 79.9215 29.7902 79.0823 35.5737 78.9624C75.6501 78.1711 80.6416 108.095 31.7101 93.397C24.9667 91.3589 19.6632 88.6254 15.8235 85.5563C0.608881 73.3516 9.08011 56.3274 44.5729 61.1229C56.8598 62.7774 68.0668 65.7506 78.4098 69.8988" stroke="black" stroke-width="2" stroke-miterlimit="10" stroke-linecap="round" stroke-linejoin="round"/>
<path d="M38.4769 112.843C19.6386 107.281 9.55955 93.7331 15.847 85.5566" stroke="black" stroke-width="2" stroke-miterlimit="10" stroke-linecap="round" stroke-linejoin="round"/>
<path d="M257.242 195.015C253.882 193.169 249.874 191.419 245.219 189.836" stroke="black" stroke-width="2" stroke-miterlimit="10" stroke-linecap="round" stroke-linejoin="round"/>
<path d="M237.107 223.333C232.211 222.661 226.86 221.534 221.052 219.856C188.199 210.385 210.589 200.17 235.187 214.437C240.659 217.626 243.826 221.007 244.858 224.028C270.92 225.107 279.247 211.104 263.313 198.899" stroke="black" stroke-width="2" stroke-miterlimit="10" stroke-linecap="round" stroke-linejoin="round"/>
<path d="M165.81 206.956C180.136 219.976 197.703 229.183 216.253 232.325C237.179 235.873 247.402 231.533 244.858 224.028" stroke="black" stroke-width="2" stroke-miterlimit="10" stroke-linecap="round" stroke-linejoin="round"/>
<path d="M152.011 191.97C154.483 195.207 157.146 198.324 159.978 201.274" stroke="black" stroke-width="2" stroke-miterlimit="10" stroke-linecap="round" stroke-linejoin="round"/>
<path d="M42.6044 141.568L30.6055 147.995" stroke="black" stroke-width="2" stroke-miterlimit="10" stroke-linecap="round" stroke-linejoin="round"/>
<path d="M47.7643 146.915L44.1406 152.526" stroke="black" stroke-width="2" stroke-miterlimit="10" stroke-linecap="round" stroke-linejoin="round"/>
<path d="M40.9962 134.279L34.3008 134.207" stroke="black" stroke-width="2" stroke-miterlimit="10" stroke-linecap="round" stroke-linejoin="round"/>
<path d="M240.467 160.32L252.466 153.894" stroke="black" stroke-width="2" stroke-miterlimit="10" stroke-linecap="round" stroke-linejoin="round"/>
<path d="M235.283 154.973L238.931 149.361" stroke="black" stroke-width="2" stroke-miterlimit="10" stroke-linecap="round" stroke-linejoin="round"/>
<path d="M242.074 167.585L248.746 167.681" stroke="black" stroke-width="2" stroke-miterlimit="10" stroke-linecap="round" stroke-linejoin="round"/>
<path d="M199.479 53.0186L201.831 61.5307C202.935 65.535 206.055 68.6521 210.062 69.7551L218.581 72.1049L210.062 74.4547C206.055 75.5577 202.935 78.6748 201.831 82.6791L199.479 91.1912L197.127 82.6791C196.024 78.6748 192.904 75.5577 188.896 74.4547L180.377 72.1049L188.896 69.7551C192.904 68.6521 196.024 65.535 197.127 61.5307L199.479 53.0186Z" fill="white"/>
<path d="M217.213 124.304L215.701 118.861C214.669 115.145 211.789 112.244 208.07 111.237L202.622 109.726L208.07 108.215C211.789 107.184 214.693 104.307 215.701 100.59L217.213 95.1475L218.725 100.59C219.757 104.307 222.636 107.208 226.356 108.215L231.803 109.726L226.356 111.237C222.636 112.268 219.733 115.145 218.725 118.861L217.213 124.304Z" fill="white"/>
<path d="M238.547 72.1045L239.819 76.7322C240.395 78.7943 242.003 80.4248 244.067 80.9763L248.722 82.2471L244.067 83.5179C242.003 84.0934 240.371 85.6999 239.819 87.762L238.547 92.4137L237.275 87.762C236.699 85.6999 235.091 84.0694 233.028 83.5179L228.372 82.2471L233.028 80.9763C235.091 80.4008 236.723 78.7943 237.275 76.7322L238.547 72.1045Z" fill="white"/>
<path d="M218.557 72.1049L210.038 74.4547C206.03 75.5577 202.91 78.6748 201.807 82.6791L199.455 91.1912L197.103 82.6791C195.999 78.6748 192.879 75.5577 188.872 74.4547L180.353 72.1049L188.872 69.7551C192.879 68.6521 195.999 65.535 197.103 61.5307L199.455 53.0186L201.807 61.5307C202.91 65.535 206.03 68.6521 210.038 69.7551" stroke="black" stroke-width="2" stroke-miterlimit="10" stroke-linecap="round" stroke-linejoin="round"/>
<path d="M202.622 109.726L208.07 108.215C211.789 107.184 214.693 104.307 215.701 100.59L217.213 95.1475L218.725 100.59C219.757 104.307 222.636 107.208 226.356 108.215L231.803 109.726L226.356 111.237C222.636 112.268 219.733 115.145 218.725 118.861L217.213 124.304L215.701 118.861C215.029 116.392 213.517 114.282 211.477 112.843" stroke="black" stroke-width="2" stroke-miterlimit="10" stroke-linecap="round" stroke-linejoin="round"/>
<path d="M238.547 92.4377L237.275 87.786C236.699 85.7239 235.091 84.0934 233.028 83.5419L228.372 82.2711L233.028 81.0003C235.091 80.4248 236.723 78.8183 237.275 76.7562L238.547 72.1045L239.819 76.7322C240.395 78.7943 242.003 80.4248 244.067 80.9763L248.722 82.2471L244.067 83.5179C242.603 83.9255 241.355 84.8607 240.563 86.1075" stroke="black" stroke-width="2" stroke-miterlimit="10" stroke-linecap="round" stroke-linejoin="round"/>
<path d="M99.408 70.6418C75.4342 55.6077 51.4844 52.9941 51.4844 52.9941" stroke="black" stroke-width="2" stroke-miterlimit="10" stroke-linecap="round" stroke-linejoin="round"/>
<path d="M164.706 217.122C182.104 231.701 200.871 236.376 200.871 236.376" stroke="black" stroke-width="2" stroke-miterlimit="10" stroke-linecap="round" stroke-linejoin="round"/>
</g>
<defs>
<clipPath id="clip0_11989_61826">
<rect width="264" height="196" fill="white" transform="translate(8 42)"/>
</clipPath>
</defs>
</svg>
