<svg viewBox="0 0 280 281" fill="none" xmlns="http://www.w3.org/2000/svg">
<path d="M192.377 135.699H183.122V260.417H192.377V135.699Z" fill="white"/>
<path fill-rule="evenodd" clip-rule="evenodd" d="M192.376 174.863C192.736 174.863 193.028 175.154 193.028 175.513V252.773C193.028 253.132 192.736 253.423 192.376 253.423C192.016 253.423 191.725 253.132 191.725 252.773V175.513C191.725 175.154 192.016 174.863 192.376 174.863Z" fill="#5B5B5B"/>
<path fill-rule="evenodd" clip-rule="evenodd" d="M183.121 206.198C183.481 206.198 183.773 206.489 183.773 206.848V259.768H192.377C192.737 259.768 193.028 260.059 193.028 260.418C193.028 260.777 192.737 261.068 192.377 261.068H183.121C182.762 261.068 182.47 260.777 182.47 260.418V206.848C182.47 206.489 182.762 206.198 183.121 206.198Z" fill="#5B5B5B"/>
<path fill-rule="evenodd" clip-rule="evenodd" d="M182.47 135.7C182.47 135.341 182.762 135.05 183.121 135.05H192.377C192.737 135.05 193.028 135.341 193.028 135.7V161.6C193.028 161.96 192.737 162.251 192.377 162.251C192.017 162.251 191.725 161.96 191.725 161.6V136.35H183.773V196.447C183.773 196.806 183.481 197.097 183.121 197.097C182.762 197.097 182.47 196.806 182.47 196.447V135.7Z" fill="#5B5B5B"/>
<path d="M128.816 97.0575V121.008C128.816 124.57 125.922 127.457 122.35 127.457H24.7673C21.1956 127.457 18.3018 124.57 18.3018 121.008V97.0575C18.3018 93.4949 21.1956 90.6084 24.7673 90.6084H122.35C125.922 90.6084 128.816 93.4949 128.816 97.0575Z" fill="#C7C7C7"/>
<path d="M128.816 141.37V165.32C128.816 168.883 125.922 171.769 122.35 171.769H24.7673C21.1956 171.769 18.3018 168.883 18.3018 165.32V141.37C18.3018 137.807 21.1956 134.921 24.7673 134.921H122.35C125.922 134.947 128.816 137.833 128.816 141.37Z" fill="#C7C7C7"/>
<path d="M128.816 185.706V209.656C128.816 213.219 125.922 216.105 122.35 216.105H24.7673C21.1956 216.105 18.3018 213.219 18.3018 209.656V185.706C18.3018 182.143 21.1956 179.257 24.7673 179.257H122.35C125.922 179.257 128.816 182.143 128.816 185.706Z" fill="#C7C7C7"/>
<path d="M128.816 230.019V253.995C128.816 257.558 125.922 260.444 122.35 260.444H24.7673C21.1956 260.444 18.3018 257.558 18.3018 253.995V230.045C18.3018 226.482 21.1956 223.596 24.7673 223.596H122.35C125.922 223.596 128.816 226.482 128.816 230.019Z" fill="#C7C7C7"/>
<path fill-rule="evenodd" clip-rule="evenodd" d="M24.7936 91.2592C21.5819 91.2592 18.9798 93.8547 18.9798 97.0582C18.9798 97.4173 18.688 97.7083 18.328 97.7083C17.9681 97.7083 17.6763 97.4173 17.6763 97.0582C17.6763 93.1366 20.8619 89.959 24.7936 89.959H29.8513C30.2113 89.959 30.5031 90.2501 30.5031 90.6091C30.5031 90.9681 30.2113 91.2592 29.8513 91.2592H24.7936Z" fill="#5B5B5B"/>
<path fill-rule="evenodd" clip-rule="evenodd" d="M78.395 90.6091C78.395 90.2501 78.6868 89.959 79.0468 89.959H122.376C122.736 89.959 123.028 90.2501 123.028 90.6091C123.028 90.9681 122.736 91.2592 122.376 91.2592H79.0468C78.6868 91.2592 78.395 90.9681 78.395 90.6091Z" fill="#5B5B5B"/>
<path fill-rule="evenodd" clip-rule="evenodd" d="M53.7832 90.6091C53.7832 90.2501 54.075 89.959 54.435 89.959H66.975C67.335 89.959 67.6268 90.2501 67.6268 90.6091C67.6268 90.9681 67.335 91.2592 66.975 91.2592H54.435C54.075 91.2592 53.7832 90.9681 53.7832 90.6091Z" fill="#5B5B5B"/>
<path fill-rule="evenodd" clip-rule="evenodd" d="M24.7936 135.569C21.5819 135.569 18.9798 138.164 18.9798 141.368C18.9798 141.727 18.688 142.018 18.328 142.018C17.9681 142.018 17.6763 141.727 17.6763 141.368C17.6763 137.446 20.8619 134.269 24.7936 134.269H122.376C122.736 134.269 123.028 134.56 123.028 134.919C123.028 135.278 122.736 135.569 122.376 135.569H24.7936Z" fill="#5B5B5B"/>
<path d="M147.143 127.456H23.4893V134.945H147.143V127.456Z" fill="#5B5B5B"/>
<path fill-rule="evenodd" clip-rule="evenodd" d="M22.5771 127.457C22.5771 126.954 22.9857 126.547 23.4896 126.547H147.143C147.647 126.547 148.056 126.954 148.056 127.457V134.946C148.056 135.449 147.647 135.857 147.143 135.857H23.4896C22.9857 135.857 22.5771 135.449 22.5771 134.946V127.457ZM24.4021 128.367V134.036H146.231V128.367H24.4021Z" fill="#5B5B5B"/>
<path d="M147.143 171.77H23.4893V179.259H147.143V171.77Z" fill="#5B5B5B"/>
<path fill-rule="evenodd" clip-rule="evenodd" d="M22.5771 171.767C22.5771 171.264 22.9857 170.856 23.4896 170.856H147.143C147.647 170.856 148.056 171.264 148.056 171.767V179.256C148.056 179.759 147.647 180.166 147.143 180.166H23.4896C22.9857 180.166 22.5771 179.759 22.5771 179.256V171.767ZM24.4021 172.677V178.346H146.231V172.677H24.4021Z" fill="#5B5B5B"/>
<path fill-rule="evenodd" clip-rule="evenodd" d="M18.3017 253.319C18.6616 253.319 18.9534 253.61 18.9534 253.969C18.9534 257.173 21.5555 259.768 24.7672 259.768H122.376C122.736 259.768 123.028 260.06 123.028 260.419C123.028 260.778 122.736 261.069 122.376 261.069H24.7672C20.8356 261.069 17.6499 257.891 17.6499 253.969C17.6499 253.61 17.9417 253.319 18.3017 253.319Z" fill="#5B5B5B"/>
<path d="M152.358 97.0575V121.008C152.358 124.57 149.464 127.457 145.892 127.457H122.35C125.922 127.457 128.816 124.57 128.816 121.008V97.0575C128.816 93.4949 125.922 90.6084 122.35 90.6084H145.892C149.464 90.6084 152.358 93.4949 152.358 97.0575Z" fill="white"/>
<path d="M152.358 141.37V165.32C152.358 168.883 149.464 171.769 145.892 171.769H122.35C125.922 171.769 128.816 168.883 128.816 165.32V141.37C128.816 137.807 125.922 134.921 122.35 134.921H145.892C149.464 134.947 152.358 137.833 152.358 141.37Z" fill="white"/>
<path d="M152.358 185.706V209.656C152.358 213.219 149.464 216.105 145.892 216.105H122.35C125.922 216.105 128.816 213.219 128.816 209.656V185.706C128.816 182.143 125.922 179.257 122.35 179.257H145.892C149.464 179.257 152.358 182.143 152.358 185.706Z" fill="white"/>
<path d="M152.358 230.019V253.995C152.358 257.558 149.464 260.444 145.892 260.444H122.35C125.922 260.444 128.816 257.558 128.816 253.995V230.045C128.816 226.482 125.922 223.596 122.35 223.596H145.892C149.464 223.596 152.358 226.482 152.358 230.019Z" fill="white"/>
<path fill-rule="evenodd" clip-rule="evenodd" d="M121.698 90.6091C121.698 90.2501 121.99 89.959 122.35 89.959H145.892C149.824 89.959 153.009 93.1366 153.009 97.0582V121.008C153.009 124.93 149.824 128.108 145.892 128.108H122.35C121.99 128.108 121.698 127.817 121.698 127.458C121.698 127.099 121.99 126.807 122.35 126.807C125.562 126.807 128.164 124.212 128.164 121.008V107.408C128.164 107.049 128.456 106.758 128.816 106.758C129.176 106.758 129.467 107.049 129.467 107.408V121.008C129.467 123.404 128.279 125.522 126.457 126.807H145.892C149.104 126.807 151.706 124.212 151.706 121.008V97.0582C151.706 93.8547 149.104 91.2592 145.892 91.2592H126.457C128.279 92.5448 129.467 94.6627 129.467 97.0582C129.467 97.4173 129.176 97.7083 128.816 97.7083C128.456 97.7083 128.164 97.4173 128.164 97.0582C128.164 93.8547 125.562 91.2592 122.35 91.2592C121.99 91.2592 121.698 90.9681 121.698 90.6091Z" fill="#5B5B5B"/>
<path fill-rule="evenodd" clip-rule="evenodd" d="M121.698 134.919C121.698 134.56 121.99 134.269 122.35 134.269H145.892C149.824 134.269 153.009 137.446 153.009 141.368V165.318C153.009 169.24 149.824 172.417 145.892 172.417H122.35C121.99 172.417 121.698 172.126 121.698 171.767C121.698 171.408 121.99 171.117 122.35 171.117C125.562 171.117 128.164 168.522 128.164 165.318C128.164 164.959 128.456 164.668 128.816 164.668C129.176 164.668 129.467 164.959 129.467 165.318C129.467 167.714 128.279 169.831 126.457 171.117H145.892C149.104 171.117 151.706 168.522 151.706 165.318V141.368C151.706 138.164 149.104 135.569 145.892 135.569H126.457C128.279 136.854 129.467 138.972 129.467 141.368V147.089C129.467 147.448 129.176 147.739 128.816 147.739C128.456 147.739 128.164 147.448 128.164 147.089V141.368C128.164 138.164 125.562 135.569 122.35 135.569C121.99 135.569 121.698 135.278 121.698 134.919Z" fill="#5B5B5B"/>
<path fill-rule="evenodd" clip-rule="evenodd" d="M121.698 179.258C121.698 178.898 121.99 178.607 122.35 178.607H145.892C149.824 178.607 153.009 181.785 153.009 185.707V209.657C153.009 213.579 149.824 216.756 145.892 216.756H122.35C121.99 216.756 121.698 216.465 121.698 216.106C121.698 215.747 121.99 215.456 122.35 215.456C125.562 215.456 128.164 212.86 128.164 209.657V199.307C128.164 198.948 128.456 198.657 128.816 198.657C129.176 198.657 129.467 198.948 129.467 199.307V209.657C129.467 212.052 128.279 214.17 126.457 215.456H145.892C149.104 215.456 151.706 212.86 151.706 209.657V185.707C151.706 182.503 149.104 179.908 145.892 179.908H126.457C128.279 181.193 129.467 183.311 129.467 185.707C129.467 186.066 129.176 186.357 128.816 186.357C128.456 186.357 128.164 186.066 128.164 185.707C128.164 182.503 125.562 179.908 122.35 179.908C121.99 179.908 121.698 179.617 121.698 179.258Z" fill="#5B5B5B"/>
<path fill-rule="evenodd" clip-rule="evenodd" d="M121.725 223.594C121.725 223.235 122.016 222.944 122.376 222.944H145.918C149.85 222.944 153.036 226.122 153.036 230.044V253.994C153.036 257.915 149.85 261.093 145.918 261.093H122.376C122.016 261.093 121.725 260.802 121.725 260.443C121.725 260.084 122.016 259.793 122.376 259.793C125.588 259.793 128.19 257.197 128.19 253.994V245.152C128.19 244.793 128.482 244.502 128.842 244.502C129.202 244.502 129.494 244.793 129.494 245.152V253.994C129.494 256.389 128.305 258.507 126.484 259.793H145.918C149.13 259.793 151.732 257.197 151.732 253.994V230.044C151.732 226.84 149.13 224.245 145.918 224.245H122.376C122.016 224.245 121.725 223.953 121.725 223.594Z" fill="#5B5B5B"/>
<path d="M147.143 216.105H23.4893V223.595H147.143V216.105Z" fill="#5B5B5B"/>
<path fill-rule="evenodd" clip-rule="evenodd" d="M22.5771 216.105C22.5771 215.603 22.9857 215.195 23.4896 215.195H147.143C147.647 215.195 148.056 215.603 148.056 216.105V223.595C148.056 224.097 147.647 224.505 147.143 224.505H23.4896C22.9857 224.505 22.5771 224.097 22.5771 223.595V216.105ZM24.4021 217.016V222.685H146.231V217.016H24.4021Z" fill="#5B5B5B"/>
<path fill-rule="evenodd" clip-rule="evenodd" d="M38.4606 101.836C38.7662 102.025 38.8597 102.426 38.6696 102.731L30.3791 116.019C30.1889 116.324 29.7869 116.418 29.4813 116.228C29.1757 116.038 29.0821 115.637 29.2723 115.332L37.5628 102.044C37.753 101.739 38.1549 101.646 38.4606 101.836Z" fill="#5B5B5B"/>
<path fill-rule="evenodd" clip-rule="evenodd" d="M43.4401 110.236C43.7457 110.426 43.8392 110.827 43.6491 111.131L40.5988 116.02C40.4086 116.325 40.0066 116.418 39.701 116.229C39.3954 116.039 39.3019 115.638 39.4921 115.333L42.5423 110.444C42.7325 110.14 43.1345 110.046 43.4401 110.236Z" fill="#5B5B5B"/>
<path fill-rule="evenodd" clip-rule="evenodd" d="M48.7057 101.836C49.0113 102.025 49.1049 102.426 48.9147 102.731L46.7248 106.242C46.5346 106.546 46.1327 106.64 45.8271 106.45C45.5214 106.26 45.4278 105.86 45.618 105.555L47.8079 102.044C47.9981 101.739 48.4 101.646 48.7057 101.836Z" fill="#5B5B5B"/>
<path fill-rule="evenodd" clip-rule="evenodd" d="M58.9264 101.836C59.232 102.025 59.3256 102.426 59.1354 102.731L50.8449 116.019C50.6547 116.324 50.2528 116.418 49.9471 116.228C49.6415 116.038 49.548 115.637 49.7381 115.332L58.0286 102.044C58.2188 101.739 58.6208 101.646 58.9264 101.836Z" fill="#5B5B5B"/>
<path fill-rule="evenodd" clip-rule="evenodd" d="M69.1461 101.836C69.4517 102.025 69.5453 102.426 69.3551 102.731L61.0646 116.019C60.8744 116.324 60.4725 116.418 60.1669 116.228C59.8613 116.038 59.7677 115.637 59.9579 115.332L68.2484 102.044C68.4386 101.739 68.8405 101.646 69.1461 101.836Z" fill="#5B5B5B"/>
<path fill-rule="evenodd" clip-rule="evenodd" d="M79.3927 101.836C79.698 102.026 79.791 102.427 79.6004 102.732L71.2838 116.02C71.0932 116.325 70.6912 116.417 70.3858 116.227C70.0805 116.037 69.9875 115.636 70.1781 115.332L78.4947 102.043C78.6853 101.739 79.0873 101.646 79.3927 101.836Z" fill="#5B5B5B"/>
<path d="M110.463 115.313C113.933 115.313 116.746 112.507 116.746 109.045C116.746 105.584 113.933 102.778 110.463 102.778C106.993 102.778 104.18 105.584 104.18 109.045C104.18 112.507 106.993 115.313 110.463 115.313Z" fill="white"/>
<path d="M110.463 159.988C113.933 159.988 116.746 157.182 116.746 153.721C116.746 150.26 113.933 147.454 110.463 147.454C106.993 147.454 104.18 150.26 104.18 153.721C104.18 157.182 106.993 159.988 110.463 159.988Z" fill="white"/>
<path d="M110.463 203.962C113.933 203.962 116.746 201.156 116.746 197.695C116.746 194.234 113.933 191.428 110.463 191.428C106.993 191.428 104.18 194.234 104.18 197.695C104.18 201.156 106.993 203.962 110.463 203.962Z" fill="white"/>
<path d="M110.463 248.274C113.933 248.274 116.746 245.469 116.746 242.007C116.746 238.546 113.933 235.74 110.463 235.74C106.993 235.74 104.18 238.546 104.18 242.007C104.18 245.469 106.993 248.274 110.463 248.274Z" fill="white"/>
<path fill-rule="evenodd" clip-rule="evenodd" d="M109.809 102.777C109.809 102.418 110.1 102.127 110.46 102.127C114.288 102.127 117.395 105.227 117.395 109.044C117.395 109.403 117.103 109.694 116.743 109.694C116.383 109.694 116.092 109.403 116.092 109.044C116.092 105.945 113.568 103.427 110.46 103.427C110.1 103.427 109.809 103.136 109.809 102.777Z" fill="#5B5B5B"/>
<path fill-rule="evenodd" clip-rule="evenodd" d="M104.18 108.395C104.54 108.395 104.831 108.686 104.831 109.045C104.831 112.144 107.355 114.662 110.463 114.662C110.823 114.662 111.114 114.953 111.114 115.312C111.114 115.671 110.823 115.962 110.463 115.962C106.635 115.962 103.528 112.862 103.528 109.045C103.528 108.686 103.82 108.395 104.18 108.395Z" fill="#5B5B5B"/>
<path fill-rule="evenodd" clip-rule="evenodd" d="M86.6851 109.045C86.6851 108.686 86.9769 108.395 87.3368 108.395H104.179C104.539 108.395 104.83 108.686 104.83 109.045C104.83 109.404 104.539 109.695 104.179 109.695H87.3368C86.9769 109.695 86.6851 109.404 86.6851 109.045Z" fill="#5B5B5B"/>
<path fill-rule="evenodd" clip-rule="evenodd" d="M38.461 146.538C38.7665 146.728 38.8597 147.129 38.6693 147.434L30.3787 160.696C30.1883 161.001 29.7863 161.094 29.4808 160.904C29.1754 160.714 29.0822 160.313 29.2726 160.008L37.5631 146.746C37.7536 146.441 38.1556 146.348 38.461 146.538Z" fill="#5B5B5B"/>
<path fill-rule="evenodd" clip-rule="evenodd" d="M48.7076 146.538C49.0128 146.729 49.1054 147.13 48.9146 147.434L40.598 160.697C40.4071 161.001 40.005 161.094 39.6998 160.903C39.3946 160.713 39.3019 160.312 39.4928 160.007L47.8094 146.745C48.0003 146.44 48.4024 146.348 48.7076 146.538Z" fill="#5B5B5B"/>
<path fill-rule="evenodd" clip-rule="evenodd" d="M52.2789 157.173C52.5843 157.363 52.6775 157.764 52.487 158.068L50.8445 160.695C50.654 161 50.252 161.093 49.9466 160.902C49.6411 160.712 49.548 160.311 49.7385 160.007L51.381 157.38C51.5715 157.076 51.9735 156.983 52.2789 157.173Z" fill="#5B5B5B"/>
<path fill-rule="evenodd" clip-rule="evenodd" d="M58.9264 146.538C59.232 146.727 59.3256 147.128 59.1353 147.433L55.2247 153.7C55.0345 154.005 54.6326 154.098 54.327 153.909C54.0214 153.719 53.9278 153.318 54.118 153.013L58.0287 146.746C58.2189 146.441 58.6208 146.348 58.9264 146.538Z" fill="#5B5B5B"/>
<path fill-rule="evenodd" clip-rule="evenodd" d="M69.1466 146.538C69.452 146.728 69.5453 147.129 69.3548 147.434L61.0643 160.696C60.8738 161.001 60.4718 161.094 60.1664 160.904C59.8609 160.714 59.7677 160.313 59.9582 160.008L68.2487 146.746C68.4391 146.441 68.8411 146.348 69.1466 146.538Z" fill="#5B5B5B"/>
<path fill-rule="evenodd" clip-rule="evenodd" d="M75.2487 153.17C75.5536 153.361 75.6457 153.762 75.4544 154.066L71.283 160.697C71.0917 161.001 70.6895 161.093 70.3845 160.902C70.0796 160.712 69.9876 160.31 70.1789 160.006L74.3502 153.375C74.5415 153.071 74.9438 152.979 75.2487 153.17Z" fill="#5B5B5B"/>
<path fill-rule="evenodd" clip-rule="evenodd" d="M79.3908 146.537C79.6966 146.727 79.7906 147.128 79.6007 147.433L78.0625 149.903C77.8726 150.208 77.4707 150.302 77.1649 150.112C76.8591 149.923 76.7652 149.522 76.9551 149.217L78.4933 146.747C78.6832 146.442 79.0851 146.348 79.3908 146.537Z" fill="#5B5B5B"/>
<path fill-rule="evenodd" clip-rule="evenodd" d="M109.809 147.455C109.809 147.096 110.1 146.805 110.46 146.805C114.288 146.805 117.395 149.904 117.395 153.722C117.395 154.081 117.103 154.372 116.743 154.372C116.383 154.372 116.092 154.081 116.092 153.722C116.092 150.622 113.568 148.105 110.46 148.105C110.1 148.105 109.809 147.814 109.809 147.455Z" fill="#5B5B5B"/>
<path fill-rule="evenodd" clip-rule="evenodd" d="M104.18 153.07C104.54 153.07 104.831 153.361 104.831 153.72C104.831 156.82 107.355 159.337 110.463 159.337C110.823 159.337 111.114 159.628 111.114 159.988C111.114 160.347 110.823 160.638 110.463 160.638C106.635 160.638 103.528 157.538 103.528 153.72C103.528 153.361 103.82 153.07 104.18 153.07Z" fill="#5B5B5B"/>
<path fill-rule="evenodd" clip-rule="evenodd" d="M86.6851 153.72C86.6851 153.361 86.9769 153.07 87.3368 153.07H104.179C104.539 153.07 104.83 153.361 104.83 153.72C104.83 154.079 104.539 154.371 104.179 154.371H87.3368C86.9769 154.371 86.6851 154.079 86.6851 153.72Z" fill="#5B5B5B"/>
<path fill-rule="evenodd" clip-rule="evenodd" d="M38.4606 190.485C38.7662 190.675 38.8597 191.076 38.6696 191.38L30.3791 204.669C30.1889 204.974 29.7869 205.067 29.4813 204.877C29.1757 204.688 29.0821 204.287 29.2723 203.982L37.5628 190.693C37.753 190.389 38.1549 190.295 38.4606 190.485Z" fill="#5B5B5B"/>
<path fill-rule="evenodd" clip-rule="evenodd" d="M48.7071 190.485C49.0125 190.676 49.1055 191.077 48.9149 191.381L40.5983 204.67C40.4077 204.974 40.0056 205.067 39.7003 204.877C39.3949 204.687 39.3019 204.286 39.4925 203.981L47.8091 190.693C47.9997 190.388 48.4018 190.295 48.7071 190.485Z" fill="#5B5B5B"/>
<path fill-rule="evenodd" clip-rule="evenodd" d="M58.9264 190.485C59.232 190.675 59.3256 191.076 59.1354 191.38L50.8449 204.669C50.6547 204.974 50.2528 205.067 49.9471 204.877C49.6415 204.688 49.548 204.287 49.7381 203.982L58.0286 190.693C58.2188 190.389 58.6208 190.295 58.9264 190.485Z" fill="#5B5B5B"/>
<path fill-rule="evenodd" clip-rule="evenodd" d="M63.0455 200.263C63.3511 200.453 63.4447 200.854 63.2546 201.159L61.0646 204.669C60.8745 204.974 60.4725 205.068 60.1669 204.878C59.8613 204.688 59.7677 204.287 59.9578 203.982L62.1478 200.472C62.338 200.167 62.7399 200.074 63.0455 200.263Z" fill="#5B5B5B"/>
<path fill-rule="evenodd" clip-rule="evenodd" d="M69.1456 190.485C69.4512 190.675 69.5448 191.076 69.3546 191.38L66.3043 196.269C66.1141 196.574 65.7122 196.667 65.4066 196.478C65.101 196.288 65.0074 195.887 65.1976 195.582L68.2479 190.693C68.4381 190.389 68.84 190.295 69.1456 190.485Z" fill="#5B5B5B"/>
<path fill-rule="evenodd" clip-rule="evenodd" d="M79.3927 190.485C79.698 190.676 79.791 191.077 79.6004 191.381L71.2838 204.67C71.0932 204.974 70.6912 205.067 70.3858 204.877C70.0805 204.687 69.9875 204.286 70.1781 203.981L78.4947 190.693C78.6853 190.388 79.0873 190.295 79.3927 190.485Z" fill="#5B5B5B"/>
<path fill-rule="evenodd" clip-rule="evenodd" d="M109.809 191.428C109.809 191.069 110.1 190.778 110.46 190.778C114.288 190.778 117.395 193.878 117.395 197.696C117.395 198.055 117.103 198.346 116.743 198.346C116.383 198.346 116.092 198.055 116.092 197.696C116.092 194.596 113.568 192.079 110.46 192.079C110.1 192.079 109.809 191.787 109.809 191.428Z" fill="#5B5B5B"/>
<path fill-rule="evenodd" clip-rule="evenodd" d="M104.18 197.044C104.54 197.044 104.831 197.335 104.831 197.694C104.831 200.794 107.355 203.311 110.463 203.311C110.823 203.311 111.114 203.602 111.114 203.961C111.114 204.32 110.823 204.611 110.463 204.611C106.635 204.611 103.528 201.512 103.528 197.694C103.528 197.335 103.82 197.044 104.18 197.044Z" fill="#5B5B5B"/>
<path fill-rule="evenodd" clip-rule="evenodd" d="M86.6851 197.694C86.6851 197.335 86.9769 197.044 87.3368 197.044H104.179C104.539 197.044 104.83 197.335 104.83 197.694C104.83 198.053 104.539 198.344 104.179 198.344H87.3368C86.9769 198.344 86.6851 198.053 86.6851 197.694Z" fill="#5B5B5B"/>
<path fill-rule="evenodd" clip-rule="evenodd" d="M32.3618 244.603C32.6668 244.794 32.7591 245.195 32.5679 245.499L30.3779 248.984C30.1867 249.288 29.7845 249.38 29.4795 249.19C29.1745 248.999 29.0823 248.598 29.2734 248.293L31.4634 244.809C31.6546 244.505 32.0568 244.413 32.3618 244.603Z" fill="#5B5B5B"/>
<path fill-rule="evenodd" clip-rule="evenodd" d="M38.4607 234.824C38.766 235.015 38.8588 235.416 38.668 235.72L35.5395 240.713C35.3487 241.018 34.9466 241.11 34.6414 240.92C34.3361 240.73 34.2433 240.329 34.4341 240.024L37.5626 235.031C37.7534 234.727 38.1555 234.634 38.4607 234.824Z" fill="#5B5B5B"/>
<path fill-rule="evenodd" clip-rule="evenodd" d="M48.7076 234.825C49.0128 235.015 49.1054 235.416 48.9146 235.721L40.598 248.983C40.4071 249.287 40.005 249.38 39.6998 249.189C39.3946 248.999 39.3019 248.598 39.4928 248.293L47.8094 235.031C48.0003 234.727 48.4024 234.634 48.7076 234.825Z" fill="#5B5B5B"/>
<path fill-rule="evenodd" clip-rule="evenodd" d="M58.9269 234.824C59.2323 235.014 59.3255 235.415 59.1351 235.72L50.8446 248.982C50.6541 249.287 50.2521 249.38 49.9467 249.19C49.6412 249 49.548 248.599 49.7384 248.294L58.0289 235.032C58.2194 234.727 58.6214 234.634 58.9269 234.824Z" fill="#5B5B5B"/>
<path fill-rule="evenodd" clip-rule="evenodd" d="M63.9059 243.198C64.2115 243.388 64.3051 243.788 64.1149 244.093L61.0646 248.982C60.8744 249.287 60.4725 249.38 60.1669 249.191C59.8612 249.001 59.7677 248.6 59.9579 248.295L63.0082 243.406C63.1983 243.101 63.6003 243.008 63.9059 243.198Z" fill="#5B5B5B"/>
<path fill-rule="evenodd" clip-rule="evenodd" d="M69.1451 234.824C69.4507 235.013 69.5443 235.414 69.3542 235.719L67.1642 239.23C66.9741 239.535 66.5721 239.628 66.2665 239.438C65.9609 239.249 65.8673 238.848 66.0575 238.543L68.2474 235.032C68.4376 234.727 68.8395 234.634 69.1451 234.824Z" fill="#5B5B5B"/>
<path fill-rule="evenodd" clip-rule="evenodd" d="M79.3932 234.825C79.6983 235.015 79.791 235.416 79.6001 235.721L71.2835 248.983C71.0926 249.287 70.6905 249.38 70.3853 249.189C70.0801 248.999 69.9875 248.598 70.1784 248.293L78.495 235.031C78.6858 234.727 79.088 234.634 79.3932 234.825Z" fill="#5B5B5B"/>
<path fill-rule="evenodd" clip-rule="evenodd" d="M109.809 235.738C109.809 235.379 110.1 235.088 110.46 235.088C114.288 235.088 117.395 238.187 117.395 242.005C117.395 242.364 117.103 242.655 116.743 242.655C116.383 242.655 116.092 242.364 116.092 242.005C116.092 238.906 113.568 236.388 110.46 236.388C110.1 236.388 109.809 236.097 109.809 235.738Z" fill="#5B5B5B"/>
<path fill-rule="evenodd" clip-rule="evenodd" d="M104.18 241.356C104.54 241.356 104.831 241.648 104.831 242.007C104.831 245.106 107.355 247.624 110.463 247.624C110.823 247.624 111.114 247.915 111.114 248.274C111.114 248.633 110.823 248.924 110.463 248.924C106.635 248.924 103.528 245.824 103.528 242.007C103.528 241.648 103.82 241.356 104.18 241.356Z" fill="#5B5B5B"/>
<path fill-rule="evenodd" clip-rule="evenodd" d="M86.6851 242.007C86.6851 241.648 86.9769 241.356 87.3368 241.356H104.179C104.539 241.356 104.83 241.648 104.83 242.007C104.83 242.366 104.539 242.657 104.179 242.657H87.3368C86.9769 242.657 86.6851 242.366 86.6851 242.007Z" fill="#5B5B5B"/>
<path d="M74.3285 122.75H34.5445C31.9374 122.75 29.8257 124.856 29.8257 127.457H79.0473C79.0473 124.856 76.9356 122.75 74.3285 122.75Z" fill="#5B5B5B"/>
<path fill-rule="evenodd" clip-rule="evenodd" d="M28.9136 127.458C28.9136 124.355 31.4338 121.841 34.5449 121.841H74.3288C77.4399 121.841 79.9601 124.355 79.9601 127.458C79.9601 127.699 79.864 127.931 79.6929 128.101C79.5218 128.272 79.2897 128.368 79.0477 128.368H29.8261C29.3221 128.368 28.9136 127.96 28.9136 127.458ZM30.8485 126.548H78.0252C77.6168 124.89 76.1174 123.661 74.3288 123.661H34.5449C32.7563 123.661 31.257 124.89 30.8485 126.548Z" fill="#5B5B5B"/>
<path d="M74.3285 167.061H34.5445C31.9374 167.061 29.8257 169.167 29.8257 171.767H79.0473C79.0473 169.167 76.9356 167.061 74.3285 167.061Z" fill="#5B5B5B"/>
<path fill-rule="evenodd" clip-rule="evenodd" d="M28.9136 171.767C28.9136 168.664 31.4338 166.15 34.5449 166.15H74.3288C77.4399 166.15 79.9601 168.664 79.9601 171.767C79.9601 172.009 79.864 172.24 79.6929 172.411C79.5218 172.582 79.2897 172.678 79.0477 172.678H29.8261C29.3221 172.678 28.9136 172.27 28.9136 171.767ZM30.8485 170.857H78.0252C77.6168 169.199 76.1174 167.971 74.3288 167.971H34.5449C32.7563 167.971 31.257 169.199 30.8485 170.857Z" fill="#5B5B5B"/>
<path d="M74.3285 211.399H34.5445C31.9374 211.399 29.8257 213.506 29.8257 216.106H79.0473C79.0473 213.506 76.9356 211.399 74.3285 211.399Z" fill="#5B5B5B"/>
<path fill-rule="evenodd" clip-rule="evenodd" d="M28.9136 216.106C28.9136 213.003 31.4338 210.489 34.5449 210.489H74.3288C77.4399 210.489 79.9601 213.003 79.9601 216.106C79.9601 216.348 79.864 216.579 79.6929 216.75C79.5218 216.921 79.2897 217.016 79.0477 217.016H29.8261C29.3221 217.016 28.9136 216.609 28.9136 216.106ZM30.8485 215.196H78.0252C77.6168 213.538 76.1174 212.31 74.3288 212.31H34.5449C32.7563 212.31 31.257 213.538 30.8485 215.196Z" fill="#5B5B5B"/>
<path d="M74.3285 255.712H34.5445C31.9374 255.712 29.8257 257.818 29.8257 260.419H79.0473C79.0473 257.818 76.9356 255.712 74.3285 255.712Z" fill="#5B5B5B"/>
<path fill-rule="evenodd" clip-rule="evenodd" d="M28.9136 260.417C28.9136 257.314 31.4338 254.8 34.5449 254.8H74.3288C77.4399 254.8 79.9601 257.314 79.9601 260.417C79.9601 260.658 79.864 260.89 79.6929 261.06C79.5218 261.231 79.2897 261.327 79.0477 261.327H29.8261C29.3221 261.327 28.9136 260.919 28.9136 260.417ZM30.8485 259.507H78.0252C77.6168 257.849 76.1174 256.62 74.3288 256.62H34.5449C32.7563 256.62 31.257 257.849 30.8485 259.507Z" fill="#5B5B5B"/>
<path d="M240.925 171.851L240.925 252.777L257.089 252.777L257.089 171.851L240.925 171.851Z" fill="#C7C7C7"/>
<path d="M238.235 260.418H259.795C261.907 260.418 263.627 258.702 263.627 256.595C263.627 254.489 261.907 252.772 259.795 252.772H238.235C236.123 252.772 234.402 254.489 234.402 256.595C234.376 258.728 236.097 260.418 238.235 260.418Z" fill="white"/>
<path d="M143.25 171.838V252.765H159.413V171.838H143.25Z" fill="#C7C7C7"/>
<path d="M162.109 260.418H140.549C138.437 260.418 136.716 258.702 136.716 256.595C136.716 254.489 138.437 252.772 140.549 252.772H162.109C164.221 252.772 165.942 254.489 165.942 256.595C165.968 258.728 164.247 260.418 162.109 260.418Z" fill="white"/>
<path d="M161.953 163.89H140.705C138.489 163.89 136.716 165.684 136.716 167.868C136.716 170.079 138.515 171.847 140.705 171.847H161.953C164.169 171.847 165.942 170.053 165.942 167.868C165.968 165.658 164.169 163.89 161.953 163.89Z" fill="white"/>
<path d="M259.638 163.89H238.391C236.175 163.89 234.402 165.684 234.402 167.868C234.402 170.079 236.201 171.847 238.391 171.847H259.638C261.854 171.847 263.627 170.053 263.627 167.868C263.627 165.658 261.854 163.89 259.638 163.89Z" fill="white"/>
<path fill-rule="evenodd" clip-rule="evenodd" d="M240.268 171.846C240.268 171.487 240.559 171.196 240.919 171.196H257.083C257.443 171.196 257.735 171.487 257.735 171.846V196.447C257.735 196.806 257.443 197.097 257.083 197.097C256.723 197.097 256.431 196.806 256.431 196.447V172.497H241.571V252.123H256.431V209.969C256.431 209.61 256.723 209.319 257.083 209.319C257.443 209.319 257.735 209.61 257.735 209.969V252.773C257.735 253.132 257.443 253.423 257.083 253.423H240.919C240.559 253.423 240.268 253.132 240.268 252.773V171.846Z" fill="#5B5B5B"/>
<path fill-rule="evenodd" clip-rule="evenodd" d="M233.75 256.592C233.752 254.128 235.764 252.123 238.234 252.123H259.795C262.266 252.123 264.279 254.13 264.279 256.596C264.279 259.061 262.266 261.069 259.795 261.069H238.234C235.745 261.069 233.721 259.095 233.75 256.592ZM238.234 253.423C236.482 253.423 235.053 254.849 235.053 256.596L235.053 256.604C235.032 258.364 236.449 259.768 238.234 259.768H259.795C261.546 259.768 262.975 258.343 262.975 256.596C262.975 254.849 261.546 253.423 259.795 253.423H238.234Z" fill="#5B5B5B"/>
<path fill-rule="evenodd" clip-rule="evenodd" d="M142.608 171.846C142.608 171.487 142.9 171.196 143.26 171.196H159.424C159.784 171.196 160.076 171.487 160.076 171.846V185.265C160.076 185.624 159.784 185.915 159.424 185.915C159.064 185.915 158.772 185.624 158.772 185.265V172.497H143.912V234.153C143.912 234.512 143.62 234.804 143.26 234.804C142.9 234.804 142.608 234.512 142.608 234.153V171.846Z" fill="#5B5B5B"/>
<path fill-rule="evenodd" clip-rule="evenodd" d="M159.424 193.899C159.784 193.899 160.076 194.19 160.076 194.55V252.774C160.076 253.133 159.784 253.424 159.424 253.424H143.26C142.9 253.424 142.608 253.133 142.608 252.774V244.036C142.608 243.677 142.9 243.386 143.26 243.386C143.62 243.386 143.912 243.677 143.912 244.036V252.124H158.772V194.55C158.772 194.19 159.064 193.899 159.424 193.899Z" fill="#5B5B5B"/>
<path d="M279.088 171.846H121.23V187.969H279.088V171.846Z" fill="#C7C7C7"/>
<path d="M279.088 212.309H121.23V228.431H279.088V212.309Z" fill="#C7C7C7"/>
<path d="M148.422 187.969H136.716L149.595 171.846H161.327L148.422 187.969Z" fill="white"/>
<path d="M182.523 187.969H170.817L183.696 171.846H195.428L182.523 187.969Z" fill="white"/>
<path d="M216.647 187.969H204.915L217.794 171.846H229.526L216.647 187.969Z" fill="white"/>
<path d="M250.748 187.969H239.016L251.921 171.846H263.627L250.748 187.969Z" fill="white"/>
<path d="M148.422 228.431H136.716L149.595 212.309H161.327L148.422 228.431Z" fill="white"/>
<path d="M182.523 228.431H170.817L183.696 212.309H195.428L182.523 228.431Z" fill="white"/>
<path d="M216.647 228.431H204.915L217.794 212.309H229.526L216.647 228.431Z" fill="white"/>
<path d="M250.748 228.431H239.016L251.921 212.309H263.627L250.748 228.431Z" fill="white"/>
<path fill-rule="evenodd" clip-rule="evenodd" d="M120.578 171.846C120.578 171.487 120.87 171.196 121.23 171.196H279.114C279.474 171.196 279.766 171.487 279.766 171.846V179.908C279.766 180.267 279.474 180.558 279.114 180.558C278.754 180.558 278.463 180.267 278.463 179.908V172.497H121.882V187.319H198.738C199.098 187.319 199.39 187.61 199.39 187.969C199.39 188.328 199.098 188.619 198.738 188.619H121.23C120.87 188.619 120.578 188.328 120.578 187.969V171.846Z" fill="#5B5B5B"/>
<path fill-rule="evenodd" clip-rule="evenodd" d="M213.234 187.968C213.234 187.609 213.526 187.318 213.886 187.318H279.115C279.475 187.318 279.766 187.609 279.766 187.968C279.766 188.328 279.475 188.619 279.115 188.619H213.886C213.526 188.619 213.234 188.328 213.234 187.968Z" fill="#5B5B5B"/>
<path fill-rule="evenodd" clip-rule="evenodd" d="M165.314 212.309C165.314 211.95 165.606 211.659 165.966 211.659H279.113C279.473 211.659 279.765 211.95 279.765 212.309V228.432C279.765 228.791 279.473 229.082 279.113 229.082H225.381C225.021 229.082 224.729 228.791 224.729 228.432C224.729 228.073 225.021 227.782 225.381 227.782H278.461V212.959H165.966C165.606 212.959 165.314 212.668 165.314 212.309Z" fill="#5B5B5B"/>
<path fill-rule="evenodd" clip-rule="evenodd" d="M120.578 212.309C120.578 211.95 120.87 211.659 121.23 211.659H152.358C152.718 211.659 153.01 211.95 153.01 212.309C153.01 212.668 152.718 212.959 152.358 212.959H121.882V228.432C121.882 228.791 121.59 229.082 121.23 229.082C120.87 229.082 120.578 228.791 120.578 228.432V212.309Z" fill="#5B5B5B"/>
<path fill-rule="evenodd" clip-rule="evenodd" d="M136.064 228.432C136.064 228.073 136.356 227.782 136.716 227.782H210.991C211.351 227.782 211.643 228.073 211.643 228.432C211.643 228.791 211.351 229.082 210.991 229.082H136.716C136.356 229.082 136.064 228.791 136.064 228.432Z" fill="#5B5B5B"/>
<path fill-rule="evenodd" clip-rule="evenodd" d="M140.548 253.423C138.796 253.423 137.368 254.849 137.368 256.596C137.368 258.343 138.796 259.768 140.548 259.768H162.109C163.894 259.768 165.311 258.364 165.289 256.604L165.289 256.596C165.289 254.849 163.86 253.423 162.109 253.423H140.548ZM136.064 256.596C136.064 254.13 138.076 252.123 140.548 252.123H162.109C164.579 252.123 166.591 254.128 166.593 256.592C166.621 259.095 164.598 261.069 162.109 261.069H140.548C138.076 261.069 136.064 259.061 136.064 256.596Z" fill="#5B5B5B"/>
<path fill-rule="evenodd" clip-rule="evenodd" d="M136.064 167.866C136.064 165.325 138.126 163.237 140.705 163.237H157.807C158.167 163.237 158.459 163.528 158.459 163.887C158.459 164.246 158.167 164.538 157.807 164.538H140.705C138.851 164.538 137.368 166.038 137.368 167.866C137.368 169.715 138.872 171.195 140.705 171.195H161.952C163.806 171.195 165.289 169.694 165.289 167.866C165.289 167.507 165.581 167.216 165.941 167.216C166.301 167.216 166.593 167.507 166.593 167.866C166.593 170.407 164.531 172.495 161.952 172.495H140.705C138.157 172.495 136.064 170.438 136.064 167.866Z" fill="#5B5B5B"/>
<path fill-rule="evenodd" clip-rule="evenodd" d="M233.75 167.866C233.75 165.325 235.811 163.237 238.39 163.237H259.638C262.185 163.237 264.278 165.294 264.278 167.866C264.278 170.407 262.217 172.495 259.638 172.495H238.39C238.03 172.495 237.738 172.204 237.738 171.845C237.738 171.486 238.03 171.195 238.39 171.195H259.638C261.491 171.195 262.975 169.694 262.975 167.866C262.975 166.018 261.471 164.538 259.638 164.538H238.39C236.537 164.538 235.053 166.038 235.053 167.866C235.053 168.225 234.761 168.516 234.401 168.516C234.041 168.516 233.75 168.225 233.75 167.866Z" fill="#5B5B5B"/>
<path d="M151.342 163.887C156.194 163.887 160.127 159.964 160.127 155.124C160.127 150.284 156.194 146.36 151.342 146.36C146.489 146.36 142.556 150.284 142.556 155.124C142.556 159.964 146.489 163.887 151.342 163.887Z" fill="#C7C7C7"/>
<path d="M249.001 163.887C253.853 163.887 257.787 159.964 257.787 155.124C257.787 150.284 253.853 146.36 249.001 146.36C244.148 146.36 240.215 150.284 240.215 155.124C240.215 159.964 244.148 163.887 249.001 163.887Z" fill="#C7C7C7"/>
<path fill-rule="evenodd" clip-rule="evenodd" d="M156.641 148.115C156.879 147.846 157.291 147.821 157.561 148.059C159.516 149.786 160.779 152.3 160.779 155.125C160.779 160.321 156.55 164.538 151.341 164.538C146.132 164.538 141.903 160.321 141.903 155.125C141.903 154.766 142.195 154.475 142.555 154.475C142.915 154.475 143.207 154.766 143.207 155.125C143.207 159.603 146.852 163.238 151.341 163.238C155.83 163.238 159.475 159.603 159.475 155.125C159.475 152.697 158.392 150.53 156.697 149.032C156.427 148.794 156.402 148.383 156.641 148.115Z" fill="#5B5B5B"/>
<path fill-rule="evenodd" clip-rule="evenodd" d="M240.562 152.67C240.913 152.747 241.136 153.093 241.06 153.444C240.941 153.988 240.892 154.539 240.892 155.126C240.892 159.604 244.537 163.239 249.026 163.239C251.97 163.239 254.552 161.676 255.976 159.315C256.162 159.008 256.563 158.908 256.871 159.094C257.179 159.279 257.279 159.678 257.093 159.986C255.442 162.722 252.445 164.54 249.026 164.54C243.817 164.54 239.589 160.322 239.589 155.126C239.589 154.465 239.644 153.819 239.786 153.167C239.863 152.817 240.21 152.594 240.562 152.67Z" fill="#5B5B5B"/>
<path d="M275.567 260.523H229.161C227.076 260.523 225.407 258.833 225.407 256.778V253.034C225.407 250.953 227.102 249.289 229.161 249.289H275.567C277.653 249.289 279.322 250.979 279.322 253.034V256.778C279.348 258.833 277.653 260.523 275.567 260.523Z" fill="#C7C7C7"/>
<path d="M274.055 249.261H230.673L237.973 229.887L245.143 210.852L247.645 204.221C249.288 199.878 255.414 199.878 257.057 204.221L259.56 210.852L266.729 229.887L274.055 249.261Z" fill="#C7C7C7"/>
<path d="M266.757 229.472H237.975L245.17 212.751H259.587L266.757 229.472Z" fill="white"/>
<path d="M271.292 240.005H233.463L236.435 233.062H268.293L271.292 240.005Z" fill="white"/>
<path fill-rule="evenodd" clip-rule="evenodd" d="M273.404 249.287C273.404 248.928 273.695 248.637 274.055 248.637H275.594C278.01 248.637 280 250.589 280 253.031V256.776C280 259.187 278.042 261.171 275.594 261.171H271.292C270.932 261.171 270.64 260.88 270.64 260.521C270.64 260.162 270.932 259.871 271.292 259.871H275.594C277.316 259.871 278.696 258.474 278.696 256.776V253.031C278.696 251.313 277.296 249.937 275.594 249.937H274.055C273.695 249.937 273.404 249.646 273.404 249.287Z" fill="#5B5B5B"/>
<path fill-rule="evenodd" clip-rule="evenodd" d="M248.282 204.424C248.282 204.424 248.282 204.425 248.282 204.425L247.109 207.544C246.982 207.88 246.607 208.051 246.27 207.925C245.933 207.798 245.762 207.424 245.888 207.088L247.062 203.966C248.916 199.062 255.838 199.062 257.693 203.966L257.693 203.967L274.665 249.033C274.741 249.232 274.713 249.456 274.591 249.631C274.469 249.807 274.269 249.911 274.055 249.911H240.919C240.559 249.911 240.268 249.62 240.268 249.261C240.268 248.902 240.559 248.611 240.919 248.611H273.114L256.473 204.425C256.473 204.425 256.473 204.424 256.473 204.424C255.043 200.643 249.712 200.643 248.282 204.424Z" fill="#5B5B5B"/>
<path fill-rule="evenodd" clip-rule="evenodd" d="M241.852 219.683C242.189 219.81 242.359 220.184 242.233 220.521L231.309 249.516C231.214 249.769 230.971 249.937 230.699 249.937H229.161C227.458 249.937 226.058 251.313 226.058 253.032V256.776C226.058 258.475 227.438 259.871 229.161 259.871H261.306C261.666 259.871 261.958 260.162 261.958 260.521C261.958 260.88 261.666 261.171 261.306 261.171H229.161C226.712 261.171 224.755 259.187 224.755 256.776V253.032C224.755 250.589 226.744 248.637 229.161 248.637H230.248L241.013 220.063C241.139 219.727 241.515 219.557 241.852 219.683Z" fill="#5B5B5B"/>
<path d="M210.077 41.3818H165.418C162.342 41.3818 159.5 43.0201 157.988 45.6726L135.645 84.2634C134.107 86.9159 134.107 90.1924 135.645 92.8449L157.988 131.436C159.526 134.088 162.368 135.726 165.418 135.726H210.077C213.154 135.726 215.995 134.088 217.508 131.436L239.85 92.8189C241.388 90.1665 241.388 86.8899 239.85 84.2374L217.508 45.6726C215.995 43.0201 213.154 41.3818 210.077 41.3818Z" fill="#C7C7C7"/>
<path fill-rule="evenodd" clip-rule="evenodd" d="M229.827 66.9007C230.139 66.7212 230.537 66.8277 230.717 67.1386L240.441 83.9372C242.096 86.791 242.096 90.3158 240.441 93.1697L237.339 98.5015C237.158 98.812 236.759 98.9176 236.448 98.7374C236.136 98.5571 236.03 98.1593 236.211 97.8487L239.313 92.5187C240.734 90.0676 240.734 87.0393 239.313 84.5882L239.313 84.5877L229.588 67.7888C229.408 67.4778 229.515 67.0802 229.827 66.9007Z" fill="#5B5B5B"/>
<path fill-rule="evenodd" clip-rule="evenodd" d="M232.617 105.335C232.929 105.515 233.035 105.913 232.855 106.224L218.075 131.73C218.075 131.731 218.075 131.731 218.074 131.732C216.445 134.589 213.386 136.35 210.079 136.35C209.719 136.35 209.427 136.059 209.427 135.7C209.427 135.34 209.719 135.049 210.079 135.049C212.923 135.049 215.547 133.535 216.942 131.087L216.944 131.083L231.727 105.573C231.907 105.262 232.305 105.156 232.617 105.335Z" fill="#5B5B5B"/>
<path fill-rule="evenodd" clip-rule="evenodd" d="M142.229 104.217C142.541 104.038 142.94 104.144 143.12 104.455L158.527 131.083C159.95 133.536 162.577 135.049 165.393 135.049H192.35C192.71 135.049 193.002 135.341 193.002 135.7C193.002 136.059 192.71 136.35 192.35 136.35H165.393C162.109 136.35 159.053 134.586 157.399 131.734L141.991 105.105C141.811 104.794 141.918 104.397 142.229 104.217Z" fill="#5B5B5B"/>
<path fill-rule="evenodd" clip-rule="evenodd" d="M147.496 63.781C147.807 63.9609 147.914 64.3586 147.733 64.6693L140.851 76.5274C140.67 76.8381 140.272 76.9442 139.96 76.7643C139.649 76.5844 139.542 76.1867 139.723 75.8759L146.605 64.0179C146.786 63.7071 147.184 63.6011 147.496 63.781Z" fill="#5B5B5B"/>
<path fill-rule="evenodd" clip-rule="evenodd" d="M157.422 45.3499C159.051 42.4934 162.11 40.7324 165.418 40.7324H210.103C213.387 40.7324 216.443 42.4956 218.097 45.3478L218.098 45.349L220.679 49.8218C220.858 50.133 220.751 50.5304 220.439 50.7095C220.127 50.8886 219.729 50.7816 219.549 50.4704L216.969 45.9988C216.969 45.9987 216.969 45.9986 216.969 45.9985C215.546 43.5459 212.919 42.0327 210.103 42.0327H165.418C162.573 42.0327 159.949 43.5474 158.554 45.9946L158.552 45.9987L151.904 57.4667C151.723 57.7776 151.325 57.8838 151.013 57.7041C150.702 57.5244 150.595 57.1267 150.775 56.8159L157.422 45.3499Z" fill="#5B5B5B"/>
<path d="M204.082 53.5H171.389C168.938 53.5 166.696 54.8002 165.471 56.9066L149.125 85.1476C147.899 87.254 147.899 89.8544 149.125 91.9608L165.471 120.202C166.696 122.308 168.938 123.608 171.389 123.608H204.082C206.532 123.608 208.774 122.308 210 120.202L226.346 91.9608C227.571 89.8544 227.571 87.254 226.346 85.1476L210 56.9066C208.774 54.8002 206.532 53.5 204.082 53.5Z" fill="white"/>
<path fill-rule="evenodd" clip-rule="evenodd" d="M226.673 91.3976C226.985 91.5769 227.092 91.9745 226.912 92.2855L214.45 113.843C214.271 114.154 213.872 114.261 213.56 114.082C213.248 113.902 213.141 113.505 213.321 113.194L225.783 91.636C225.963 91.325 226.361 91.2182 226.673 91.3976Z" fill="#5B5B5B"/>
<path fill-rule="evenodd" clip-rule="evenodd" d="M164.935 56.581C166.276 54.2757 168.732 52.8506 171.417 52.8506H175.77C176.13 52.8506 176.422 53.1417 176.422 53.5007C176.422 53.8597 176.13 54.1508 175.77 54.1508H171.417C169.2 54.1508 167.172 55.3261 166.062 57.2336L149.69 85.4737C149.51 85.7845 149.111 85.8908 148.8 85.7111C148.488 85.5313 148.382 85.1337 148.562 84.8228L164.934 56.5819L164.935 56.581Z" fill="#5B5B5B"/>
<path fill-rule="evenodd" clip-rule="evenodd" d="M15.5913 242.007C15.5913 241.648 15.8831 241.356 16.2431 241.356H18.3287C18.6887 241.356 18.9805 241.648 18.9805 242.007C18.9805 242.366 18.6887 242.657 18.3287 242.657H16.2431C15.8831 242.657 15.5913 242.366 15.5913 242.007Z" fill="#5B5B5B"/>
<path fill-rule="evenodd" clip-rule="evenodd" d="M9.9851 203.858C9.48362 203.858 8.99272 203.9 8.51562 203.981C8.16074 204.041 7.82422 203.803 7.76399 203.449C7.70375 203.095 7.94262 202.759 8.29751 202.699C8.84643 202.606 9.41029 202.558 9.9851 202.558H10.7574C11.1173 202.558 11.4091 202.849 11.4091 203.208C11.4091 203.567 11.1173 203.858 10.7574 203.858H9.9851ZM12.1328 203.208C12.1328 202.849 12.4246 202.558 12.7845 202.558H13.5568C13.9168 202.558 14.2086 202.849 14.2086 203.208C14.2086 203.567 13.9168 203.858 13.5568 203.858H12.7845C12.4246 203.858 12.1328 203.567 12.1328 203.208ZM5.12504 204.538C5.33302 204.831 5.26344 205.236 4.96964 205.444C4.16555 206.012 3.46283 206.713 2.89363 207.515C2.68565 207.808 2.27888 207.877 1.98508 207.67C1.69128 207.462 1.62171 207.056 1.82968 206.763C2.48414 205.841 3.29196 205.035 4.2165 204.383C4.5103 204.175 4.91707 204.245 5.12504 204.538ZM0.89323 210.302C1.24812 210.362 1.48698 210.698 1.42675 211.052C1.34578 211.528 1.30354 212.017 1.30354 212.517V214.699C1.30354 215.058 1.01173 215.349 0.651769 215.349C0.291807 215.349 0 215.058 0 214.699V212.517C0 211.944 0.04843 211.382 0.141592 210.834C0.201823 210.48 0.538342 210.242 0.89323 210.302ZM0.651769 219.775C1.01173 219.775 1.30354 220.067 1.30354 220.426V224.789C1.30354 225.148 1.01173 225.439 0.651769 225.439C0.291807 225.439 0 225.148 0 224.789V220.426C0 220.067 0.291807 219.775 0.651769 219.775ZM0.651769 229.865C1.01173 229.865 1.30354 230.156 1.30354 230.515V232.697C1.30354 233.197 1.34578 233.687 1.42675 234.163C1.48698 234.517 1.24812 234.852 0.89323 234.912C0.538343 234.972 0.201823 234.734 0.141592 234.38C0.0484301 233.833 0 233.27 0 232.697V230.515C0 230.156 0.291807 229.865 0.651769 229.865ZM1.98508 237.545C2.27888 237.337 2.68565 237.407 2.89363 237.7C3.46283 238.502 4.16555 239.203 4.96964 239.77C5.26344 239.978 5.33302 240.384 5.12504 240.677C4.91707 240.97 4.5103 241.039 4.2165 240.832C3.29196 240.179 2.48414 239.373 1.82968 238.451C1.62171 238.158 1.69128 237.752 1.98508 237.545ZM7.76398 241.766C7.82421 241.412 8.16073 241.173 8.51562 241.234C8.99272 241.314 9.48362 241.356 9.9851 241.356H10.1768C10.2659 241.356 10.3509 241.374 10.4283 241.407C10.5057 241.374 10.5907 241.356 10.6799 241.356H10.8715C11.2315 241.356 11.5233 241.648 11.5233 242.007C11.5233 242.366 11.2315 242.657 10.8715 242.657H10.6799C10.5907 242.657 10.5057 242.639 10.4283 242.607C10.3509 242.639 10.2659 242.657 10.1768 242.657H9.9851C9.41028 242.657 8.84642 242.608 8.29751 242.515C7.94262 242.455 7.70375 242.12 7.76398 241.766Z" fill="#5B5B5B"/>
<path fill-rule="evenodd" clip-rule="evenodd" d="M15.5913 203.208C15.5913 202.849 15.8831 202.558 16.2431 202.558H18.3287C18.6887 202.558 18.9805 202.849 18.9805 203.208C18.9805 203.567 18.6887 203.858 18.3287 203.858H16.2431C15.8831 203.858 15.5913 203.567 15.5913 203.208Z" fill="#5B5B5B"/>
<path fill-rule="evenodd" clip-rule="evenodd" d="M15.5913 193.327C15.5913 192.968 15.8831 192.677 16.2431 192.677H18.3287C18.6887 192.677 18.9805 192.968 18.9805 193.327C18.9805 193.686 18.6887 193.977 18.3287 193.977H16.2431C15.8831 193.977 15.5913 193.686 15.5913 193.327Z" fill="#5B5B5B"/>
<path fill-rule="evenodd" clip-rule="evenodd" d="M9.9851 109.695C9.48362 109.695 8.99272 109.737 8.51562 109.818C8.16074 109.878 7.82422 109.639 7.76399 109.285C7.70375 108.932 7.94262 108.596 8.29751 108.536C8.84643 108.443 9.41029 108.395 9.9851 108.395H10.763C11.123 108.395 11.4148 108.686 11.4148 109.045C11.4148 109.404 11.123 109.695 10.763 109.695H9.9851ZM12.1532 109.045C12.1532 108.686 12.445 108.395 12.805 108.395H13.5829C13.9428 108.395 14.2346 108.686 14.2346 109.045C14.2346 109.404 13.9428 109.695 13.5829 109.695H12.805C12.445 109.695 12.1532 109.404 12.1532 109.045ZM5.12504 110.375C5.33302 110.668 5.26344 111.073 4.96964 111.281C4.16555 111.849 3.46283 112.55 2.89363 113.352C2.68565 113.645 2.27888 113.714 1.98508 113.507C1.69128 113.299 1.62171 112.893 1.82968 112.6C2.48414 111.678 3.29196 110.872 4.2165 110.22C4.5103 110.012 4.91707 110.082 5.12504 110.375ZM0.89323 116.139C1.24812 116.199 1.48698 116.535 1.42675 116.889C1.34578 117.364 1.30354 117.854 1.30354 118.354V120.382C1.30354 120.741 1.01173 121.033 0.651769 121.033C0.291807 121.033 0 120.741 0 120.382V118.354C0 117.781 0.0484299 117.218 0.141592 116.671C0.201823 116.317 0.538342 116.079 0.89323 116.139ZM0.651769 125.056C1.01173 125.056 1.30354 125.347 1.30354 125.706V129.763C1.30354 130.122 1.01173 130.413 0.651769 130.413C0.291807 130.413 0 130.122 0 129.763V125.706C0 125.347 0.291807 125.056 0.651769 125.056ZM0.651769 134.436C1.01173 134.436 1.30354 134.728 1.30354 135.087V139.143C1.30354 139.502 1.01173 139.793 0.651769 139.793C0.291807 139.793 0 139.502 0 139.143V135.087C0 134.728 0.291807 134.436 0.651769 134.436ZM0.651769 143.817C1.01173 143.817 1.30354 144.108 1.30354 144.467V148.523C1.30354 148.882 1.01173 149.173 0.651769 149.173C0.291807 149.173 0 148.882 0 148.523V144.467C0 144.108 0.291807 143.817 0.651769 143.817ZM0.651769 153.197C1.01173 153.197 1.30354 153.488 1.30354 153.847V157.903C1.30354 158.262 1.01173 158.553 0.651769 158.553C0.291807 158.553 0 158.262 0 157.903V153.847C0 153.488 0.291807 153.197 0.651769 153.197ZM0.651769 162.577C1.01173 162.577 1.30354 162.868 1.30354 163.227V167.284C1.30354 167.643 1.01173 167.934 0.651769 167.934C0.291807 167.934 0 167.643 0 167.284V163.227C0 162.868 0.291807 162.577 0.651769 162.577ZM0.651769 171.957C1.01173 171.957 1.30354 172.248 1.30354 172.607V176.664C1.30354 177.023 1.01173 177.314 0.651769 177.314C0.291807 177.314 0 177.023 0 176.664V172.607C0 172.248 0.291807 171.957 0.651769 171.957ZM0.651769 181.338C1.01173 181.338 1.30354 181.629 1.30354 181.988V184.016C1.30354 184.516 1.34578 185.006 1.42675 185.482C1.48698 185.836 1.24812 186.171 0.89323 186.231C0.538342 186.291 0.201823 186.053 0.141592 185.699C0.04843 185.152 0 184.589 0 184.016V181.988C0 181.629 0.291807 181.338 0.651769 181.338ZM1.98508 188.864C2.27888 188.656 2.68565 188.726 2.89363 189.019C3.46283 189.821 4.16556 190.522 4.96964 191.089C5.26345 191.297 5.33302 191.703 5.12505 191.996C4.91707 192.289 4.5103 192.358 4.2165 192.151C3.29196 191.498 2.48414 190.692 1.82968 189.77C1.62171 189.477 1.69128 189.071 1.98508 188.864ZM7.76399 193.085C7.82422 192.731 8.16074 192.492 8.51562 192.552C8.99272 192.633 9.48362 192.675 9.9851 192.675H10.1937C10.2914 192.675 10.3842 192.697 10.4674 192.735C10.5506 192.697 10.6434 192.675 10.7412 192.675H10.9497C11.3097 192.675 11.6015 192.966 11.6015 193.326C11.6015 193.685 11.3097 193.976 10.9497 193.976H10.7412C10.6434 193.976 10.5506 193.954 10.4674 193.916C10.3842 193.954 10.2914 193.976 10.1937 193.976H9.9851C9.41029 193.976 8.84643 193.927 8.29751 193.834C7.94262 193.774 7.70375 193.439 7.76399 193.085Z" fill="#5B5B5B"/>
<path fill-rule="evenodd" clip-rule="evenodd" d="M15.5913 109.045C15.5913 108.686 15.8831 108.395 16.2431 108.395H18.3287C18.6887 108.395 18.9805 108.686 18.9805 109.045C18.9805 109.404 18.6887 109.695 18.3287 109.695H16.2431C15.8831 109.695 15.5913 109.404 15.5913 109.045Z" fill="#5B5B5B"/>
<path fill-rule="evenodd" clip-rule="evenodd" d="M271.005 88.5252C271.005 88.8843 270.714 89.1757 270.354 89.1762L250.566 89.2022C250.206 89.2027 249.914 88.912 249.914 88.5529C249.913 88.1939 250.205 87.9024 250.564 87.902L270.352 87.876C270.712 87.8755 271.004 88.1662 271.005 88.5252Z" fill="#5B5B5B"/>
<path fill-rule="evenodd" clip-rule="evenodd" d="M256.695 76.9133C256.834 77.2448 256.676 77.6254 256.344 77.7632L247.819 81.2999C247.486 81.4378 247.105 81.2808 246.967 80.9493C246.828 80.6177 246.986 80.2372 247.318 80.0993L255.843 76.5627C256.176 76.4248 256.557 76.5818 256.695 76.9133Z" fill="#5B5B5B"/>
<path fill-rule="evenodd" clip-rule="evenodd" d="M247.019 96.1565C247.158 95.825 247.539 95.668 247.871 95.8059L256.397 99.3425C256.729 99.4804 256.886 99.8609 256.748 100.192C256.61 100.524 256.228 100.681 255.896 100.543L247.371 97.0064C247.039 96.8685 246.881 96.488 247.019 96.1565Z" fill="#5B5B5B"/>
<path fill-rule="evenodd" clip-rule="evenodd" d="M55.8473 69.3407C56.162 69.5151 56.2754 69.9109 56.1005 70.2247C53.9019 74.1722 52.015 78.3236 50.5164 82.7052C50.4001 83.045 50.0297 83.2265 49.689 83.1105C49.3484 82.9946 49.1664 82.6251 49.2826 82.2853C50.8082 77.8253 52.7276 73.6032 54.961 69.5933C55.1359 69.2794 55.5327 69.1664 55.8473 69.3407Z" fill="#5B5B5B"/>
<path fill-rule="evenodd" clip-rule="evenodd" d="M123.286 29.6538C128.401 32.0493 131.683 36.8084 132.152 44.0952C132.863 55.1398 125.551 63.8658 118.964 66.7609C115.695 68.1976 112.333 68.296 110.308 66.1056C108.319 63.9531 107.945 59.9031 109.814 53.8532C111.909 47.0025 115.803 41.0638 120.661 36.1396C120.913 35.8836 121.326 35.8803 121.583 36.1321C121.839 36.384 121.843 36.7956 121.59 37.0515C116.854 41.8526 113.084 47.6153 111.06 54.2343L111.059 54.236C109.213 60.2133 109.787 63.6233 111.267 65.2244C112.712 66.7876 115.339 66.9331 118.438 65.5711C124.587 62.8687 131.523 54.6137 130.851 44.1785C130.408 37.2928 127.355 32.9958 122.732 30.8308C118.057 28.6411 111.661 28.5781 104.476 30.4631C90.1174 34.23 72.9563 45.6901 61.0687 62.4042C60.8604 62.697 60.4535 62.766 60.16 62.5583C59.8664 62.3505 59.7972 61.9447 60.0055 61.6519C72.0509 44.716 89.4596 33.0581 104.144 29.2056C111.48 27.281 118.224 27.2829 123.286 29.6538Z" fill="#5B5B5B"/>
<path fill-rule="evenodd" clip-rule="evenodd" d="M168.088 22.2038C171.363 24.1152 173.571 27.1419 174.146 31.3317C174.195 31.6874 173.946 32.0153 173.589 32.0641C173.232 32.1128 172.904 31.8639 172.855 31.5082C172.335 27.7276 170.372 25.043 167.429 23.326C164.463 21.5948 160.466 20.8304 155.902 21.0079C146.774 21.3627 135.59 25.478 126.456 32.684C126.174 32.9067 125.764 32.859 125.541 32.5774C125.317 32.2958 125.365 31.8869 125.647 31.6642C134.972 24.3076 146.417 20.0754 155.851 19.7086C160.568 19.5253 164.836 20.3066 168.088 22.2038Z" fill="#5B5B5B"/>
<path fill-rule="evenodd" clip-rule="evenodd" d="M175.847 260.419C175.847 259.916 176.255 259.509 176.759 259.509H198.737C199.241 259.509 199.649 259.916 199.649 260.419C199.649 260.922 199.241 261.329 198.737 261.329H176.759C176.255 261.329 175.847 260.922 175.847 260.419Z" fill="#5B5B5B"/>
<path d="M48.1777 62.7046C60.6656 37.1161 85.7196 26.5322 85.7196 26.5322L48.1777 62.7046Z" fill="white"/>
<path fill-rule="evenodd" clip-rule="evenodd" d="M85.9735 27.1317C86.3049 26.9916 86.4597 26.6101 86.3194 26.2796L85.9735 27.1317ZM85.7192 26.5331C85.465 25.9345 85.4647 25.9346 85.4643 25.9347L85.4588 25.9371L85.4436 25.9436C85.4304 25.9493 85.4112 25.9575 85.3862 25.9684C85.3362 25.9902 85.2628 26.0225 85.1672 26.0654C84.9761 26.1512 84.6961 26.2796 84.3364 26.4517C83.6172 26.7957 82.5791 27.3145 81.2959 28.0167C78.7299 29.4208 75.1813 31.5596 71.2405 34.5032C63.3622 40.3879 53.8943 49.5057 47.5913 62.4209C47.4337 62.7438 47.5684 63.1329 47.892 63.29C48.2157 63.4472 48.6058 63.3128 48.7633 62.99C54.9483 50.3167 64.2512 41.3483 72.0219 35.544C75.9056 32.643 79.401 30.5366 81.9229 29.1566C83.1836 28.4667 84.2005 27.9587 84.9001 27.624C85.2499 27.4567 85.5204 27.3327 85.7023 27.251C85.7933 27.2102 85.8621 27.1799 85.9077 27.1601C85.9305 27.1501 85.9474 27.1428 85.9584 27.1381L85.9704 27.133L85.9735 27.1317M86.3194 26.2796C86.179 25.9489 85.7965 25.7944 85.465 25.9345L86.3194 26.2796ZM85.465 25.9345L85.7192 26.5331L85.465 25.9345Z" fill="#5B5B5B"/>
<path fill-rule="evenodd" clip-rule="evenodd" d="M175.118 88.5536C175.118 83.1222 179.375 78.6719 184.66 78.6719C189.945 78.6719 194.202 83.1222 194.202 88.5536C194.202 93.985 189.945 98.4354 184.66 98.4354C181.344 98.4354 178.435 96.6693 176.735 94.0564C176.539 93.7552 176.625 93.3526 176.927 93.1572C177.229 92.9617 177.633 93.0474 177.829 93.3486C179.309 95.6246 181.823 97.1351 184.66 97.1351C189.177 97.1351 192.898 93.316 192.898 88.5536C192.898 83.7912 189.177 79.9721 184.66 79.9721C180.143 79.9721 176.422 83.7912 176.422 88.5536C176.422 88.9127 176.13 89.2037 175.77 89.2037C175.41 89.2037 175.118 88.9127 175.118 88.5536Z" fill="#5B5B5B"/>
<path fill-rule="evenodd" clip-rule="evenodd" d="M197.903 88.5273C197.903 83.0959 202.159 78.6455 207.445 78.6455C208.763 78.6455 210.026 78.9255 211.174 79.4285C211.504 79.5728 211.654 79.9563 211.509 80.2851C211.364 80.6139 210.98 80.7634 210.65 80.619C209.661 80.1859 208.577 79.9457 207.445 79.9457C202.928 79.9457 199.206 83.7648 199.206 88.5273C199.206 93.2897 202.928 97.1088 207.445 97.1088C211.962 97.1088 215.683 93.2897 215.683 88.5273C215.683 86.9282 215.245 85.3996 214.516 84.1147C214.339 83.8022 214.449 83.4055 214.762 83.2287C215.076 83.0518 215.473 83.1617 215.651 83.4742C216.486 84.9457 216.987 86.6937 216.987 88.5273C216.987 93.9586 212.73 98.409 207.445 98.409C202.159 98.409 197.903 93.9586 197.903 88.5273Z" fill="#5B5B5B"/>
<path fill-rule="evenodd" clip-rule="evenodd" d="M167.988 86.1625C168.232 85.8981 168.644 85.8806 168.909 86.1234C170.316 87.4123 171.206 89.2743 171.206 91.3611C171.206 95.2516 168.051 98.4344 164.167 98.4344H159.135C158.775 98.4344 158.483 98.1433 158.483 97.7842C158.483 97.4252 158.775 97.1341 159.135 97.1341H164.167C167.321 97.1341 169.902 94.5439 169.902 91.3611C169.902 89.6513 169.176 88.1326 168.028 87.0811C167.763 86.8382 167.745 86.427 167.988 86.1625Z" fill="#5B5B5B"/>
<path fill-rule="evenodd" clip-rule="evenodd" d="M158.51 79.322C158.51 78.9629 158.802 78.6719 159.162 78.6719H169.459C169.819 78.6719 170.111 78.9629 170.111 79.322C170.111 79.681 169.819 79.9721 169.459 79.9721H159.813V84.2889H164.193C164.553 84.2889 164.845 84.5799 164.845 84.939C164.845 85.298 164.553 85.5891 164.193 85.5891H159.162C158.802 85.5891 158.51 85.298 158.51 84.939V79.322Z" fill="#5B5B5B"/>
</svg>
