<svg width="32" height="43" viewBox="0 0 32 43" fill="none" xmlns="http://www.w3.org/2000/svg">
<path d="M16.0542 6.94917C17.9731 6.94917 19.5288 5.39355 19.5288 3.47459C19.5288 1.55563 17.9731 0 16.0542 0C14.1352 0 12.5796 1.55563 12.5796 3.47459C12.5796 5.39355 14.1352 6.94917 16.0542 6.94917Z" fill="#EFB011"/>
<path d="M26.5231 6.94917C28.442 6.94917 29.9976 5.39355 29.9976 3.47459C29.9976 1.55563 28.442 0 26.5231 0C24.6041 0 23.0485 1.55563 23.0485 3.47459C23.0485 5.39355 24.6041 6.94917 26.5231 6.94917Z" fill="#EFB011"/>
<path d="M30.0603 14.9908C29.2398 13.8194 28.2162 12.8432 27.0448 12.0966C25.8734 11.3526 24.5543 10.8382 23.1428 10.5875C17.3255 9.56125 11.7614 13.4606 10.7377 19.2753C10.6533 19.7449 10.6005 20.2251 10.5821 20.7C10.4132 24.7814 13.033 28.533 16.9482 29.8205L22.6627 31.6989C21.953 32.8228 20.9504 33.7541 19.7289 34.3926C17.6025 35.5085 15.1278 35.5719 12.9565 34.572L12.6452 34.4269C9.50565 32.9705 7.29479 30.0948 6.68008 26.702H6.67744L0 28.7045C1.19777 33.9915 4.76206 38.4291 9.72199 40.7297L10.0412 40.88C12.0041 41.7823 14.0883 42.2308 16.1646 42.2308C18.4916 42.2308 20.8132 41.6663 22.9529 40.5476C27.0052 38.4238 29.7833 34.6247 30.5774 30.1212L31.1816 26.6994H31.179L31.8332 22.9926C32.3319 20.175 31.704 17.3362 30.0603 14.9908ZM19.1195 23.2195C18.1407 22.8977 17.4837 21.9822 17.526 20.9876C17.5312 20.8187 17.5497 20.6499 17.5787 20.481C17.9006 18.658 19.4941 17.3705 21.2855 17.3705C21.5018 17.3705 21.7208 17.389 21.9398 17.4286C22.9318 17.6027 23.7945 18.1514 24.3696 18.9746C24.9447 19.8003 25.169 20.7976 24.9949 21.7869L24.4329 24.9634L19.1195 23.2195Z" fill="#43766D"/>
</svg>
