<svg width="68" height="24" viewBox="0 0 68 24" fill="none" xmlns="http://www.w3.org/2000/svg">
<path d="M19.5098 22.2309V9.93352C19.5098 5.02127 23.4561 1.01383 28.35 0.916016V22.2279H19.5098V22.2309Z" fill="black"/>
<path d="M0.00488281 22.2649V13.5684H17.7587C17.6608 18.3797 13.7176 22.2649 8.88177 22.2649H0.00488281Z" fill="black"/>
<path d="M35.3048 23.3382C32.4161 23.3382 30.0654 20.9875 30.0654 18.1019V10.1543H40.5441V18.1019C40.5441 20.9906 38.1934 23.3382 35.3048 23.3382Z" fill="black"/>
<path d="M47.3976 23.3383C44.4693 23.3383 42.085 20.9571 42.085 18.0287V10.1514H52.7042V18.0287C52.7042 20.9571 50.3199 23.3383 47.3915 23.3383H47.3946H47.3976Z" fill="black"/>
<path d="M11.9114 12.2476C8.78738 12.2476 6.24414 9.70744 6.24414 6.58036C6.24414 3.45327 8.78738 0.913086 11.9114 0.913086H12.0551C15.1791 0.913086 17.7224 3.45327 17.7224 6.58036C17.7224 9.70744 15.1791 12.2476 12.0551 12.2476H11.9114Z" fill="black"/>
<path d="M2.56952 6.14964C1.15423 6.14964 0.00488281 4.99724 0.00488281 3.58806V3.44439C0.00488281 2.0291 1.15729 0.882812 2.56952 0.882812C3.98175 0.882812 5.13416 2.03522 5.13416 3.44439V3.58806C5.13416 5.00335 3.98175 6.14964 2.56952 6.14964Z" fill="black"/>
<path d="M2.57627 12.2494C3.99268 12.2462 5.1383 11.0954 5.13508 9.67897C5.13187 8.26256 3.98104 7.11694 2.56463 7.12016C1.14822 7.12337 0.00260524 8.2742 0.00581898 9.69061C0.00903271 11.107 1.15986 12.2526 2.57627 12.2494Z" fill="black"/>
<path d="M50.6926 0.662191L31.4854 4.26367L31.7282 5.55858L50.9354 1.9571L50.6926 0.662191Z" fill="black"/>
<path d="M53.7441 22.1953C53.79 18.4018 55.2848 14.8468 57.9686 12.1629C60.6525 9.48215 64.2075 7.98739 68.001 7.93848V22.1922H53.7441V22.1953Z" fill="black"/>
</svg>
