<svg viewBox="0 0 18 38" fill="none" xmlns="http://www.w3.org/2000/svg">
<path d="M2.5293 7.60654C2.5459 7.60774 2.56261 7.60774 2.57921 7.60654C2.60941 7.60829 2.6394 7.60102 2.6655 7.58565C2.6784 7.5757 2.68881 7.56281 2.69581 7.54804L2.59411 7.45371C1.84051 6.7552 1.09341 6.05351 0.352905 5.34863V7.59221L1.15071 7.59699C1.60941 7.60236 2.0705 7.5761 2.5293 7.60654Z" fill="#43B766"/>
<path d="M2.66791 12.0436C2.66791 12.0436 2.68991 12.0358 2.69231 12.0209C2.69471 12.006 2.67321 11.991 2.66491 11.9857C2.65211 11.9777 2.63771 11.9728 2.62271 11.9713C2.57371 11.9636 2.52401 11.9614 2.47451 11.9648C2.40131 11.9761 1.60471 11.9791 0.352905 11.9773V14.209L2.66791 12.0436Z" fill="#43B766"/>
<path d="M8.14071 0.113281H7.32261C7.32261 0.117461 7.32261 0.121641 7.32261 0.125821V0.113281H0.353207C0.358007 0.113281 0.348407 0.113281 0.353207 0.113281C0.348407 0.113281 0.358007 0.121641 0.353207 0.128211C0.348407 0.134771 0.353207 0.138361 0.353207 0.143731V0.153881C0.353207 0.603431 0.353207 1.12821 0.353207 1.61955V2.38731C0.353207 2.85895 0.353207 3.46791 0.353207 3.88522L0.904103 4.40522C1.7252 5.18174 2.5464 5.95487 3.3679 6.72463C3.4212 6.76233 3.46961 6.80667 3.51191 6.85657C3.55711 6.91254 3.59571 6.97365 3.62671 7.03865C3.66741 7.11355 3.70051 7.19235 3.72551 7.27388C3.77551 7.44713 3.77941 7.63052 3.73681 7.80576C3.69421 7.98101 3.6066 8.142 3.4827 8.27269C3.3714 8.39407 3.2369 8.49169 3.0871 8.5597C2.9373 8.62771 2.7754 8.66471 2.6111 8.66851L0.350201 8.66015V10.9091L1.54731 10.9037L2.5587 10.8984C2.5796 10.8984 2.6081 10.8984 2.642 10.9037C2.7163 10.9096 2.79 10.9205 2.8628 10.9366C2.9646 10.9599 3.0632 10.996 3.1561 11.044C3.4049 11.1751 3.5968 11.3936 3.6951 11.6578C3.7575 11.8252 3.7757 12.006 3.7481 12.1825C3.7186 12.356 3.648 12.5198 3.5422 12.6601C3.5052 12.7078 3.46551 12.7533 3.42321 12.7963C3.30841 12.9178 3.1862 13.032 3.0573 13.1384C2.9074 13.2613 2.21311 13.896 0.353207 15.6715C0.368107 15.6816 0.338307 15.6924 0.353207 15.7025C0.333007 15.6888 0.357407 15.6745 0.353207 15.6715V18.0058C3.71481 20.9646 4.7744 21.9915 5.0273 22.3127C5.3182 22.6828 5.7317 22.9378 6.0684 23.2679C6.093 23.292 6.1227 23.3102 6.1553 23.321C6.179 23.3311 6.20471 23.3356 6.23031 23.3342C6.25601 23.3327 6.281 23.3254 6.3034 23.3127C6.3186 23.3017 6.331 23.2874 6.3397 23.2709C6.3148 18.5658 6.2981 15.527 6.2939 15.4787C6.2939 15.453 6.2904 15.4273 6.2904 15.401C6.2904 15.3604 6.2951 15.3569 6.2904 15.3461C6.2743 15.3043 6.19871 15.2864 6.13981 15.2978C6.10971 15.3038 6.0818 15.3178 6.0589 15.3384C4.7208 16.4775 4.2026 16.9199 4.0069 17.0894L3.6035 17.4363L3.2596 17.7306L3.06801 17.8936C2.83841 17.6249 2.60911 17.3561 2.38021 17.087C2.47191 17.0094 2.6022 16.8912 2.7699 16.7491C3.1567 16.4201 3.3167 16.281 3.9599 15.7306C4.5334 15.2381 4.88451 14.9378 4.99511 14.8428L5.42711 14.4739C5.46941 14.4421 5.5137 14.4132 5.5597 14.3873C5.7017 14.3091 5.85751 14.2596 6.01851 14.2416C6.12941 14.2298 6.2413 14.232 6.3516 14.2482C6.5368 14.272 6.7138 14.3388 6.8687 14.4434C6.899 14.4661 6.9347 14.496 6.9347 14.496C6.9942 14.5437 7.04121 14.5891 7.06321 14.6112C7.14941 14.7001 7.21901 14.8038 7.26851 14.9175C7.31671 15.0313 7.3459 15.1523 7.3548 15.2757C7.3624 15.348 7.36441 15.4209 7.36071 15.4936C7.36671 16.0751 7.3696 16.5461 7.3708 16.8667C7.3708 17.1252 7.3708 17.2816 7.375 17.9055C7.375 18.4237 7.3797 18.8219 7.3809 19.0512C7.3809 19.33 7.38511 19.6166 7.38871 20.2631C7.38871 20.3067 7.39401 21.081 7.39701 21.5688C7.39701 21.9599 7.4035 22.5348 7.4089 23.2464C7.4107 23.2916 7.4095 23.3369 7.4053 23.3819C7.3813 23.5914 7.3007 23.7902 7.1721 23.9569C7.1376 23.9994 7.1 24.0393 7.0597 24.0763C6.9202 24.2011 6.75561 24.2946 6.57711 24.3503C6.35091 24.419 6.1101 24.4231 5.8816 24.3622C5.6899 24.3072 5.51351 24.2083 5.36641 24.0733C4.00391 22.8721 1.8632 20.8172 1.8632 20.8172C1.4467 20.4178 1.0142 20.0261 1.0142 20.0261C0.739903 19.7778 0.509708 19.5772 0.355008 19.444V22.8028L5.8316 27.6984C5.8957 27.7592 5.9537 27.8262 6.0048 27.8984C6.057 27.9728 6.10071 28.0529 6.13511 28.1372C6.20071 28.2968 6.2247 28.4707 6.2047 28.6422C6.179 28.8281 6.10471 29.0038 5.98931 29.1515C5.92351 29.2428 5.8459 29.325 5.7585 29.3957C5.1722 29.9378 4.58261 30.4808 3.98961 31.0249C3.66641 31.3202 3.34351 31.6148 3.02101 31.9085C3.13591 32.0004 3.29471 32.1199 3.49221 32.2482C3.84001 32.4689 4.20731 32.6572 4.58941 32.8106C5.06491 33.0069 5.55991 33.152 6.06611 33.2434C6.41151 33.3006 6.76071 33.332 7.11081 33.3372H8.14251L8.14071 0.113281ZM7.36721 2.47268C7.36721 2.61298 7.36721 2.65716 7.36721 2.95627C7.36721 3.30791 7.36721 3.27268 7.36721 3.51388C7.36721 3.6703 7.36721 3.72821 7.36721 4.00283V4.37895C7.36721 4.40642 7.3672 4.43865 7.3601 4.47985C7.3561 4.51719 7.3499 4.55426 7.3417 4.59089C7.3245 4.66682 7.2988 4.74054 7.2649 4.8106C7.243 4.85696 7.2177 4.90165 7.1894 4.94433C7.1323 5.03154 7.0632 5.11014 6.9841 5.17776C6.9435 5.21172 6.90081 5.24303 6.85621 5.27149C6.82351 5.29298 6.7967 5.30791 6.7836 5.31507C6.7705 5.32224 6.7241 5.34791 6.6646 5.37477C6.5956 5.40355 6.5244 5.42652 6.4516 5.44343C6.3512 5.46558 6.2485 5.4756 6.1458 5.47328C5.9571 5.4749 5.77091 5.43043 5.60321 5.34373C5.51611 5.29653 5.4361 5.23746 5.3652 5.16821C5.2617 5.08462 5.1046 4.95746 4.9154 4.79806C4.7054 4.61895 4.5537 4.48821 4.493 4.43507C4.136 4.12403 3.34941 3.46791 3.34941 3.46791C3.08831 3.25 2.7247 2.94254 2.2607 2.53895C2.3059 2.47925 2.34221 2.43746 2.36541 2.41C2.57721 2.15209 2.6855 2.04104 2.8955 1.78074L2.9407 1.72462L6.0684 4.37298C6.0855 4.38858 6.1059 4.4002 6.1279 4.40701C6.1594 4.41481 6.1924 4.41357 6.2231 4.40343C6.2502 4.39919 6.27491 4.38544 6.29271 4.36462C6.30181 4.34999 6.3062 4.33289 6.3052 4.31567C6.3052 4.26134 6.3052 3.36045 6.3052 2.1288H7.3667V2.13358C7.3667 2.20701 7.3667 2.27686 7.3667 2.27686C7.3708 2.37656 7.37021 2.4494 7.37021 2.47268H7.36721Z" fill="#43B766"/>
<path d="M4.5375 29.0687L4.7053 28.9147L4.9778 28.6621L5.0373 28.6054L5.0611 28.5839C5.0688 28.5767 5.1135 28.5379 5.1206 28.5242C5.1228 28.5209 5.1252 28.5177 5.1277 28.5147C5.1294 28.5129 5.1308 28.5109 5.1319 28.5087C5.1319 28.5087 5.1319 28.5033 5.123 28.4985C5.0468 28.4341 4.9296 28.3338 4.7874 28.2102C4.1062 27.6179 3.6201 27.1529 3.4987 27.0376C3.0924 26.652 2.2439 25.8955 0.348999 24.2197C0.348999 24.4347 0.348999 24.6323 0.348999 24.8478V25.5893C0.348999 25.8741 0.348999 25.9941 0.348999 26.2245C0.348999 26.3188 0.348999 26.5284 0.348999 26.5988C0.356699 26.9795 0.395301 27.3588 0.464401 27.7332C0.676501 28.8703 1.1724 29.935 1.906 30.8275C2.025 30.9702 2.1309 31.0902 2.2201 31.1857C3.3714 30.1326 4.2097 29.3648 4.3406 29.2448L4.5375 29.0687Z" fill="#43B766"/>
<path d="M14.3758 8.7207H13.9831C13.7826 8.7207 13.7868 8.7207 13.7755 8.7207C13.5762 8.7063 13.3832 8.64494 13.212 8.54159C13.0991 8.47304 12.9985 8.38585 12.9145 8.28368C12.8138 8.16126 12.74 8.01884 12.698 7.86577C12.6595 7.71639 12.6532 7.56048 12.6795 7.40846C12.7043 7.26469 12.7581 7.12754 12.8378 7.00548C12.87 6.95713 12.9062 6.91159 12.9461 6.86936C13.1841 6.6204 15.147 4.80488 15.277 4.68846C14.9818 4.0196 14.593 3.39641 14.1223 2.83771C14.039 2.73861 13.9658 2.65861 13.9123 2.59891C13.2519 3.18478 12.582 3.76985 11.9025 4.35413C11.5892 4.62319 11.2762 4.89045 10.9637 5.15592C10.9181 5.19773 10.8691 5.23567 10.8173 5.26936C10.6893 5.35043 10.5465 5.40503 10.3972 5.42995C10.255 5.46057 10.1085 5.46502 9.9647 5.44309C9.7465 5.40356 9.5418 5.30929 9.3697 5.16906C9.3273 5.13907 9.2875 5.10552 9.2507 5.06876C9.1391 4.94949 9.0575 4.80518 9.0128 4.64786C8.9932 4.58929 8.9777 4.52945 8.9663 4.46876C8.9632 4.24309 8.961 4.01582 8.9598 3.78697C8.9562 3.21861 8.9584 2.65742 8.9663 2.10339H10.0248V4.30757C10.0221 4.31693 10.0221 4.32686 10.0248 4.33622C10.0426 4.38458 10.1343 4.39592 10.1884 4.38458C10.2095 4.38105 10.2296 4.37356 10.2479 4.36249C10.2601 4.35542 10.2711 4.34656 10.2806 4.33622C10.308 4.30816 11.4111 3.36428 13.1478 1.87771C13.0657 1.80965 12.9508 1.71712 12.8092 1.61204C11.6895 0.782796 10.3652 0.276576 8.9794 0.148156L8.7938 0.133236C8.7522 0.133236 8.6427 0.123086 8.4963 0.118906C8.391 0.115326 8.2851 0.113536 8.1393 0.115326V10.2789H15.927V8.70697C15.658 8.71115 15.415 8.71413 15.199 8.71592C15.078 8.71712 14.7125 8.7207 14.3758 8.7207Z" fill="#02B4DF"/>
<path d="M13.7405 7.58996C13.7362 7.598 13.7347 7.60725 13.7363 7.61623C13.7405 7.63235 13.7589 7.6413 13.7708 7.64667C13.8003 7.65846 13.8323 7.66217 13.8636 7.65742L15.93 7.64369C15.925 7.36488 15.904 7.11593 15.879 6.90339C15.849 6.6419 15.81 6.42578 15.778 6.26936C15.741 6.08548 15.701 5.92429 15.665 5.79175C14.9221 6.47712 13.7577 7.55712 13.7405 7.58996Z" fill="#02B4DF"/>
<path d="M13.1143 26.7355L12.1838 27.5814C11.7596 27.9677 11.3919 28.302 11.0938 28.5719C11.2556 28.7271 11.496 28.9558 11.7887 29.2322L12.2206 29.6375C12.9941 30.3587 13.5659 30.8752 13.8021 31.0901C14.3167 31.557 15.021 32.2053 15.929 33.0799V24.1611L14.5285 25.4441C14.0127 25.9164 13.6039 26.2895 13.1143 26.7355Z" fill="#502390"/>
<path d="M14.576 11.9184C14.5076 11.9184 14.4392 11.9184 14.3702 11.9184C14.1786 11.9081 13.9866 11.9107 13.7954 11.9262H13.7883C13.7663 11.9304 13.7288 11.9405 13.7258 11.9578C13.7228 11.9751 13.733 11.9775 13.7371 11.9841C13.7438 11.993 13.752 12.0005 13.7615 12.0062L13.915 12.1495C14.3823 12.608 14.8723 13.0681 15.385 13.5298C15.57 13.6963 15.742 13.8408 15.929 14.0014V11.9119C15.924 11.9149 14.7813 11.9214 14.576 11.9184Z" fill="#502390"/>
<path d="M15.929 10.8512V10.2787H8.1407V33.3336H14.5829C13.8256 32.6172 13.0634 31.8894 12.2971 31.1748C12.0377 30.936 11.7779 30.6952 11.5177 30.4524C11.4969 30.4333 11.3392 30.2876 11.1226 30.0876C10.8948 29.8763 10.7062 29.7014 10.5764 29.5802C10.5271 29.5294 10.4848 29.4906 10.4575 29.4644C10.398 29.4118 10.3771 29.3969 10.3385 29.3557C10.3016 29.3187 10.2678 29.2788 10.2373 29.2363C10.168 29.1457 10.1128 29.0451 10.0737 28.9378C10.015 28.7736 9.998 28.5974 10.0243 28.425C10.0565 28.2255 10.1416 28.0385 10.2706 27.8835C10.3047 27.843 10.3415 27.8049 10.3807 27.7694C10.9227 27.2853 11.501 26.81 12.0073 26.2996C12.0978 26.2088 12.1745 26.1324 12.2453 26.065C12.6856 25.6309 12.8034 25.5629 13.9808 24.4853C14.7466 23.7844 15.468 23.1121 15.674 22.9223L15.934 22.6781V19.5163L12.337 22.8596L11.6944 23.4566C11.4772 23.6578 11.3505 23.7617 11.1857 23.9294C11.1702 23.9456 11.106 24.0106 11.0143 24.09C10.9363 24.1613 10.8514 24.2247 10.7609 24.2793C10.573 24.39 10.3581 24.446 10.1403 24.4411C10.107 24.4411 10.0743 24.4411 10.041 24.4357C9.9042 24.4248 9.77 24.3928 9.6429 24.3408C9.609 24.3258 9.5716 24.3061 9.5716 24.3061C9.5008 24.2708 9.4333 24.2292 9.3699 24.182C9.2811 24.1146 9.2031 24.0341 9.1384 23.9432C9.0272 23.7894 8.9588 23.6087 8.9403 23.4196C8.9346 23.3552 8.9346 23.2905 8.9403 23.2261C8.9748 22.7927 8.9915 17.5867 8.9754 16.5993C8.9694 16.2082 9.0016 15.8172 8.9819 15.4267C8.9726 15.2496 9.0026 15.0726 9.07 14.9085C9.1212 14.7887 9.1927 14.6786 9.2812 14.5832C9.4201 14.4384 9.5916 14.3293 9.7813 14.265C9.971 14.2007 10.1733 14.1831 10.3712 14.2136C10.4149 14.22 10.4582 14.2288 10.5009 14.2399C10.7317 14.2996 10.8894 14.419 11.0465 14.5384C11.0851 14.5676 11.1524 14.6333 11.2886 14.7497C11.3761 14.825 11.4415 14.8787 11.4671 14.9008C11.6182 15.0267 11.7646 15.1533 11.905 15.2751L11.9889 15.3479C12.2429 15.567 12.9771 16.1969 13.9957 17.0715C13.8862 17.2017 13.7758 17.332 13.6643 17.4626C13.5429 17.6051 13.4218 17.7467 13.3008 17.8876V17.8906L11.9098 16.6912L10.2974 15.3073C10.2684 15.2883 10.235 15.277 10.2004 15.2745C10.1665 15.2733 10.1328 15.2811 10.1029 15.2972C10.0901 15.3042 10.0783 15.3128 10.0678 15.3229C10.0717 17.8912 10.057 20.4681 10.0237 23.0536C10.0237 23.1103 10.0207 23.2566 10.0202 23.3127C10.0345 23.3294 10.0524 23.3427 10.0725 23.3515C10.0915 23.3588 10.1117 23.3627 10.132 23.3629H10.1528C10.1817 23.3629 10.2103 23.3568 10.2367 23.345C10.2695 23.3297 10.2973 23.3055 10.317 23.2751C11.1339 22.5306 11.7914 21.9235 12.2328 21.5139L12.2923 21.4608C13.0842 20.7223 13.1693 20.6351 14.0451 19.8196C14.7388 19.173 14.9548 18.976 15.652 18.327C15.77 18.216 15.865 18.1264 15.949 18.0494V15.5324L14.3878 14.0685L12.9325 12.7044C12.883 12.6414 12.8385 12.5748 12.7992 12.505C12.7374 12.4051 12.6922 12.2958 12.6654 12.1814C12.6398 12.0493 12.6434 11.9131 12.6761 11.7826C12.7141 11.6035 12.7927 11.4356 12.9057 11.2918C13.0824 11.0771 13.327 10.9296 13.5989 10.8739C13.6375 10.8656 13.6685 10.8608 13.6881 10.8578L15.949 10.8494L15.929 10.8512Z" fill="#502390"/>
<path d="M15.928 33.0805V24.1623C16.51 23.625 17.178 22.9987 17.921 22.3115V22.3945C17.872 25.9002 17.888 27.4691 17.921 28.1856V29.4912C17.921 29.5282 17.917 29.5658 17.916 29.6029C17.897 30.0382 17.847 30.4717 17.768 30.9002C17.576 31.9203 17.202 32.8973 16.664 33.7844L15.928 33.0805Z" fill="#9C50BC"/>
<path d="M15.928 10.2787V18.0506C16.157 17.8118 17.603 16.4984 17.921 16.21V10.2787H15.928Z" fill="#9C50BC"/>
<path d="M15.986 34.6604C15.555 35.1935 15.063 35.6744 14.5209 36.0932C13.9902 36.507 13.4129 36.8569 12.8009 37.1356C12.3677 37.3309 11.9187 37.4887 11.4587 37.6073C11.063 37.7107 10.6603 37.7852 10.2539 37.8299C9.6767 37.895 9.1966 37.8896 8.6338 37.8837C8.4005 37.8837 8.2685 37.8753 8.1393 37.8693V33.332H14.581L15.986 34.6604Z" fill="#9C50BC"/>
<path d="M15.928 19.516V22.6766C16.322 22.3094 16.698 21.9602 17.219 21.4891C17.516 21.2211 17.76 21.0032 17.921 20.8599V17.642C17.178 18.3357 16.516 18.9673 15.928 19.516Z" fill="#9C50BC"/>
</svg>
