<svg viewBox="0 0 520 304" fill="none" xmlns="http://www.w3.org/2000/svg">
<g clip-path="url(#clip0_1663_98816)">
<path d="M229.386 302.981C274.848 302.981 311.703 241.279 311.703 165.166C311.703 89.0529 274.848 27.351 229.386 27.351C183.923 27.351 147.068 89.0529 147.068 165.166C147.068 241.279 183.923 302.981 229.386 302.981Z" fill="white"/>
<path d="M403.825 247.875C413.149 229.73 405.987 207.469 387.83 198.152C369.672 188.835 347.394 195.991 338.071 214.135C328.747 232.28 335.908 254.541 354.066 263.858C372.223 273.175 394.501 266.019 403.825 247.875Z" fill="white"/>
<path fill-rule="evenodd" clip-rule="evenodd" d="M406.963 222.823C407.492 222.717 408.007 223.06 408.113 223.588C409.746 231.705 408.741 240.409 404.681 248.356C404.435 248.837 403.847 249.027 403.366 248.782C402.886 248.536 402.695 247.948 402.941 247.468C406.794 239.925 407.747 231.672 406.198 223.974C406.092 223.445 406.434 222.93 406.963 222.823Z" fill="black"/>
<path d="M370.659 243.77C372.069 241.026 370.986 237.66 368.24 236.251C365.495 234.842 362.126 235.924 360.716 238.668C359.306 241.411 360.389 244.778 363.135 246.187C365.88 247.595 369.249 246.513 370.659 243.77Z" fill="black"/>
<path fill-rule="evenodd" clip-rule="evenodd" d="M361.585 239.114C360.422 241.377 361.315 244.155 363.581 245.318C365.847 246.48 368.627 245.587 369.79 243.324C370.953 241.06 370.06 238.283 367.794 237.12C365.528 235.957 362.748 236.85 361.585 239.114ZM362.688 247.055C359.463 245.401 358.19 241.446 359.847 238.222C361.503 234.998 365.461 233.727 368.687 235.382C371.912 237.037 373.185 240.992 371.528 244.216C369.871 247.44 365.914 248.71 362.688 247.055Z" fill="black"/>
<path fill-rule="evenodd" clip-rule="evenodd" d="M355.166 211.678C355.705 211.712 356.114 212.176 356.08 212.714C355.9 215.598 357.416 218.447 360.161 219.855C362.906 221.262 366.118 220.829 368.354 218.991C368.771 218.649 369.387 218.709 369.729 219.125C370.072 219.542 370.012 220.158 369.595 220.5C366.773 222.82 362.724 223.365 359.269 221.593C355.814 219.822 353.903 216.23 354.131 212.592C354.164 212.054 354.628 211.645 355.166 211.678Z" fill="black"/>
<path fill-rule="evenodd" clip-rule="evenodd" d="M381.273 225.048C381.812 225.082 382.221 225.546 382.187 226.084C382.007 228.968 383.522 231.817 386.267 233.225C389.012 234.632 392.225 234.199 394.461 232.361C394.878 232.018 395.493 232.078 395.836 232.495C396.179 232.912 396.118 233.528 395.702 233.87C392.879 236.19 388.831 236.735 385.376 234.963C381.921 233.191 380.01 229.6 380.237 225.962C380.271 225.424 380.735 225.014 381.273 225.048Z" fill="black"/>
<path d="M363.549 165.166C363.549 241.268 326.674 302.981 281.191 302.981H229.386C274.868 302.981 311.744 241.268 311.744 165.166C311.744 89.0641 274.868 27.351 229.386 27.351H281.191C326.674 27.351 363.549 89.0233 363.549 165.166Z" fill="#E6E6E6"/>
<path d="M292.695 165.166C292.695 223.7 270.341 272.41 240.808 282.559C211.274 272.41 188.921 223.7 188.921 165.166C188.921 106.632 211.315 57.8815 240.808 47.7726C270.341 57.8815 292.695 106.592 292.695 165.166Z" fill="#E6E6E6"/>
<path fill-rule="evenodd" clip-rule="evenodd" d="M194.659 40.1911C194.997 40.6119 194.929 41.2267 194.509 41.5643C191.649 43.8581 188.908 46.3952 186.245 49.2174C185.875 49.6098 185.257 49.6278 184.865 49.2576C184.472 48.8873 184.454 48.269 184.824 47.8766C187.546 44.9922 190.353 42.3934 193.286 40.0404C193.707 39.7028 194.322 39.7702 194.659 40.1911Z" fill="black"/>
<path fill-rule="evenodd" clip-rule="evenodd" d="M200.857 34.708C209.76 29.3285 219.356 26.3741 229.386 26.3741C229.925 26.3741 230.363 26.8115 230.363 27.351C230.363 27.8905 229.925 28.3279 229.386 28.3279C219.754 28.3279 210.504 31.1617 201.867 36.3802C201.405 36.6592 200.805 36.511 200.526 36.0493C200.247 35.5875 200.395 34.987 200.857 34.708Z" fill="black"/>
<path fill-rule="evenodd" clip-rule="evenodd" d="M194.669 290.162C194.995 289.732 195.608 289.648 196.038 289.975C206.258 297.735 217.518 302.004 229.386 302.004C229.925 302.004 230.363 302.442 230.363 302.981C230.363 303.521 229.925 303.958 229.386 303.958C217.023 303.958 205.358 299.504 194.856 291.531C194.427 291.204 194.343 290.592 194.669 290.162Z" fill="black"/>
<path fill-rule="evenodd" clip-rule="evenodd" d="M151.159 208.231C151.688 208.124 152.203 208.467 152.309 208.996C158.443 239.52 170.819 265.175 186.849 281.758C187.224 282.146 187.214 282.764 186.826 283.139C186.438 283.514 185.819 283.504 185.444 283.116C169.086 266.193 156.579 240.162 150.394 209.381C150.288 208.852 150.63 208.337 151.159 208.231Z" fill="black"/>
<path fill-rule="evenodd" clip-rule="evenodd" d="M170.975 68.0433C171.441 68.3152 171.598 68.9133 171.327 69.3793C156.946 94.0306 148.045 127.85 148.045 165.166C148.045 173.733 148.492 182.094 149.386 190.209C149.445 190.745 149.058 191.228 148.521 191.287C147.985 191.346 147.503 190.959 147.444 190.423C146.542 182.233 146.092 173.801 146.092 165.166C146.092 127.562 155.057 93.3913 169.639 68.3949C169.911 67.9289 170.509 67.7715 170.975 68.0433Z" fill="black"/>
<path fill-rule="evenodd" clip-rule="evenodd" d="M185.485 81.2472C174.116 102.684 167.054 132.358 167.054 165.166C167.054 197.974 174.116 227.638 185.485 249.064C196.877 270.534 212.446 283.498 229.386 283.498C233.191 283.498 236.878 282.865 240.493 281.635C241.003 281.461 241.558 281.734 241.732 282.245C241.906 282.755 241.633 283.31 241.122 283.484C237.313 284.781 233.413 285.452 229.386 285.452C211.367 285.452 195.282 271.697 183.759 249.98C172.213 228.219 165.1 198.229 165.1 165.166C165.1 132.103 172.213 102.102 183.759 80.3318C195.282 58.6046 211.367 44.8392 229.386 44.8392C233.413 44.8392 237.313 45.5103 241.122 46.8071C241.633 46.9809 241.906 47.5359 241.732 48.0466C241.558 48.5574 241.003 48.8304 240.493 48.6566C236.878 47.4261 233.191 46.7929 229.386 46.7929C212.446 46.7929 196.877 59.7671 185.485 81.2472Z" fill="black"/>
<path d="M240.807 282.559C237.095 283.823 233.302 284.475 229.386 284.475C194.427 284.475 166.077 231.037 166.077 165.166C166.077 99.2953 194.427 45.816 229.386 45.816C233.302 45.816 237.095 46.4682 240.807 47.7318C211.274 57.8815 188.92 106.592 188.92 165.125C188.92 223.659 211.315 272.41 240.807 282.559Z" fill="black"/>
<path fill-rule="evenodd" clip-rule="evenodd" d="M185.485 81.2472C174.116 102.684 167.054 132.358 167.054 165.166C167.054 197.974 174.116 227.638 185.485 249.064C196.877 270.534 212.446 283.498 229.386 283.498C232.246 283.498 235.04 283.14 237.787 282.44C223.81 276.456 211.686 262.014 202.913 242.385C193.563 221.469 187.944 194.509 187.944 165.125C187.944 135.742 193.553 108.792 202.897 87.8859C211.666 68.2658 223.791 53.8332 237.784 47.8506C235.039 47.1506 232.245 46.7929 229.386 46.7929C212.446 46.7929 196.877 59.7671 185.485 81.2472ZM183.759 80.3318C195.282 58.6046 211.367 44.8392 229.386 44.8392C233.413 44.8392 237.313 45.5103 241.122 46.8071C241.518 46.9417 241.784 47.3127 241.784 47.7304C241.785 48.1481 241.52 48.5199 241.125 48.6557C226.727 53.6036 213.911 68.0312 204.681 88.6831C195.465 109.303 189.897 135.975 189.897 165.125C189.897 194.276 195.475 220.958 204.696 241.588C213.932 262.25 226.748 276.688 241.125 281.636C241.52 281.772 241.785 282.143 241.784 282.561C241.784 282.979 241.518 283.35 241.122 283.484C237.313 284.781 233.413 285.452 229.386 285.452C211.367 285.452 195.282 271.697 183.759 249.98C172.213 228.219 165.1 198.229 165.1 165.166C165.1 132.103 172.213 102.102 183.759 80.3318Z" fill="black"/>
<path d="M277.438 87.4744H215.598H204.136H115.455C110.845 87.4744 107.093 91.2244 107.093 95.8305V144.541C107.093 149.147 110.845 152.897 115.455 152.897H138.013L132.302 180.615L172.849 152.897H189.247H200.709H292.368C291.43 130.6 286.535 108.793 277.438 87.4744Z" fill="white"/>
<path fill-rule="evenodd" clip-rule="evenodd" d="M180.445 87.0689C192.119 61.4853 209.582 44.8799 229.386 44.8799C233.413 44.8799 237.313 45.5511 241.122 46.8478L241.125 46.8486C245.266 48.27 249.229 50.3981 253.012 53.1815C253.447 53.5012 253.54 54.1127 253.22 54.5473C252.9 54.9818 252.289 55.0749 251.854 54.7552C248.214 52.0768 244.426 50.0474 240.491 48.6969C236.877 47.4668 233.19 46.8337 229.386 46.8337C210.763 46.8337 193.799 62.5115 182.222 87.8799C181.998 88.3708 181.419 88.5871 180.928 88.3631C180.437 88.1391 180.221 87.5597 180.445 87.0689Z" fill="black"/>
<path fill-rule="evenodd" clip-rule="evenodd" d="M260.171 60.8348C260.566 60.4673 261.184 60.4896 261.551 60.8845C268.126 67.9506 273.933 77.1375 278.738 87.891C282.929 97.2519 286.375 107.873 288.876 119.344C291.172 129.793 292.688 141.013 293.344 152.679C293.344 152.686 293.344 152.693 293.344 152.7C293.345 152.711 293.345 152.722 293.345 152.734V152.79C293.549 156.831 293.671 160.957 293.671 165.125C293.671 170.368 293.466 175.525 293.139 180.556C293.104 181.094 292.639 181.502 292.101 181.467C291.562 181.432 291.154 180.967 291.189 180.429C291.515 175.432 291.718 170.317 291.718 165.125C291.718 160.987 291.596 156.886 291.393 152.865C291.392 152.848 291.391 152.832 291.391 152.815V152.761C290.741 141.203 289.238 130.095 286.968 119.763L286.967 119.762C284.492 108.407 281.085 97.9146 276.955 88.6888L276.954 88.6882C272.215 78.0826 266.518 69.0898 260.121 62.2154C259.754 61.8205 259.776 61.2024 260.171 60.8348Z" fill="black"/>
<path fill-rule="evenodd" clip-rule="evenodd" d="M166.271 156.404C166.811 156.421 167.234 156.872 167.217 157.412C167.135 159.969 167.095 162.567 167.095 165.166C167.095 197.995 174.157 227.658 185.526 249.08C196.917 270.544 212.486 283.498 229.427 283.498C233.191 283.498 236.916 282.865 240.524 281.597L240.532 281.594C251.322 277.901 261.231 268.864 269.416 255.83C277.595 242.806 284.003 225.866 287.82 206.513C287.924 205.984 288.438 205.639 288.967 205.744C289.497 205.848 289.841 206.362 289.737 206.891C285.884 226.425 279.403 243.602 271.071 256.869C262.747 270.125 252.527 279.552 241.168 283.442C237.354 284.781 233.411 285.452 229.427 285.452C211.408 285.452 195.323 271.708 183.8 249.995C172.254 228.24 165.141 198.249 165.141 165.166C165.141 162.547 165.182 159.928 165.264 157.35C165.281 156.81 165.732 156.387 166.271 156.404Z" fill="black"/>
<path fill-rule="evenodd" clip-rule="evenodd" d="M107.133 143.523C107.673 143.523 108.11 143.96 108.11 144.5C108.11 148.566 111.425 151.879 115.496 151.879H138.013C138.306 151.879 138.584 152.011 138.77 152.239C138.955 152.466 139.029 152.765 138.969 153.053L133.746 178.405L172.339 152.049C172.501 151.938 172.693 151.879 172.889 151.879H232.527C233.066 151.879 233.504 152.316 233.504 152.856C233.504 153.395 233.066 153.833 232.527 153.833H173.191L132.853 181.381C132.524 181.605 132.092 181.608 131.76 181.387C131.429 181.166 131.265 180.767 131.345 180.377L136.814 153.833H115.496C110.347 153.833 106.156 149.646 106.156 144.5C106.156 143.96 106.594 143.523 107.133 143.523Z" fill="black"/>
<path fill-rule="evenodd" clip-rule="evenodd" d="M106.116 95.8306C106.116 90.6843 110.307 86.4976 115.455 86.4976H125.694C126.233 86.4976 126.67 86.9349 126.67 87.4744C126.67 88.0139 126.233 88.4513 125.694 88.4513H115.455C111.384 88.4513 108.069 91.7647 108.069 95.8306V123.304C108.069 123.843 107.632 124.281 107.093 124.281C106.553 124.281 106.116 123.843 106.116 123.304V95.8306Z" fill="black"/>
<path fill-rule="evenodd" clip-rule="evenodd" d="M144.908 87.4744C144.908 86.9349 145.346 86.4976 145.885 86.4976H231.303C231.842 86.4976 232.28 86.9349 232.28 87.4744C232.28 88.0139 231.842 88.4513 231.303 88.4513H145.885C145.346 88.4513 144.908 88.0139 144.908 87.4744Z" fill="black"/>
<path fill-rule="evenodd" clip-rule="evenodd" d="M266.386 152.815C266.386 152.276 266.823 151.838 267.363 151.838H292.368C292.908 151.838 293.345 152.276 293.345 152.815C293.345 153.355 292.908 153.792 292.368 153.792H267.363C266.823 153.792 266.386 153.355 266.386 152.815Z" fill="black"/>
<path fill-rule="evenodd" clip-rule="evenodd" d="M267.569 87.4744C267.569 86.9349 268.006 86.4976 268.546 86.4976H277.438C277.978 86.4976 278.415 86.9349 278.415 87.4744C278.415 88.0139 277.978 88.4513 277.438 88.4513H268.546C268.006 88.4513 267.569 88.0139 267.569 87.4744Z" fill="black"/>
<path fill-rule="evenodd" clip-rule="evenodd" d="M363.549 164.189C364.089 164.189 364.526 164.627 364.526 165.166C364.526 203.363 355.274 237.996 340.265 263.113C325.268 288.209 304.412 303.958 281.191 303.958H229.386C228.846 303.958 228.409 303.521 228.409 302.981C228.409 302.442 228.846 302.004 229.386 302.004C238.937 302.004 248.108 299.21 256.665 294.112C257.128 293.836 257.728 293.988 258.004 294.451C258.28 294.914 258.128 295.514 257.665 295.79C253.082 298.52 248.313 300.618 243.393 302.004H281.191C303.452 302.004 323.776 286.896 338.588 262.111C353.387 237.345 362.573 203.071 362.573 165.166C362.573 164.627 363.01 164.189 363.549 164.189Z" fill="black"/>
<path fill-rule="evenodd" clip-rule="evenodd" d="M357.904 114.893C358.43 114.771 358.954 115.099 359.076 115.624C360.839 123.245 362.191 131.231 363.093 139.42C363.152 139.956 362.765 140.439 362.229 140.498C361.692 140.557 361.21 140.17 361.151 139.634C360.257 131.518 358.918 123.608 357.172 116.065C357.051 115.539 357.378 115.014 357.904 114.893Z" fill="black"/>
<path fill-rule="evenodd" clip-rule="evenodd" d="M228.409 27.351C228.409 26.8115 228.846 26.3741 229.386 26.3741H281.191C304.392 26.3741 325.257 42.1018 340.24 67.2043C340.516 67.6676 340.365 68.2673 339.901 68.5438C339.438 68.8203 338.838 68.6689 338.562 68.2056C323.766 43.416 303.432 28.3279 281.191 28.3279H243.427C262.889 33.8087 279.962 50.4809 292.255 74.0192C292.505 74.4974 292.319 75.0876 291.841 75.3373C291.363 75.5871 290.773 75.4018 290.523 74.9236C275.51 46.1762 253.583 28.3279 229.386 28.3279C228.846 28.3279 228.409 27.8905 228.409 27.351Z" fill="black"/>
<path fill-rule="evenodd" clip-rule="evenodd" d="M300.202 94.7461C300.71 94.5668 301.268 94.8338 301.448 95.3427C302.72 98.9525 303.869 102.641 304.934 106.407C305.081 106.926 304.779 107.466 304.26 107.613C303.74 107.76 303.201 107.458 303.054 106.939C301.998 103.205 300.862 99.5564 299.605 95.9922C299.426 95.4834 299.693 94.9255 300.202 94.7461Z" fill="black"/>
<path fill-rule="evenodd" clip-rule="evenodd" d="M309.953 136.397C310.488 136.331 310.975 136.712 311.041 137.248C312.148 146.255 312.721 155.589 312.721 165.125C312.721 178.918 311.533 192.264 309.279 204.836C309.184 205.367 308.676 205.721 308.145 205.626C307.614 205.53 307.261 205.023 307.356 204.492C309.589 192.037 310.767 178.806 310.767 165.125C310.767 155.667 310.198 146.413 309.102 137.486C309.036 136.95 309.417 136.463 309.953 136.397Z" fill="black"/>
<path fill-rule="evenodd" clip-rule="evenodd" d="M299.524 237.378C300.029 237.568 300.285 238.131 300.095 238.636C295.009 252.162 288.562 264.15 281.073 274.059C280.748 274.489 280.135 274.574 279.705 274.249C279.274 273.924 279.189 273.311 279.514 272.881C286.874 263.142 293.236 251.325 298.266 237.948C298.456 237.444 299.019 237.188 299.524 237.378Z" fill="black"/>
<path d="M365.344 79.1183C365.344 79.1183 389.207 78.6291 408.583 67.0936C436.322 50.5852 412.255 16.5492 390.921 33.4653C394.184 6.44035 352.577 3.75009 352.984 35.9925C353.27 58.5337 365.344 79.1183 365.344 79.1183Z" fill="#EBEBEB"/>
<path fill-rule="evenodd" clip-rule="evenodd" d="M382.357 13.7926C388.678 17.0857 393.06 23.8897 391.89 33.5823C391.826 34.118 391.339 34.4998 390.804 34.4351C390.268 34.3705 389.886 33.8838 389.951 33.3482C391.024 24.4535 387.045 18.4381 381.454 15.5252C375.805 12.582 368.454 12.7753 362.781 16.5092C362.331 16.8058 361.725 16.681 361.428 16.2303C361.131 15.7797 361.256 15.1739 361.707 14.8773C367.986 10.7442 376.095 10.5299 382.357 13.7926Z" fill="black"/>
<path fill-rule="evenodd" clip-rule="evenodd" d="M411.015 30.9148C411.298 30.4555 411.9 30.3125 412.359 30.5955C418.063 34.1097 421.956 40.6517 422.053 47.7389C422.15 54.8796 418.397 62.4396 409.082 67.9742C408.619 68.2497 408.019 68.0972 407.744 67.6333C407.468 67.1695 407.621 66.5701 408.084 66.2945C416.881 61.0681 420.185 54.1169 420.099 47.7655C420.012 41.3606 416.481 35.4296 411.334 32.2589C410.875 31.9759 410.732 31.3741 411.015 30.9148Z" fill="black"/>
<path fill-rule="evenodd" clip-rule="evenodd" d="M354.534 49.9561C355.061 49.8429 355.581 50.1789 355.694 50.7064C357.389 58.6131 360.016 65.6105 362.221 70.6344C363.323 73.1448 364.318 75.1586 365.036 76.5422C365.395 77.234 365.685 77.7679 365.884 78.1275C365.89 78.1391 365.897 78.1506 365.903 78.1619C366.19 78.1495 366.581 78.1301 367.064 78.0999C368.195 78.0295 369.836 77.901 371.862 77.6688C375.916 77.2041 381.505 76.3252 387.648 74.6695C388.169 74.5291 388.705 74.8376 388.845 75.3585C388.986 75.8794 388.677 76.4155 388.156 76.5559C381.898 78.2428 376.209 79.137 372.084 79.6098C370.021 79.8463 368.347 79.9776 367.186 80.0499C366.605 80.086 366.153 80.1074 365.844 80.1198C365.69 80.126 365.571 80.1299 365.491 80.1323C365.45 80.1335 365.419 80.1343 365.398 80.1349L365.374 80.1355L365.367 80.1356L365.365 80.1356L365.364 80.1357C365.364 80.1357 365.364 80.1357 365.344 79.159C364.501 79.6523 364.501 79.6522 364.501 79.6519L364.499 79.6489L364.495 79.641L364.478 79.6119C364.463 79.5865 364.442 79.5494 364.414 79.5009C364.359 79.4037 364.278 79.2607 364.175 79.0737C363.968 78.6999 363.67 78.1505 363.302 77.4423C362.567 76.0261 361.553 73.9739 360.432 71.4197C358.191 66.3143 355.514 59.1879 353.783 51.116C353.67 50.5885 354.006 50.0692 354.534 49.9561ZM365.344 79.159L364.501 79.6523C364.68 79.9579 365.01 80.1428 365.364 80.1357L365.344 79.159Z" fill="black"/>
<path d="M448.708 190.611C478.193 181.643 494.82 150.489 485.845 121.026C476.871 91.563 445.693 74.9485 416.209 83.9164C386.724 92.8843 370.097 124.039 379.072 153.502C388.046 182.965 419.224 199.579 448.708 190.611Z" fill="white"/>
<path fill-rule="evenodd" clip-rule="evenodd" d="M416.455 84.8219C445.431 76.0116 476.051 92.3507 484.908 121.306L416.455 84.8219ZM484.908 121.306C488.235 132.2 487.994 143.331 484.829 153.461C484.668 153.976 484.955 154.524 485.47 154.685C485.985 154.846 486.533 154.559 486.693 154.044C489.973 143.549 490.222 132.016 486.777 120.736L486.777 120.735C477.604 90.7503 445.895 73.8282 415.886 82.9527L415.886 82.9528C407.712 85.4407 400.53 89.5885 394.552 94.9396C394.15 95.2994 394.116 95.917 394.476 96.319C394.836 96.721 395.453 96.7551 395.855 96.3953C401.625 91.23 408.558 87.2255 416.455 84.822" fill="black"/>
<path fill-rule="evenodd" clip-rule="evenodd" d="M380.323 117.291C380.83 117.476 381.091 118.036 380.906 118.543C376.979 129.317 376.378 141.368 379.985 153.182L379.985 153.184C385.555 171.564 399.94 184.86 417.137 189.867C417.655 190.018 417.953 190.56 417.802 191.078C417.651 191.596 417.109 191.894 416.591 191.743C398.789 186.56 383.886 172.791 378.116 153.752C374.38 141.517 375.003 129.03 379.071 117.874C379.256 117.367 379.816 117.106 380.323 117.291Z" fill="black"/>
<path fill-rule="evenodd" clip-rule="evenodd" d="M475.265 173.07C475.673 173.423 475.716 174.04 475.363 174.448C468.598 182.245 459.591 188.342 448.966 191.577C442.45 193.567 435.81 194.313 429.378 193.982C428.839 193.954 428.425 193.495 428.452 192.956C428.48 192.417 428.939 192.003 429.478 192.031C435.691 192.351 442.104 191.63 448.396 189.708L448.397 189.707C458.658 186.583 467.354 180.697 473.887 173.167C474.241 172.76 474.858 172.716 475.265 173.07Z" fill="black"/>
<path d="M462.714 128.032C465.161 136.103 464.223 144.418 460.715 151.429C453.454 147.149 444.521 145.804 435.832 148.454C427.144 151.103 420.454 157.177 416.823 164.758C410.011 160.886 404.586 154.527 402.138 146.456L462.714 128.032Z" fill="black"/>
<path fill-rule="evenodd" clip-rule="evenodd" d="M463.174 127.17C463.403 127.293 463.573 127.501 463.649 127.749C466.172 136.069 465.204 144.642 461.589 151.866C461.467 152.109 461.251 152.29 460.992 152.366C460.732 152.443 460.452 152.408 460.219 152.271C453.183 148.124 444.532 146.822 436.117 149.388C427.699 151.955 421.221 157.837 417.704 165.18C417.587 165.425 417.374 165.61 417.115 165.691C416.857 165.772 416.576 165.742 416.34 165.608C409.323 161.619 403.728 155.063 401.203 146.74C401.047 146.224 401.338 145.679 401.854 145.522L462.43 127.098C462.678 127.022 462.945 127.048 463.174 127.17ZM403.371 147.102C405.749 154.132 410.489 159.751 416.418 163.385C420.255 156.01 426.955 150.139 435.547 147.519C444.144 144.898 452.974 146.069 460.287 150.063C463.191 143.744 463.979 136.426 462.048 129.256L403.371 147.102Z" fill="black"/>
<path fill-rule="evenodd" clip-rule="evenodd" d="M459.414 151.811C452.565 148.031 444.216 146.92 436.159 149.388L436.158 149.388C428.059 151.858 421.756 157.396 418.158 164.351C425.074 167.983 433.318 168.987 441.383 166.554C449.404 164.123 455.708 158.659 459.414 151.811ZM435.588 147.52C444.509 144.786 453.767 146.175 461.213 150.589C461.655 150.851 461.818 151.41 461.588 151.868C457.72 159.555 450.824 165.734 441.949 168.424L441.948 168.425C433.036 171.113 423.91 169.852 416.384 165.609C415.936 165.357 415.761 164.8 415.983 164.337C419.728 156.516 426.629 150.252 435.588 147.52Z" fill="black"/>
<path fill-rule="evenodd" clip-rule="evenodd" d="M398.433 114.425C398.654 113.933 399.233 113.713 399.725 113.935L412.044 119.478C412.301 119.594 412.496 119.815 412.578 120.085C412.659 120.355 412.621 120.648 412.471 120.887L405.332 132.3C405.046 132.758 404.444 132.897 403.986 132.61C403.529 132.324 403.39 131.722 403.676 131.264L410.221 120.8L398.923 115.716C398.431 115.495 398.211 114.917 398.433 114.425Z" fill="black"/>
<path fill-rule="evenodd" clip-rule="evenodd" d="M447.977 99.3643C448.434 99.6508 448.572 100.254 448.286 100.711L441.703 111.213L452.996 116.257C453.489 116.477 453.71 117.055 453.489 117.547C453.269 118.04 452.692 118.261 452.199 118.041L439.88 112.538C439.622 112.423 439.426 112.201 439.344 111.93C439.262 111.66 439.301 111.367 439.451 111.127L446.63 99.6732C446.917 99.2161 447.519 99.0778 447.977 99.3643Z" fill="black"/>
<path d="M461.164 28.9815L469.322 36.4408C469.73 36.8077 470.301 36.9707 470.831 36.8485L481.6 34.362C482.947 34.0359 484.048 35.4218 483.477 36.6854L478.908 46.7535C478.663 47.2427 478.704 47.8133 478.99 48.3025L484.701 57.7999C485.394 58.982 484.456 60.4494 483.069 60.3271L472.055 59.1043C471.525 59.0635 470.954 59.2673 470.627 59.675L463.367 68.0311C462.469 69.0909 460.756 68.6425 460.47 67.2566L458.227 56.414C458.104 55.8841 457.737 55.4357 457.248 55.2319L447.05 50.9112C445.785 50.3813 445.663 48.6286 446.887 47.9356L456.514 42.4736C457.003 42.1882 457.289 41.6991 457.37 41.1692L458.308 30.1636C458.472 28.6961 460.144 28.044 461.164 28.9815Z" fill="white"/>
<path fill-rule="evenodd" clip-rule="evenodd" d="M459.282 30.2075C459.282 30.2079 459.281 30.2084 459.281 30.2088L458.344 41.2114C458.342 41.2334 458.339 41.2553 458.336 41.2771C458.216 42.053 457.787 42.8213 457.006 43.2768L456.996 43.2825L447.368 48.7449C446.854 49.0362 446.909 49.7521 447.427 49.9695L447.431 49.971L457.623 54.2894C457.624 54.2899 457.626 54.2903 457.627 54.2908C458.421 54.6227 458.989 55.3343 459.179 56.1535C459.18 56.1608 459.182 56.1681 459.183 56.1754L461.427 67.0188C461.554 67.6348 462.269 67.7754 462.621 67.3591L462.629 67.3496L469.879 59.0063C470.443 58.3151 471.345 58.0292 472.13 58.0896C472.141 58.0904 472.152 58.0915 472.163 58.0927L483.164 59.3141C483.774 59.3615 484.136 58.7332 483.86 58.257L478.153 48.7651L478.146 48.7542C477.714 48.0135 477.626 47.0928 478.035 46.2757C478.276 45.7932 478.863 45.5978 479.345 45.8392C479.828 46.0806 480.023 46.6675 479.782 47.1499C479.702 47.3101 479.695 47.5289 479.831 47.7647L485.538 57.2558L485.543 57.2649C486.649 59.1502 485.139 61.4496 482.983 61.2595C482.976 61.2589 482.968 61.2581 482.961 61.2573L471.967 60.0367C471.704 60.0207 471.478 60.1352 471.39 60.2448C471.382 60.255 471.373 60.2651 471.365 60.275L464.108 68.6268C462.664 70.3234 459.957 69.5666 459.514 67.413L457.273 56.5844C457.216 56.3492 457.053 56.1685 456.872 56.093L456.867 56.0907L446.672 51.7715C446.672 51.7712 446.671 51.7709 446.67 51.7706C444.662 50.9273 444.473 48.1398 446.405 47.0453M446.405 47.0449L456.026 41.5866C456.215 41.4748 456.352 41.2756 456.4 41.0074L457.335 30.0399L457.335 30.0369C457.531 27.8249 460.128 26.8827 461.727 28.2887C461.732 28.2929 461.737 28.2971 461.741 28.3013L469.896 35.7575C470.083 35.9244 470.332 35.983 470.53 35.9374C470.53 35.9375 470.53 35.9374 470.53 35.9374L481.299 33.451C481.825 33.3296 482.349 33.6574 482.471 34.183C482.592 34.7087 482.264 35.2333 481.739 35.3546L470.97 37.8411C470.108 38.0397 469.216 37.773 468.587 37.208L468.581 37.2026L460.431 29.7509C459.991 29.3711 459.332 29.651 459.282 30.2075" fill="black"/>
<path d="M102.035 260.548H185.821C201.281 260.548 213.804 248.034 213.804 232.586C213.804 217.137 201.281 204.623 185.821 204.623H181.211L186.881 176.987L146.416 204.623H102.035C86.5745 204.623 74.0515 217.137 74.0515 232.586C74.0515 248.034 86.5745 260.548 102.035 260.548Z" fill="white"/>
<path fill-rule="evenodd" clip-rule="evenodd" d="M213.763 231.65C214.302 231.65 214.74 232.087 214.74 232.627C214.74 248.615 201.779 261.566 185.78 261.566H180.191C179.652 261.566 179.214 261.128 179.214 260.589C179.214 260.049 179.652 259.612 180.191 259.612H185.78C200.701 259.612 212.786 247.535 212.786 232.627C212.786 232.087 213.223 231.65 213.763 231.65Z" fill="black"/>
<path fill-rule="evenodd" clip-rule="evenodd" d="M187.422 176.214C187.753 176.435 187.918 176.834 187.838 177.224L182.409 203.687H185.82C194.475 203.687 202.244 207.485 207.561 213.515C207.918 213.92 207.879 214.537 207.474 214.894C207.07 215.251 206.452 215.212 206.095 214.808C201.133 209.18 193.89 205.641 185.82 205.641H181.211C180.917 205.641 180.64 205.509 180.454 205.281C180.268 205.054 180.195 204.755 180.254 204.468L185.439 179.195L146.967 205.471C146.804 205.582 146.612 205.641 146.416 205.641H129.242C128.703 205.641 128.266 205.204 128.266 204.664C128.266 204.125 128.703 203.687 129.242 203.687H146.114L186.33 176.221C186.659 175.997 187.091 175.994 187.422 176.214Z" fill="black"/>
<path fill-rule="evenodd" clip-rule="evenodd" d="M85.9176 255.493C86.2108 255.04 86.8157 254.91 87.2685 255.204C91.5233 257.959 96.5614 259.571 101.994 259.571H155.471C156.011 259.571 156.448 260.009 156.448 260.548C156.448 261.088 156.011 261.525 155.471 261.525H101.994C96.1672 261.525 90.7627 259.794 86.2064 256.844C85.7536 256.55 85.6243 255.945 85.9176 255.493Z" fill="black"/>
<path fill-rule="evenodd" clip-rule="evenodd" d="M73.0745 232.626C73.0745 216.638 86.0355 203.687 102.034 203.687C102.574 203.687 103.011 204.124 103.011 204.664C103.011 205.204 102.574 205.641 102.034 205.641C87.1132 205.641 75.0282 217.718 75.0282 232.626C75.0282 237.621 76.4054 242.302 78.7684 246.316C79.0421 246.781 78.887 247.38 78.4221 247.653C77.9572 247.927 77.3584 247.772 77.0847 247.307C74.5527 243.006 73.0745 237.985 73.0745 232.626Z" fill="black"/>
<path d="M56.6334 126.483C37.3798 126.483 21.7566 142.095 21.7566 161.334C21.7566 167.897 23.5514 174.011 26.6924 179.229L21.7566 196.186L39.7049 191.783C44.7223 194.596 50.5147 196.186 56.6742 196.186C75.9278 196.186 91.551 180.574 91.551 161.334C91.551 142.095 75.8871 126.483 56.6334 126.483Z" fill="#EBEBEB"/>
<path fill-rule="evenodd" clip-rule="evenodd" d="M26.9655 178.291C27.4835 178.442 27.7812 178.984 27.6304 179.502L23.1676 194.834L39.4723 190.835C39.7128 190.776 39.9667 190.81 40.1826 190.931C45.0564 193.663 50.6846 195.209 56.6743 195.209C60.7631 195.209 64.7262 194.494 68.3253 193.151C68.8308 192.962 69.3935 193.219 69.5822 193.724C69.7709 194.23 69.5141 194.792 69.0087 194.981C65.1837 196.409 60.9885 197.162 56.6743 197.162C50.4831 197.162 44.6486 195.599 39.5665 192.823L21.9894 197.134C21.6504 197.217 21.2928 197.113 21.0513 196.861C20.8099 196.609 20.7212 196.248 20.8187 195.913L25.7545 178.956C25.9053 178.438 26.4475 178.14 26.9655 178.291Z" fill="black"/>
<path fill-rule="evenodd" clip-rule="evenodd" d="M25.5612 143.44C31.7657 132.716 43.3394 125.506 56.6333 125.506C61.5345 125.506 66.2323 126.469 70.5145 128.273C71.0117 128.483 71.245 129.056 71.0356 129.553C70.8261 130.05 70.2533 130.283 69.7561 130.074C65.7169 128.372 61.2773 127.46 56.6333 127.46C44.0653 127.46 33.122 134.273 27.2523 144.418C26.9821 144.885 26.3845 145.045 25.9175 144.775C25.4505 144.505 25.291 143.907 25.5612 143.44Z" fill="black"/>
<path fill-rule="evenodd" clip-rule="evenodd" d="M84.4562 140.322C84.8951 140.008 85.5053 140.11 85.819 140.549C90.012 146.414 92.487 153.582 92.487 161.334C92.487 161.874 92.0497 162.311 91.5102 162.311C90.9707 162.311 90.5333 161.874 90.5333 161.334C90.5333 154.005 88.195 147.232 84.2296 141.685C83.9159 141.246 84.0173 140.636 84.4562 140.322Z" fill="black"/>
<path d="M260.836 87.4744H223.594C228.081 77.2433 234.77 70.8029 242.194 70.8029C249.659 70.7622 256.308 77.2433 260.836 87.4744Z" fill="black"/>
<path fill-rule="evenodd" clip-rule="evenodd" d="M259.312 86.4975C254.864 77.1895 248.735 71.744 242.2 71.7797L242.194 71.7797C235.69 71.7797 229.525 77.1988 225.113 86.4975H259.312ZM242.192 69.826C250.27 69.7834 257.163 76.7605 261.729 87.079C261.863 87.3812 261.835 87.7304 261.655 88.0073C261.474 88.2842 261.166 88.4512 260.836 88.4512H223.593C223.263 88.4512 222.956 88.2848 222.776 88.0087C222.595 87.7326 222.566 87.3841 222.699 87.082C227.228 76.7546 234.162 69.8275 242.192 69.826Z" fill="black"/>
<path d="M259.612 152.815C255.166 161.538 249.007 166.959 242.194 166.959C235.382 166.959 229.223 161.538 224.776 152.815H259.612Z" fill="black"/>
<path fill-rule="evenodd" clip-rule="evenodd" d="M223.943 152.305C224.121 152.015 224.437 151.838 224.776 151.838H259.612C259.952 151.838 260.268 152.015 260.445 152.305C260.623 152.595 260.637 152.956 260.483 153.259C255.98 162.092 249.566 167.936 242.194 167.936C234.823 167.936 228.409 162.092 223.906 153.259C223.752 152.956 223.766 152.595 223.943 152.305ZM226.403 153.792C230.703 161.531 236.294 165.983 242.194 165.983C248.095 165.983 253.686 161.531 257.986 153.792H226.403Z" fill="black"/>
<path fill-rule="evenodd" clip-rule="evenodd" d="M265.156 136.288C265.684 136.398 266.023 136.915 265.913 137.444C264.673 143.389 262.811 148.729 260.525 153.256C260.282 153.737 259.695 153.93 259.213 153.687C258.731 153.444 258.538 152.856 258.781 152.375C260.983 148.015 262.792 142.839 264 137.045C264.11 136.517 264.627 136.178 265.156 136.288Z" fill="black"/>
<path fill-rule="evenodd" clip-rule="evenodd" d="M260.443 86.5803C260.937 86.363 261.513 86.5872 261.73 87.0811C265.505 95.6616 267.769 106.764 267.769 118.902C267.769 120.386 267.727 121.913 267.645 123.36C267.614 123.898 267.152 124.31 266.614 124.279C266.075 124.248 265.663 123.787 265.694 123.248C265.775 121.841 265.815 120.352 265.815 118.902C265.815 106.99 263.591 96.1625 259.942 87.8678C259.725 87.374 259.949 86.7975 260.443 86.5803Z" fill="black"/>
<path d="M37.8284 167.367C41.1626 167.367 43.8656 164.666 43.8656 161.334C43.8656 158.003 41.1626 155.302 37.8284 155.302C34.4942 155.302 31.7913 158.003 31.7913 161.334C31.7913 164.666 34.4942 167.367 37.8284 167.367Z" fill="black"/>
<path d="M56.6334 167.367C59.9676 167.367 62.6705 164.666 62.6705 161.334C62.6705 158.003 59.9676 155.302 56.6334 155.302C53.2991 155.302 50.5962 158.003 50.5962 161.334C50.5962 164.666 53.2991 167.367 56.6334 167.367Z" fill="black"/>
<path d="M75.4383 167.367C78.7725 167.367 81.4754 164.666 81.4754 161.334C81.4754 158.003 78.7725 155.302 75.4383 155.302C72.1041 155.302 69.4011 158.003 69.4011 161.334C69.4011 164.666 72.1041 167.367 75.4383 167.367Z" fill="black"/>
<path fill-rule="evenodd" clip-rule="evenodd" d="M518.771 92.3094C518.96 92.6975 518.798 93.1652 518.41 93.3539L497.035 103.748C496.647 103.937 496.179 103.775 495.99 103.387C495.802 102.999 495.963 102.531 496.352 102.343L517.726 91.9483C518.114 91.7596 518.582 91.9212 518.771 92.3094Z" fill="black"/>
<path fill-rule="evenodd" clip-rule="evenodd" d="M498.197 115.804C498.22 115.373 498.588 115.041 499.019 115.064L510.685 115.676C511.116 115.698 511.447 116.066 511.424 116.497C511.402 116.928 511.034 117.259 510.603 117.236L498.937 116.625C498.506 116.602 498.175 116.235 498.197 115.804Z" fill="black"/>
<path fill-rule="evenodd" clip-rule="evenodd" d="M495.227 83.1673C495.579 83.4162 495.663 83.9038 495.415 84.2564L488.684 93.7946C488.435 94.1473 487.948 94.2314 487.595 93.9826C487.242 93.7337 487.158 93.2461 487.407 92.8935L494.138 83.3553C494.386 83.0026 494.874 82.9185 495.227 83.1673Z" fill="black"/>
<path fill-rule="evenodd" clip-rule="evenodd" d="M120.908 0.156673C121.223 -0.0447103 121.637 0.00543198 121.895 0.27628L152.486 32.401L163.318 17.0764C163.502 16.8162 163.825 16.6937 164.135 16.7668C164.446 16.8399 164.68 17.0939 164.729 17.4088L167.966 38.4745L178.321 31.3539C178.56 31.1894 178.87 31.1711 179.127 31.3062C179.384 31.4413 179.545 31.7076 179.545 31.9978V39.8241C179.545 40.2557 179.195 40.6055 178.764 40.6055C178.332 40.6055 177.982 40.2557 177.982 39.8241V33.4837L167.825 40.468C167.604 40.6204 167.319 40.6481 167.073 40.5414C166.826 40.4347 166.651 40.2086 166.61 39.9428L163.478 19.5584L153.213 34.0794C153.079 34.2702 152.865 34.3907 152.632 34.4077C152.399 34.4247 152.171 34.3365 152.009 34.1672L123.53 4.26002L132.539 27.0639C132.698 27.4653 132.501 27.9192 132.1 28.0778C131.698 28.2364 131.244 28.0396 131.086 27.6381L120.602 1.10235C120.465 0.754504 120.593 0.358056 120.908 0.156673Z" fill="black"/>
<path fill-rule="evenodd" clip-rule="evenodd" d="M135.195 35.837C135.596 35.6774 136.05 35.8732 136.21 36.2742L140.248 46.4239C140.355 46.6919 140.305 46.9968 140.119 47.2171C139.933 47.4375 139.64 47.5373 139.358 47.4769L107.511 40.6575L131.996 61.7734C132.186 61.9367 132.285 62.1806 132.265 62.4298C132.244 62.6789 132.106 62.9031 131.892 63.033L119.798 70.386L139.766 76.9492C140.176 77.0839 140.399 77.5256 140.264 77.9356C140.13 78.3456 139.688 78.5688 139.278 78.434L117.699 71.3415C117.409 71.2463 117.202 70.9912 117.167 70.6882C117.132 70.3853 117.277 70.0897 117.537 69.9313L130.162 62.2555L104.175 39.8452C103.905 39.612 103.827 39.2253 103.986 38.9056C104.145 38.5858 104.5 38.4145 104.849 38.4892L138.255 45.6423L134.757 36.852C134.598 36.451 134.794 35.9966 135.195 35.837Z" fill="black"/>
<path d="M246.192 233.645C259.214 233.645 269.77 223.097 269.77 210.085C269.77 197.073 259.214 186.525 246.192 186.525C233.171 186.525 222.615 197.073 222.615 210.085C222.615 223.097 233.171 233.645 246.192 233.645Z" fill="#EBEBEB"/>
<path fill-rule="evenodd" clip-rule="evenodd" d="M269.729 208.407C270.16 208.407 270.51 208.757 270.51 209.188V210.085C270.51 223.52 259.595 234.427 246.151 234.427C238.1 234.427 230.978 230.509 226.555 224.531C226.298 224.184 226.371 223.695 226.718 223.438C227.065 223.182 227.555 223.255 227.811 223.602C231.954 229.2 238.62 232.864 246.151 232.864C258.733 232.864 268.947 222.656 268.947 210.085V209.188C268.947 208.757 269.297 208.407 269.729 208.407Z" fill="black"/>
<path fill-rule="evenodd" clip-rule="evenodd" d="M245.41 186.525C245.41 186.093 245.76 185.744 246.192 185.744C254.113 185.744 261.153 189.492 265.579 195.347C265.84 195.692 265.772 196.182 265.427 196.442C265.083 196.702 264.593 196.634 264.333 196.29C260.193 190.814 253.609 187.307 246.192 187.307C245.76 187.307 245.41 186.957 245.41 186.525Z" fill="black"/>
<path fill-rule="evenodd" clip-rule="evenodd" d="M246.192 204.63C243.176 204.63 240.732 207.073 240.732 210.085C240.732 213.097 243.176 215.54 246.192 215.54C249.208 215.54 251.652 213.097 251.652 210.085C251.652 207.073 249.208 204.63 246.192 204.63ZM239.169 210.085C239.169 206.209 242.314 203.067 246.192 203.067C250.07 203.067 253.215 206.209 253.215 210.085C253.215 213.962 250.07 217.103 246.192 217.103C242.314 217.103 239.169 213.962 239.169 210.085Z" fill="black"/>
<path fill-rule="evenodd" clip-rule="evenodd" d="M245.35 198.025C252.439 197.527 258.301 203.115 258.301 210.085L245.35 198.025ZM245.24 196.466C253.243 195.904 259.864 202.218 259.864 210.085C259.864 211.339 259.691 212.549 259.388 213.672L259.387 213.676C258.842 215.656 257.062 216.973 255.022 217.022L255.018 217.022C252.277 217.073 250.463 214.341 251.372 211.818C251.518 211.412 251.966 211.201 252.372 211.347C252.778 211.494 252.988 211.941 252.842 212.348C252.283 213.9 253.405 215.488 254.987 215.459C256.371 215.425 257.526 214.543 257.88 213.263C258.148 212.267 258.301 211.195 258.301 210.085M245.24 196.466L245.24 196.466L245.24 196.466ZM245.349 198.025C239.374 198.446 234.544 203.274 234.122 209.244C234.121 209.258 234.12 209.272 234.118 209.286C234.047 209.853 234.081 210.473 234.123 211.137C234.15 211.568 233.822 211.939 233.391 211.966C232.961 211.993 232.59 211.665 232.563 211.235C232.523 210.6 232.476 209.843 232.565 209.113C233.05 202.375 238.495 196.941 245.24 196.466" fill="black"/>
<path fill-rule="evenodd" clip-rule="evenodd" d="M236.235 218.319C236.55 218.024 237.045 218.041 237.34 218.356C239.562 220.73 242.703 222.184 246.192 222.184C246.624 222.184 246.973 222.534 246.973 222.966C246.973 223.398 246.624 223.747 246.192 223.747C242.257 223.747 238.708 222.104 236.199 219.424C235.904 219.109 235.92 218.614 236.235 218.319Z" fill="black"/>
<path fill-rule="evenodd" clip-rule="evenodd" d="M211.757 107.04C211.757 106.608 212.107 106.258 212.539 106.258H260.306C260.737 106.258 261.087 106.608 261.087 107.04C261.087 107.472 260.737 107.821 260.306 107.821H212.539C212.107 107.821 211.757 107.472 211.757 107.04Z" fill="black"/>
<path fill-rule="evenodd" clip-rule="evenodd" d="M173.332 107.04C173.332 106.608 173.682 106.258 174.113 106.258H203.442C203.874 106.258 204.224 106.608 204.224 107.04C204.224 107.472 203.874 107.821 203.442 107.821H174.113C173.682 107.821 173.332 107.472 173.332 107.04Z" fill="black"/>
<path fill-rule="evenodd" clip-rule="evenodd" d="M128.461 107.04C128.461 106.608 128.811 106.258 129.242 106.258H154.737C155.169 106.258 155.519 106.608 155.519 107.04C155.519 107.472 155.169 107.821 154.737 107.821H129.242C128.811 107.821 128.461 107.472 128.461 107.04Z" fill="black"/>
<path fill-rule="evenodd" clip-rule="evenodd" d="M200.621 119.391C200.621 118.959 200.971 118.609 201.403 118.609H260.836C261.268 118.609 261.618 118.959 261.618 119.391C261.618 119.822 261.268 120.172 260.836 120.172H201.403C200.971 120.172 200.621 119.822 200.621 119.391Z" fill="black"/>
<path fill-rule="evenodd" clip-rule="evenodd" d="M128.461 119.391C128.461 118.959 128.811 118.609 129.242 118.609H188.921C189.352 118.609 189.702 118.959 189.702 119.391C189.702 119.822 189.352 120.172 188.921 120.172H129.242C128.811 120.172 128.461 119.822 128.461 119.391Z" fill="black"/>
<path fill-rule="evenodd" clip-rule="evenodd" d="M173.332 131.782C173.332 131.351 173.682 131.001 174.113 131.001H222.615C223.046 131.001 223.396 131.351 223.396 131.782C223.396 132.214 223.046 132.564 222.615 132.564H174.113C173.682 132.564 173.332 132.214 173.332 131.782Z" fill="black"/>
<path fill-rule="evenodd" clip-rule="evenodd" d="M128.461 131.782C128.461 131.351 128.811 131.001 129.242 131.001H162.488C162.919 131.001 163.269 131.351 163.269 131.782C163.269 132.214 162.919 132.564 162.488 132.564H129.242C128.811 132.564 128.461 132.214 128.461 131.782Z" fill="black"/>
<path fill-rule="evenodd" clip-rule="evenodd" d="M174.188 226.594C174.188 226.162 174.538 225.812 174.97 225.812H191.939C192.371 225.812 192.721 226.162 192.721 226.594C192.721 227.025 192.371 227.375 191.939 227.375H174.97C174.538 227.375 174.188 227.025 174.188 226.594Z" fill="black"/>
<path fill-rule="evenodd" clip-rule="evenodd" d="M95.1343 226.594C95.1343 226.162 95.4842 225.812 95.9158 225.812H155.512C155.944 225.812 156.294 226.162 156.294 226.594C156.294 227.025 155.944 227.375 155.512 227.375H95.9158C95.4842 227.375 95.1343 227.025 95.1343 226.594Z" fill="black"/>
<path fill-rule="evenodd" clip-rule="evenodd" d="M134.417 238.985C134.417 238.554 134.766 238.204 135.198 238.204H161.631C162.063 238.204 162.412 238.554 162.412 238.985C162.412 239.417 162.063 239.767 161.631 239.767H135.198C134.766 239.767 134.417 239.417 134.417 238.985Z" fill="black"/>
<path fill-rule="evenodd" clip-rule="evenodd" d="M95.1343 238.985C95.1343 238.554 95.4842 238.204 95.9158 238.204H125.694C126.125 238.204 126.475 238.554 126.475 238.985C126.475 239.417 126.125 239.767 125.694 239.767H95.9158C95.4842 239.767 95.1343 239.417 95.1343 238.985Z" fill="black"/>
<path fill-rule="evenodd" clip-rule="evenodd" d="M30.8145 216.363C30.8145 215.823 31.2518 215.386 31.7913 215.386H69.4012C69.9407 215.386 70.378 215.823 70.378 216.363C70.378 216.902 69.9407 217.339 69.4012 217.339H31.7913C31.2518 217.339 30.8145 216.902 30.8145 216.363Z" fill="black"/>
<path fill-rule="evenodd" clip-rule="evenodd" d="M59.0422 223.781C59.0422 223.242 59.4796 222.804 60.0191 222.804H65.7707C66.3102 222.804 66.7476 223.242 66.7476 223.781C66.7476 224.321 66.3102 224.758 65.7707 224.758H60.0191C59.4796 224.758 59.0422 224.321 59.0422 223.781Z" fill="black"/>
<path fill-rule="evenodd" clip-rule="evenodd" d="M45.7849 246.811C45.7849 246.272 46.2223 245.835 46.7618 245.835H69.4011C69.9406 245.835 70.378 246.272 70.378 246.811C70.378 247.351 69.9406 247.788 69.4011 247.788H46.7618C46.2223 247.788 45.7849 247.351 45.7849 246.811Z" fill="black"/>
<path fill-rule="evenodd" clip-rule="evenodd" d="M11.1528 131.782C11.1528 131.243 11.5902 130.805 12.1297 130.805H24.8975C25.437 130.805 25.8743 131.243 25.8743 131.782C25.8743 132.322 25.437 132.759 24.8975 132.759H12.1297C11.5902 132.759 11.1528 132.322 11.1528 131.782Z" fill="black"/>
<path fill-rule="evenodd" clip-rule="evenodd" d="M0.587891 141.117C0.587891 140.577 1.02525 140.14 1.56475 140.14H19.0644C19.6039 140.14 20.0412 140.577 20.0412 141.117C20.0412 141.656 19.6039 142.093 19.0644 142.093H1.56475C1.02525 142.093 0.587891 141.656 0.587891 141.117Z" fill="black"/>
<path fill-rule="evenodd" clip-rule="evenodd" d="M74.4614 119.391C74.4614 118.851 74.8988 118.414 75.4383 118.414H98.0368C98.5763 118.414 99.0137 118.851 99.0137 119.391C99.0137 119.93 98.5763 120.368 98.0368 120.368H75.4383C74.8988 120.368 74.4614 119.93 74.4614 119.391Z" fill="black"/>
<path fill-rule="evenodd" clip-rule="evenodd" d="M68.5789 97.0533C68.5789 96.6217 68.9287 96.2719 69.3603 96.2719H98.0369C98.4685 96.2719 98.8183 96.6217 98.8183 97.0533C98.8183 97.4849 98.4685 97.8348 98.0369 97.8348H69.3603C68.9287 97.8348 68.5789 97.4849 68.5789 97.0533Z" fill="black"/>
<path fill-rule="evenodd" clip-rule="evenodd" d="M57.6875 103.331C57.6875 102.899 58.0374 102.549 58.469 102.549H83.719C84.1506 102.549 84.5005 102.899 84.5005 103.331C84.5005 103.762 84.1506 104.112 83.719 104.112H58.469C58.0374 104.112 57.6875 103.762 57.6875 103.331Z" fill="black"/>
<path d="M515.376 223.537C513.867 222.314 512.072 221.743 510.277 221.743C508.482 221.743 506.687 222.355 505.178 223.537L480.254 243.469L479.969 243.061C479.806 242.817 479.602 242.613 479.438 242.368L493.43 214.039C494.001 212.898 494.287 211.634 494.287 210.411C494.287 208.006 493.226 205.642 491.227 204.053C487.189 200.832 481.192 202.096 478.867 206.702L465.855 232.056L468.792 226.186C470.831 222.11 469.2 217.096 465.08 215.058C463.897 214.447 462.632 214.161 461.368 214.161C458.349 214.161 455.412 215.833 453.944 218.686L447.254 231.893L452.149 222.11C454.188 218.034 452.557 213.02 448.437 210.982C447.254 210.371 445.989 210.085 444.725 210.085C441.706 210.085 438.769 211.757 437.301 214.61L432.324 224.433C430.896 227.205 431.223 230.385 432.814 232.789L424.288 252.966C418.863 265.358 422.412 279.828 432.936 288.307C438.402 292.709 445.051 294.91 451.7 294.91C457.9 294.91 464.06 292.994 469.322 289.163L490.167 273.999L490.207 273.959C494.368 270.942 495.306 265.154 492.288 260.997L489.759 257.328L515.335 236.132C519.455 232.871 519.414 226.757 515.376 223.537Z" fill="#EBEBEB"/>
<path fill-rule="evenodd" clip-rule="evenodd" d="M510.277 222.72C508.698 222.72 507.08 223.26 505.79 224.298L505.788 224.3L481.576 243.662L490.684 256.813C490.991 257.256 490.881 257.865 490.437 258.172C489.994 258.479 489.385 258.368 489.078 257.925L479.451 244.025C479.159 243.603 479.243 243.027 479.644 242.706L504.565 222.776C504.566 222.775 504.566 222.775 504.567 222.775C506.214 221.449 508.267 220.766 510.277 220.766C512.287 220.766 514.339 221.449 515.987 222.774C520.511 226.384 520.552 233.232 516.08 236.925C516.08 236.925 516.08 236.926 516.08 236.926L499.969 250.294C499.553 250.639 498.937 250.581 498.593 250.166C498.248 249.751 498.306 249.135 498.721 248.791L514.834 235.421L514.835 235.42C518.358 232.51 518.317 227.131 514.767 224.3L514.763 224.298C513.474 223.26 511.856 222.72 510.277 222.72Z" fill="black"/>
<path fill-rule="evenodd" clip-rule="evenodd" d="M461.409 215.138C458.697 215.138 456.149 216.579 454.856 219.128L448.166 232.333C448.166 232.333 448.166 232.334 448.166 232.334C446.327 235.975 447.774 240.393 451.399 242.186C451.455 242.214 451.508 242.246 451.558 242.284C455.134 243.994 459.49 242.511 461.269 238.956L464.94 231.619L467.876 225.752C467.876 225.752 467.876 225.751 467.877 225.751C469.678 222.111 468.195 217.722 464.677 215.928L464.672 215.926C463.634 215.389 462.524 215.138 461.409 215.138ZM453.113 218.244C454.757 215.004 458.001 213.185 461.409 213.185C462.821 213.185 464.24 213.504 465.567 214.189C470.042 216.472 471.902 222.027 469.626 226.62L469.625 226.623L463.016 239.83C460.735 244.389 455.131 246.255 450.57 243.976C450.513 243.947 450.459 243.913 450.408 243.874C445.885 241.553 444.123 236.004 446.423 231.452L453.113 218.244Z" fill="black"/>
<path fill-rule="evenodd" clip-rule="evenodd" d="M447.563 210.545C447.804 210.063 448.391 209.867 448.873 210.108C453.435 212.387 455.304 217.988 453.022 222.547L448.127 232.33C448.098 232.388 448.064 232.443 448.024 232.494C445.728 236.916 440.276 238.737 435.782 236.586C435.716 236.568 435.651 236.543 435.589 236.511C434.093 235.741 432.91 234.651 432.046 233.379L432.04 233.369C430.262 230.682 429.943 227.13 431.491 224.037C431.733 223.555 432.32 223.359 432.802 223.601C433.285 223.842 433.48 224.429 433.239 224.911C432.014 227.36 432.265 230.165 433.666 232.286C434.327 233.259 435.221 234.096 436.353 234.706C436.408 234.722 436.462 234.743 436.514 234.769C440.111 236.566 444.541 235.09 446.339 231.496C446.368 231.44 446.401 231.386 446.44 231.337L451.275 221.673C453.073 218.08 451.597 213.653 448 211.856C447.518 211.615 447.322 211.028 447.563 210.545Z" fill="black"/>
<path fill-rule="evenodd" clip-rule="evenodd" d="M489.137 203.876C485.725 202.261 481.448 203.595 479.656 207.106L479.655 207.107L466.647 232.452L462.977 239.786C462.977 239.786 462.977 239.787 462.976 239.788C460.692 244.395 455.084 246.211 450.529 243.935C450.47 243.906 450.415 243.871 450.363 243.83C447.187 242.17 445.369 238.952 445.373 235.603C442.693 237.615 439.012 238.077 435.785 236.546C435.721 236.529 435.659 236.506 435.599 236.476C434.67 236.012 433.832 235.398 433.12 234.67L425.229 253.347C425.227 253.351 425.225 253.356 425.223 253.361C423.173 258.01 422.461 263.017 422.935 267.83C422.988 268.367 422.596 268.845 422.059 268.898C421.522 268.951 421.044 268.559 420.991 268.022C420.486 262.892 421.242 257.548 423.432 252.579L431.955 232.409C432.095 232.077 432.407 231.849 432.766 231.817C433.126 231.784 433.474 231.952 433.671 232.254C434.325 233.25 435.247 234.087 436.345 234.663C436.401 234.679 436.457 234.7 436.51 234.726C440.156 236.53 444.542 235.083 446.338 231.459C446.385 231.364 446.447 231.277 446.522 231.202L446.563 231.161C446.902 230.822 447.438 230.779 447.827 231.061C448.215 231.342 448.342 231.864 448.126 232.293C446.288 235.928 447.728 240.313 451.365 242.149C451.419 242.176 451.469 242.207 451.517 242.244C455.098 243.957 459.45 242.505 461.227 238.918L461.228 238.915L464.9 231.578L464.904 231.569L477.916 206.217C477.916 206.216 477.916 206.216 477.917 206.215C480.204 201.738 485.634 200.056 489.973 202.11C490.46 202.341 490.668 202.923 490.438 203.411C490.207 203.898 489.624 204.107 489.137 203.876Z" fill="black"/>
<path fill-rule="evenodd" clip-rule="evenodd" d="M432.214 287.697C432.551 287.275 433.165 287.207 433.587 287.544C436.353 289.755 439.351 291.37 442.545 292.434C443.057 292.605 443.334 293.158 443.163 293.67C442.993 294.182 442.44 294.458 441.928 294.288C438.514 293.151 435.312 291.424 432.367 289.07C431.945 288.733 431.877 288.118 432.214 287.697Z" fill="black"/>
<path fill-rule="evenodd" clip-rule="evenodd" d="M491.251 218.299C491.735 218.538 491.934 219.123 491.695 219.607L480.55 242.199C480.614 242.29 480.672 242.376 480.723 242.452C480.727 242.458 480.73 242.464 480.734 242.469L481.013 242.868C481.323 243.31 481.216 243.919 480.774 244.228C480.332 244.538 479.723 244.431 479.413 243.989L479.128 243.581C479.123 243.575 479.119 243.569 479.115 243.563C478.942 243.303 478.831 243.142 478.707 243.019C478.411 242.723 478.336 242.271 478.521 241.895L489.943 218.743C490.182 218.259 490.768 218.06 491.251 218.299Z" fill="black"/>
<path fill-rule="evenodd" clip-rule="evenodd" d="M478.663 243.012C475.852 239.802 471.033 239.218 467.528 241.734C465.259 243.381 464.058 245.896 464.058 248.483C464.058 250.157 464.567 251.83 465.626 253.29C465.628 253.293 465.631 253.297 465.633 253.3C465.635 253.303 465.637 253.306 465.64 253.309L472.656 263.5C472.929 263.896 472.872 264.433 472.522 264.763C472.172 265.094 471.634 265.121 471.253 264.826C464.706 259.755 459.172 258.638 454.67 259.51C450.132 260.388 446.442 263.324 443.691 266.745C443.353 267.165 442.738 267.232 442.318 266.894C441.897 266.556 441.831 265.941 442.169 265.52C445.088 261.89 449.148 258.589 454.299 257.592C458.374 256.803 463.008 257.48 468.143 260.39L464.037 254.427C462.735 252.628 462.104 250.555 462.104 248.483C462.104 245.282 463.595 242.173 466.383 240.151L466.386 240.148C470.713 237.041 476.662 237.762 480.133 241.725C480.488 242.131 480.447 242.748 480.041 243.103C479.635 243.459 479.018 243.418 478.663 243.012Z" fill="black"/>
</g>
<defs>
<clipPath id="clip0_1663_98816">
<rect width="518.91" height="304" fill="white" transform="translate(0.544922)"/>
</clipPath>
</defs>
</svg>
