<svg width="336" height="270" viewBox="0 0 336 270" fill="none" xmlns="http://www.w3.org/2000/svg">
<g clip-path="url(#clip0_2789_110377)">
<path d="M220.311 214.837H166.532V263.32H220.311V214.837Z" fill="#FAFAFA"/>
<path d="M197.653 139.934H192.326C191.879 139.934 191.516 139.571 191.516 139.123C191.516 138.675 191.879 138.312 192.326 138.312H197.653C198.1 138.312 198.463 138.675 198.463 139.123C198.463 139.571 198.1 139.934 197.653 139.934Z" fill="currentColor"/>
<path d="M210.756 42.9683H210.723C210.276 42.9683 209.913 42.6048 209.913 42.157C209.913 41.7092 210.276 41.3457 210.723 41.3457C211.17 41.3457 211.549 41.7092 211.549 42.157C211.549 42.6048 211.203 42.9683 210.756 42.9683Z" fill="currentColor"/>
<path d="M299.72 116.998C299.72 151.173 277.156 180.081 246.102 189.641V205.114H219.922V189.609C250.975 180.081 273.54 151.173 273.54 116.965C273.54 75.008 239.551 40.9951 197.617 40.9951H223.797C265.76 41.0276 299.72 75.0404 299.72 116.998Z" fill="black"/>
<path d="M246.102 205.925H219.922C219.475 205.925 219.112 205.562 219.112 205.114V189.608C219.112 189.252 219.345 188.937 219.686 188.833C234.726 184.218 248.237 174.707 257.728 162.054C267.542 148.972 272.73 133.379 272.73 116.965C272.73 96.8901 264.918 78.016 250.729 63.8183C236.544 49.6239 217.68 41.8062 197.617 41.8062C197.17 41.8062 196.807 41.4427 196.807 40.9949C196.807 40.5471 197.17 40.1836 197.617 40.1836H223.797C244.307 40.1998 263.579 48.196 278.066 62.702C292.549 77.2048 300.526 96.4877 300.526 117.001C300.526 133.755 295.226 149.673 285.201 163.04C275.626 175.803 262.044 185.448 246.909 190.241V205.117C246.909 205.565 246.546 205.929 246.099 205.929L246.102 205.925ZM220.732 204.303H245.292V189.641C245.292 189.284 245.526 188.969 245.866 188.865C260.906 184.234 274.418 174.716 283.908 162.06C293.722 148.979 298.91 133.395 298.91 116.994C298.91 96.916 291.101 78.0388 276.922 63.8443C262.74 49.6466 243.873 41.8192 223.797 41.8029H213.432C227.896 44.8177 241.184 51.9701 251.876 62.6695C266.369 77.1723 274.35 96.452 274.35 116.965C274.35 133.733 269.049 149.663 259.024 163.027C249.449 175.794 235.867 185.425 220.732 190.206V204.303Z" fill="currentColor"/>
<path d="M219.958 205.925H192.358C191.911 205.925 191.548 205.562 191.548 205.114C191.548 204.666 191.911 204.303 192.358 204.303H219.958C220.405 204.303 220.768 204.666 220.768 205.114C220.768 205.562 220.405 205.925 219.958 205.925Z" fill="currentColor"/>
<path d="M210.723 99.1365C205.235 103.174 201.684 109.667 201.684 116.998H175.503C175.503 104.757 185.415 94.8398 197.646 94.8398C202.552 94.8398 207.072 96.456 210.72 99.1365H210.723Z" fill="black"/>
<path d="M201.687 117.809H175.507C175.06 117.809 174.697 117.446 174.697 116.998C174.697 104.332 184.994 94.0283 197.65 94.0283C202.552 94.0283 207.237 95.5698 211.203 98.4807C211.411 98.6332 211.534 98.8766 211.534 99.1363C211.534 99.3959 211.411 99.636 211.203 99.7918C205.669 103.865 202.494 110.137 202.494 117.001C202.494 117.449 202.131 117.812 201.684 117.812L201.687 117.809ZM176.333 116.186H200.89C201.126 109.583 204.237 103.342 209.356 99.1687C205.87 96.8646 201.846 95.6509 197.65 95.6509C186.157 95.6509 176.758 104.789 176.33 116.186H176.333Z" fill="currentColor"/>
<path d="M175.507 117.808H147.908C147.461 117.808 147.098 117.445 147.098 116.997C147.098 116.549 147.461 116.186 147.908 116.186H175.507C175.954 116.186 176.317 116.549 176.317 116.997C176.317 117.445 175.954 117.808 175.507 117.808Z" fill="currentColor"/>
<path d="M246.135 214.837H219.955V263.32H246.135V214.837Z" fill="black"/>
<path d="M246.135 264.131H219.955C219.507 264.131 219.145 263.768 219.145 263.32V214.837C219.145 214.389 219.507 214.025 219.955 214.025H246.135C246.582 214.025 246.945 214.389 246.945 214.837V263.32C246.945 263.768 246.582 264.131 246.135 264.131ZM220.765 262.509H245.325V215.648H220.765V262.509Z" fill="currentColor"/>
<path d="M272.992 116.997C272.992 151.172 250.428 180.081 219.375 189.641V205.114H165.595V139.155H197.066C209.301 139.155 219.209 129.238 219.209 116.997C219.209 109.666 215.658 103.173 210.169 99.1358C206.489 96.4228 201.972 94.8391 197.096 94.8391C184.861 94.8391 174.953 104.756 174.953 116.997H121.144C121.144 75.0402 155.133 41.0273 197.066 41.0273C239 41.0273 272.989 75.0402 272.989 116.997H272.992Z" fill="#FAFAFA"/>
<path d="M219.958 205.925H166.178C165.731 205.925 165.368 205.562 165.368 205.114V188.06C165.368 187.612 165.731 187.249 166.178 187.249C166.626 187.249 166.988 187.612 166.988 188.06V204.302H219.148V189.641C219.148 189.284 219.381 188.969 219.721 188.865C234.762 184.234 248.273 174.716 257.764 162.06C267.578 148.978 272.765 133.395 272.765 116.997C272.765 96.9223 264.953 78.045 250.765 63.8506C236.58 49.6561 217.716 41.8384 197.653 41.8384C179.207 41.8384 161.471 48.6014 147.707 60.8845C147.373 61.183 146.861 61.1538 146.563 60.8195C146.265 60.4853 146.294 59.9726 146.628 59.674C160.686 47.1281 178.808 40.2158 197.653 40.2158C218.15 40.2158 237.419 48.2022 251.912 62.705C266.405 77.2078 274.385 96.4875 274.385 117C274.385 133.752 269.085 149.673 259.06 163.04C249.485 175.803 235.902 185.448 220.768 190.241V205.117C220.768 205.565 220.405 205.928 219.958 205.928V205.925Z" fill="currentColor"/>
<path d="M197.653 139.967H180.61C180.163 139.967 179.8 139.604 179.8 139.156C179.8 138.708 180.163 138.345 180.61 138.345H197.653C209.418 138.345 218.986 128.768 218.986 116.998C218.986 110.134 215.81 103.861 210.276 99.7885C206.605 97.082 202.251 95.6509 197.682 95.6509C185.917 95.6509 176.349 105.227 176.349 116.998C176.349 117.446 175.986 117.809 175.539 117.809H121.73C121.283 117.809 120.92 117.446 120.92 116.998C120.92 102.216 125.116 87.8916 133.058 75.5696C133.301 75.1932 133.803 75.0861 134.179 75.3262C134.555 75.5696 134.662 76.0726 134.422 76.4491C126.795 88.2843 122.699 102.005 122.547 116.186H174.745C175.173 103.894 185.298 94.0283 197.685 94.0283C202.6 94.0283 207.286 95.5697 211.239 98.4807C217.103 102.797 220.606 109.719 220.606 116.998C220.606 129.664 210.309 139.967 197.653 139.967Z" fill="currentColor"/>
<path d="M206.142 264.131H166.179C165.732 264.131 165.369 263.768 165.369 263.32V214.837C165.369 214.389 165.732 214.025 166.179 214.025C166.626 214.025 166.989 214.389 166.989 214.837V262.509H206.142C206.589 262.509 206.952 262.872 206.952 263.32C206.952 263.768 206.589 264.131 206.142 264.131Z" fill="currentColor"/>
<path d="M219.958 264.131C219.511 264.131 219.148 263.768 219.148 263.32V215.648H197.653C197.206 215.648 196.843 215.285 196.843 214.837C196.843 214.389 197.206 214.025 197.653 214.025H219.958C220.405 214.025 220.768 214.389 220.768 214.837V263.32C220.768 263.768 220.405 264.131 219.958 264.131Z" fill="currentColor"/>
<path d="M55.7161 66.9303H223.473C228.508 66.9303 232.575 62.8608 232.575 57.8211V35.955C232.575 30.9152 228.508 26.8457 223.473 26.8457H55.7161C50.6809 26.8457 46.6113 30.9152 46.6113 35.955V57.8211C46.6113 62.8608 50.6777 66.9303 55.7161 66.9303Z" fill="white"/>
<path d="M223.185 66.9303H176.123V26.8457H223.185C228.382 26.8457 232.611 31.0774 232.611 36.2762V57.4965C232.611 62.7278 228.382 66.9271 223.185 66.9271V66.9303Z" fill="currentColor"/>
<path d="M223.509 67.7414H213.05C212.603 67.7414 212.24 67.3779 212.24 66.9301C212.24 66.4823 212.603 66.1188 213.05 66.1188H223.509C228.081 66.1188 231.801 62.3966 231.801 57.8208V35.9547C231.801 31.379 228.081 27.6568 223.509 27.6568H148.199C147.752 27.6568 147.389 27.2933 147.389 26.8455C147.389 26.3976 147.752 26.0342 148.199 26.0342H223.509C228.975 26.0342 233.421 30.4833 233.421 35.9547V57.8208C233.421 63.289 228.975 67.7414 223.509 67.7414Z" fill="currentColor"/>
<path d="M197.653 67.7419H55.7162C50.2501 67.7419 45.8047 63.2927 45.8047 57.8213V47.7742C45.8047 47.3264 46.1676 46.9629 46.6147 46.9629C47.0619 46.9629 47.4247 47.3264 47.4247 47.7742V57.8213C47.4247 62.397 51.1444 66.1193 55.7162 66.1193H197.649C198.097 66.1193 198.46 66.4827 198.46 66.9306C198.46 67.3784 198.097 67.7419 197.649 67.7419H197.653Z" fill="currentColor"/>
<path d="M46.6147 38.9955C46.1676 38.9955 45.8047 38.632 45.8047 38.1842V35.9547C45.8047 30.4833 50.2501 26.0342 55.7162 26.0342H128.603C129.05 26.0342 129.413 26.3976 129.413 26.8455C129.413 27.2933 129.05 27.6568 128.603 27.6568H55.7162C51.1444 27.6568 47.4247 31.379 47.4247 35.9547V38.1842C47.4247 38.632 47.0619 38.9955 46.6147 38.9955Z" fill="currentColor"/>
<path d="M176.123 58.0513C175.675 58.0513 175.312 57.6878 175.312 57.24V26.8455C175.312 26.3976 175.675 26.0342 176.123 26.0342C176.57 26.0342 176.933 26.3976 176.933 26.8455V57.24C176.933 57.6878 176.57 58.0513 176.123 58.0513Z" fill="currentColor"/>
<path d="M201.243 55.0694C198.35 55.0694 195.457 53.966 193.253 51.7625C191.118 49.6272 189.942 46.7844 189.942 43.7631C189.942 40.7418 191.118 37.9023 193.253 35.7637C197.66 31.3535 204.83 31.3535 209.237 35.7637C211.372 37.8991 212.548 40.7418 212.548 43.7631C212.548 46.7844 211.372 49.6239 209.237 51.7625C207.034 53.966 204.14 55.0694 201.247 55.0694H201.243ZM201.243 34.7285C198.93 34.7285 196.617 35.6079 194.854 37.3733C193.146 39.0803 192.207 41.3487 192.207 43.7631C192.207 46.1775 193.146 48.4459 194.854 50.1529C198.376 53.6772 204.108 53.6772 207.63 50.1529C209.337 48.4459 210.277 46.1775 210.277 43.7631C210.277 41.3487 209.337 39.0803 207.63 37.3733C205.867 35.6112 203.554 34.7285 201.24 34.7285H201.243Z" fill="white"/>
<path d="M217.664 61.3165C217.373 61.3165 217.084 61.2062 216.864 60.9855L207.633 51.7465C207.189 51.3019 207.189 50.5847 207.633 50.1401C208.077 49.6955 208.793 49.6955 209.237 50.1401L218.468 59.3791C218.912 59.8237 218.912 60.5409 218.468 60.9855C218.247 61.2062 217.956 61.3198 217.664 61.3198V61.3165Z" fill="white"/>
<path d="M79.0555 51.9437C77.5067 50.6522 75.9903 49.2957 74.7299 47.6471C74.4059 47.2285 74.1175 46.7742 73.8583 46.2906C73.7287 46.031 73.5991 45.7746 73.5019 45.4826C73.4047 45.1905 73.3399 44.9017 73.3075 44.5123C73.3075 44.1553 73.3723 43.7042 73.6315 43.318C73.7611 43.1233 73.9555 42.9611 74.1143 42.8345C74.3087 42.7371 74.5031 42.6398 74.6619 42.5749C75.4038 42.3802 75.9838 42.51 76.5346 42.6398C77.633 42.9318 78.5694 43.4478 79.441 43.9963C80.3126 44.5447 81.1194 45.1905 81.8938 45.8687C82.6682 46.547 83.3454 47.2901 84.0258 48.0657C84.703 48.8413 85.3154 49.6818 85.8338 50.6489C86.3166 51.5868 86.7054 52.6836 86.6406 53.9103C86.6406 54.2024 86.5434 54.5237 86.4786 54.8157C86.4462 54.978 86.349 55.1078 86.3166 55.2344L86.2194 55.4615C86.187 55.5264 86.1222 55.5913 86.0898 55.6562C85.9925 55.7861 85.9277 55.9159 85.8305 56.0424L85.5065 56.3994C85.4093 56.5292 85.2797 56.6266 85.1825 56.6915C85.0529 56.7888 84.9557 56.8862 84.8261 56.9511C83.8573 57.5969 82.7589 57.8889 81.6961 58.0155C80.6302 58.1453 79.5674 58.1129 78.5338 57.983C74.4027 57.4346 70.6571 55.5297 67.4623 53.0731C67.1059 52.8135 67.0443 52.2975 67.3003 51.9437C67.5595 51.5868 68.0747 51.5251 68.4311 51.7815C69.9475 52.9433 71.5935 53.946 73.3043 54.7541C75.0474 55.5297 76.8554 56.143 78.7282 56.3702C79.6646 56.5 80.601 56.5 81.4726 56.4026C82.3766 56.3053 83.2158 56.0457 83.893 55.5946C84.5377 55.1435 84.9589 54.4977 84.9913 53.7546C85.0561 52.979 84.7969 52.1385 84.379 51.3629C83.961 50.5548 83.4102 49.8117 82.7978 49.101C82.1854 48.3903 81.505 47.6796 80.7954 47.0662C80.0858 46.4204 79.3438 45.8395 78.5662 45.3203C77.7918 44.8368 76.9526 44.3824 76.1458 44.191C75.757 44.0936 75.339 44.0612 75.1122 44.1261C74.9826 44.1585 74.9502 44.191 74.9502 44.2234C74.9502 44.2234 74.9178 44.3208 74.9178 44.4506C74.9178 44.7102 75.0798 45.1288 75.2742 45.515C75.4686 45.9012 75.7246 46.2906 76.0162 46.6443C77.147 48.1306 78.5986 49.4222 80.0826 50.6814C80.439 50.9734 80.4681 51.4894 80.1798 51.8107C79.9206 52.1969 79.4054 52.2293 79.049 51.9405L79.0555 51.9437Z" fill="currentColor"/>
<path d="M98.7451 50.5231C96.3895 49.0368 94.0955 47.4532 92.0316 45.5482C90.998 44.6104 89.9968 43.5784 89.1252 42.4166C88.704 41.8357 88.3184 41.1899 87.9944 40.5117C87.8324 40.1547 87.7028 39.7685 87.638 39.3824C87.5408 38.9637 87.5084 38.5094 87.6056 38.0583C87.638 37.8312 87.7352 37.5748 87.8648 37.3476C87.9944 37.1205 88.1564 36.8965 88.3476 36.7343C88.7364 36.3773 89.1868 36.1858 89.608 36.0885C90.4796 35.8938 91.254 35.9911 91.9959 36.1534C93.4799 36.4779 94.7727 37.0913 96.0299 37.802C98.4827 39.2558 100.647 41.0634 102.614 43.0657C103.583 44.1009 104.519 45.1328 105.326 46.3271C106.133 47.5213 106.81 48.8129 107.199 50.2992C107.328 50.6562 107.328 51.0423 107.393 51.4285C107.425 51.6232 107.393 51.8147 107.425 52.0094C107.425 52.2041 107.458 52.3956 107.393 52.5903C107.328 53.3983 107.069 54.1739 106.651 54.8846C106.23 55.5629 105.682 56.1762 105.037 56.6306C104.875 56.7604 104.713 56.8577 104.555 56.9551C104.393 57.0524 104.231 57.1498 104.072 57.2471L103.557 57.4743C103.459 57.5068 103.395 57.5717 103.297 57.6041L103.038 57.7015C101.651 58.2175 100.164 58.4122 98.7451 58.4446C97.3259 58.4771 95.8711 58.3473 94.4843 58.0877C93.0976 57.828 91.74 57.4743 90.3856 57.0232C89.0636 56.5722 87.7708 56.0205 86.4813 55.4071C86.0925 55.2124 85.9013 54.7289 86.0924 54.3395C86.2869 53.9533 86.7696 53.7586 87.1584 53.9533H87.1909C88.3865 54.5342 89.6112 55.0826 90.904 55.5045C92.1644 55.9231 93.454 56.2801 94.7468 56.5072C96.0364 56.7344 97.3616 56.8642 98.6835 56.8285C99.9764 56.7961 101.266 56.6014 102.462 56.1827C103.657 55.7641 104.655 55.0534 105.271 54.0831C105.53 53.5995 105.721 53.0511 105.786 52.467C105.818 52.3372 105.786 52.1749 105.786 52.0159V51.5648C105.721 51.2727 105.721 50.9839 105.624 50.6594C105.332 49.4652 104.72 48.3002 103.978 47.2357C103.236 46.1389 102.364 45.1685 101.46 44.1658C99.5875 42.2608 97.5236 40.5149 95.2296 39.1584C94.0988 38.5127 92.9064 37.9642 91.6784 37.6721C91.0984 37.5423 90.4828 37.5099 90 37.6072C89.7732 37.6721 89.5788 37.7695 89.4524 37.8669C89.3228 37.9642 89.258 38.1265 89.2256 38.3179C89.1284 38.7041 89.2904 39.2883 89.5173 39.8367C89.7765 40.3851 90.0972 40.9336 90.486 41.4528C91.2604 42.4848 92.1968 43.4551 93.1656 44.3605C95.1356 46.1681 97.3616 47.7193 99.6523 49.1407C100.041 49.3678 100.135 49.8838 99.9115 50.2375C99.6199 50.6237 99.1372 50.7535 98.7483 50.5296L98.7451 50.5231Z" fill="currentColor"/>
<path d="M121.244 51.8143C118.662 50.1333 116.209 48.3257 113.918 46.226C112.788 45.1941 111.692 44.0615 110.724 42.8348C110.241 42.2215 109.787 41.5757 109.402 40.865C109.013 40.1543 108.66 39.3787 108.53 38.4733C108.465 38.0222 108.465 37.503 108.692 36.9545C108.789 36.6949 108.951 36.4385 109.146 36.2114C109.34 36.0167 109.596 35.8252 109.823 35.7278C110.306 35.4682 110.792 35.4358 111.242 35.4033C111.692 35.4033 112.114 35.4358 112.532 35.5331C114.178 35.8901 115.597 36.6008 116.954 37.4056C119.634 39.0217 121.957 41.0889 124.121 43.2502C125.187 44.3503 126.221 45.5121 127.157 46.7712C128.061 48.0304 128.901 49.4193 129.383 51.0354C129.61 51.8435 129.74 52.7164 129.643 53.5861C129.513 54.4915 129.127 55.3937 128.512 56.0395C127.899 56.7177 127.125 57.1688 126.351 57.4933C125.576 57.8146 124.77 58.0093 123.995 58.1391C122.414 58.3988 120.833 58.3663 119.281 58.204C117.732 58.0418 116.216 57.7854 114.696 57.396C111.696 56.6528 108.789 55.5884 106.012 54.326C105.591 54.1313 105.432 53.6802 105.624 53.2616C105.818 52.843 106.268 52.6807 106.69 52.8754C109.402 54.1021 112.211 55.1373 115.082 55.848C116.533 56.2018 117.988 56.4614 119.44 56.6236C120.891 56.7534 122.378 56.7859 123.765 56.5587C124.475 56.4614 125.152 56.2991 125.767 56.0103C126.38 55.7507 126.931 55.397 127.349 54.9459C127.77 54.4948 127.993 53.9431 128.091 53.3298C128.155 52.7164 128.091 52.0706 127.896 51.3924C127.507 50.0683 126.765 48.8092 125.926 47.6442C125.087 46.45 124.086 45.3498 123.052 44.2854C120.953 42.1858 118.694 40.1835 116.209 38.6647C114.949 37.9216 113.627 37.2758 112.305 36.9837C111.66 36.8539 110.98 36.8539 110.594 37.0486C110.4 37.146 110.302 37.2758 110.205 37.4348C110.14 37.6295 110.108 37.8859 110.14 38.178C110.205 38.7589 110.497 39.4046 110.818 40.018C111.142 40.6313 111.56 41.2122 112.013 41.7931C112.917 42.9224 113.951 43.9901 115.046 44.9896C117.239 46.9919 119.663 48.7703 122.148 50.4156C122.505 50.6427 122.602 51.1263 122.375 51.4832C122.083 51.9343 121.601 52.0317 121.244 51.8045V51.8143Z" fill="currentColor"/>
<path d="M140.582 51.169C140.034 50.812 139.548 50.4583 139.033 50.1046L137.517 49.0369C137.001 48.6799 136.515 48.3262 136 47.94C135.741 47.7453 135.517 47.5538 135.258 47.3591C134.999 47.1644 134.775 46.9405 134.516 46.7458C133.58 45.9053 132.676 44.9999 131.869 44.0328C131.062 43.03 130.32 41.9656 129.931 40.5442C129.899 40.3495 129.834 40.1872 129.834 39.9958C129.834 39.8984 129.802 39.8011 129.802 39.7037L129.834 39.3792V39.2169L129.867 39.0547C129.899 38.9573 129.931 38.8275 129.964 38.7334C130.029 38.636 130.061 38.5062 130.126 38.4089C130.191 38.3115 130.288 38.2142 130.353 38.1168L130.482 37.987L130.644 37.8896C130.741 37.8247 130.839 37.7274 130.968 37.6949C131.195 37.5976 131.389 37.5327 131.613 37.5002C131.71 37.4678 131.807 37.4678 131.937 37.4678H132.229C132.423 37.4678 132.614 37.5002 132.776 37.5002C134.195 37.6949 135.359 38.3083 136.489 38.9216C137.588 39.5674 138.618 40.3106 139.587 41.1186C140.556 41.9267 141.492 42.7672 142.396 43.6369C143.268 44.5423 144.107 45.5094 144.816 46.6095C145.526 47.6771 146.138 48.8714 146.462 50.1954C146.527 50.5167 146.624 50.8412 146.624 51.1982L146.657 51.7142V52.4898L146.624 52.7494L146.527 53.2654C146.43 53.6223 146.333 53.9761 146.171 54.2681C145.879 54.9464 145.429 55.4948 144.91 55.9816L144.525 56.3386C144.395 56.4359 144.233 56.5333 144.104 56.6274C143.812 56.8221 143.524 56.9844 143.2 57.1434C141.972 57.7243 140.65 57.9514 139.36 58.0488C138.067 58.1461 136.778 58.0488 135.517 57.8541C134.26 57.6594 133.032 57.3705 131.837 56.9811C130.641 56.6241 129.449 56.1731 128.318 55.6895C127.9 55.5273 127.705 55.0437 127.867 54.6251C128.029 54.2065 128.512 54.0118 128.933 54.174H128.966C130.064 54.6251 131.195 55.0794 132.323 55.4007C133.453 55.7577 134.613 56.0465 135.777 56.2088C136.94 56.4035 138.132 56.4684 139.263 56.4035C140.394 56.3386 141.554 56.1114 142.522 55.6603C143.491 55.2092 144.33 54.4985 144.748 53.5607C144.878 53.3335 144.91 53.0772 145.008 52.85L145.072 52.4606L145.105 52.2659V51.685L145.072 51.2988C145.072 51.0392 144.975 50.7503 144.943 50.4907C144.684 49.4231 144.168 48.3911 143.524 47.4208C142.879 46.4505 142.105 45.5483 141.298 44.7078C139.619 43.0268 137.747 41.4464 135.744 40.2489C134.743 39.668 133.645 39.152 132.647 39.0222C132.164 38.9573 131.71 39.0547 131.581 39.2169C131.419 39.3143 131.386 39.7654 131.516 40.2165C131.645 40.7 131.872 41.1868 132.161 41.6703C132.452 42.1538 132.773 42.6406 133.162 43.0917C133.904 43.9971 134.743 44.8376 135.615 45.6424C135.841 45.8371 136.065 46.0286 136.292 46.2233C136.519 46.418 136.742 46.577 137.001 46.7717C137.484 47.1255 137.97 47.4824 138.485 47.8362L139.969 48.9038C140.452 49.2608 140.97 49.6145 141.453 49.9066H141.486C141.842 50.1338 141.939 50.6173 141.712 50.971C141.421 51.2955 140.938 51.3897 140.582 51.1657V51.169Z" fill="currentColor"/>
<path d="M157.592 47.521C158.075 49.0073 158.431 50.6201 158.14 52.3011C157.978 53.1416 157.625 54.0114 157.009 54.6896C156.397 55.4003 155.525 55.7865 154.686 55.9812C152.975 56.3382 151.394 56.0461 149.877 55.6599C148.393 55.2413 146.971 54.6571 145.584 54.0113C145.195 53.8166 145.004 53.3331 145.195 52.9437C145.39 52.5575 145.873 52.3628 146.261 52.5575C147.583 53.2033 148.909 53.7517 150.295 54.1412C151.65 54.5273 153.072 54.7545 154.297 54.4657C154.909 54.3034 155.46 54.0795 155.813 53.6252C156.202 53.2065 156.458 52.6549 156.555 52.0415C156.782 50.7824 156.523 49.361 156.073 48.037C155.943 47.6183 156.137 47.1964 156.555 47.0374C156.977 46.8752 157.427 47.1348 157.589 47.521H157.592Z" fill="currentColor"/>
<path d="M59.3326 17.5484C59.1253 17.5484 58.9179 17.4705 58.7591 17.3115C58.4416 16.9935 58.4416 16.4807 58.7591 16.1627L74.6746 0.238522C74.9921 -0.0795072 75.5041 -0.0795072 75.8216 0.238522C76.1391 0.556551 76.1391 1.06929 75.8216 1.38732L59.9061 17.3115C59.7474 17.4705 59.54 17.5484 59.3326 17.5484Z" fill="currentColor"/>
<path d="M75.2481 17.5484C75.0407 17.5484 74.8334 17.4705 74.6746 17.3115L58.7591 1.38732C58.4416 1.06929 58.4416 0.556551 58.7591 0.238522C59.0767 -0.0795072 59.5886 -0.0795072 59.9061 0.238522L75.8216 16.1627C76.1391 16.4807 76.1391 16.9935 75.8216 17.3115C75.6628 17.4705 75.4555 17.5484 75.2481 17.5484Z" fill="currentColor"/>
<path d="M106.301 17.5484H88.707C88.2599 17.5484 87.897 17.1849 87.897 16.7371C87.897 16.2892 88.2599 15.9258 88.707 15.9258H106.301C106.748 15.9258 107.111 16.2892 107.111 16.7371C107.111 17.1849 106.748 17.5484 106.301 17.5484Z" fill="currentColor"/>
<path d="M279.32 269.262C282.353 269.262 284.096 266.614 283.257 263.353L235.741 81.2096C234.901 77.9482 231.739 75.2969 228.703 75.2969C225.667 75.2969 223.927 77.945 224.766 81.2096L272.283 263.353C273.154 266.646 276.284 269.262 279.32 269.262Z" fill="white"/>
<path d="M280.545 96.6822L276.511 81.1766C276.09 79.5281 276.317 78.0742 277.026 76.9774C277.736 75.9129 278.932 75.2314 280.448 75.2314C283.481 75.2314 286.614 77.8795 287.485 81.1409L334.969 263.251C335.809 266.513 334.065 269.161 331.033 269.161C328 269.161 324.867 266.513 323.995 263.251L319.961 247.746" fill="white"/>
<path d="M264.889 193.652C264.529 193.652 264.202 193.412 264.104 193.045L234.956 81.3165C234.218 78.4413 231.353 76.0106 228.703 76.0106C227.592 76.0106 226.688 76.4227 226.085 77.1983C225.375 78.1167 225.178 79.47 225.547 80.9076C225.657 81.3425 225.398 81.7838 224.964 81.8941C224.53 82.0045 224.089 81.7449 223.979 81.31C223.483 79.3824 223.784 77.5196 224.802 76.2021C225.709 75.0306 227.093 74.3848 228.7 74.3848C232.089 74.3848 235.595 77.3087 236.521 80.9044L265.669 192.63C265.783 193.065 265.524 193.506 265.089 193.62C265.021 193.639 264.953 193.646 264.885 193.646L264.889 193.652Z" fill="currentColor"/>
<path d="M279.32 270.008C275.931 270.008 272.425 267.084 271.499 263.488L237.895 134.677C237.782 134.242 238.041 133.8 238.475 133.687C238.909 133.573 239.35 133.833 239.464 134.268L273.067 263.082C273.805 265.958 276.67 268.388 279.32 268.388C280.432 268.388 281.336 267.976 281.938 267.201C282.648 266.282 282.845 264.929 282.476 263.491L267.111 204.578C266.998 204.143 267.257 203.702 267.691 203.588C268.126 203.475 268.566 203.734 268.68 204.169L284.044 263.086C284.54 265.017 284.239 266.876 283.221 268.197C282.314 269.368 280.931 270.014 279.323 270.014L279.32 270.008Z" fill="currentColor"/>
<path d="M308.663 205.085C308.303 205.085 307.976 204.845 307.879 204.478L300.456 176.086C300.342 175.651 300.602 175.21 301.036 175.096C301.47 174.982 301.911 175.242 302.024 175.677L309.447 204.069C309.561 204.504 309.301 204.945 308.867 205.059C308.799 205.078 308.728 205.085 308.663 205.085Z" fill="currentColor"/>
<path d="M289.906 133.315C289.546 133.315 289.219 133.071 289.121 132.708L281.731 104.283C281.617 103.848 281.877 103.407 282.311 103.293C282.745 103.18 283.186 103.439 283.299 103.874L290.69 132.299C290.803 132.734 290.544 133.175 290.11 133.289C290.042 133.305 289.974 133.315 289.906 133.315Z" fill="currentColor"/>
<path d="M331.032 269.911C327.624 269.911 324.189 267.052 323.211 263.398L319.174 247.889C319.06 247.454 319.319 247.013 319.754 246.899C320.188 246.785 320.628 247.045 320.742 247.48L324.776 262.985C325.557 265.909 328.363 268.291 331.029 268.291C332.137 268.291 333.045 267.879 333.644 267.104C334.354 266.185 334.551 264.832 334.182 263.394L320.301 210.199C320.188 209.764 320.447 209.323 320.881 209.209C321.312 209.096 321.756 209.355 321.869 209.79L335.75 262.989C336.246 264.92 335.944 266.782 334.927 268.1C334.02 269.271 332.636 269.917 331.032 269.917V269.911Z" fill="currentColor"/>
<path d="M314.31 184.77C313.95 184.77 313.623 184.53 313.526 184.163L310.428 172.341C310.315 171.906 310.574 171.464 311.005 171.351C311.439 171.237 311.88 171.497 311.993 171.929L315.091 183.751C315.204 184.186 314.945 184.627 314.514 184.741C314.446 184.76 314.375 184.767 314.307 184.767L314.31 184.77Z" fill="currentColor"/>
<path d="M308.662 163.063C308.303 163.063 307.976 162.823 307.878 162.456L286.704 81.2514C285.923 78.3275 283.117 75.9455 280.451 75.9455C279.275 75.9455 278.296 76.4355 277.703 77.3279C277.091 78.2755 276.948 79.5055 277.298 80.8749L281.332 96.374C281.445 96.8088 281.186 97.2502 280.752 97.3638C280.318 97.4773 279.877 97.2177 279.764 96.7829L275.73 81.2773C275.273 79.4795 275.493 77.7596 276.349 76.4323C277.246 75.0855 278.74 74.3164 280.451 74.3164C283.859 74.3164 287.294 77.1754 288.269 80.8295L309.447 162.037C309.56 162.472 309.301 162.913 308.867 163.027C308.798 163.046 308.73 163.053 308.662 163.053V163.063Z" fill="currentColor"/>
<path d="M299.269 169.199C298.91 169.199 298.582 168.956 298.485 168.592L291.094 140.2C290.981 139.765 291.24 139.324 291.674 139.21C292.109 139.097 292.549 139.356 292.663 139.791L300.053 168.183C300.167 168.618 299.908 169.06 299.473 169.173C299.405 169.193 299.337 169.199 299.269 169.199Z" fill="currentColor"/>
<path d="M318.023 241.003C317.663 241.003 317.336 240.763 317.239 240.396L309.816 212.004C309.702 211.569 309.961 211.128 310.396 211.014C310.83 210.9 311.271 211.16 311.384 211.595L318.807 239.987C318.92 240.422 318.661 240.863 318.227 240.977C318.159 240.996 318.088 241.003 318.023 241.003Z" fill="currentColor"/>
<path d="M241.747 104.143L282.518 104.078H285.1C287.005 104.078 288.133 102.397 287.585 100.33C287.326 99.2979 286.681 98.3601 285.874 97.6818C285.068 97.0036 284.099 96.585 283.13 96.585H280.548L239.777 96.6499L241.747 104.143Z" fill="white"/>
<path d="M251.108 140.061L291.879 139.996H294.461C296.366 139.996 297.494 138.315 296.946 136.248C296.687 135.216 296.042 134.278 295.235 133.6C294.429 132.922 293.46 132.503 292.491 132.503H289.909L249.138 132.568L251.108 140.061Z" fill="white"/>
<path d="M260.469 175.946L301.239 175.881H303.822C305.727 175.881 306.858 174.204 306.307 172.137C306.048 171.105 305.403 170.167 304.596 169.488C303.789 168.81 302.821 168.392 301.852 168.392H299.269L258.499 168.457L260.469 175.95V175.946Z" fill="white"/>
<path d="M269.863 211.864L310.633 211.799H313.215C315.121 211.799 316.251 210.118 315.7 208.051C315.441 207.019 314.796 206.081 313.99 205.403C313.183 204.724 312.214 204.306 311.245 204.306H308.663L267.893 204.371L269.863 211.864Z" fill="white"/>
<path d="M279.222 247.749L319.993 247.685H322.575C324.477 247.685 325.608 246.004 325.06 243.936C324.801 242.904 324.156 241.967 323.35 241.288C322.543 240.61 321.574 240.191 320.605 240.191H318.023L277.252 240.256L279.222 247.749Z" fill="white"/>
<path d="M241.712 104.987C241.352 104.987 241.025 104.747 240.928 104.384L238.958 96.8905C238.893 96.6471 238.945 96.3875 239.101 96.1896C239.253 95.9916 239.489 95.8748 239.742 95.8715L280.512 95.8066H283.095C284.213 95.8066 285.369 96.2642 286.358 97.095C287.343 97.9225 288.046 99.0161 288.334 100.168C288.678 101.46 288.473 102.729 287.77 103.644C287.135 104.468 286.176 104.922 285.062 104.922H282.479L252.557 104.955C252.11 104.955 251.747 104.591 251.747 104.144C251.747 103.696 252.11 103.332 252.557 103.332L285.065 103.3C285.671 103.3 286.163 103.076 286.49 102.654C286.883 102.145 286.983 101.385 286.769 100.574C286.565 99.7495 286.037 98.9415 285.321 98.3379C284.624 97.7538 283.834 97.4292 283.098 97.4292H280.516L240.798 97.4909L242.499 103.968C242.613 104.403 242.354 104.845 241.923 104.958C241.855 104.978 241.783 104.984 241.715 104.984L241.712 104.987Z" fill="currentColor"/>
<path d="M251.108 140.872C250.661 140.872 250.298 140.509 250.298 140.061C250.298 139.613 250.661 139.249 251.108 139.249L291.879 139.185H294.461C295.067 139.185 295.56 138.961 295.887 138.539C296.279 138.026 296.379 137.27 296.165 136.459C295.958 135.634 295.433 134.823 294.717 134.223C294.02 133.639 293.23 133.314 292.494 133.314H266.444C265.997 133.314 265.634 132.951 265.634 132.503C265.634 132.055 265.997 131.691 266.444 131.691H292.494C293.612 131.691 294.769 132.149 295.76 132.98C296.745 133.807 297.448 134.901 297.737 136.053C298.08 137.345 297.876 138.613 297.173 139.529C296.538 140.353 295.579 140.81 294.464 140.81H291.882L251.115 140.875L251.108 140.872Z" fill="currentColor"/>
<path d="M260.469 176.758C260.1 176.758 259.779 176.508 259.685 176.154L257.715 168.661C257.65 168.418 257.702 168.158 257.858 167.96C258.01 167.762 258.247 167.645 258.499 167.642L299.27 167.577H301.852C302.97 167.577 304.127 168.035 305.118 168.865C306.103 169.696 306.806 170.787 307.095 171.939C307.438 173.23 307.234 174.499 306.531 175.414C305.896 176.239 304.937 176.693 303.822 176.693H301.24L260.473 176.758H260.469ZM259.549 169.261L261.091 175.132L301.237 175.067H303.819C304.425 175.067 304.917 174.843 305.245 174.421C305.637 173.912 305.737 173.152 305.523 172.341C305.319 171.517 304.791 170.706 304.075 170.105C303.378 169.521 302.588 169.196 301.852 169.196H299.27L259.549 169.258V169.261Z" fill="currentColor"/>
<path d="M269.862 212.643C269.493 212.643 269.172 212.393 269.078 212.039L267.108 204.546C267.043 204.303 267.095 204.043 267.25 203.845C267.403 203.647 267.639 203.53 267.892 203.527L289.905 203.495C290.352 203.495 290.715 203.858 290.715 204.306C290.715 204.754 290.352 205.117 289.905 205.117L268.939 205.146L270.481 211.017L310.626 210.952H313.208C313.814 210.952 314.307 210.728 314.634 210.306C315.026 209.797 315.126 209.037 314.913 208.226C314.705 207.402 314.18 206.591 313.464 205.99C312.768 205.406 311.977 205.082 311.241 205.082H308.659L297.105 205.114C296.658 205.114 296.295 204.754 296.295 204.306C296.295 203.858 296.654 203.495 297.102 203.491L311.241 203.459C312.359 203.459 313.516 203.917 314.504 204.747C315.489 205.575 316.192 206.668 316.481 207.821C316.824 209.112 316.62 210.381 315.917 211.296C315.282 212.12 314.323 212.575 313.208 212.575H310.626L269.859 212.64L269.862 212.643Z" fill="currentColor"/>
<path d="M279.223 248.56C278.853 248.56 278.532 248.31 278.439 247.957L276.469 240.463C276.355 240.029 276.614 239.587 277.045 239.474C277.479 239.36 277.92 239.62 278.033 240.051L279.845 246.941L319.99 246.876H322.572C323.178 246.876 323.671 246.652 323.995 246.23C324.387 245.717 324.49 244.961 324.273 244.15C324.066 243.326 323.538 242.514 322.825 241.914C322.128 241.327 321.338 241.005 320.602 241.005H318.02L287.773 241.038C287.326 241.038 286.963 240.674 286.963 240.227C286.963 239.779 287.326 239.415 287.773 239.415L320.602 239.383C321.72 239.383 322.88 239.84 323.868 240.671C324.853 241.499 325.556 242.589 325.845 243.744C326.188 245.036 325.981 246.308 325.281 247.22C324.646 248.044 323.687 248.499 322.572 248.499H319.99L279.223 248.563V248.56Z" fill="currentColor"/>
<path d="M79.1846 139.931V153.174C79.1846 165.707 85.0265 177.562 94.9704 185.185L105.203 193.035C107.173 194.554 107.173 197.523 105.203 199.042L94.9704 206.892C85.0297 214.515 79.1846 226.37 79.1846 238.903V252.146H148.199V238.903C148.199 226.37 142.357 214.515 132.413 206.892L122.181 199.042C120.211 197.523 120.211 194.551 122.181 193.035L132.413 185.185C142.354 177.562 148.199 165.707 148.199 153.174V139.931H79.1846Z" fill="currentColor"/>
<path d="M136.224 244.78C136.224 243.423 135.546 242.099 134.383 241.259C132.834 240.129 130.317 238.676 127.184 237.965C125.57 237.611 123.794 237.287 122.051 237.027C116.498 236.219 110.883 236.219 105.329 237.027C103.586 237.287 101.81 237.575 100.197 237.965C97.0667 238.676 94.5491 240.129 92.9971 241.259C91.8339 242.099 91.1567 243.391 91.1567 244.78H136.22H136.224Z" fill="white"/>
<path d="M136.224 245.591H91.1601C90.713 245.591 90.3501 245.228 90.3501 244.78C90.3501 243.125 91.1439 241.6 92.5242 240.6C93.8073 239.666 96.4869 237.975 100.019 237.173C101.726 236.764 103.602 236.463 105.213 236.226C110.841 235.408 116.543 235.408 122.168 236.226C123.947 236.489 125.739 236.816 127.359 237.173C130.894 237.975 133.576 239.669 134.86 240.603C136.22 241.587 137.034 243.148 137.034 244.78C137.034 245.228 136.671 245.591 136.224 245.591ZM92.0674 243.969H135.313C135.112 243.164 134.62 242.43 133.91 241.918C132.724 241.051 130.252 239.494 127.006 238.757C125.428 238.41 123.671 238.088 121.935 237.832C116.465 237.037 110.918 237.037 105.449 237.832C103.878 238.066 102.047 238.358 100.388 238.754C97.1317 239.494 94.6627 241.051 93.4768 241.914C92.7543 242.437 92.265 243.161 92.0674 243.969Z" fill="white"/>
<path d="M110.141 184.666C112.367 185.893 115.014 185.893 117.211 184.666C123.668 181.048 136.191 171.906 136.191 163.316C136.191 161.862 134.804 160.7 133.126 160.7H94.196C92.4852 160.7 91.1309 161.862 91.1309 163.316C91.1633 171.909 103.686 181.048 110.144 184.666H110.141Z" fill="white"/>
<path d="M113.688 186.402C112.34 186.402 110.989 186.061 109.752 185.38C109.752 185.38 109.748 185.38 109.745 185.38C102.546 181.346 90.3498 172.159 90.3174 163.326C90.3174 161.401 92.0217 159.896 94.1926 159.896H133.123C135.261 159.896 136.998 161.434 136.998 163.322C136.998 172.156 124.805 181.346 117.602 185.38C116.381 186.065 115.033 186.405 113.685 186.405L113.688 186.402ZM110.536 183.959C112.519 185.049 114.865 185.049 116.815 183.959C123.237 180.36 135.381 171.416 135.381 163.316C135.381 162.32 134.37 161.512 133.126 161.512H94.1958C92.9516 161.512 91.9407 162.323 91.9407 163.316C91.9698 171.416 104.117 180.36 110.536 183.959Z" fill="white"/>
<path d="M148.166 253.02H79.1518C78.7047 253.02 78.3418 252.656 78.3418 252.208V238.965C78.3418 226.25 84.3619 214.042 94.4452 206.312L104.677 198.461C105.413 197.894 105.837 197.034 105.837 196.102C105.837 195.171 105.413 194.311 104.677 193.74L94.4452 185.893C94.0888 185.62 94.024 185.111 94.2961 184.757C94.5683 184.403 95.077 184.335 95.4302 184.608L105.662 192.458C106.803 193.337 107.457 194.668 107.457 196.105C107.457 197.543 106.803 198.874 105.666 199.753L95.4302 207.603C85.7455 215.028 79.9619 226.753 79.9619 238.968V251.4H147.356V238.968C147.356 237.501 147.272 236.008 147.104 234.402C147.055 233.957 147.379 233.558 147.823 233.51C148.267 233.461 148.665 233.785 148.714 234.23C148.892 235.891 148.976 237.443 148.976 238.968V252.212C148.976 252.659 148.613 253.023 148.166 253.023V253.02Z" fill="currentColor"/>
<path d="M83.8665 172.915C83.5781 172.915 83.2962 172.759 83.1504 172.483C80.027 166.597 78.3745 159.944 78.3745 153.239V139.996C78.3745 139.548 78.7374 139.185 79.1845 139.185H102.264C102.711 139.185 103.074 139.548 103.074 139.996C103.074 140.444 102.711 140.807 102.264 140.807H79.9946V153.239C79.9946 159.678 81.579 166.071 84.5793 171.721C84.7899 172.117 84.6409 172.607 84.2456 172.818C84.1257 172.883 83.9929 172.912 83.8665 172.912V172.915Z" fill="currentColor"/>
<path d="M145.325 224.854C145.004 224.854 144.699 224.66 144.573 224.342C141.952 217.757 137.578 211.977 131.92 207.629L121.688 199.782C120.548 198.903 119.893 197.572 119.893 196.134C119.893 194.694 120.548 193.366 121.685 192.487L131.92 184.637C141.605 177.212 147.389 165.487 147.389 153.272V147.489C147.389 147.041 147.752 146.678 148.199 146.678C148.646 146.678 149.009 147.041 149.009 147.489V153.272C149.009 165.987 142.989 178.195 132.905 185.925L122.673 193.775C121.938 194.343 121.513 195.203 121.513 196.134C121.513 197.066 121.938 197.926 122.673 198.497L132.905 206.344C138.796 210.871 143.348 216.884 146.076 223.741C146.242 224.157 146.041 224.631 145.623 224.796C145.526 224.835 145.422 224.854 145.325 224.854Z" fill="currentColor"/>
<path d="M150.587 140.807H117.308C116.861 140.807 116.498 140.443 116.498 139.996C116.498 139.548 116.861 139.184 117.308 139.184H150.587C153.186 139.184 155.298 137.072 155.298 134.472C155.298 131.873 153.186 129.76 150.587 129.76H76.7643C74.1657 129.76 72.0532 131.873 72.0532 134.472C72.0532 137.072 74.1657 139.184 76.7643 139.184H99.2636C99.7108 139.184 100.074 139.548 100.074 139.996C100.074 140.443 99.7108 140.807 99.2636 140.807H76.7643C73.2747 140.807 70.4331 137.964 70.4331 134.472C70.4331 130.98 73.2714 128.138 76.7643 128.138H150.587C154.077 128.138 156.918 130.98 156.918 134.472C156.918 137.964 154.08 140.807 150.587 140.807Z" fill="currentColor"/>
<path d="M150.619 264.131C150.172 264.131 149.809 263.768 149.809 263.32C149.809 262.872 150.172 262.509 150.619 262.509C153.218 262.509 155.331 260.396 155.331 257.797C155.331 255.197 153.218 253.085 150.619 253.085H76.7643C74.1657 253.085 72.0532 255.197 72.0532 257.797C72.0532 260.396 74.1657 262.509 76.7643 262.509H136.224C136.671 262.509 137.034 262.872 137.034 263.32C137.034 263.768 136.671 264.131 136.224 264.131H76.7643C73.2747 264.131 70.4331 261.288 70.4331 257.797C70.4331 254.305 73.2714 251.462 76.7643 251.462H150.619C154.109 251.462 156.951 254.305 156.951 257.797C156.951 261.288 154.112 264.131 150.619 264.131Z" fill="currentColor"/>
<path d="M18.1118 137.056V103.367C18.1118 97.3931 22.9525 92.5156 28.9565 92.5156H81.6375L105.718 76.7861V137.059C105.718 143.033 100.877 147.911 94.8734 147.911H28.9597C22.9558 147.911 18.1151 143.033 18.1151 137.059L18.1118 137.056Z" fill="white"/>
<path d="M41.9653 148.268H28.7294C22.301 148.268 17.0747 143.037 17.0747 136.605V102.949C17.0747 96.5169 22.3043 91.2857 28.7294 91.2857H81.1707L105.05 75.686C105.426 75.4427 105.928 75.5465 106.171 75.9229C106.414 76.2994 106.311 76.8024 105.935 77.0458L81.8543 92.7752C81.7215 92.8629 81.5692 92.9083 81.4104 92.9083H28.7326C23.1985 92.9083 18.698 97.4126 18.698 102.949V136.605C18.698 142.141 23.2018 146.645 28.7326 146.645H41.9685C42.4157 146.645 42.7785 147.009 42.7785 147.457C42.7785 147.905 42.4157 148.268 41.9685 148.268H41.9653Z" fill="currentColor"/>
<path d="M94.6788 148.268H56.75C56.3028 148.268 55.9399 147.905 55.9399 147.457C55.9399 147.009 56.3028 146.645 56.75 146.645H94.6788C100.213 146.645 104.713 142.141 104.713 136.605V88.4754C104.713 88.0275 105.076 87.6641 105.523 87.6641C105.971 87.6641 106.333 88.0275 106.333 88.4754V136.605C106.333 143.037 101.104 148.268 94.6788 148.268Z" fill="currentColor"/>
<path d="M87.5118 109.122H35.9292C35.482 109.122 35.1191 108.758 35.1191 108.31C35.1191 107.862 35.482 107.499 35.9292 107.499H87.5118C87.959 107.499 88.3218 107.862 88.3218 108.31C88.3218 108.758 87.959 109.122 87.5118 109.122Z" fill="currentColor"/>
<path d="M87.5117 121.102H55.7812C55.3341 121.102 54.9712 120.739 54.9712 120.291C54.9712 119.843 55.3341 119.479 55.7812 119.479H87.5117C87.9588 119.479 88.3217 119.843 88.3217 120.291C88.3217 120.739 87.9588 121.102 87.5117 121.102Z" fill="currentColor"/>
<path d="M46.6151 121.102H35.9292C35.482 121.102 35.1191 120.739 35.1191 120.291C35.1191 119.843 35.482 119.479 35.9292 119.479H46.6151C47.0622 119.479 47.4251 119.843 47.4251 120.291C47.4251 120.739 47.0622 121.102 46.6151 121.102Z" fill="currentColor"/>
<path d="M61.7205 133.087H35.9292C35.482 133.087 35.1191 132.724 35.1191 132.276C35.1191 131.828 35.482 131.465 35.9292 131.465H61.7205C62.1676 131.465 62.5305 131.828 62.5305 132.276C62.5305 132.724 62.1676 133.087 61.7205 133.087Z" fill="currentColor"/>
<path d="M63.5927 179.827C63.1456 179.827 62.7827 179.464 62.7827 179.016V169.679C62.7827 169.232 63.1456 168.868 63.5927 168.868C64.0399 168.868 64.4028 169.232 64.4028 169.679V179.016C64.4028 179.464 64.0399 179.827 63.5927 179.827Z" fill="currentColor"/>
<path d="M59.0767 181.054C58.798 181.054 58.5259 180.908 58.3736 180.648L53.6916 172.542C53.4681 172.152 53.6009 171.659 53.9865 171.432C54.3753 171.208 54.8678 171.341 55.0946 171.727L59.7766 179.834C60.0001 180.223 59.8673 180.717 59.4817 180.944C59.3553 181.018 59.216 181.054 59.0767 181.054Z" fill="currentColor"/>
<path d="M55.7809 184.348C55.6448 184.348 55.5055 184.312 55.3758 184.238L47.2723 179.555C46.8835 179.331 46.7507 178.834 46.9742 178.448C47.1978 178.059 47.6935 177.926 48.0791 178.15L56.1826 182.832C56.5714 183.056 56.7043 183.553 56.4807 183.939C56.3317 184.199 56.0595 184.345 55.7776 184.345L55.7809 184.348Z" fill="currentColor"/>
<path d="M54.5563 188.872H45.228C44.7809 188.872 44.418 188.508 44.418 188.06C44.418 187.612 44.7809 187.249 45.228 187.249H54.5563C55.0034 187.249 55.3663 187.612 55.3663 188.06C55.3663 188.508 55.0034 188.872 54.5563 188.872Z" fill="currentColor"/>
<path d="M47.6807 198.043C47.4021 198.043 47.1299 197.897 46.9776 197.637C46.7541 197.248 46.8869 196.755 47.2757 196.531L55.3793 191.848C55.7681 191.624 56.2606 191.757 56.4841 192.146C56.7077 192.536 56.5749 193.029 56.1861 193.253L48.0825 197.936C47.9562 198.011 47.8168 198.046 47.6775 198.046L47.6807 198.043Z" fill="currentColor"/>
<path d="M54.3912 204.764C54.2551 204.764 54.1158 204.728 53.9862 204.653C53.5974 204.429 53.4678 203.933 53.6914 203.544L58.3733 195.437C58.5969 195.048 59.0926 194.918 59.4814 195.142C59.8703 195.366 59.9999 195.862 59.7763 196.252L55.0943 204.358C54.9453 204.618 54.6731 204.764 54.3912 204.764Z" fill="currentColor"/>
<path d="M63.5927 207.217C63.1456 207.217 62.7827 206.853 62.7827 206.406V197.069C62.7827 196.621 63.1456 196.258 63.5927 196.258C64.0399 196.258 64.4028 196.621 64.4028 197.069V206.406C64.4028 206.853 64.0399 207.217 63.5927 207.217Z" fill="currentColor"/>
<path d="M72.7627 204.764C72.4841 204.764 72.2119 204.618 72.0596 204.358L67.3777 196.252C67.1541 195.862 67.2869 195.369 67.6725 195.142C68.0613 194.918 68.5571 195.051 68.7806 195.437L73.4626 203.544C73.6862 203.933 73.5533 204.426 73.1678 204.654C73.0414 204.728 72.9021 204.764 72.7627 204.764Z" fill="currentColor"/>
<path d="M77.4739 196.881C77.3346 196.881 77.1952 196.845 77.0689 196.77L71.0001 193.249C70.6146 193.025 70.4817 192.529 70.7053 192.139C70.9289 191.753 71.4246 191.62 71.8134 191.844L77.8822 195.365C78.2677 195.589 78.4006 196.086 78.177 196.475C78.028 196.735 77.7558 196.881 77.4739 196.881Z" fill="currentColor"/>
<path d="M77.4737 188.872H72.6006C72.1534 188.872 71.7905 188.508 71.7905 188.06C71.7905 187.612 72.1534 187.249 72.6006 187.249H77.4737C77.9208 187.249 78.2837 187.612 78.2837 188.06C78.2837 188.508 77.9208 188.872 77.4737 188.872Z" fill="currentColor"/>
<path d="M71.4049 184.348C71.1262 184.348 70.8508 184.202 70.7018 183.942C70.4782 183.553 70.611 183.06 70.9999 182.836L72.6782 181.866C73.067 181.642 73.5595 181.775 73.7831 182.164C74.0067 182.554 73.8738 183.047 73.485 183.271L71.8066 184.241C71.6803 184.316 71.541 184.348 71.4016 184.348H71.4049Z" fill="currentColor"/>
<path d="M13.4947 89.2863C13.2873 89.2863 13.08 89.2084 12.9212 89.0494L0.786977 76.9059C0.469445 76.5878 0.469445 76.0751 0.786977 75.7571C1.10451 75.439 1.61645 75.439 1.93398 75.7571L14.0715 87.9038C14.389 88.2219 14.389 88.7346 14.0715 89.0526C13.9127 89.2116 13.7053 89.2895 13.498 89.2895L13.4947 89.2863Z" fill="currentColor"/>
<path d="M8.91285 97.4936C8.83833 97.4936 8.76381 97.4839 8.68928 97.4612L0.585754 95.1344C0.154819 95.011 -0.0914299 94.5632 0.0316945 94.1316C0.154819 93.7 0.605195 93.4533 1.03289 93.5767L9.13642 95.9035C9.56736 96.0268 9.8136 96.4746 9.69048 96.9062C9.59004 97.2632 9.26602 97.4936 8.91285 97.4936Z" fill="currentColor"/>
<path d="M21.6954 84.7011C21.3454 84.7011 21.0214 84.4706 20.9177 84.1169L18.5622 76.0104C18.4358 75.5788 18.6853 75.131 19.113 75.0044C19.5407 74.8811 19.9911 75.1277 20.1174 75.5561L22.473 83.6626C22.5994 84.0942 22.3499 84.542 21.9222 84.6686C21.8476 84.6913 21.7699 84.7011 21.6954 84.7011Z" fill="currentColor"/>
<path d="M104.591 213.48H22.5671C20.2115 213.48 18.2739 215.385 18.2739 217.777V224.917C18.2739 227.276 20.1791 229.213 22.5671 229.213H104.591C106.946 229.213 108.884 227.308 108.884 224.917V217.777C108.884 215.389 106.979 213.48 104.591 213.48Z" fill="white"/>
<path d="M90.1915 230.054H22.567C19.7546 230.054 17.4639 227.762 17.4639 224.946V217.806C17.4639 214.989 19.7546 212.698 22.567 212.698H56.7503C57.1974 212.698 57.5603 213.062 57.5603 213.51C57.5603 213.957 57.1974 214.321 56.7503 214.321H22.567C20.6457 214.321 19.0839 215.885 19.0839 217.806V224.946C19.0839 226.867 20.6457 228.431 22.567 228.431H90.1947C90.6419 228.431 91.0048 228.794 91.0048 229.242C91.0048 229.69 90.6419 230.054 90.1947 230.054H90.1915Z" fill="currentColor"/>
<path d="M104.591 230.054H101.169C100.722 230.054 100.359 229.69 100.359 229.242C100.359 228.794 100.722 228.431 101.169 228.431H104.591C106.512 228.431 108.074 226.867 108.074 224.946V217.806C108.074 215.885 106.512 214.321 104.591 214.321H65.4663C65.0191 214.321 64.6562 213.957 64.6562 213.51C64.6562 213.062 65.0191 212.698 65.4663 212.698H104.591C107.403 212.698 109.694 214.989 109.694 217.806V224.946C109.694 227.762 107.403 230.054 104.591 230.054Z" fill="currentColor"/>
<path d="M26.7626 217.744H22.7935V224.948H26.7626V217.744Z" fill="currentColor"/>
<path d="M26.7626 225.757H22.7934C22.3463 225.757 21.9834 225.393 21.9834 224.945V217.741C21.9834 217.293 22.3463 216.93 22.7934 216.93H26.7626C27.2097 216.93 27.5726 217.293 27.5726 217.741V224.945C27.5726 225.393 27.2097 225.757 26.7626 225.757ZM23.6035 224.134H25.9525V218.552H23.6035V224.134Z" fill="currentColor"/>
<path d="M35.349 217.744H31.3799V224.948H35.349V217.744Z" fill="currentColor"/>
<path d="M35.349 225.757H31.3799C30.9327 225.757 30.5698 225.393 30.5698 224.945V217.741C30.5698 217.293 30.9327 216.93 31.3799 216.93H35.349C35.7961 216.93 36.159 217.293 36.159 217.741V224.945C36.159 225.393 35.7961 225.757 35.349 225.757ZM32.1899 224.134H34.539V218.552H32.1899V224.134Z" fill="currentColor"/>
<path d="M43.9355 217.744H39.9663V224.948H43.9355V217.744Z" fill="currentColor"/>
<path d="M43.9354 225.757H39.9663C39.5191 225.757 39.1562 225.393 39.1562 224.945V217.741C39.1562 217.293 39.5191 216.93 39.9663 216.93H43.9354C44.3826 216.93 44.7455 217.293 44.7455 217.741V224.945C44.7455 225.393 44.3826 225.757 43.9354 225.757ZM40.7763 224.134H43.1254V218.552H40.7763V224.134Z" fill="currentColor"/>
<path d="M52.5214 217.744H48.5522V224.948H52.5214V217.744Z" fill="currentColor"/>
<path d="M52.5214 225.757H48.5522C48.1051 225.757 47.7422 225.393 47.7422 224.945V217.741C47.7422 217.293 48.1051 216.93 48.5522 216.93H52.5214C52.9685 216.93 53.3314 217.293 53.3314 217.741V224.945C53.3314 225.393 52.9685 225.757 52.5214 225.757ZM49.3622 224.134H51.7113V218.552H49.3622V224.134Z" fill="currentColor"/>
</g>
<defs>
<clipPath id="clip0_2789_110377">
<rect width="336" height="270" fill="white"/>
</clipPath>
</defs>
</svg>
