<svg width="450" height="250" viewBox="0 0 450 250" fill="none" xmlns="http://www.w3.org/2000/svg">
<g clip-path="url(#clip0_1300_75874)">
<path d="M396.12 79.5503L261.9 79.2503C261.9 79.2503 247.46 63.7303 261.59 51.1803C272.06 41.8803 295.88 57.0603 295.88 57.0603C295.88 57.0603 303.18 39.8103 318.83 45.9903C334.12 51.9903 336.69 69.6203 336.69 69.6203C336.69 69.6203 373.54 75.4903 396.12 79.5503ZM237.53 200L63.3097 199.7C63.3097 199.7 49.0097 184.7 62.9997 171.62C71.5997 163.62 85.8797 171.25 85.8797 171.25C85.8797 171.25 88.3897 157.55 106.15 157.7C133.7 157.93 137.29 177.5 137.29 177.5C137.29 177.5 144.58 160.26 160.29 166.43C175.58 172.43 178.14 190.06 178.14 190.06C178.14 190.06 215 196 237.53 200Z" fill="#F5F5F5"/>
<path d="M264.15 119.4C264.153 132.435 259.307 145.006 250.555 154.667C241.803 164.327 229.77 170.387 216.798 171.668C203.825 172.948 190.84 169.357 180.368 161.594C169.896 153.831 162.686 142.45 160.141 129.665C157.595 116.88 159.896 103.606 166.596 92.4237C173.296 81.2415 183.915 72.9511 196.389 69.165C208.863 65.3789 222.299 66.3678 234.084 71.9394C245.869 77.5111 255.16 87.267 260.15 99.3097C262.788 105.679 264.147 112.506 264.15 119.4ZM263.15 119.4C263.101 106.576 258.284 94.2288 249.635 84.7607C240.986 75.2925 229.124 69.3804 216.357 68.1746C203.59 66.9689 190.831 70.5556 180.562 78.2371C170.293 85.9186 163.249 97.1454 160.801 109.733C158.352 122.321 160.674 135.37 167.314 146.341C173.954 157.311 184.438 165.42 196.726 169.088C209.014 172.756 222.228 171.722 233.795 166.186C245.363 160.651 254.458 151.01 259.31 139.14C261.879 132.876 263.193 126.169 263.18 119.4H263.15Z" fill="currentColor"/>
<path d="M261.18 125V123.35L267.18 123.67C267.038 110.115 261.609 97.1511 252.049 87.5406C242.489 77.9301 229.554 72.4327 216 72.2197L215.68 78.2197H214.68L214.36 72.2197C200.808 72.4406 187.877 77.9442 178.323 87.5581C168.769 97.172 163.346 110.136 163.21 123.69L169.21 123.53V124.87L163.21 124.7C163.349 138.267 168.786 151.242 178.359 160.856C187.932 170.47 200.884 175.962 214.45 176.16L214.68 170.16H215.68L215.91 176.16C229.474 175.962 242.425 170.472 251.997 160.86C261.57 151.247 267.008 138.275 267.15 124.71L261.18 125ZM215.18 128.83C214.844 128.829 214.508 128.793 214.18 128.72L197 132.59C196.811 132.63 196.614 132.601 196.444 132.51C196.274 132.419 196.141 132.271 196.07 132.092C195.998 131.913 195.992 131.714 196.052 131.531C196.113 131.347 196.236 131.191 196.4 131.09L211 122.25C211.1 122.016 211.22 121.792 211.36 121.58L214.52 88.0597C214.52 87.8582 214.6 87.6649 214.743 87.5223C214.885 87.3798 215.078 87.2997 215.28 87.2997C215.482 87.2997 215.675 87.3798 215.817 87.5223C215.96 87.6649 216.04 87.8582 216.04 88.0597L219.23 121.85C219.65 122.554 219.875 123.358 219.882 124.178C219.89 124.998 219.679 125.805 219.273 126.517C218.866 127.229 218.277 127.82 217.567 128.23C216.856 128.64 216.05 128.854 215.23 128.85L215.18 128.83Z" fill="currentColor"/>
<path d="M316.17 161.86L289.75 116.11C288.709 114.307 287.212 112.811 285.409 111.77C283.606 110.729 281.562 110.182 279.48 110.182C277.399 110.182 275.354 110.729 273.551 111.77C271.748 112.811 270.251 114.307 269.21 116.11L242.79 161.86C241.749 163.663 241.201 165.708 241.201 167.79C241.201 169.871 241.749 171.916 242.79 173.719C243.831 175.522 245.328 177.019 247.13 178.06C248.933 179.101 250.978 179.65 253.06 179.65H305.9C307.982 179.65 310.027 179.101 311.83 178.06C313.633 177.019 315.13 175.522 316.17 173.719C317.211 171.916 317.759 169.871 317.759 167.79C317.759 165.708 317.211 163.663 316.17 161.86ZM279.48 170.12C278.59 170.12 277.719 169.856 276.979 169.361C276.239 168.866 275.662 168.162 275.322 167.34C274.981 166.517 274.893 165.611 275.067 164.738C275.242 163.865 275.671 163.063 276.302 162.434C276.932 161.805 277.735 161.378 278.608 161.205C279.482 161.033 280.387 161.123 281.209 161.465C282.031 161.807 282.733 162.386 283.227 163.127C283.72 163.868 283.982 164.739 283.98 165.63C283.977 166.822 283.502 167.964 282.659 168.805C281.815 169.647 280.672 170.12 279.48 170.12ZM284.1 151.59C284.1 152.815 283.613 153.99 282.747 154.857C281.881 155.723 280.705 156.21 279.48 156.21C278.255 156.21 277.08 155.723 276.213 154.857C275.347 153.99 274.86 152.815 274.86 151.59L274.29 134.38C274.269 133.76 274.372 133.142 274.595 132.563C274.817 131.983 275.154 131.455 275.585 131.009C276.017 130.563 276.533 130.208 277.104 129.966C277.676 129.724 278.29 129.599 278.91 129.6H280.05C280.671 129.599 281.285 129.724 281.856 129.966C282.427 130.208 282.944 130.563 283.375 131.009C283.806 131.455 284.143 131.983 284.365 132.563C284.588 133.142 284.692 133.76 284.67 134.38L284.1 151.59Z" fill="black"/>
<path d="M243.81 205.05C241.49 205.17 238.01 205.25 234.32 205.27L223.32 205.36C215.9 205.36 208.4 205.36 200.9 205.36L156.67 205.17L69.3102 205C69.2739 205 69.2381 204.991 69.2053 204.976C69.1725 204.96 69.1435 204.938 69.1202 204.91C67.5453 203.151 66.2011 201.199 65.1202 199.1C63.9999 197.016 63.1913 194.779 62.7202 192.46C62.3024 190.106 62.4083 187.689 63.0302 185.38C64.4121 180.777 67.4607 176.855 71.5802 174.38C73.6998 173.286 76.0451 172.7 78.4302 172.67C80.7921 172.62 83.1491 172.906 85.4302 173.52C87.6958 174.131 89.8963 174.961 92.0002 176L91.5402 176.22C92.1942 173.448 93.5101 170.875 95.3753 168.723C97.2405 166.57 99.5994 164.902 102.25 163.86C104.893 162.858 107.685 162.307 110.51 162.23C113.306 162.163 116.102 162.326 118.87 162.72C121.64 163.096 124.362 163.766 126.99 164.72C129.622 165.703 132.102 167.049 134.36 168.72C136.608 170.414 138.567 172.46 140.16 174.78C141.775 177.094 142.945 179.688 143.61 182.43L142.93 182.36C143.996 180.08 145.384 177.966 147.05 176.08C148.695 174.177 150.683 172.599 152.91 171.43C155.168 170.288 157.682 169.744 160.21 169.85C162.721 169.983 165.181 170.608 167.45 171.69C172.009 173.786 175.892 177.115 178.66 181.3C181.434 185.45 183.333 190.122 184.24 195.03L184.09 194.88L213.83 199.7L228.7 202.18L236.12 203.43L239.88 204.08C241.26 204.35 242.6 204.76 243.81 205.05ZM243.25 205C241.99 204.85 240.85 204.82 239.73 204.62L236.07 203.96L228.65 202.65L213.8 200.13C203.89 198.48 193.99 196.82 184.07 195.27C184.033 195.266 183.999 195.25 183.972 195.225C183.945 195.2 183.927 195.166 183.92 195.13C183.006 190.282 181.107 185.674 178.34 181.59C175.6 177.486 171.77 174.228 167.28 172.18C165.064 171.138 162.666 170.54 160.22 170.42C157.792 170.337 155.383 170.874 153.22 171.98C151.064 173.127 149.149 174.678 147.58 176.55C145.983 178.396 144.656 180.46 143.64 182.68C143.601 182.765 143.53 182.832 143.442 182.866C143.354 182.899 143.257 182.897 143.17 182.86C143.122 182.837 143.081 182.803 143.048 182.762C143.015 182.72 142.992 182.672 142.98 182.62C142.312 179.987 141.159 177.501 139.58 175.29C138.014 173.062 136.099 171.1 133.91 169.48C131.703 167.885 129.287 166.599 126.73 165.66C124.164 164.733 121.505 164.086 118.8 163.73C113.41 163.04 107.75 162.89 102.71 164.88C100.195 165.852 97.9318 167.38 96.0902 169.35C94.2401 171.325 92.9132 173.731 92.2302 176.35C92.2197 176.391 92.2013 176.429 92.176 176.463C92.1508 176.496 92.1191 176.524 92.0829 176.546C92.0467 176.567 92.0066 176.581 91.965 176.587C91.9233 176.593 91.8809 176.59 91.8402 176.58H91.7702C89.719 175.526 87.5553 174.708 85.3202 174.14C83.0925 173.553 80.7935 173.28 78.4902 173.33C76.1879 173.372 73.9262 173.943 71.8802 175C69.9006 176.151 68.1784 177.696 66.8202 179.54C65.4052 181.335 64.3647 183.396 63.7602 185.6C63.4777 186.699 63.3135 187.826 63.2702 188.96C63.2535 190.097 63.3271 191.234 63.4902 192.36C64.2857 196.913 66.3677 201.143 69.4902 204.55L69.2802 204.46L156.13 204.62C170.5 204.62 185.03 204.62 199.01 204.62C206.01 204.62 213.01 204.62 220.14 204.68L230.93 204.8C234.53 204.78 238.31 204.87 243.25 205ZM403.41 84.58C401.83 84.69 399.24 84.77 396.41 84.8L387.93 84.8899C382.25 84.8899 376.39 84.8899 370.57 84.8899L353.28 84.76H336.28L302.52 84.68C291.287 84.68 280.064 84.72 268.85 84.8C268.778 84.8026 268.705 84.7897 268.638 84.7621C268.571 84.7345 268.51 84.6929 268.46 84.6399C266.604 82.4024 265.066 79.9189 263.89 77.26C262.689 74.6078 262.062 71.7315 262.05 68.82C262.091 65.894 262.887 63.0283 264.36 60.5C265.135 59.2696 266.04 58.1264 267.06 57.09C267.6 56.6 268.06 56.0899 268.67 55.6199C269.242 55.1541 269.859 54.7455 270.51 54.4C273.157 53.1429 276.093 52.6246 279.01 52.9C281.882 53.1302 284.715 53.7043 287.45 54.61C292.937 56.3094 298.202 58.6595 303.13 61.61L302.35 61.8499C303.42 59.5552 304.811 57.4239 306.48 55.52C308.14 53.5942 310.148 51.9996 312.4 50.82C314.69 49.6661 317.238 49.1187 319.8 49.23C322.33 49.3725 324.807 50.0113 327.09 51.11C331.662 53.2377 335.55 56.5965 338.32 60.81C341.097 64.9716 342.993 69.6579 343.89 74.58L343.69 74.37L373.41 79.3L388.28 81.76L395.74 83L399.5 83.6299C400.85 83.8799 402.19 84.28 403.41 84.58ZM402.84 84.58C401.59 84.43 400.45 84.3899 399.33 84.18L395.67 83.5199L388.25 82.2099L373.4 79.6299L343.65 74.86C343.598 74.8541 343.55 74.8314 343.512 74.7953C343.474 74.7591 343.449 74.7116 343.44 74.66C342.517 69.8274 340.619 65.2339 337.86 61.16C335.108 57.0947 331.283 53.8721 326.81 51.8499C324.611 50.8273 322.233 50.2431 319.81 50.13C317.402 50.0439 315.013 50.5776 312.87 51.68C308.61 53.91 305.4 57.95 303.38 62.28C303.315 62.4115 303.202 62.5131 303.064 62.5633C302.927 62.6136 302.775 62.6088 302.64 62.55H302.59C297.75 59.69 292.75 56.8499 287.32 55.1899C284.63 54.315 281.842 53.771 279.02 53.57C276.23 53.2917 273.418 53.7864 270.89 55C270.287 55.3319 269.715 55.7167 269.18 56.15C268.65 56.59 268.18 57.15 267.65 57.59C266.686 58.6017 265.825 59.7072 265.08 60.89C264.329 62.0653 263.725 63.328 263.28 64.65C262.887 65.9908 262.695 67.3827 262.71 68.7799C262.79 71.5951 263.472 74.3605 264.71 76.8899C265.885 79.4472 267.447 81.8082 269.34 83.8899L268.95 83.72C280.08 83.88 291.25 83.9599 302.39 83.9899L335.73 84.0599H352.34L368.55 84C373.92 84 379.25 84 384.75 84.0999L393.05 84.23C395.82 84.31 398.82 84.3999 402.84 84.5299V84.58ZM303.78 139.72L297.31 128.82L294.11 123.36L292.51 120.63C291.992 119.752 291.378 118.934 290.68 118.19C289.271 116.728 287.498 115.67 285.543 115.123C283.588 114.576 281.523 114.561 279.56 115.08C277.604 115.596 275.824 116.633 274.41 118.08C274.09 118.47 273.72 118.81 273.41 119.23C273.1 119.65 272.84 120.06 272.57 120.5L271 123.26L258.3 145.19L251.95 156.19L248.77 161.67L247.18 164.41C246.65 165.32 246.1 166.23 245.68 167.14C244.819 168.99 244.473 171.039 244.68 173.07C244.909 175.102 245.672 177.038 246.89 178.68C248.103 180.331 249.746 181.618 251.64 182.4C252.12 182.55 252.59 182.76 253.08 182.88C253.57 183 254.08 183.11 254.58 183.17L256.11 183.27H257.69H283.03L308.36 183.34C310.443 183.416 312.51 182.95 314.36 181.99C315.733 181.263 316.945 180.268 317.925 179.063C318.906 177.859 319.634 176.469 320.067 174.978C320.5 173.486 320.628 171.923 320.445 170.381C320.262 168.838 319.77 167.349 319 166C318.977 165.954 318.971 165.901 318.984 165.852C318.997 165.802 319.028 165.759 319.07 165.73C319.117 165.705 319.171 165.699 319.222 165.714C319.272 165.729 319.315 165.764 319.34 165.81C320.149 167.211 320.67 168.76 320.87 170.366C321.071 171.971 320.949 173.601 320.51 175.158C320.071 176.716 319.324 178.169 318.314 179.434C317.305 180.698 316.052 181.747 314.63 182.52C312.713 183.536 310.569 184.045 308.4 184L283.07 184.08H257.73H256.15L254.51 183.98C253.97 183.92 253.44 183.78 252.91 183.67C252.38 183.56 251.91 183.33 251.35 183.16C249.31 182.319 247.54 180.936 246.23 179.16C244.921 177.404 244.093 175.335 243.83 173.16C243.578 170.972 243.924 168.757 244.83 166.75C245.29 165.75 245.83 164.85 246.36 163.93L247.94 161.19L251.1 155.7L257.41 144.7L270.04 122.7L271.62 119.96C271.9 119.5 272.23 119.04 272.53 118.59C272.866 118.149 273.226 117.729 273.61 117.33C274.77 116.145 276.158 115.206 277.69 114.57C279.222 113.935 280.866 113.615 282.524 113.63C284.183 113.644 285.821 113.994 287.341 114.657C288.861 115.321 290.231 116.284 291.37 117.49C292.109 118.296 292.756 119.182 293.3 120.13L294.86 122.89L297.99 128.39L304.2 139.44C304.233 139.5 304.24 139.57 304.222 139.635C304.203 139.701 304.159 139.756 304.1 139.79C304.047 139.817 303.986 139.824 303.928 139.812C303.87 139.799 303.817 139.767 303.78 139.72Z" fill="currentColor"/>
<path d="M287.28 169.63C287.313 170.588 287.062 171.534 286.56 172.35C286.028 173.167 285.271 173.813 284.38 174.21C283.246 174.723 281.96 174.785 280.781 174.384C279.603 173.983 278.622 173.149 278.036 172.051C277.451 170.952 277.305 169.672 277.629 168.471C277.953 167.269 278.722 166.236 279.78 165.58C280.592 165.086 281.531 164.842 282.48 164.88C282.545 164.885 282.605 164.915 282.648 164.964C282.691 165.012 282.713 165.075 282.71 165.14C282.704 165.199 282.678 165.254 282.636 165.296C282.594 165.337 282.539 165.364 282.48 165.37C281.661 165.412 280.87 165.689 280.204 166.168C279.537 166.647 279.022 167.307 278.72 168.07C278.432 168.811 278.365 169.621 278.529 170.399C278.694 171.177 279.081 171.891 279.645 172.452C280.208 173.014 280.923 173.399 281.702 173.56C282.481 173.721 283.29 173.652 284.03 173.36C284.782 173.056 285.431 172.543 285.9 171.882C286.37 171.221 286.64 170.44 286.68 169.63C286.682 169.591 286.691 169.552 286.707 169.516C286.723 169.48 286.746 169.448 286.775 169.421C286.804 169.394 286.838 169.373 286.875 169.359C286.912 169.345 286.951 169.339 286.99 169.34C287.066 169.343 287.139 169.374 287.193 169.428C287.246 169.482 287.278 169.554 287.28 169.63ZM287.39 155.6C287.404 156.684 287.055 157.74 286.399 158.603C285.743 159.465 284.818 160.084 283.77 160.36C282.711 160.647 281.586 160.576 280.57 160.16C279.558 159.742 278.706 159.009 278.14 158.07C277.859 157.602 277.653 157.092 277.53 156.56C277.436 156.045 277.389 155.523 277.39 155L277.3 152L277.13 146.08L277 140.2V138.71C276.963 138.188 277 137.662 277.11 137.15C277.345 136.099 277.914 135.152 278.73 134.45C279.545 133.751 280.568 133.339 281.64 133.28C282.18 133.28 282.64 133.28 283.14 133.28C283.668 133.289 284.191 133.381 284.69 133.55C285.688 133.895 286.549 134.552 287.145 135.423C287.741 136.295 288.041 137.335 288 138.39C288.008 138.426 288.007 138.464 287.998 138.5C287.989 138.536 287.972 138.569 287.949 138.598C287.925 138.627 287.896 138.65 287.862 138.666C287.829 138.682 287.792 138.69 287.755 138.69C287.718 138.69 287.682 138.682 287.648 138.666C287.615 138.65 287.585 138.627 287.562 138.598C287.538 138.569 287.521 138.536 287.513 138.5C287.504 138.464 287.503 138.426 287.51 138.39C287.527 137.457 287.245 136.543 286.706 135.782C286.166 135.021 285.396 134.453 284.51 134.16C284.07 134.021 283.612 133.95 283.15 133.95C282.67 133.95 282.15 133.95 281.69 133.95C280.78 134.018 279.913 134.368 279.21 134.95C278.525 135.558 278.049 136.366 277.85 137.26C277.757 137.714 277.731 138.179 277.77 138.64L277.82 140.12L278.04 146.04L278.27 151.96L278.38 154.96C278.377 155.426 278.417 155.892 278.5 156.35C278.609 156.783 278.781 157.197 279.01 157.58C279.479 158.343 280.18 158.936 281.01 159.27C281.842 159.595 282.754 159.655 283.62 159.44C284.497 159.206 285.282 158.711 285.87 158.019C286.458 157.328 286.821 156.473 286.91 155.57C286.913 155.532 286.923 155.496 286.94 155.462C286.957 155.428 286.981 155.398 287.01 155.374C287.039 155.35 287.072 155.331 287.109 155.321C287.145 155.31 287.183 155.306 287.22 155.31C287.274 155.336 287.319 155.377 287.35 155.429C287.38 155.481 287.394 155.54 287.39 155.6ZM409.94 116.93C409.12 117.01 407.16 117.02 405.59 117.04L400.67 117.1L390.72 117.18H370.85H351.29H341.53C339.91 117.18 338.27 117.12 336.65 117.05C335.03 116.98 333.41 117.05 331.79 117.05C331.762 117.05 331.734 117.043 331.709 117.029C331.685 117.015 331.664 116.995 331.65 116.97C330.745 115.067 330.106 113.048 329.75 110.97C329.332 108.856 329.48 106.669 330.18 104.63C330.979 102.583 332.543 100.926 334.54 100.01C336.499 99.1157 338.61 98.5999 340.76 98.4901C345.046 98.1047 349.356 98.8892 353.23 100.76C355.143 101.727 356.908 102.963 358.47 104.43C360.047 105.874 361.381 107.562 362.42 109.43L362.22 109.28L386.08 113L409.94 116.93ZM408.94 116.86L385.54 113.43L362.14 109.81C362.098 109.8 362.059 109.782 362.024 109.756C361.99 109.73 361.961 109.698 361.94 109.66C359.736 106.139 356.595 103.3 352.87 101.46C349.123 99.6571 344.966 98.8773 340.82 99.2001C338.755 99.2645 336.72 99.7157 334.82 100.53C332.929 101.344 331.432 102.866 330.65 104.77C329.944 106.719 329.761 108.819 330.12 110.86C330.434 112.935 331.04 114.955 331.92 116.86L331.79 116.78C333.4 116.78 335.02 116.78 336.63 116.78C338.24 116.78 339.84 116.63 341.45 116.65H351.11H370.36H389.36L398.82 116.73L403.61 116.79C405.23 116.77 406.5 116.78 408.93 116.86H408.94Z" fill="currentColor"/>
<path d="M129.43 120.85L123.55 131.02H135.3L129.43 120.85Z" fill="currentColor"/>
<path d="M106.57 120.85L100.7 131.02H112.45L106.57 120.85Z" fill="currentColor"/>
<path d="M118 100.86L112.13 111.04H123.87L118 100.86Z" fill="currentColor"/>
<path d="M376 159.26H364.25C364.183 159.259 364.118 159.241 364.06 159.208C364.002 159.175 363.954 159.127 363.92 159.07C363.89 159.011 363.874 158.946 363.874 158.88C363.874 158.814 363.89 158.749 363.92 158.69L369.8 148.52C369.835 148.464 369.884 148.418 369.941 148.386C369.999 148.355 370.064 148.338 370.13 148.338C370.196 148.338 370.261 148.355 370.318 148.386C370.376 148.418 370.425 148.464 370.46 148.52L376.33 158.69C376.364 158.747 376.382 158.813 376.382 158.88C376.382 158.947 376.364 159.013 376.33 159.07C376.297 159.129 376.249 159.177 376.191 159.211C376.133 159.244 376.067 159.261 376 159.26ZM364.91 158.5H375.34L370.13 149.5L364.91 158.5ZM166.82 55.26H155.08C155.013 55.2624 154.946 55.2458 154.888 55.2122C154.829 55.1787 154.782 55.1294 154.75 55.07C154.715 55.0126 154.697 54.947 154.697 54.88C154.697 54.8131 154.715 54.7475 154.75 54.69L160.62 44.52C160.655 44.4643 160.704 44.4183 160.761 44.3865C160.819 44.3546 160.884 44.3379 160.95 44.3379C161.016 44.3379 161.081 44.3546 161.138 44.3865C161.196 44.4183 161.245 44.4643 161.28 44.52L167.15 54.69C167.184 54.7475 167.202 54.8131 167.202 54.88C167.202 54.947 167.184 55.0126 167.15 55.07C167.117 55.1287 167.069 55.1773 167.011 55.2108C166.953 55.2442 166.887 55.2613 166.82 55.26ZM155.73 54.5H166.17L160.95 45.5L155.73 54.5Z" fill="currentColor"/>
<path d="M213.75 96.0004L214.5 88.0004C214.519 87.857 214.578 87.7218 214.67 87.6104C208.71 87.6935 202.861 89.2342 197.633 92.098C192.406 94.9618 187.958 99.0616 184.68 104.04C181.401 109.018 179.391 114.722 178.824 120.656C178.258 126.59 179.153 132.572 181.43 138.08L189.13 134.9C187.415 130.73 186.725 126.21 187.117 121.719C187.509 117.227 188.972 112.895 191.383 109.085C193.795 105.276 197.084 102.099 200.975 99.8228C204.867 97.5461 209.247 96.2353 213.75 96.0004Z" fill="white"/>
</g>
<defs>
<clipPath id="clip0_1300_75874">
<rect width="450" height="250" fill="white"/>
</clipPath>
</defs>
</svg>
