<svg viewBox="0 0 280 280" fill="none" xmlns="http://www.w3.org/2000/svg">
<path d="M211.991 172.582V229.04C211.991 233.981 207.906 238 202.884 238H163.108C158.063 238 154 233.977 154 229.04V172.582C154 170.377 154.609 168.24 155.751 166.353L178.783 128.37C179.834 126.625 181.748 125.841 183.547 126.027C184.997 126.186 186.398 126.944 187.239 128.37L210.27 166.353C211.391 168.214 212 170.377 212 172.582H211.991Z" fill="#E6E6E6"/>
<path d="M111 238H219L210.935 169H119.043L111 238Z" fill="#E6E6E6"/>
<path d="M107.991 172.582V229.04C107.991 233.981 103.977 238 99.0408 238H59.9506C54.9934 238 51 233.977 51 229.04V172.582C51 170.377 51.5981 168.24 52.7213 166.353L75.356 128.37C76.3888 126.625 78.2693 125.841 80.0379 126.027C81.4622 126.186 82.8393 126.944 83.6655 128.37L106.3 166.353C107.402 168.214 108 170.377 108 172.582H107.991Z" fill="#E6E6E6"/>
<path d="M99.0058 239H59.9985C54.4843 239 50 234.465 50 228.889V213.311C50 212.712 50.4806 212.226 51.0728 212.226C51.665 212.226 52.1456 212.712 52.1456 213.311V228.889C52.1456 233.268 55.6687 236.83 59.9985 236.83H99.0058C103.336 236.83 106.859 233.268 106.859 228.889V172.012C106.859 170.003 106.318 168.029 105.292 166.297L82.7206 128.032C81.9095 126.618 80.6093 126.275 79.9055 126.193C78.4251 126.032 77.0347 126.739 76.2794 128.028L63.0711 150.415C62.7664 150.932 62.1098 151.101 61.5992 150.793C61.0885 150.485 60.9255 149.821 61.2258 149.304L74.4342 126.917C75.6014 124.925 77.8414 123.793 80.1373 124.032C82.0254 124.248 83.6389 125.303 84.5701 126.926L107.133 165.182C108.356 167.248 109 169.613 109 172.012V228.889C109 234.465 104.516 239 99.0015 239H99.0058Z" fill="#2D2D2D"/>
<path d="M51.1115 202C50.4979 202 50 201.517 50 200.921V172.319C50 169.932 50.6713 167.583 51.9339 165.524C52.2496 165.015 52.9298 164.847 53.4589 165.153C53.9879 165.46 54.1569 166.12 53.8412 166.634C52.7786 168.356 52.2185 170.325 52.2185 172.319V200.921C52.2185 201.517 51.7205 202 51.107 202H51.1115Z" fill="#2D2D2D"/>
<path d="M119.258 172.304V228.926C119.258 233.881 115.228 237.911 110.273 237.911H99.3475C104.324 237.911 108.333 233.876 108.333 228.926V172.304C108.333 170.092 107.733 167.949 106.605 166.057L83.882 127.963C83.0525 126.559 81.6701 125.773 80.2402 125.613H89.917C92.0813 125.613 94.0858 126.741 95.196 128.607L117.526 166.057C118.679 167.923 119.254 170.092 119.254 172.304H119.258Z" fill="#2D2D2D"/>
<path d="M110.273 238.994H99.3475C98.7513 238.994 98.2675 238.511 98.2675 237.914C98.2675 237.318 98.7513 236.834 99.3475 236.834C103.706 236.834 107.253 233.288 107.253 228.929V172.307C107.253 170.311 106.709 168.341 105.676 166.618L82.9532 128.524C82.3441 127.492 81.3116 126.826 80.1193 126.692C79.549 126.628 79.13 126.131 79.1602 125.561C79.1905 124.99 79.6657 124.541 80.2402 124.541H89.917C92.4571 124.541 94.8331 125.893 96.1248 128.066L118.455 165.512C119.682 167.499 120.334 169.858 120.334 172.311V228.933C120.334 234.484 115.82 238.999 110.268 238.999L110.273 238.994ZM105.573 236.834H110.273C114.632 236.834 118.178 233.288 118.178 228.929V172.307C118.178 170.255 117.638 168.289 116.61 166.631L94.2715 129.168C93.3686 127.643 91.7011 126.701 89.9213 126.701H84.314C84.4954 126.926 84.6639 127.168 84.8151 127.422L107.534 165.512C108.765 167.572 109.413 169.922 109.413 172.311V228.933C109.413 232.139 107.91 234.994 105.568 236.839L105.573 236.834Z" fill="#2D2D2D"/>
<path d="M98.9328 239H62.0672C61.4781 239 61 238.552 61 238C61 237.448 61.4781 237 62.0672 237H98.9328C99.5219 237 100 237.448 100 238C100 238.552 99.5219 239 98.9328 239Z" fill="#2D2D2D"/>
<path d="M80.1974 127H79.8026C79.3596 127 79 126.552 79 126C79 125.448 79.3596 125 79.8026 125H80.1974C80.6404 125 81 125.448 81 126C81 126.552 80.6404 127 80.1974 127Z" fill="#2D2D2D"/>
<path d="M171.082 143C170.891 143 170.701 142.95 170.528 142.842C170.013 142.52 169.849 141.828 170.151 141.289L178.278 127.042C179.455 124.965 181.714 123.784 184.029 124.033C184.622 124.096 185.055 124.653 184.994 125.277C184.934 125.897 184.401 126.35 183.804 126.287C182.307 126.124 180.901 126.857 180.139 128.201L172.012 142.448C171.809 142.801 171.45 143 171.082 143Z" fill="#2D2D2D"/>
<path d="M202.907 239H154.093C153.49 239 153 238.552 153 238C153 237.448 153.49 237 154.093 237H202.907C203.51 237 204 237.448 204 238C204 238.552 203.51 239 202.907 239Z" fill="#2D2D2D"/>
<path d="M222.566 172.304V228.926C222.566 233.881 218.535 237.911 213.58 237.911H202.66C207.615 237.911 211.645 233.876 211.645 228.926V172.304C211.645 170.092 211.045 167.949 209.917 166.057L187.194 127.963C186.365 126.559 184.982 125.773 183.552 125.613H193.229C195.393 125.613 197.402 126.741 198.508 128.607L220.838 166.057C221.965 167.923 222.566 170.092 222.566 172.304Z" fill="#2D2D2D"/>
<path d="M213.58 238.994H202.659C202.063 238.994 201.58 238.511 201.58 237.914C201.58 237.318 202.063 236.834 202.659 236.834C207.018 236.834 210.565 233.288 210.565 228.929V172.307C210.565 170.307 210.021 168.341 208.988 166.618L186.265 128.524C185.656 127.492 184.624 126.826 183.431 126.692C182.861 126.628 182.442 126.131 182.472 125.561C182.502 124.99 182.978 124.541 183.552 124.541H193.229C195.769 124.541 198.145 125.893 199.437 128.066L221.767 165.512C222.994 167.542 223.646 169.896 223.646 172.311V228.933C223.646 234.484 219.132 238.999 213.58 238.999V238.994ZM208.88 236.834H213.58C217.939 236.834 221.486 233.288 221.486 228.929V172.307C221.486 170.29 220.942 168.32 219.913 166.622L197.579 129.168C196.676 127.643 195.009 126.701 193.229 126.701H187.622C187.803 126.926 187.972 127.168 188.123 127.422L210.842 165.512C212.073 167.572 212.721 169.922 212.721 172.311V228.933C212.721 232.139 211.217 234.994 208.876 236.839L208.88 236.834Z" fill="#2D2D2D"/>
<path d="M202.905 239H165.095C164.49 239 164 238.552 164 238C164 237.448 164.49 237 165.095 237H202.905C203.51 237 204 237.448 204 238C204 238.552 203.51 239 202.905 239Z" fill="#2D2D2D"/>
<path d="M183.796 127H183.204C182.539 127 182 126.552 182 126C182 125.448 182.539 125 183.204 125H183.796C184.461 125 185 125.448 185 126C185 126.552 184.461 127 183.796 127Z" fill="#2D2D2D"/>
<path d="M248.925 239H25.0797C24.4837 239 24 238.552 24 238C24 237.448 24.4837 237 25.0797 237H248.92C249.516 237 250 237.448 250 238C250 238.552 249.516 239 248.92 239H248.925Z" fill="#2D2D2D"/>
<path d="M100 136H181.233C183.691 136 185 138.244 185 141C185 143.756 183.713 146 181.233 146H105.903L100 136Z" fill="#E6E6E6"/>
<path d="M171.919 146.996H106.011C105.63 146.996 105.276 146.799 105.081 146.474L99.1519 136.613C98.953 136.283 98.9487 135.873 99.1433 135.539C99.3336 135.205 99.6925 135 100.082 135H118.907C119.504 135 119.988 135.479 119.988 136.07C119.988 136.66 119.504 137.139 118.907 137.139H101.985L106.625 144.861H171.919C172.516 144.861 173 145.34 173 145.93C173 146.521 172.516 147 171.919 147V146.996Z" fill="#2D2D2D"/>
<path d="M181.121 147H177.534C176.936 147 176.45 146.521 176.45 145.93C176.45 145.34 176.936 144.86 177.534 144.86H181.121C183.12 144.86 183.832 142.866 183.832 141C183.832 139.134 183.12 137.14 181.121 137.14H144.084C143.486 137.14 143 136.66 143 136.07C143 135.479 143.486 135 144.084 135H181.121C184.04 135 186 137.414 186 141C186 144.586 184.04 147 181.121 147Z" fill="#2D2D2D"/>
<path d="M152 169L161.305 139L170.583 141.242L175 142.293L170.792 145.539L174.468 148.692L170.352 151.403L173.98 154.863L169.724 157.692L173.422 161.686L168.608 164.585L172.864 168.461L172.816 169" fill="white"/>
<path d="M172.943 169.995C172.915 169.995 172.882 169.995 172.854 169.995C172.297 169.94 171.882 169.378 171.927 168.742L168.333 165.019C167.918 164.587 167.886 163.854 168.264 163.38C168.642 162.907 169.284 162.87 169.699 163.301L173.667 167.41C173.902 167.651 174.024 168.009 173.996 168.371L173.951 168.942C173.907 169.545 173.463 170 172.939 170L172.943 169.995Z" fill="#2D2D2D"/>
<path d="M173.463 163C173.191 163 172.918 162.877 172.719 162.635L169.272 158.47C169.069 158.223 168.971 157.89 169.008 157.557C169.044 157.223 169.207 156.926 169.455 156.739L172.357 154.584L169.902 151.967C169.495 151.533 169.479 150.812 169.865 150.355C170.252 149.898 170.894 149.88 171.3 150.314L174.683 153.917C174.906 154.154 175.024 154.497 174.996 154.844C174.967 155.191 174.801 155.506 174.545 155.698L171.577 157.904L174.207 161.082C174.589 161.543 174.565 162.265 174.154 162.694C173.959 162.9 173.711 163 173.463 163Z" fill="#2D2D2D"/>
<path d="M157.092 153C156.983 153 156.874 152.983 156.765 152.953C156.189 152.779 155.871 152.183 156.05 151.621L160.167 138.748C160.337 138.212 160.904 137.901 161.462 138.029L175.161 141.229C175.571 141.322 175.889 141.637 175.976 142.042C176.063 142.442 175.906 142.859 175.575 143.11L172.431 145.467L175.082 147.68C175.54 148.063 175.592 148.732 175.204 149.178C174.812 149.625 174.123 149.676 173.669 149.298L169.993 146.234C169.744 146.025 169.604 145.719 169.609 145.395C169.618 145.076 169.775 144.774 170.036 144.578L172.426 142.786L170.237 142.28L161.942 140.331L158.126 152.251C157.982 152.706 157.55 153 157.083 153H157.092Z" fill="#2D2D2D"/>
<path d="M189.923 170H119.077C118.482 170 118 169.552 118 169C118 168.448 118.482 168 119.077 168H189.923C190.518 168 191 168.448 191 169C191 169.552 190.518 170 189.923 170Z" fill="#2D2D2D"/>
<path d="M210.939 170H198.061C197.475 170 197 169.552 197 169C197 168.448 197.475 168 198.061 168H210.939C211.525 168 212 168.448 212 169C212 169.552 211.525 170 210.939 170Z" fill="#2D2D2D"/>
<path d="M79.7385 136.423C82.4342 136.423 83.8382 138.656 83.8382 141.399C83.8382 144.143 82.4342 146.376 79.7385 146.376C77.0428 146.376 75.6345 144.143 75.6345 141.399C75.6129 138.656 77.0385 136.423 79.7385 136.423Z" fill="#2D2D2D"/>
<path d="M79.7386 147.46C76.6412 147.46 74.559 145.023 74.559 141.403C74.5417 139.511 75.1378 137.857 76.2265 136.755C77.138 135.835 78.3519 135.347 79.7386 135.347C82.836 135.347 84.9226 137.783 84.9226 141.403C84.9226 145.023 82.8404 147.46 79.7386 147.46ZM79.7386 137.502C78.9308 137.502 78.2655 137.762 77.7601 138.271C77.0775 138.962 76.706 140.068 76.7189 141.39C76.7189 143.282 77.5138 145.296 79.7386 145.296C81.9634 145.296 82.7626 143.282 82.7626 141.399C82.7626 139.515 81.9677 137.502 79.7386 137.502Z" fill="#2D2D2D"/>
<path d="M223 227H194V238H223V227Z" fill="white"/>
<path d="M240 231.479L222.14 209L214 215.521L231.86 238L240 231.479Z" fill="white"/>
<path d="M222.922 239H194.078C193.483 239 193 238.504 193 237.892V227.108C193 226.496 193.483 226 194.078 226H222.922C223.517 226 224 226.496 224 227.108V237.892C224 238.504 223.517 239 222.922 239ZM195.156 236.784H221.844V228.216H195.156V236.784Z" fill="#2D2D2D"/>
<path d="M231.85 239C231.539 239 231.228 238.863 231.015 238.598L213.233 216.223C213.058 216 212.973 215.718 213.007 215.436C213.041 215.153 213.182 214.896 213.403 214.717L221.509 208.233C221.969 207.865 222.637 207.942 223.003 208.404L236.107 224.911C236.473 225.373 236.396 226.045 235.941 226.413C235.481 226.781 234.812 226.704 234.446 226.246L222.007 210.574L215.566 215.727L232.02 236.428L239.274 230.612C239.734 230.244 240.402 230.321 240.768 230.779C241.134 231.241 241.058 231.913 240.602 232.281L232.518 238.765C232.322 238.923 232.088 239 231.854 239H231.85Z" fill="#2D2D2D"/>
<path d="M197 227H186.969L179 213.5L186.969 200H197V227Z" fill="white"/>
<path d="M213.027 200H197.025L189 213.5L196.999 227H213.001L221 213.5L213.023 200H213.027ZM205.028 219.925C204.063 219.925 203.145 219.723 202.291 219.341C200.016 218.334 198.43 216.098 198.43 213.5C198.43 210.902 200.016 208.666 202.291 207.659C203.119 207.302 204.037 207.075 205.028 207.075C208.661 207.075 211.626 209.941 211.626 213.5C211.605 217.038 208.661 219.925 205.028 219.925Z" fill="white"/>
<path d="M201.998 221C201.845 221 201.688 220.968 201.549 220.9C198.788 219.584 197 216.68 197 213.501C197 210.323 198.784 207.418 201.549 206.103C201.836 205.966 202.164 205.966 202.451 206.103C205.212 207.418 207 210.323 207 213.501C207 216.68 205.216 219.584 202.451 220.9C202.307 220.968 202.155 221 202.002 221H201.998ZM201.998 208.423C200.271 209.455 199.181 211.391 199.181 213.501C199.181 215.611 200.271 217.547 201.998 218.58C203.725 217.547 204.815 215.611 204.815 213.501C204.815 211.391 203.725 209.455 201.998 208.423Z" fill="#2D2D2D"/>
<path d="M191.203 218C190.839 218 190.484 217.818 190.289 217.486L188.143 213.882C187.952 213.559 187.952 213.166 188.143 212.843L196.024 199.517C196.316 199.02 196.968 198.854 197.472 199.14C197.98 199.426 198.149 200.059 197.857 200.556L190.285 213.361L192.122 216.442C192.418 216.935 192.244 217.569 191.741 217.859C191.571 217.954 191.389 218 191.207 218H191.203Z" fill="#2D2D2D"/>
<path d="M212.882 228H196.821C196.436 228 196.077 227.799 195.882 227.477L192.145 221.208C191.846 220.707 192.024 220.067 192.543 219.778C193.062 219.49 193.719 219.661 194.022 220.163L197.448 225.909H212.26L219.665 213.501L211.948 200.57C211.65 200.068 211.827 199.429 212.346 199.14C212.865 198.851 213.523 199.023 213.825 199.525L221.854 212.978C222.049 213.3 222.049 213.702 221.854 214.024L213.825 227.477C213.631 227.799 213.276 228 212.887 228H212.882Z" fill="#2D2D2D"/>
<path d="M204.5 221C203.418 221 202.369 220.773 201.388 220.318C198.727 219.105 197 216.431 197 213.5C197 210.569 198.722 207.891 201.392 206.678C202.407 206.227 203.451 206 204.5 206C208.635 206 212 209.365 212 213.5C211.975 217.64 208.61 221 204.5 221ZM204.5 208.106C203.746 208.106 202.992 208.27 202.255 208.598C200.348 209.466 199.106 211.39 199.106 213.5C199.106 215.61 200.344 217.534 202.264 218.406C202.971 218.73 203.725 218.894 204.5 218.894C207.456 218.894 209.878 216.473 209.894 213.492C209.894 210.523 207.473 208.106 204.5 208.106Z" fill="#2D2D2D"/>
<path d="M196.854 228H186.146C185.513 228 185 227.552 185 227C185 226.448 185.513 226 186.146 226H196.854C197.487 226 198 226.448 198 227C198 227.552 197.487 228 196.854 228Z" fill="#2D2D2D"/>
<path d="M211 213.5C211 217.079 208.162 220 204.639 220C203.708 220 202.823 219.796 202 219.41C204.194 218.391 205.723 216.128 205.723 213.5C205.723 210.872 204.194 208.609 202 207.59C202.798 207.229 203.683 207 204.639 207C208.162 207 211 209.9 211 213.5Z" fill="white"/>
<path d="M211.252 213.512C211.252 217.154 208.301 220.126 204.638 220.126C203.67 220.126 202.75 219.919 201.895 219.526C204.175 218.489 205.765 216.186 205.765 213.512C205.765 210.838 204.175 208.536 201.895 207.499C202.724 207.132 203.644 206.898 204.638 206.898C208.301 206.898 211.252 209.849 211.252 213.512Z" fill="#2D2D2D"/>
<path d="M204.638 221.207C203.527 221.207 202.452 220.973 201.445 220.507C201.061 220.33 200.814 219.945 200.814 219.522C200.814 219.098 201.061 218.714 201.449 218.541C203.415 217.647 204.689 215.673 204.689 213.508C204.689 211.344 203.419 209.37 201.449 208.476C201.061 208.298 200.814 207.914 200.819 207.486C200.823 207.059 201.074 206.678 201.462 206.506C202.499 206.048 203.566 205.814 204.642 205.814C208.884 205.814 212.336 209.266 212.336 213.508C212.336 217.751 208.884 221.202 204.642 221.202L204.638 221.207ZM204.495 219.047C204.543 219.047 204.59 219.047 204.638 219.047C207.688 219.047 210.172 216.563 210.172 213.513C210.172 210.463 207.601 207.91 204.495 207.979C205.968 209.404 206.845 211.392 206.845 213.513C206.845 215.634 205.968 217.621 204.495 219.047Z" fill="#2D2D2D"/>
<path d="M201.998 221C201.845 221 201.688 220.968 201.549 220.9C198.788 219.584 197 216.68 197 213.501C197 210.323 198.784 207.418 201.549 206.103C201.836 205.966 202.164 205.966 202.451 206.103C205.212 207.418 207 210.323 207 213.501C207 216.68 205.216 219.584 202.451 220.9C202.307 220.968 202.155 221 202.002 221H201.998ZM201.998 208.423C200.271 209.455 199.181 211.391 199.181 213.501C199.181 215.611 200.271 217.547 201.998 218.58C203.725 217.547 204.815 215.611 204.815 213.501C204.815 211.391 203.725 209.455 201.998 208.423Z" fill="#2D2D2D"/>
<path d="M188.852 215H178.148C177.514 215 177 214.328 177 213.5C177 212.672 177.514 212 178.148 212H188.852C189.486 212 190 212.672 190 213.5C190 214.328 189.486 215 188.852 215Z" fill="#2D2D2D"/>
<path d="M70 203.247L60.5312 199L55.2221 204.823C53.987 206.172 52.9793 207.722 52.2245 209.391L44.7455 226.042C42.8243 230.315 44.7455 235.338 49.0253 237.256C53.3052 239.174 58.3355 237.256 60.2567 232.983L67.7357 216.353C68.4905 214.688 68.9708 212.902 69.1552 211.078L70 203.243V203.247Z" fill="white"/>
<path d="M52.5091 239C51.2077 239 49.8892 238.725 48.6262 238.144C43.8345 235.938 41.6839 230.159 43.8345 225.257L51.276 208.247C52.091 206.4 53.1577 204.735 54.4463 203.298L59.7245 197.357C60.036 197.008 60.5309 196.903 60.9491 197.095L70.3705 201.428C70.7929 201.621 71.0446 202.071 70.9934 202.542L70.1528 210.536C69.9608 212.511 69.4573 214.433 68.6552 216.25C68.4119 216.8 67.7804 217.041 67.2428 216.796C66.7052 216.547 66.4662 215.901 66.7094 215.35C67.4177 213.751 67.8615 212.052 68.0322 210.309L68.7917 203.097L60.7827 199.415L56.0208 204.77C54.8858 206.041 53.9428 207.513 53.2217 209.147L45.7802 226.157C44.1118 229.962 45.7802 234.444 49.5009 236.156C53.2132 237.864 57.5953 236.156 59.2679 232.347C59.5069 231.797 60.1426 231.552 60.676 231.797C61.2136 232.046 61.4526 232.688 61.2136 233.238C59.6263 236.851 56.1445 239 52.5091 239Z" fill="#2D2D2D"/>
<path d="M54.9111 232C54.7631 232 54.6107 231.97 54.4671 231.904L43.6449 227.079C43.0964 226.835 42.8482 226.192 43.0964 225.644C43.3401 225.096 43.9844 224.848 44.5329 225.096L55.3551 229.922C55.9036 230.165 56.1518 230.809 55.9036 231.357C55.7208 231.761 55.3247 232 54.9111 232Z" fill="#2D2D2D"/>
<path d="M72.5286 198.186L61.5288 193.224C60.2674 192.648 58.795 193.224 58.2224 194.491C57.6499 195.759 58.2224 197.239 59.4839 197.814L70.4836 202.776C71.7451 203.352 73.2174 202.776 73.79 201.509C74.3411 200.241 73.7685 198.761 72.5286 198.186Z" fill="white"/>
<path d="M71.6301 203.996C71.1292 203.996 70.6284 203.889 70.1577 203.68L59.1302 198.785C58.2537 198.393 57.5845 197.693 57.2391 196.814C56.8936 195.926 56.9239 194.962 57.3211 194.096C58.1415 192.308 60.2701 191.51 62.0663 192.312L73.0938 197.207C73.6378 197.446 73.8796 198.077 73.6378 198.615C73.396 199.152 72.757 199.391 72.213 199.152L61.1812 194.258C60.4687 193.938 59.6181 194.258 59.29 194.979C59.1346 195.32 59.1216 195.7 59.2554 196.05C59.3936 196.404 59.6656 196.686 60.0197 196.844L71.0472 201.738C71.3969 201.896 71.7812 201.905 72.1352 201.772C72.4936 201.636 72.7786 201.367 72.9383 201.017C73.1845 200.48 73.8235 200.245 74.3675 200.488C74.9116 200.731 75.149 201.363 74.9029 201.901C74.5057 202.762 73.7976 203.428 72.9081 203.765C72.4936 203.923 72.0618 204 71.6301 204V203.996Z" fill="#2D2D2D"/>
<path d="M54.2069 226C54.0423 226 53.8728 225.968 53.7131 225.899C53.1032 225.639 52.8321 224.962 53.108 224.386L58.6846 212.674C58.9605 212.097 59.677 211.841 60.2869 212.102C60.8968 212.363 61.1679 213.04 60.892 213.616L55.3154 225.328C55.1121 225.753 54.6716 226 54.2117 226H54.2069Z" fill="#2D2D2D"/>
<path d="M50.2069 223.996C50.0423 223.996 49.8728 223.966 49.7131 223.902C49.1032 223.66 48.8321 223.032 49.108 222.497L54.6846 211.625C54.9605 211.09 55.6721 210.853 56.2869 211.095C56.8968 211.337 57.1679 211.965 56.892 212.5L51.3154 223.372C51.1121 223.767 50.6716 224 50.2117 224L50.2069 223.996Z" fill="#2D2D2D"/>
<path d="M58.2069 226.996C58.0423 226.996 57.8728 226.966 57.7131 226.902C57.1032 226.66 56.8321 226.032 57.108 225.497L62.6846 214.625C62.9605 214.09 63.677 213.853 64.2869 214.095C64.8968 214.337 65.1679 214.965 64.892 215.5L59.3154 226.372C59.1121 226.767 58.6716 227 58.2117 227L58.2069 226.996Z" fill="#2D2D2D"/>
<path d="M78 176.789L74.0277 175L65 195.211L68.9723 197L78 176.789Z" fill="white"/>
<path d="M69.3239 198C69.1672 198 69.0104 197.97 68.8671 197.907L64.6615 196.126C64.0972 195.885 63.8464 195.264 64.0972 194.731L73.6549 174.621C73.7758 174.363 73.9998 174.164 74.2775 174.067C74.5551 173.97 74.8642 173.978 75.1329 174.092L79.3385 175.873C79.9028 176.114 80.1536 176.736 79.9028 177.269L70.3451 197.378C70.2242 197.636 70.0002 197.835 69.7225 197.932C69.5927 197.979 69.4583 198 69.3239 198ZM66.5964 194.629L68.7596 195.547L77.3992 177.366L75.2359 176.448L66.5964 194.629Z" fill="#2D2D2D"/>
<path d="M78.3405 176L84.2226 171.161L87 156.78L82.9824 155L74 166.617L74.2971 174.194L78.3405 175.996V176Z" fill="white"/>
<path d="M78.3577 177.996C78.2085 177.996 78.0594 177.965 77.923 177.898L73.9212 176.029C73.5504 175.856 73.3075 175.479 73.2947 175.062L73.0006 167.202C72.9921 166.945 73.0688 166.687 73.2222 166.483L82.1123 154.434C82.4106 154.025 82.9391 153.888 83.3908 154.096L87.3671 155.943C87.8188 156.151 88.0745 156.657 87.9807 157.163L86.3229 166.208C86.2121 166.812 85.6538 167.207 85.0785 167.091C84.4989 166.976 84.1196 166.394 84.2304 165.795L85.7305 157.616L83.2885 156.484L75.1443 167.522L75.4 174.294L78.1957 175.599L83.5059 171.019C83.9619 170.628 84.631 170.695 85.006 171.165C85.3811 171.636 85.3171 172.337 84.8654 172.728L79.0438 177.747C78.8478 177.916 78.6091 178 78.3619 178L78.3577 177.996Z" fill="#2D2D2D"/>
<path d="M218.428 85L147 112.625L152.572 127L224 99.3753L218.428 85Z" fill="white"/>
<path d="M152.639 128C152.212 128 151.805 127.74 151.643 127.317L146.072 112.999C145.969 112.734 145.978 112.44 146.089 112.184C146.205 111.923 146.419 111.723 146.68 111.62L218.002 84.0718C218.267 83.9693 218.562 83.9779 218.819 84.0888C219.08 84.2041 219.281 84.4175 219.384 84.6821L224.928 99.0005C225.031 99.2651 225.023 99.5595 224.907 99.8156C224.792 100.076 224.578 100.277 224.312 100.379L216.688 103.315C216.136 103.529 215.516 103.255 215.306 102.705C215.092 102.154 215.366 101.536 215.918 101.326L222.541 98.7743L217.766 86.4447L148.442 113.221L153.238 125.55L194.235 109.704C194.787 109.491 195.407 109.764 195.617 110.314C195.831 110.865 195.557 111.484 195.005 111.693L153.012 127.927C152.883 127.979 152.755 128 152.627 128H152.639Z" fill="#2D2D2D"/>
<path d="M199.077 110C198.646 110 198.237 109.726 198.073 109.282C197.858 108.703 198.134 108.052 198.689 107.832L205.536 105.076C206.091 104.852 206.716 105.139 206.927 105.718C207.142 106.297 206.866 106.948 206.311 107.168L199.464 109.924C199.335 109.973 199.206 110 199.077 110Z" fill="#2D2D2D"/>
<path d="M155.085 119C154.651 119 154.239 118.736 154.074 118.307C153.857 117.748 154.135 117.12 154.694 116.908L221.525 91.0737C222.084 90.8571 222.709 91.1343 222.926 91.6931C223.143 92.2519 222.865 92.88 222.306 93.0922L155.475 118.926C155.345 118.978 155.215 119 155.085 119Z" fill="#2D2D2D"/>
<path d="M154.115 115C153.76 115 153.424 114.738 153.289 114.312L152.06 110.461C151.883 109.907 152.11 109.284 152.567 109.073C153.024 108.858 153.537 109.133 153.711 109.688L154.94 113.539C155.117 114.093 154.89 114.716 154.433 114.927C154.327 114.974 154.221 115 154.115 115Z" fill="#2D2D2D"/>
<path d="M159.893 111C159.449 111 159.031 110.747 158.858 110.33L158.076 108.44C157.854 107.896 158.134 107.285 158.703 107.074C159.276 106.859 159.92 107.129 160.142 107.669L160.924 109.558C161.146 110.102 160.866 110.713 160.297 110.924C160.164 110.975 160.026 110.996 159.893 110.996V111Z" fill="#2D2D2D"/>
<path d="M166.115 111C165.76 111 165.424 110.738 165.289 110.312L164.06 106.461C163.883 105.907 164.11 105.284 164.567 105.073C165.024 104.858 165.537 105.133 165.711 105.688L166.94 109.539C167.117 110.093 166.89 110.716 166.433 110.927C166.327 110.974 166.221 111 166.115 111Z" fill="#2D2D2D"/>
<path d="M171.882 106C171.431 106 171.006 105.743 170.837 105.321L170.073 103.431C169.854 102.887 170.144 102.28 170.721 102.069C171.297 101.862 171.94 102.136 172.163 102.68L172.927 104.57C173.146 105.114 172.856 105.722 172.279 105.933C172.15 105.979 172.016 106 171.882 106Z" fill="#2D2D2D"/>
<path d="M178.115 106C177.76 106 177.424 105.738 177.289 105.312L176.06 101.461C175.883 100.907 176.11 100.284 176.567 100.073C177.024 99.8582 177.537 100.133 177.711 100.688L178.94 104.539C179.117 105.093 178.89 105.716 178.433 105.927C178.327 105.974 178.221 106 178.115 106Z" fill="#2D2D2D"/>
<path d="M183.893 102C183.449 102 183.031 101.747 182.858 101.33L182.076 99.4403C181.854 98.9006 182.134 98.2849 182.703 98.0741C183.276 97.859 183.92 98.1289 184.142 98.6687L184.924 100.558C185.146 101.098 184.866 101.713 184.297 101.924C184.164 101.975 184.026 101.996 183.893 101.996V102Z" fill="#2D2D2D"/>
<path d="M190.115 101C189.76 101 189.424 100.738 189.289 100.312L188.06 96.4613C187.883 95.9069 188.11 95.2837 188.567 95.0731C189.024 94.8582 189.537 95.1333 189.711 95.6877L190.94 99.5387C191.117 100.093 190.89 100.716 190.433 100.927C190.327 100.974 190.221 101 190.115 101Z" fill="#2D2D2D"/>
<path d="M195.893 97C195.449 97 195.031 96.747 194.858 96.3295L194.076 94.4403C193.854 93.8964 194.134 93.2849 194.703 93.0741C195.276 92.859 195.92 93.1289 196.142 93.6686L196.924 95.5578C197.146 96.1018 196.866 96.7133 196.297 96.9241C196.164 96.9747 196.026 96.9958 195.893 96.9958V97Z" fill="#2D2D2D"/>
<path d="M202.115 97C201.76 97 201.424 96.7378 201.289 96.3123L200.06 92.4613C199.883 91.9069 200.11 91.2837 200.567 91.0731C201.024 90.8582 201.537 91.1333 201.711 91.6877L202.94 95.5387C203.117 96.0931 202.89 96.7163 202.433 96.9269C202.327 96.9742 202.221 97 202.115 97Z" fill="#2D2D2D"/>
<path d="M207.882 92C207.431 92 207.006 91.7427 206.837 91.3209L206.073 89.4313C205.854 88.8872 206.144 88.2798 206.721 88.0689C207.297 87.8622 207.94 88.1364 208.163 88.6805L208.927 90.5701C209.146 91.1142 208.856 91.7216 208.279 91.9325C208.15 91.9789 208.016 92 207.882 92Z" fill="#2D2D2D"/>
<path d="M214.115 92C213.76 92 213.424 91.7378 213.289 91.3123L212.06 87.4613C211.883 86.9069 212.11 86.2837 212.567 86.0731C213.024 85.8582 213.537 86.1333 213.711 86.6877L214.94 90.5387C215.117 91.0931 214.89 91.7163 214.433 91.9269C214.327 91.9742 214.221 92 214.115 92Z" fill="#2D2D2D"/>
<path d="M128.137 87.863C120.32 80.0457 107.659 80.0457 99.863 87.863C92.0457 95.6804 92.0457 108.341 99.863 116.137C107.68 123.954 120.341 123.954 128.137 116.137C135.954 108.341 135.954 95.6804 128.137 87.863ZM113.246 101.246C111.485 103.007 109.072 103.68 106.798 103.285C106.402 101.011 107.076 98.5761 108.837 96.837C110.598 95.0761 113.011 94.4022 115.285 94.7978C115.68 97.0717 114.985 99.4848 113.246 101.246Z" fill="white"/>
<path d="M100.073 89C99.7989 89 99.5248 88.8962 99.3149 88.6842C98.895 88.2601 98.895 87.5765 99.3149 87.1525C103.243 83.185 108.461 81 114.008 81C114.012 81 114.021 81 114.025 81C119.568 81 124.777 83.1893 128.688 87.1525C129.104 87.5765 129.104 88.2601 128.688 88.6842C128.269 89.1038 127.592 89.1038 127.172 88.6842C123.664 85.132 118.994 83.172 114.025 83.1677H114.012C109.035 83.1677 104.357 85.1276 100.836 88.6842C100.626 88.8962 100.352 89 100.077 89H100.073Z" fill="#2D2D2D"/>
<path d="M114.123 123C108.694 123 103.304 120.868 99.1793 116.701C95.3201 112.802 93.1267 107.626 93.0003 102.128C92.9872 101.52 93.4625 101.013 94.0643 101C94.6704 100.987 95.1675 101.467 95.1806 102.075C95.294 107.005 97.2606 111.643 100.723 115.141C107.373 121.859 117.695 122.683 125.269 117.097C125.753 116.74 126.438 116.846 126.791 117.335C127.144 117.828 127.039 118.515 126.555 118.872C122.81 121.634 118.458 122.991 114.128 122.991L114.123 123Z" fill="#2D2D2D"/>
<path d="M129.89 115C129.694 115 129.495 114.929 129.328 114.778C128.947 114.433 128.89 113.807 129.2 113.383C130.047 112.225 130.751 110.945 131.3 109.585C131.499 109.086 132.026 108.864 132.474 109.086C132.923 109.308 133.122 109.895 132.923 110.394C132.311 111.912 131.524 113.339 130.581 114.631C130.406 114.873 130.15 114.996 129.89 114.996V115Z" fill="#2D2D2D"/>
<path d="M119.396 106.809C116.562 109.643 111.931 109.643 109.093 106.809C107.987 105.703 107.317 104.343 107.067 102.917C109.326 103.31 111.745 102.64 113.473 100.891C115.223 99.137 115.893 96.7437 115.499 94.4844C116.929 94.7393 118.286 95.4045 119.392 96.5104C122.247 99.3443 122.247 103.954 119.392 106.814L119.396 106.809Z" fill="#2D2D2D"/>
<path d="M114.247 110.015C112.009 110.015 109.91 109.146 108.333 107.574C107.115 106.356 106.307 104.809 106.004 103.103C105.944 102.757 106.056 102.403 106.302 102.152C106.553 101.902 106.907 101.789 107.253 101.85C109.262 102.2 111.296 101.556 112.705 100.126C114.135 98.6919 114.783 96.6529 114.437 94.6614C114.376 94.3158 114.489 93.9616 114.739 93.711C114.99 93.4604 115.344 93.3524 115.69 93.4129C117.392 93.7153 118.938 94.5188 120.161 95.7414C121.742 97.3095 122.615 99.4004 122.619 101.63C122.623 103.867 121.751 105.98 120.161 107.569C118.584 109.146 116.485 110.01 114.247 110.01V110.015ZM108.54 104.101C108.851 104.822 109.296 105.483 109.858 106.045C111.024 107.211 112.584 107.855 114.247 107.855C115.91 107.855 117.465 107.211 118.632 106.045C119.811 104.865 120.463 103.297 120.459 101.638C120.459 99.9879 119.807 98.4371 118.636 97.275C118.07 96.7091 117.409 96.2641 116.688 95.9531C116.632 98.0742 115.768 100.122 114.238 101.651C112.726 103.18 110.679 104.049 108.54 104.101Z" fill="#2D2D2D"/>
<path d="M127.969 89C127.705 89 127.44 88.8934 127.238 88.6757L121.574 82.5853C118.909 79.7423 115.551 77.8809 111.861 77.2057C111.3 77.1035 110.92 76.5305 111.015 75.9263C111.11 75.3222 111.643 74.9135 112.204 75.0157C116.315 75.7664 120.058 77.8365 123.028 81.0083L128.696 87.1031C129.101 87.5385 129.101 88.2404 128.696 88.6757C128.494 88.8934 128.23 89 127.965 89H127.969Z" fill="#2D2D2D"/>
<path d="M99.9067 117C99.6285 117 99.3503 116.897 99.1372 116.686L93.1773 110.793C89.1953 106.868 87 101.645 87 96.0779C87 90.5024 89.191 85.2622 93.1816 81.316C93.6077 80.8947 94.2945 80.8947 94.7205 81.316C95.1466 81.7372 95.1466 82.4164 94.7205 82.8377C91.1428 86.3756 89.1736 91.0785 89.1779 96.0779C89.1779 101.064 91.1515 105.75 94.7205 109.271L100.68 115.164C101.107 115.586 101.107 116.265 100.68 116.686C100.467 116.897 100.189 117 99.911 117H99.9067Z" fill="#2D2D2D"/>
<path d="M94.1183 83C93.8326 83 93.5469 82.8928 93.3281 82.674C92.8906 82.2364 92.8906 81.5308 93.3281 81.0931L98.0915 76.3282C98.529 75.8906 99.2344 75.8906 99.6719 76.3282C100.109 76.7659 100.109 77.4715 99.6719 77.9091L94.9085 82.674C94.6897 82.8928 94.404 83 94.1183 83Z" fill="#2D2D2D"/>
<path d="M100.1 89C99.8192 89 99.5381 88.8944 99.3228 88.6787C98.8924 88.2473 98.8924 87.5517 99.3228 87.1204L114.27 72.1404C116.795 69.6093 118.082 66.0393 117.762 62.5089L111.709 58.3887L111.801 59.115C112.271 62.8171 111.037 66.4487 108.419 69.0723L104.203 73.2982C103.772 73.7296 103.078 73.7296 102.648 73.2982C102.217 72.8668 102.217 72.1713 102.648 71.7399L106.864 67.514C108.999 65.3746 110.005 62.4121 109.623 59.3879L109.223 56.2405C109.17 55.8091 109.372 55.3909 109.737 55.162C110.106 54.9375 110.571 54.9463 110.927 55.1884L119.409 60.9638C119.668 61.1399 119.839 61.4172 119.879 61.7298C120.458 66.0921 118.939 70.5601 115.82 73.6899L100.873 88.6699C100.658 88.8855 100.377 88.9912 100.096 88.9912L100.1 89Z" fill="#2D2D2D"/>
<path d="M78.895 108C78.6127 108 78.3304 107.894 78.1143 107.678L60.3242 89.888C59.8919 89.4552 59.8919 88.7574 60.3242 88.3246C60.7565 87.8918 61.4535 87.8918 61.8858 88.3246L79.6758 106.114C80.1081 106.547 80.1081 107.245 79.6758 107.678C79.4596 107.894 79.1773 108 78.895 108Z" fill="#2D2D2D"/>
<path d="M61.1672 89.2278L60.3593 81.9443L57.1323 85.193L53.9053 88.42L61.1628 89.2278H61.1672Z" fill="#2D2D2D"/>
<path d="M61.1671 90.3072C61.1282 90.3072 61.0894 90.3072 61.0462 90.2986L53.7886 89.4907C53.3739 89.4432 53.0283 89.1667 52.89 88.7736C52.7518 88.3805 52.8512 87.9442 53.1449 87.6504L59.5946 81.1791C59.8884 80.8853 60.3247 80.7816 60.7178 80.9199C61.111 81.0581 61.3918 81.408 61.435 81.8184L62.2428 89.1019C62.2774 89.4259 62.165 89.7542 61.9318 89.9832C61.7287 90.1862 61.4522 90.2986 61.1671 90.2986V90.3072ZM56.2596 87.5943L59.9446 88.0047L59.5342 84.3068L56.2596 87.5943Z" fill="#2D2D2D"/>
<path d="M61.163 93C60.8658 93 60.5687 92.8885 60.3412 92.6609C59.8863 92.2058 59.8863 91.4719 60.3412 91.0167L63.0153 88.3414C63.4703 87.8862 64.2038 87.8862 64.6588 88.3414C65.1137 88.7966 65.1137 89.5304 64.6588 89.9856L61.9847 92.6609C61.7572 92.8885 61.4601 93 61.163 93Z" fill="#2D2D2D"/>
<path d="M64.163 96C63.8658 96 63.5687 95.8885 63.3412 95.6609C62.8863 95.2058 62.8863 94.4719 63.3412 94.0167L66.0153 91.3414C66.4703 90.8862 67.2038 90.8862 67.6588 91.3414C68.1137 91.7966 68.1137 92.5304 67.6588 92.9856L64.9847 95.6609C64.7572 95.8885 64.4601 96 64.163 96Z" fill="#2D2D2D"/>
<path d="M66.1576 98C65.8618 98 65.5661 97.9112 65.3396 97.73C64.8868 97.3675 64.8868 96.7832 65.3396 96.4207L68.0245 94.2718C68.4774 93.9094 69.2075 93.9094 69.6604 94.2718C70.1132 94.6343 70.1132 95.2187 69.6604 95.5811L66.9755 97.73C66.7491 97.9112 66.4533 98 66.1576 98Z" fill="#2D2D2D"/>
<path d="M69.163 101C68.8658 101 68.5687 100.889 68.3412 100.661C67.8863 100.206 67.8863 99.4719 68.3412 99.0167L71.0153 96.3414C71.4703 95.8862 72.2038 95.8862 72.6588 96.3414C73.1137 96.7966 73.1137 97.5304 72.6588 97.9856L69.9847 100.661C69.7572 100.889 69.4601 101 69.163 101Z" fill="#2D2D2D"/>
<path d="M71.9304 103C71.6927 103 71.455 102.911 71.273 102.729C70.909 102.365 70.909 101.778 71.273 101.413L73.4123 99.2731C73.7762 98.909 74.363 98.909 74.727 99.2731C75.091 99.6373 75.091 100.224 74.727 100.588L72.5877 102.729C72.4058 102.911 72.1681 103 71.9304 103Z" fill="#2D2D2D"/>
<path d="M74.162 106C73.8647 106 73.572 105.889 73.3444 105.667C72.8891 105.219 72.8845 104.489 73.3351 104.032L76.011 101.343C76.4617 100.89 77.1957 100.885 77.6556 101.333C78.1109 101.781 78.1155 102.512 77.6649 102.969L74.989 105.658C74.7613 105.884 74.464 106 74.162 106Z" fill="#2D2D2D"/>
<path d="M172.074 93C171.808 93 171.543 92.9004 171.333 92.7011C170.904 92.2897 170.887 91.601 171.298 91.1722L188.15 73.336C188.557 72.9028 189.239 72.8855 189.667 73.3013C190.096 73.7128 190.113 74.4015 189.702 74.8303L172.85 92.6665C172.64 92.8874 172.357 93 172.074 93Z" fill="#2D2D2D"/>
<path d="M188.943 74.4994L196.2 73.5101L192.904 70.3522L189.608 67.1943L188.938 74.4994H188.943Z" fill="#2D2D2D"/>
<path d="M188.943 75.5791C188.667 75.5791 188.399 75.4711 188.196 75.281C187.958 75.0521 187.837 74.728 187.867 74.4041L188.537 67.099C188.576 66.6843 188.844 66.33 189.232 66.1875C189.621 66.0406 190.058 66.1313 190.356 66.4207L196.948 72.7365C197.246 73.0217 197.354 73.458 197.229 73.8511C197.099 74.2442 196.758 74.5293 196.347 74.5855L189.09 75.5748C189.042 75.5834 188.991 75.5834 188.943 75.5834V75.5791ZM190.481 69.5225L190.14 73.242L193.838 72.7365L190.481 69.5225Z" fill="#2D2D2D"/>
<path d="M188.857 78C188.574 78 188.29 77.9135 188.065 77.7406L185.355 75.617C184.897 75.2599 184.879 74.6622 185.319 74.2901C185.753 73.9142 186.481 73.903 186.935 74.26L189.645 76.3837C190.103 76.7408 190.121 77.3385 189.682 77.7106C189.457 77.9023 189.155 78 188.853 78H188.857Z" fill="#2D2D2D"/>
<path d="M186.086 81C185.859 81 185.632 80.892 185.452 80.6759L183.284 78.0223C182.918 77.5761 182.903 76.8293 183.255 76.3643C183.603 75.8946 184.185 75.8759 184.548 76.3267L186.716 78.9804C187.082 79.4266 187.097 80.1734 186.745 80.6383C186.566 80.8779 186.324 81 186.082 81H186.086Z" fill="#2D2D2D"/>
<path d="M183.852 84C183.566 84 183.276 83.8921 183.055 83.6715L180.351 81.0196C179.895 80.569 179.882 79.8275 180.319 79.3581C180.761 78.8934 181.489 78.8794 181.945 79.3253L184.649 81.9771C185.105 82.4277 185.118 83.1692 184.681 83.6386C184.455 83.878 184.156 84 183.852 84Z" fill="#2D2D2D"/>
<path d="M181.086 86C180.859 86 180.632 85.9135 180.452 85.7406L178.284 83.617C177.918 83.2599 177.903 82.6622 178.255 82.2901C178.603 81.9142 179.185 81.903 179.548 82.26L181.716 84.3837C182.082 84.7408 182.097 85.3385 181.745 85.7106C181.566 85.9023 181.324 86 181.082 86H181.086Z" fill="#2D2D2D"/>
<path d="M178.857 89C178.574 89 178.29 88.8919 178.065 88.6758L175.355 86.0212C174.897 85.5748 174.879 84.8278 175.319 84.3626C175.753 83.8928 176.481 83.8787 176.935 84.3251L179.645 86.9797C180.103 87.426 180.121 88.1731 179.681 88.6382C179.457 88.8778 179.155 89 178.853 89H178.857Z" fill="#2D2D2D"/>
<path d="M176.086 91C175.859 91 175.632 90.9135 175.452 90.7406L173.284 88.617C172.918 88.2599 172.903 87.6622 173.255 87.2901C173.603 86.9142 174.185 86.903 174.548 87.26L176.716 89.3837C177.082 89.7408 177.097 90.3385 176.745 90.7106C176.566 90.9023 176.324 91 176.082 91H176.086Z" fill="#2D2D2D"/>
<path d="M178 234.31L169.832 206L157.44 209.685L160.012 218.595L131.379 227.128C129.637 227.639 128.626 229.506 129.129 231.303L130.299 235.338C130.802 237.108 132.639 238.136 134.407 237.624L163.04 229.091L161.526 223.845L165.608 238L178 234.315V234.31Z" fill="white"/>
<path d="M165.94 239C165.489 239 165.072 238.691 164.939 238.217L160.822 223.559C160.659 222.981 160.976 222.381 161.531 222.211C162.086 222.046 162.661 222.372 162.824 222.951L166.649 236.565L176.664 233.513L169.331 207.44L159.337 210.493L161.535 218.333C161.698 218.911 161.381 219.511 160.826 219.681C160.271 219.85 159.695 219.52 159.533 218.941L157.043 210.058C156.88 209.484 157.197 208.88 157.752 208.71L169.744 205.044C170.294 204.875 170.874 205.205 171.037 205.784L178.958 233.943C179.037 234.221 179.003 234.517 178.87 234.769C178.737 235.021 178.515 235.208 178.249 235.291L166.232 238.957C166.136 238.987 166.036 239 165.94 239Z" fill="#2D2D2D"/>
<path d="M163.08 216C162.614 216 162.182 215.678 162.044 215.188C161.876 214.585 162.204 213.959 162.774 213.782L171.617 211.046C172.187 210.869 172.787 211.214 172.956 211.813C173.124 212.416 172.796 213.042 172.226 213.219L163.383 215.955C163.279 215.986 163.18 216 163.076 216H163.08Z" fill="#2D2D2D"/>
<path d="M164.112 233C163.632 233 163.188 232.683 163.045 232.196C162.872 231.602 163.21 230.985 163.801 230.811L176.577 227.046C177.164 226.871 177.781 227.211 177.955 227.805C178.128 228.399 177.79 229.016 177.199 229.19L164.423 232.955C164.321 232.987 164.214 233 164.112 233Z" fill="#2D2D2D"/>
<path d="M133.539 239C131.652 239 129.901 237.757 129.336 235.856L128.172 231.883C127.505 229.569 128.836 227.131 131.129 226.443L159.621 218.044C160.19 217.876 160.781 218.203 160.948 218.775C161.115 219.343 160.79 219.94 160.22 220.108L131.733 228.503C130.565 228.855 129.884 230.098 130.222 231.281L131.386 235.246C131.737 236.424 132.974 237.108 134.146 236.764L162.63 228.369C163.199 228.202 163.789 228.528 163.956 229.1C164.123 229.668 163.798 230.266 163.229 230.434L134.741 238.828C134.339 238.944 133.932 239 133.53 239H133.539Z" fill="#2D2D2D"/>
<path d="M159.912 231C159.577 231 159.246 230.851 159.033 230.572L152.208 221.648C151.856 221.183 151.96 220.535 152.448 220.199C152.935 219.863 153.614 219.962 153.967 220.427L160.792 229.352C161.144 229.817 161.04 230.465 160.552 230.801C160.361 230.934 160.134 231 159.912 231Z" fill="#2D2D2D"/>
<path d="M152.865 233C152.515 233 152.17 232.854 151.947 232.575L147.221 226.66C146.849 226.197 146.958 225.543 147.467 225.201C147.971 224.863 148.684 224.959 149.053 225.426L153.779 231.341C154.151 231.804 154.042 232.458 153.533 232.8C153.329 232.937 153.097 233 152.861 233H152.865Z" fill="#2D2D2D"/>
<path d="M145.916 235C145.581 235 145.25 234.854 145.036 234.576L138.209 225.653C137.856 225.191 137.961 224.538 138.444 224.201C138.927 223.86 139.611 223.964 139.964 224.426L146.791 233.349C147.144 233.81 147.039 234.463 146.556 234.8C146.364 234.938 146.138 235 145.916 235Z" fill="#2D2D2D"/>
<path d="M138.916 237C138.581 237 138.25 236.854 138.036 236.576L131.209 227.653C130.856 227.191 130.961 226.538 131.444 226.201C131.927 225.86 132.611 225.964 132.964 226.426L139.791 235.349C140.144 235.81 140.039 236.463 139.556 236.8C139.364 236.938 139.138 237 138.916 237Z" fill="#2D2D2D"/>
<path d="M127.647 169L122.847 154.107C117.765 153.674 113.2 150.338 111.598 145.311C109.975 140.284 111.762 135.029 115.67 131.856L118.471 140.536C119.296 143.071 122.049 144.467 124.66 143.688C125.247 143.504 125.789 143.23 126.235 142.866C127.788 141.68 128.516 139.62 127.88 137.68L125.079 129C130.232 129.433 134.846 132.858 136.399 138.001C137.881 142.934 136.094 148.099 132.256 151.229L138 169H127.647Z" fill="white"/>
<path d="M137.908 169.987H127.636C127.159 169.987 126.734 169.677 126.59 169.222L121.828 154.027C121.648 153.45 121.968 152.839 122.546 152.66C123.123 152.48 123.736 152.799 123.915 153.376L128.437 167.807H136.415L131.141 151.095C131.01 150.676 131.141 150.217 131.483 149.929C135.081 146.91 136.555 142.065 135.247 137.578C134.03 133.44 130.743 130.387 126.638 129.438L128.892 136.617C129.636 138.958 128.835 141.562 126.892 143.091C126.375 143.524 125.727 143.874 124.983 144.114C121.819 145.084 118.453 143.319 117.464 140.186L115.215 133.012C112.448 136.084 111.472 140.387 112.737 144.402C113.534 146.997 115.223 149.239 117.495 150.711C118.003 151.039 118.147 151.716 117.814 152.223C117.482 152.729 116.808 152.874 116.3 152.542C113.6 150.79 111.591 148.129 110.645 145.049C108.947 139.653 110.667 133.807 115.026 130.164C115.306 129.928 115.687 129.849 116.037 129.954C116.387 130.054 116.663 130.325 116.773 130.675L119.552 139.531C120.191 141.554 122.287 142.655 124.327 142.03C124.782 141.886 125.185 141.672 125.509 141.401C126.769 140.409 127.277 138.762 126.804 137.276L124.025 128.416C123.915 128.067 123.985 127.691 124.217 127.407C124.445 127.123 124.804 126.97 125.163 127.005C130.936 127.503 135.715 131.418 137.348 136.971C138.831 142.052 137.3 147.526 133.444 151.122L138.95 168.58C139.055 168.912 138.993 169.275 138.788 169.554C138.582 169.834 138.254 170 137.903 170L137.908 169.987Z" fill="#2D2D2D"/>
<path d="M141.289 168.917H137.669L132.044 150.989C135.824 147.831 137.574 142.626 136.101 137.645C134.58 132.461 130.061 129 125.016 128.564L128.312 127.527C133.358 127.964 137.876 131.424 139.397 136.608C140.848 141.585 139.099 146.794 135.34 149.952L141.285 168.917H141.289Z" fill="#2D2D2D"/>
<path d="M141.289 169.997H137.669C137.198 169.997 136.779 169.691 136.636 169.241L131.012 151.313C130.882 150.899 131.012 150.441 131.349 150.16C134.917 147.179 136.377 142.388 135.06 137.952C133.699 133.321 129.72 130.059 124.916 129.64C124.402 129.597 123.992 129.195 123.936 128.681C123.879 128.167 124.195 127.687 124.683 127.532L127.979 126.495C128.113 126.452 128.256 126.435 128.398 126.448C134.092 126.94 138.814 130.811 140.425 136.301C141.889 141.326 140.377 146.738 136.572 150.294L142.309 168.593C142.412 168.922 142.352 169.28 142.149 169.557C141.946 169.833 141.622 169.997 141.28 169.997H141.289ZM138.464 167.837H139.82L134.317 150.277C133.997 150.644 133.656 150.998 133.293 151.335L138.468 167.837H138.464ZM130.238 128.957C133.526 130.642 136.049 133.619 137.142 137.343C138.179 140.846 137.76 144.54 136.109 147.659C138.576 144.704 139.462 140.678 138.364 136.911C137.202 132.949 134.118 129.99 130.243 128.957H130.238Z" fill="#2D2D2D"/>
<path d="M115.802 131.466L118.545 140.223C119.353 142.781 122.048 144.184 124.606 143.403C125.18 143.217 125.712 142.94 126.148 142.573C124.213 142.457 122.437 141.169 121.837 139.186L119.094 130.43L115.797 131.466H115.802Z" fill="#2D2D2D"/>
<path d="M123.194 144.695C120.662 144.695 118.312 143.07 117.517 140.548L114.774 131.787C114.597 131.216 114.912 130.612 115.482 130.435L118.778 129.398C119.051 129.311 119.349 129.337 119.604 129.471C119.858 129.605 120.049 129.834 120.135 130.106L122.878 138.863C123.327 140.349 124.671 141.403 126.222 141.494C126.662 141.52 127.043 141.813 127.181 142.232C127.319 142.651 127.189 143.114 126.853 143.399C126.317 143.848 125.673 144.198 124.943 144.431C124.364 144.608 123.777 144.695 123.202 144.695H123.194ZM117.158 132.175L119.578 139.904C120.07 141.468 121.444 142.474 122.982 142.543C121.967 141.805 121.185 140.751 120.809 139.502L118.394 131.787L117.158 132.175Z" fill="#2D2D2D"/>
<path d="M157.233 86L146 81.1201L162.441 44.2718C163.3 42.3473 165.58 41.4753 167.532 42.3259L171.695 44.1343C173.648 44.9806 174.532 47.2272 173.669 49.1517L157.233 86Z" fill="white"/>
<path d="M160 49.2571L171.583 54L173.646 49.7915C174.58 47.9002 173.596 45.6708 171.511 44.9359L166.621 43.1991C165.038 42.6438 163.263 43.2868 162.495 44.6687L160 49.2571Z" fill="white"/>
<path d="M157.251 86.9914C157.104 86.9914 156.952 86.9615 156.813 86.9015L145.645 82.0376C145.099 81.7979 144.852 81.1685 145.091 80.629L157.229 53.3594C157.472 52.8199 158.109 52.5716 158.655 52.8114C159.201 53.0512 159.452 53.6805 159.21 54.22L147.509 80.5134L156.692 84.5167L172.601 48.7695C173.212 47.3952 172.579 45.781 171.192 45.1773L167.054 43.3704C165.663 42.7667 164.033 43.3919 163.418 44.762L161.385 49.3518C161.147 49.8913 160.506 50.1397 159.959 49.9042C159.409 49.6687 159.162 49.035 159.4 48.4955L161.433 43.9056C162.529 41.448 165.437 40.3305 167.925 41.4138L172.063 43.2206C174.546 44.2996 175.678 47.1768 174.581 49.6344L158.239 86.362C158.122 86.6232 157.91 86.8245 157.641 86.9272C157.515 86.9743 157.381 87 157.247 87L157.251 86.9914Z" fill="#2D2D2D"/>
<path d="M147.832 93C147.689 93 147.545 92.9701 147.41 92.9102C147.085 92.7648 146.852 92.4611 146.793 92.1061L145.015 81.2467C144.918 80.6651 145.306 80.1133 145.885 80.0149C146.46 79.9166 147.005 80.3143 147.102 80.896L148.618 90.1387L156.366 85.0105C156.856 84.6855 157.51 84.8266 157.827 85.3227C158.148 85.8189 158.009 86.4818 157.519 86.8026L148.415 92.8246C148.242 92.9401 148.039 93 147.837 93H147.832Z" fill="#2D2D2D"/>
<path d="M152 89.9153L147 88L147.96 92L152 89.9113V89.9153Z" fill="#2D2D2D"/>
<path d="M172.936 56C172.791 56 172.647 55.9674 172.511 55.9023L158.635 49.2257C158.099 48.9651 157.853 48.2812 158.091 47.695C158.329 47.1087 158.954 46.8389 159.489 47.0994L173.365 53.776C173.901 54.0366 174.147 54.7205 173.909 55.3068C173.735 55.7441 173.344 56 172.936 56Z" fill="#2D2D2D"/>
<path d="M151.142 84.9957C150.986 84.9957 150.83 84.9659 150.684 84.9062C150.107 84.6676 149.841 84.0411 150.098 83.5041L153.81 75.6366C154.062 75.0996 154.739 74.8524 155.316 75.0911C155.893 75.3297 156.159 75.9562 155.902 76.4932L152.19 84.3607C152.002 84.7613 151.581 85 151.142 85V84.9957Z" fill="#2D2D2D"/>
<path d="M157.135 71C156.981 71 156.827 70.9698 156.677 70.9095C156.106 70.6683 155.843 70.035 156.097 69.4878L164.827 50.6435C165.081 50.1007 165.747 49.8508 166.323 50.0921C166.894 50.3333 167.157 50.9666 166.903 51.5138L158.173 70.3581C157.987 70.763 157.57 71 157.135 71Z" fill="#2D2D2D"/>
<path d="M38 144C37.448 144 37 143.499 37 142.882V131.118C37 130.501 37.448 130 38 130C38.552 130 39 130.501 39 131.118V142.882C39 143.499 38.552 144 38 144Z" fill="#2D2D2D"/>
<path d="M48.9203 132H27.0797C26.4837 132 26 131.552 26 131C26 130.448 26.4837 130 27.0797 130H48.9203C49.5163 130 50 130.448 50 131C50 131.552 49.5163 132 48.9203 132Z" fill="#2D2D2D"/>
<path d="M60.8053 132H55.1947C54.5352 132 54 131.552 54 131C54 130.448 54.5352 130 55.1947 130H60.8053C61.4648 130 62 130.448 62 131C62 131.552 61.4648 132 60.8053 132Z" fill="#2D2D2D"/>
<path d="M48.9556 155H27.0486C26.4698 155 26 154.535 26 153.962V143.038C26 142.465 26.4698 142 27.0486 142C27.6274 142 28.0972 142.465 28.0972 143.038V152.923H48.9514C49.5302 152.923 50 153.388 50 153.962C50 154.535 49.5302 155 48.9514 155H48.9556Z" fill="#2D2D2D"/>
<path d="M48.924 144H30.076C29.4821 144 29 143.552 29 143C29 142.448 29.4821 142 30.076 142H48.924C49.5179 142 50 142.448 50 143C50 143.552 49.5179 144 48.924 144Z" fill="#2D2D2D"/>
<path d="M217.875 127H208.125C207.504 127 207 126.552 207 126C207 125.448 207.504 125 208.125 125H217.875C218.496 125 219 125.448 219 126C219 126.552 218.496 127 217.875 127Z" fill="#2D2D2D"/>
<path d="M230.958 138C230.383 138 229.916 137.535 229.916 136.962V127.077H223.042C222.467 127.077 222 126.612 222 126.038C222 125.465 222.467 125 223.042 125H230.958C231.533 125 232 125.465 232 126.038V136.962C232 137.535 231.533 138 230.958 138Z" fill="#2D2D2D"/>
<path d="M253.874 138H242.126C241.505 138 241 137.552 241 137C241 136.448 241.505 136 242.126 136H253.874C254.495 136 255 136.448 255 137C255 137.552 254.495 138 253.874 138Z" fill="#2D2D2D"/>
<path d="M237.27 138H231.092C230.489 138 230 137.535 230 136.962V126.038C230 125.465 230.489 125 231.092 125H253.908C254.511 125 255 125.465 255 126.038C255 126.612 254.511 127.077 253.908 127.077H232.185V135.923H237.27C237.873 135.923 238.362 136.388 238.362 136.962C238.362 137.535 237.873 138 237.27 138Z" fill="#2D2D2D"/>
<path d="M247.928 115H227.072C226.48 115 226 114.552 226 114C226 113.448 226.48 113 227.072 113H247.928C248.52 113 249 113.448 249 114C249 114.552 248.52 115 247.928 115Z" fill="#2D2D2D"/>
<path d="M241.949 127H224.051C223.471 127 223 126.499 223 125.882C223 125.265 223.471 124.764 224.051 124.764H240.898V114.118C240.898 113.501 241.369 113 241.949 113C242.529 113 243 113.501 243 114.118V125.882C243 126.499 242.529 127 241.949 127Z" fill="#2D2D2D"/>
<path d="M236.95 138H220.05C219.471 138 219 137.552 219 137C219 136.448 219.471 136 220.05 136H236.95C237.529 136 238 136.448 238 137C238 137.552 237.529 138 236.95 138Z" fill="#2D2D2D"/>
<path d="M241.951 149H220.049C219.47 149 219 148.535 219 147.962C219 147.388 219.47 146.923 220.049 146.923H240.903V137.038C240.903 136.465 241.373 136 241.951 136C242.53 136 243 136.465 243 137.038V147.962C243 148.535 242.53 149 241.951 149Z" fill="#2D2D2D"/>
<path d="M242 149C241.448 149 241 148.535 241 147.962V137.038C241 136.465 241.448 136 242 136C242.552 136 243 136.465 243 137.038V147.962C243 148.535 242.552 149 242 149Z" fill="#2D2D2D"/>
<path d="M251.936 138H242.064C241.477 138 241 137.552 241 137C241 136.448 241.477 136 242.064 136H251.936C252.523 136 253 136.448 253 137C253 137.552 252.523 138 251.936 138Z" fill="#2D2D2D"/>
<path d="M264.948 138H258.052C257.471 138 257 137.552 257 137C257 136.448 257.471 136 258.052 136H264.948C265.529 136 266 136.448 266 137C266 137.552 265.529 138 264.948 138Z" fill="#2D2D2D"/>
<path d="M231.092 157C230.489 157 230 156.525 230 155.939V148.061C230 147.475 230.489 147 231.092 147H253.908C254.511 147 255 147.475 255 148.061C255 148.646 254.511 149.121 253.908 149.121H232.185V155.939C232.185 156.525 231.695 157 231.092 157Z" fill="#2D2D2D"/>
<path d="M26.9189 155H21.0811C20.4843 155 20 154.535 20 153.962C20 153.388 20.4843 152.923 21.0811 152.923H25.8378V143.038C25.8378 142.465 26.3222 142 26.9189 142C27.5157 142 28 142.465 28 143.038V153.962C28 154.535 27.5157 155 26.9189 155Z" fill="#2D2D2D"/>
<path d="M37.8967 144H30.1033C29.4943 144 29 143.499 29 142.882C29 142.265 29.4943 141.764 30.1033 141.764H36.7935V131.118C36.7935 130.501 37.2877 130 37.8967 130C38.5057 130 39 130.501 39 131.118V142.882C39 143.499 38.5057 144 37.8967 144Z" fill="#2D2D2D"/>
<path d="M26.8739 144H15.1261C14.5045 144 14 143.552 14 143C14 142.448 14.5045 142 15.1261 142H26.8739C27.4955 142 28 142.448 28 143C28 143.552 27.4955 144 26.8739 144Z" fill="#2D2D2D"/>
<path d="M38 160C37.448 160 37 159.505 37 158.895V154.105C37 153.495 37.448 153 38 153C38.552 153 39 153.495 39 154.105V158.895C39 159.505 38.552 160 38 160Z" fill="#2D2D2D"/>
<path d="M108.474 104C107.991 104 107.503 103.96 107.02 103.871C106.562 103.791 106.207 103.432 106.127 102.971C105.833 101.294 106.053 99.506 106.747 97.9445C106.993 97.3855 107.644 97.1371 108.197 97.3855C108.751 97.6339 108.997 98.2905 108.751 98.8495C108.347 99.7589 108.158 100.775 108.202 101.769C109.955 101.848 111.691 101.179 112.948 99.9053C114.403 98.4546 115.057 96.3607 114.706 94.2979C114.6 93.6945 115.005 93.1222 115.602 93.0158C116.2 92.9137 116.767 93.3174 116.872 93.9208C117.352 96.6979 116.464 99.5238 114.499 101.48C112.895 103.099 110.715 103.991 108.479 103.991L108.474 104Z" fill="#2D2D2D"/>
</svg>
